<svg width="1em" height="1em" viewBox="0 0 48 48" fill="none" xmlns="http://www.w3.org/2000/svg">
    <g clip-path="url(#clip0_310_1785)">
        <path fill-rule="evenodd" clip-rule="evenodd"
            d="M26.7728 19.9138C25.8262 19.4534 24.9652 19.3035 23.9436 19.3035C23.0176 19.3035 22.0496 19.4999 21.1709 19.8794C20.2563 19.5612 18.0654 19.7502 17.5866 19.7609C17.0383 19.7735 14.7699 19.6365 14.2342 19.6365C13.6985 19.6365 12.5908 19.6538 11.7553 19.7111C10.4834 19.7986 9.04534 19.6745 8.87181 19.6313C8.78764 19.6106 8.72522 19.6616 8.72522 19.6616C8.68795 19.7111 8.30176 20.1471 8.30176 20.1471L8.33942 20.2723L9.24876 20.733L9.12435 21.3315L10.0097 21.7306C10.0097 21.7306 10.0097 22.2283 10.0588 22.2907C10.1087 22.3539 10.994 22.5776 10.994 22.5776C10.994 22.5776 11.0822 23.1595 11.1435 23.213C11.2473 23.3053 12.1784 23.4006 12.1784 23.4006C12.1784 23.4006 12.4646 23.9237 12.589 23.9736C12.7138 24.0234 13.711 24.1733 13.8975 24.1231C13.8975 24.1231 13.9802 24.5588 14.1567 24.6374C14.3453 24.7209 15.4304 24.6847 15.4304 24.6847C15.4304 24.6847 15.5652 25.1141 15.7812 25.1813C15.9831 25.2437 16.9261 24.9955 16.9261 24.9955C16.9261 24.9955 17.0638 25.3138 17.2008 25.3696C17.4097 25.4548 18.1714 25.1846 18.1714 25.1846C18.5631 26.7984 19.8679 27.9403 21.4046 28.5374L21.6194 28.9693L22.1245 28.7781L22.3885 29.1831L22.8496 28.9324L23.1639 29.3134L23.5781 29.0136L23.9432 29.3526L24.3069 29.0037L24.7223 29.3075L25.035 28.9272L25.4969 29.1787L25.7616 28.777L26.2689 28.9715L26.4779 28.5392C27.9023 27.9865 29.2211 26.8357 29.6497 25.3766C29.783 25.436 30.0359 25.5224 30.2449 25.5313C30.2449 25.5313 30.483 25.4452 30.5798 25.144C30.5798 25.144 31.4064 25.402 31.5574 25.3559C31.5574 25.3559 31.6962 25.3485 31.8243 24.9258C31.9089 24.9645 31.9791 24.9439 32.1049 24.9712C32.7485 25.1111 33.0291 25.0354 33.0291 25.0354C33.0291 25.0354 33.1731 25.0111 33.2871 24.4691C33.3444 24.4775 33.3854 24.4846 33.4286 24.482C33.4286 24.482 34.3841 24.5093 34.5495 24.4266C34.5495 24.4266 34.7005 24.3886 34.7548 23.8455C35.1487 23.9045 35.5031 23.9304 35.79 23.8975C35.79 23.8975 36.1112 23.7871 36.2349 23.1554C36.4516 23.1418 37.0907 23.0993 37.1701 23.0051C37.1701 23.0051 37.3274 22.9328 37.3274 22.3653C37.5773 22.3491 37.9839 22.2966 38.1304 22.1408C38.1304 22.1408 38.2855 21.9614 38.2183 21.5291C38.8087 21.4054 39.0136 21.213 39.0136 21.213C39.0095 21.004 38.8257 20.6197 38.8257 20.6197C38.8257 20.6197 39.4861 20.3649 39.6468 20.2357L39.6988 20.1401C39.6988 20.1401 39.299 19.6609 39.2369 19.6479C39.0948 19.6184 37.817 19.8034 36.991 19.8034C36.1644 19.8034 34.6746 19.6778 34.0614 19.6778C33.4478 19.6778 31.5319 19.8159 30.6307 19.8159C29.7291 19.8159 29.3795 19.6778 28.716 19.6778C28.3036 19.6778 27.3566 19.7041 26.7728 19.9138Z"
            fill="black" />
        <path
            d="M37.6103 20.8047C37.3962 20.8051 37.1828 20.8058 36.9694 20.8058C36.6046 20.8228 36.2132 20.8125 35.8366 20.8184C35.3408 20.8262 34.1992 20.8354 34.1412 20.8398C33.9045 20.8398 33.6675 20.8398 33.4312 20.8398C33.0284 20.8398 32.6729 20.8383 32.2704 20.8383C32.2021 20.8413 31.7942 20.8524 31.6653 20.8516C31.6077 20.8502 31.5036 20.8431 31.4464 20.8516C31.3511 20.8664 31.1957 21.0669 31.3829 21.0669C31.391 21.065 31.3998 21.0636 31.4087 21.0624C31.4275 21.0599 31.4464 21.0569 31.4656 21.0536C31.518 21.0373 31.5863 21.0569 31.6398 21.061C31.7395 21.068 31.8403 21.0757 31.9404 21.0828C32.2036 21.1008 32.4665 21.1186 32.729 21.137C32.9177 21.1522 33.1071 21.168 33.2957 21.1828C34.6777 21.2699 36.043 21.3936 37.4752 21.3936C37.8063 21.3936 38.1021 21.2485 38.2062 21.2153C38.2505 21.2009 38.3435 21.1906 38.3786 21.1592C38.4525 21.0946 38.3675 20.8601 38.2966 20.8173C38.2483 20.7878 37.6638 20.8018 37.6103 20.8047Z"
            fill="white" />
        <path
            d="M9.81086 20.9099C9.73849 20.9372 9.70674 20.9734 9.69714 21.0535C9.68937 21.1119 9.73368 21.2463 9.87545 21.3197C9.97662 21.3659 10.361 21.5453 10.4599 21.5664C10.5515 21.5859 16.3377 21.2477 16.3469 21.2463C16.4252 21.2104 16.6375 21.1517 16.619 21.0281C16.6139 20.9926 16.5581 20.9575 16.5271 20.945C16.4618 20.9202 15.7488 20.9852 15.6956 20.9856C15.2042 20.9856 9.94377 20.9099 9.81086 20.9099Z"
            fill="white" />
        <path
            d="M30.0905 20.9971C30.0267 20.9956 29.962 21.034 29.9369 21.1031C29.9159 21.1599 29.9089 21.2375 29.958 21.277C30.009 21.3176 30.088 21.329 30.1518 21.3456C30.2548 21.3722 30.3582 21.3988 30.4605 21.4254C30.5794 21.4546 30.6783 21.4712 30.816 21.4848C30.9224 21.4948 31.0147 21.4712 31.0424 21.3859C31.073 21.2869 31.0619 21.2209 30.9848 21.1769C30.9486 21.1566 30.7998 21.1145 30.5827 21.0746C30.3708 21.0359 30.1537 21.0012 30.0905 20.9971Z"
            fill="white" />
        <path
            d="M17.6832 20.9924C17.4812 21.0548 17.2727 21.0855 17.0622 21.1246C16.9799 21.139 16.8713 21.1434 16.8045 21.19C16.7738 21.2114 16.7569 21.2439 16.7484 21.2782C16.741 21.3125 16.7458 21.3531 16.7665 21.3775C16.7971 21.4141 16.9917 21.4986 17.1179 21.4768C17.3181 21.4285 17.4923 21.3646 17.6784 21.3044C17.743 21.2856 17.8272 21.2749 17.8737 21.2236C17.9247 21.1671 17.8911 21.1047 17.8508 21.0563C17.8091 21.0076 17.7441 20.978 17.6832 20.9924Z"
            fill="white" />
        <path
            d="M31.3562 21.3137C31.3322 21.3244 31.3082 21.3314 31.289 21.3514C31.2236 21.4178 31.2077 21.5275 31.3344 21.5275C31.3857 21.512 31.5245 21.533 31.574 21.5408C31.6659 21.5544 31.7575 21.5688 31.8487 21.5832C32.219 21.6416 32.5897 21.6999 32.96 21.7582C33.4071 21.8314 33.8561 21.9059 34.3106 21.9561C34.6296 21.9916 34.9471 22.0477 35.2694 22.0784C35.7664 22.1256 36.2567 22.1954 36.782 22.1954C36.8138 22.1943 36.8459 22.1924 36.8777 22.1913C36.8961 22.1891 36.9153 22.188 36.9342 22.1873C36.9471 22.1851 36.9611 22.1839 36.974 22.1825C36.9881 22.181 37.0025 22.1795 37.0172 22.1777C37.0328 22.1766 37.049 22.1751 37.0649 22.174C37.0785 22.1718 37.0911 22.171 37.1044 22.1695C37.1147 22.1673 37.1247 22.1662 37.1343 22.1647C37.1435 22.1636 37.152 22.1618 37.1612 22.1607C37.1701 22.1592 37.1782 22.1577 37.1867 22.1563C37.1956 22.1548 37.2048 22.1537 37.2133 22.1518C37.2609 22.1396 37.3085 22.1271 37.3554 22.1145C37.5219 22.0636 37.6069 21.9938 37.6648 21.8288C37.6774 21.7915 37.6933 21.739 37.6641 21.7055C37.6379 21.6759 37.5973 21.6707 37.5574 21.6689C37.3484 21.6689 37.1391 21.6682 36.9301 21.6682C36.6451 21.6578 36.3611 21.6471 36.0754 21.6368C35.0194 21.5873 33.9709 21.5028 32.9249 21.4356C32.5705 21.4082 32.2161 21.3809 31.8612 21.3532C31.7147 21.3418 31.5094 21.3137 31.3562 21.3137Z"
            fill="white" />
        <path
            d="M17.9334 21.4592C17.7395 21.4968 17.5671 21.5799 17.3847 21.6412C17.3094 21.6659 17.2127 21.6836 17.1569 21.7449C17.123 21.7822 17.1141 21.8299 17.1263 21.8819C17.134 21.9166 17.1496 21.9687 17.1739 21.996C17.2227 22.0514 17.3515 22.1031 17.4383 22.1031C17.4866 22.1016 17.5612 22.0865 17.5926 22.0739C17.7351 21.9971 17.8769 21.9207 18.0194 21.8439C18.0681 21.8177 18.1309 21.8099 18.1708 21.7686C18.3067 21.6286 18.0489 21.4396 17.9334 21.4592Z"
            fill="white" />
        <path
            d="M29.824 21.5298C29.7428 21.5564 29.5582 21.6568 29.6376 21.7465C29.6689 21.7827 29.7697 21.8167 29.8129 21.8315C29.8665 21.8547 29.8628 21.8614 29.916 21.8846C29.9761 21.9123 30.0352 21.9404 30.095 21.9677C30.2065 22.022 30.266 22.081 30.4063 22.081C30.5717 22.0774 30.6459 22.1028 30.7278 21.9463C30.75 21.9057 30.7352 21.8603 30.7116 21.8296C30.6728 21.779 30.4535 21.6993 30.3583 21.6668C30.1714 21.6033 29.8764 21.5158 29.824 21.5298Z"
            fill="white" />
        <path
            d="M16.4956 21.4851C16.3649 21.4984 15.4098 21.5903 15.062 21.6125C14.8759 21.6276 11.6277 21.8296 11.3445 21.8336C11.292 21.8377 10.6053 21.8303 10.5341 21.8909C10.4971 21.9222 10.5381 22.108 10.5735 22.1419C10.6397 22.2058 10.7604 22.2246 10.8471 22.2486C11.0993 22.3195 11.326 22.4 11.6188 22.4C11.638 22.3985 16.7168 21.7509 16.8091 21.7509C16.8224 21.738 16.8353 21.7288 16.8331 21.7081C16.8291 21.662 16.6514 21.5209 16.6071 21.5006C16.5743 21.4858 16.5363 21.4851 16.4956 21.4851Z"
            fill="white" />
        <path
            d="M31.0564 21.6938C31.0066 21.7127 30.9472 21.7385 30.9597 21.8076C30.9682 21.857 30.9896 21.9357 31.0306 21.9671C31.1007 22.021 31.258 22.042 31.3477 22.0653C31.597 22.1299 31.8473 22.1941 32.0969 22.258C32.4657 22.3529 32.8375 22.4312 33.2126 22.5198C33.6664 22.6276 34.1356 22.7221 34.6031 22.7978C34.8604 22.8388 35.1185 22.8853 35.3836 22.9196C35.5202 22.937 35.6531 22.9621 35.7971 22.9621C35.8107 22.961 35.8233 22.9595 35.8369 22.9576C35.8609 22.9565 35.8868 22.9551 35.9111 22.9536C35.9285 22.9521 35.9455 22.951 35.9636 22.9492C35.9761 22.9477 35.9891 22.9466 36.0023 22.9447C36.0215 22.9436 36.0407 22.9421 36.0588 22.9407C36.0784 22.9388 36.0969 22.9373 36.1157 22.9366C36.1349 22.9344 36.1533 22.9333 36.1725 22.9318C36.1873 22.9303 36.2013 22.9288 36.2158 22.9274C36.229 22.9259 36.2419 22.9244 36.2552 22.9233C36.2682 22.9215 36.2815 22.9204 36.2944 22.9189C36.3073 22.917 36.3202 22.9159 36.3339 22.9141C36.345 22.913 36.3568 22.9115 36.3679 22.91C36.3771 22.9089 36.3856 22.9071 36.3948 22.9056C36.4033 22.9041 36.4122 22.903 36.421 22.9012C36.4299 22.8997 36.4384 22.8986 36.4465 22.8967C36.4557 22.8956 36.4642 22.8938 36.4735 22.8923C36.5248 22.8687 36.5798 22.8698 36.6278 22.8377C36.6928 22.7937 36.8493 22.577 36.7662 22.5083C36.7005 22.4533 36.3439 22.4644 36.2331 22.4555C35.8956 22.4289 35.56 22.388 35.227 22.3558C34.7485 22.3108 34.273 22.2262 33.8019 22.1657C33.2425 22.0937 32.6916 22.0025 32.1415 21.9106C31.886 21.8666 31.6298 21.8234 31.3751 21.7791C31.2639 21.7526 31.1812 21.6938 31.0564 21.6938Z"
            fill="white" />
        <path
            d="M16.4264 22.0223C16.1428 22.0722 15.86 22.1213 15.5765 22.1707C15.1282 22.2527 13.3653 22.5163 12.9307 22.5647C12.6494 22.5961 12.3688 22.6286 12.0808 22.6515C11.554 22.626 11.4609 22.7127 11.5277 22.8534C11.5565 22.914 11.585 22.9941 11.6426 23.0376C11.7131 23.0904 12.2998 23.2093 12.5268 23.2093C12.8 23.2186 14.0114 23.0258 14.2119 22.9764C14.5239 22.8999 16.8997 22.2605 16.9606 22.2202C17.0075 22.1888 16.9691 22.046 16.9108 21.9732C16.8598 21.9101 16.5571 21.9987 16.4264 22.0223Z"
            fill="white" />
        <path
            d="M18.3429 21.96C18.258 21.9641 17.6787 22.3244 17.6374 22.3787C17.609 22.4156 17.6097 22.4603 17.6237 22.5049C17.6348 22.5404 17.6448 22.5773 17.6721 22.6046C17.7356 22.6685 17.8774 22.6704 17.973 22.6704C17.9988 22.6604 18.025 22.65 18.0513 22.6397C18.1022 22.6113 18.1432 22.5681 18.1908 22.5312C18.2887 22.4518 18.3632 22.3957 18.4611 22.3167C18.5109 22.2816 18.6254 22.2528 18.6575 22.1978C18.7398 22.0553 18.4408 21.9578 18.3429 21.96Z"
            fill="white" />
        <path
            d="M29.4481 21.96C29.3517 21.9651 29.1749 22.0246 29.1586 22.1519C29.1542 22.1844 29.1597 22.2177 29.1837 22.2372C29.2269 22.2734 29.5684 22.4455 29.6773 22.5152C29.76 22.5677 29.8239 22.6308 29.9336 22.6308C30.0813 22.626 30.1337 22.5898 30.1699 22.568C30.2338 22.5285 30.3106 22.4311 30.2552 22.355C30.2064 22.2871 30.1027 22.2579 30.0318 22.2254C29.9535 22.1885 29.8756 22.1516 29.797 22.1147C29.7445 22.0884 29.5334 21.96 29.4481 21.96Z"
            fill="white" />
        <path
            d="M30.8642 22.2126C30.8129 22.2352 30.7619 22.2581 30.7106 22.2806C30.6404 22.3086 30.4643 22.3463 30.5064 22.453C30.5407 22.5405 31.3711 22.786 31.6255 22.8769C32.2878 23.1061 32.8546 23.3018 33.5527 23.4558C34.06 23.5676 34.6002 23.6939 35.1617 23.6939C35.1846 23.6928 35.2083 23.6917 35.2304 23.6898C35.247 23.6884 35.2622 23.6869 35.2788 23.6858C35.288 23.6839 35.2961 23.6828 35.305 23.6814C35.3434 23.6618 35.3811 23.6533 35.4172 23.6286C35.4734 23.5883 35.5048 23.5285 35.5483 23.4801C35.5885 23.4358 35.6487 23.4019 35.6727 23.3487C35.6831 23.324 35.6842 23.2918 35.6679 23.2697C35.6491 23.2457 35.6207 23.2387 35.5926 23.2309C35.4638 23.2136 35.3345 23.1962 35.205 23.1785C34.9535 23.1379 34.7024 23.0973 34.4506 23.0567C34.1132 23.0002 33.7743 22.9267 33.4438 22.8547C32.9147 22.7399 32.3953 22.6236 31.8799 22.491C31.6402 22.4279 31.4003 22.3655 31.1607 22.3027C31.1101 22.2869 31.0591 22.2717 31.0082 22.2558C30.9598 22.2385 30.9199 22.2163 30.8642 22.2126Z"
            fill="white" />
        <path
            d="M18.8519 22.3687C18.7655 22.3687 18.5137 22.6256 18.4206 22.7009C18.3763 22.7379 18.2674 22.8331 18.2449 22.8867C18.2024 22.9915 18.2681 23.0476 18.3365 23.0982C18.3992 23.1451 18.5916 23.1152 18.6769 23.0513C18.7392 23.0044 19.1399 22.6456 19.1638 22.6035C19.2798 22.3986 18.9866 22.3687 18.8519 22.3687Z"
            fill="white" />
        <path
            d="M17.2403 22.3699C17.2063 22.3791 17.1713 22.3891 17.1373 22.3987C17.0476 22.4367 14.9637 23.0828 13.9761 23.2929C13.6911 23.3534 13.4027 23.3926 13.1088 23.4358C13.0188 23.4491 12.8279 23.4365 12.7651 23.4897C12.7245 23.5262 12.8445 23.719 12.8788 23.7714C12.966 23.901 13.9879 23.9442 14.4424 23.8242C14.6263 23.7703 17.3326 22.8229 17.388 22.7524C17.4448 22.6796 17.4308 22.4984 17.4231 22.4655C17.4035 22.3821 17.323 22.3699 17.2403 22.3699Z"
            fill="white" />
        <path
            d="M28.9552 22.3831C28.8736 22.4048 28.7474 22.3698 28.6964 22.4462C28.6684 22.4872 28.6625 22.5536 28.6887 22.5939C28.7204 22.6415 29.1616 23.003 29.2141 23.0299C29.2835 23.0654 29.3739 23.0631 29.4607 23.0631C29.5338 23.0617 29.6848 23.0004 29.6667 22.8844C29.6623 22.8538 29.6416 22.8265 29.6183 22.8051C29.5511 22.7441 29.4684 22.705 29.3953 22.6541C29.3329 22.612 29.2628 22.5588 29.2004 22.5167C29.1435 22.4739 29.0937 22.4418 29.0368 22.3989C29.0121 22.3867 28.9855 22.3849 28.9552 22.3831Z"
            fill="white" />
        <path
            d="M28.2973 22.7315C28.2235 22.7495 28.1386 22.7806 28.153 22.8791C28.1545 22.898 28.27 22.9862 28.3139 23.029C28.4133 23.1287 28.4864 23.3015 28.6127 23.3694C28.7005 23.4171 28.8305 23.475 28.9294 23.4245C29.0527 23.3643 29.021 23.2432 29.0007 23.217C28.9102 23.0996 28.7873 23.0095 28.6821 22.9042C28.6311 22.8533 28.5831 22.7795 28.5196 22.7499C28.4587 22.7222 28.3719 22.7315 28.2973 22.7315Z"
            fill="white" />
        <path
            d="M19.3489 22.7474C19.2821 22.7862 19.1994 22.8929 19.1466 22.9498C19.1075 22.9915 19.0695 23.0332 19.0311 23.0742C18.9531 23.1536 18.7903 23.2898 18.9292 23.3873C18.9867 23.4275 19.0824 23.4604 19.1455 23.4419C19.1965 23.4183 19.2445 23.4138 19.2888 23.3762C19.3327 23.3393 19.3622 23.285 19.3918 23.2381C19.4265 23.1857 19.5431 23.0221 19.5723 22.9966C19.6325 22.9435 19.7211 22.9032 19.662 22.7958C19.6358 22.7471 19.4121 22.7112 19.3489 22.7474Z"
            fill="white" />
        <path
            d="M30.3927 22.7532C30.3336 22.7786 30.1272 22.851 30.1309 22.9101C30.1372 22.9957 30.2613 23.0334 30.3366 23.0592C30.3934 23.0792 30.4444 23.1113 30.4968 23.1383C30.6039 23.1951 30.7117 23.2516 30.8184 23.3085C30.9886 23.3941 31.1588 23.4798 31.329 23.5654C31.5756 23.6954 31.827 23.815 32.0837 23.9217C32.3473 24.0314 32.6168 24.1624 32.9077 24.216C33.1547 24.2614 33.4412 24.2481 33.7137 24.2481C33.7355 24.2463 33.7577 24.2451 33.7791 24.2437C33.8156 24.2422 33.8518 24.2407 33.8884 24.2392C33.9076 24.2378 33.926 24.2363 33.9448 24.2352C33.9563 24.233 33.9681 24.2322 33.9799 24.2304C33.9913 24.2289 34.0032 24.2278 34.015 24.2259C34.0235 24.2245 34.0316 24.2234 34.0405 24.2215C34.0663 24.2101 34.0929 24.1983 34.1195 24.1872C34.18 24.1443 34.3222 23.9974 34.2623 23.9217C34.2062 23.8523 33.9688 23.8357 33.8754 23.815C33.6713 23.7703 33.4685 23.7227 33.2696 23.6729C32.5492 23.4927 31.8577 23.2575 31.1688 23.0238C30.9915 22.9588 30.8139 22.8938 30.6367 22.8285C30.5581 22.7993 30.4824 22.7561 30.3927 22.7532Z"
            fill="white" />
        <path
            d="M17.6148 22.9275C17.4797 22.9334 16.9927 23.2148 16.7988 23.2956C16.2554 23.5267 15.6886 23.7228 15.1215 23.9118C14.9713 23.9576 14.8203 24.0038 14.6696 24.0488C14.5755 24.0754 14.4629 24.0905 14.3791 24.137C14.3543 24.15 14.3333 24.1725 14.3292 24.2009C14.3207 24.2515 14.3632 24.291 14.3986 24.3176C14.4418 24.3493 14.4832 24.3863 14.5334 24.4051C14.612 24.4335 14.7036 24.4317 14.7955 24.4361C15.01 24.4461 15.4365 24.5133 15.7148 24.3914C15.9711 24.2799 17.0543 23.7095 17.3401 23.5548C17.4749 23.4791 18.0667 23.2029 18.0586 23.0937C18.0457 22.9212 17.768 22.9275 17.6148 22.9275Z"
            fill="white" />
        <path
            d="M29.8484 23.1064C29.7996 23.1386 29.6704 23.2368 29.687 23.3036C29.7062 23.3778 29.9469 23.4889 29.9865 23.5177C30.3542 23.7939 30.7208 24.0679 31.1044 24.3171C31.3156 24.4537 31.5301 24.5969 31.7649 24.6852C31.9942 24.7712 32.267 24.8011 32.5377 24.8011C32.5532 24.8 32.5694 24.7985 32.5857 24.7974C32.6082 24.7874 32.6311 24.7786 32.654 24.7694C32.7171 24.7302 32.8674 24.6021 32.8216 24.5205C32.8102 24.5009 32.791 24.4869 32.771 24.4777C32.7153 24.4589 32.6595 24.4397 32.6038 24.4205C32.5074 24.3854 32.4107 24.3496 32.3147 24.3149C32.016 24.1949 31.7247 24.0645 31.4348 23.9257C31.0376 23.7348 30.6469 23.5332 30.2637 23.3221C30.1437 23.2538 30.0241 23.1847 29.9048 23.116C29.8949 23.1135 29.8846 23.1109 29.8746 23.1076C29.8654 23.1076 29.8576 23.1068 29.8484 23.1064Z"
            fill="white" />
        <path
            d="M29.2735 23.3591C29.251 23.3706 29.2303 23.382 29.2144 23.4042C29.1864 23.4433 29.1768 23.4965 29.159 23.5412C29.1417 23.5814 29.1236 23.6205 29.1055 23.66C29.1 23.6822 29.0996 23.7088 29.1088 23.7287C29.1317 23.7745 29.1923 23.7756 29.2329 23.7966C29.2676 23.8144 29.2993 23.838 29.3289 23.8653C29.5973 24.1182 29.8498 24.3848 30.1215 24.624C30.2224 24.7138 30.3106 24.8245 30.4254 24.8858C30.5173 24.9356 30.6288 24.9596 30.7326 24.9866C30.8932 25.0276 31.0494 25.0844 31.2303 25.0844C31.296 25.0516 31.4913 24.9914 31.4585 24.8851C31.457 24.881 31.4551 24.8769 31.4529 24.8729C31.4489 24.8666 31.4444 24.8596 31.44 24.8533C31.3739 24.7802 31.2746 24.7429 31.1949 24.6931C31.0453 24.6004 30.9002 24.5029 30.7536 24.4066C30.397 24.1718 30.0592 23.9022 29.7151 23.6442C29.5881 23.5489 29.5017 23.4009 29.3429 23.3639C29.3337 23.3628 29.3255 23.3621 29.3167 23.3602C29.3097 23.3595 29.3026 23.3595 29.2953 23.3595C29.2875 23.3591 29.2812 23.3591 29.2735 23.3591Z"
            fill="white" />
        <path
            d="M18.1952 23.363C18.0977 23.3903 15.8688 24.6116 15.8367 24.6644C15.7831 24.7508 15.9478 24.8849 16.0298 24.9029C16.152 24.9299 16.8273 24.8645 17.12 24.6899C17.2053 24.626 18.2144 23.833 18.2938 23.7669C18.3905 23.6842 18.7058 23.521 18.6707 23.4523C18.6308 23.3744 18.2871 23.3338 18.1952 23.363Z"
            fill="white" />
        <path
            d="M18.8189 23.6727C18.7572 23.665 18.4021 24.1054 17.5558 24.6976C17.4831 24.7478 17.3181 24.8534 17.2819 24.9284C17.2291 25.0746 17.4706 25.1111 17.5592 25.1111C17.5795 25.1093 18.0384 25.0506 18.2514 24.9269C18.3493 24.8697 19.3004 23.9138 19.3299 23.8717C19.3432 23.8529 19.3531 23.7558 19.3491 23.7473C19.2989 23.6712 19.1409 23.7237 19.0519 23.7122C18.9836 23.7026 18.8861 23.683 18.8189 23.6727Z"
            fill="white" />
        <path
            d="M28.6102 23.6772C28.5272 23.7031 28.4467 23.8017 28.484 23.8999C28.5036 23.9527 28.5604 23.9638 28.6003 23.997C28.6376 24.0295 28.6649 24.0664 28.6922 24.1052C28.862 24.34 29.0301 24.5781 29.2121 24.8055C29.2819 24.8919 29.3535 25.002 29.4491 25.0688C29.5728 25.1559 29.8198 25.2419 29.9878 25.2419C30.0479 25.2117 30.1971 25.2061 30.2001 25.1146C30.2001 25.1109 30.2001 25.1064 30.1993 25.1024C30.1894 25.0153 30.0287 24.9015 29.9652 24.8417C29.7131 24.5999 29.4613 24.3581 29.2084 24.1162C29.1559 24.0627 29.1032 24.0095 29.0503 23.9564C29.0016 23.901 28.9606 23.8397 28.9008 23.7921C28.8214 23.7278 28.7214 23.6806 28.6102 23.6772Z"
            fill="white" />
        <path
            d="M18.6116 25.5232C18.5732 25.5365 18.5864 25.6055 18.5972 25.641C18.616 25.703 18.8637 26.1069 18.9734 26.269C19.0675 26.4085 19.1576 26.5518 19.2695 26.6825C19.6922 27.1787 20.2028 27.6192 20.7522 27.9016C20.836 27.9437 21.2931 28.1815 21.3969 28.1719C21.4187 28.17 21.426 28.149 21.422 28.1364C21.415 28.1102 21.3921 28.0947 21.3707 28.0811C21.2669 28.0323 21.1628 27.9832 21.0587 27.9345C20.8796 27.8499 20.7031 27.7477 20.5351 27.6391C20.1412 27.3836 19.7779 27.0812 19.4434 26.7131C19.2905 26.5452 19.1883 26.3713 19.0498 26.1704C18.9191 25.9817 18.7456 25.6358 18.7016 25.5645C18.6787 25.5269 18.6466 25.5025 18.6116 25.5232Z"
            fill="white" />
        <path
            d="M29.1686 25.564C29.1243 25.5876 28.8755 26.0484 28.6613 26.3596C28.4232 26.7044 28.1223 27.0367 27.7896 27.3048C27.5116 27.5293 27.2399 27.6928 26.9305 27.8545C26.7366 27.9487 26.4926 28.0587 26.4468 28.0975C26.3855 28.1481 26.4165 28.1872 26.4882 28.1872C26.5509 28.161 26.8359 28.0417 27.1232 27.8833C27.7276 27.5503 28.3416 26.9998 28.7628 26.4261C28.9441 26.1783 29.1893 25.7157 29.2159 25.6511C29.2365 25.6005 29.2251 25.5695 29.1686 25.564Z"
            fill="white" />
        <path fill-rule="evenodd" clip-rule="evenodd"
            d="M21.5551 20.0552C21.5551 20.0552 21.4935 19.94 21.6279 19.8728C21.7637 19.8052 22.7702 19.4829 23.9602 19.4829C25.2672 19.4829 26.4028 19.9064 26.4689 19.9603C26.559 20.0334 26.477 20.1696 26.3755 20.1493C26.2751 20.1294 25.245 19.6923 23.9738 19.6923C22.7026 19.6923 21.8147 20.0297 21.7364 20.0755C21.6434 20.1294 21.5551 20.0552 21.5551 20.0552Z"
            fill="white" />
        <path
            d="M20.1777 24.1505C20.1777 22.5891 21.8484 21.3235 23.9097 21.3235C25.9713 21.3235 27.6424 22.5891 27.6424 24.1505C27.6424 25.7123 25.9713 26.9779 23.9097 26.9779C21.8484 26.9779 20.1777 25.7123 20.1777 24.1505Z"
            stroke="white" stroke-width="0.2" stroke-miterlimit="3.864" />
        <path
            d="M23.6295 21.8816C23.6003 21.8986 23.5508 21.8879 23.5161 21.8919C23.3651 21.9119 23.2141 21.9307 23.0679 21.9584C22.6444 22.037 22.2368 22.2024 21.892 22.4391C21.8044 22.4993 21.7044 22.5683 21.6346 22.6543C21.6328 22.658 21.6306 22.6614 21.6276 22.6654C21.6025 22.7071 21.5582 22.7389 21.5412 22.7847C21.5346 22.8031 21.5283 22.8316 21.5353 22.8522C21.5589 22.9198 21.6848 23.0361 21.7476 23.0734C21.7786 23.0922 21.8314 23.128 21.8362 23.1672C21.8428 23.227 21.8296 23.2842 21.8259 23.337C21.8251 23.4083 21.8251 23.4795 21.8251 23.5508V24.6008V25.0188C21.824 25.08 21.8226 25.1402 21.8207 25.2011C21.8126 25.2314 21.6922 25.3473 21.6638 25.3798C21.6261 25.423 21.6066 25.4773 21.5755 25.5231C21.5752 25.5268 21.5733 25.5301 21.5718 25.5334C21.59 25.5504 21.5866 25.5833 21.5992 25.6039C21.6357 25.6641 21.6966 25.7276 21.7546 25.7723C22.2268 26.1411 22.9368 26.3446 23.5682 26.3952C23.8178 26.4147 24.0743 26.3963 24.3273 26.3963C24.3487 26.3745 24.5056 26.3745 24.5488 26.3745C24.5691 26.3545 24.6791 26.3531 24.7145 26.3531C24.7352 26.3305 24.8043 26.3305 24.8368 26.3305C24.8493 26.3176 24.8733 26.3176 24.8936 26.3176C24.9139 26.2962 24.9619 26.2962 24.9933 26.2962C25.0081 26.2796 25.0483 26.2744 25.0719 26.2744C25.0864 26.2589 25.1233 26.2523 25.1458 26.2523C25.1602 26.2364 25.2015 26.2309 25.2241 26.2309C25.2466 26.2061 25.3123 26.1873 25.3466 26.1873C25.3636 26.1637 25.3943 26.16 25.4183 26.1489C25.4792 26.1194 25.5397 26.0898 25.5999 26.0603C25.8107 25.9359 26.0001 25.7679 26.1116 25.5482C26.1338 25.5057 26.1659 25.4644 26.1659 25.4112C26.1833 25.3939 26.1873 25.3599 26.1873 25.3329C26.2128 25.3078 26.2091 25.2499 26.2091 25.2111C26.2372 25.1794 26.2228 25.0823 26.222 25.0368C26.2157 24.6052 25.8801 24.1899 25.5058 24.0296C25.4987 24.0267 25.4814 24.026 25.4814 24.0167C25.5087 23.9979 25.546 23.9599 25.5822 23.9599C25.6099 23.9185 25.7007 23.8831 25.7428 23.8469C25.831 23.7727 26.0437 23.563 26.0437 23.4507C26.0585 23.4367 26.0651 23.4157 26.0651 23.3939C26.0828 23.3773 26.0873 23.3448 26.0873 23.3193C26.1183 23.2868 26.1091 23.203 26.1091 23.1539C26.1367 23.124 26.1175 23.0531 26.1116 23.0188C26.074 22.8131 25.9909 22.6411 25.8495 22.4897C25.8174 22.4553 25.7816 22.4299 25.7498 22.3974C25.6498 22.2936 25.5183 22.2272 25.3957 22.1659C25.0516 21.9938 24.6522 21.9019 24.2353 21.8823C24.0326 21.882 23.831 21.8816 23.6295 21.8816Z"
            fill="white" />
        <path
            d="M23.8429 22.2566C24.0788 22.2566 24.3118 22.2769 24.4934 22.3836C24.7755 22.549 24.8593 22.8905 24.8176 23.2154C24.7917 23.4093 24.7271 23.5964 24.5805 23.7249C24.4373 23.8501 24.2516 23.8807 24.057 23.9058C23.6262 23.9612 23.1801 23.8113 23.0576 23.3974C23.0277 23.2974 23.0044 23.1874 23.0029 23.0759C23.0055 23.0209 23.0085 22.9651 23.0111 22.9105C23.0295 22.8902 23.0325 22.8388 23.0325 22.81C23.0472 22.7953 23.055 22.7665 23.055 22.7447C23.0668 22.734 23.076 22.714 23.076 22.6967C23.0845 22.6889 23.0893 22.6786 23.0893 22.666C23.113 22.6476 23.155 22.5833 23.155 22.5527C23.189 22.5335 23.2082 22.4958 23.2359 22.4696C23.3105 22.3998 23.45 22.3134 23.5556 22.3134C23.566 22.3016 23.5829 22.3005 23.5992 22.3005C23.6217 22.2762 23.6863 22.2784 23.7214 22.2784C23.7476 22.2499 23.8108 22.2743 23.8429 22.2566Z"
            fill="black" />
        <path
            d="M23.7864 24.248C24.0759 24.248 24.331 24.2521 24.5606 24.3581C25.0506 24.5844 25.096 25.3992 24.7571 25.7729C24.5115 26.0461 23.9828 26.0941 23.6195 25.9985C23.5365 25.9759 23.453 25.9582 23.3792 25.9165C23.2813 25.86 23.2042 25.7876 23.1373 25.6953C23.0428 25.565 22.9886 25.3778 22.9804 25.2065C22.976 25.1101 22.9886 25.0145 22.9886 24.923C23.0066 24.9052 23.0103 24.8639 23.0103 24.8362C23.0262 24.8203 23.0317 24.7897 23.0317 24.7664C23.0462 24.7546 23.0543 24.7332 23.0543 24.714C23.0701 24.7003 23.0886 24.6671 23.0886 24.6438C23.1274 24.6147 23.1528 24.5563 23.1805 24.5176C23.2123 24.4733 23.3371 24.3703 23.3895 24.3703C23.4076 24.347 23.4552 24.3259 23.4855 24.3259C23.4992 24.3101 23.5331 24.3045 23.5549 24.3045C23.5719 24.2857 23.6155 24.2828 23.6424 24.2828C23.6742 24.2488 23.751 24.2783 23.7864 24.248Z"
            fill="black" />
        <path
            d="M27.2581 20.139C27.3135 20.1227 27.3674 20.1353 27.4043 20.1752C27.4394 20.2136 27.4294 20.2782 27.3844 20.3033C27.3478 20.3236 27.2991 20.3254 27.2581 20.3361C27.1529 20.3635 26.7914 20.4163 26.7715 20.5418C26.7608 20.6142 26.8564 20.698 26.8929 20.7238C26.9428 20.7674 26.8564 20.6854 26.9062 20.729C26.979 20.7929 27.1411 20.9047 27.0536 21.0195C27.0322 21.0472 26.9971 21.0602 26.9609 21.0565C26.7885 21.0391 26.5533 20.6969 26.533 20.6404C26.5082 20.5702 26.5182 20.4982 26.5581 20.4403C26.6928 20.2472 27.051 20.2099 27.2581 20.139Z"
            fill="black" />
        <path
            d="M30.1339 20.6959C30.1247 20.8424 30.5445 20.8125 30.6468 20.8218C30.7985 20.8354 31.0939 20.9447 31.1504 20.8941C31.2187 20.8332 31.2914 20.5445 31.1688 20.5389C30.9909 20.5316 30.9237 20.5515 30.7254 20.5666C30.5216 20.5792 30.1432 20.553 30.1339 20.6959Z"
            fill="white" />
        <path
            d="M17.7073 20.7466C17.7132 20.8478 17.2838 20.8467 17.1819 20.8559C17.0306 20.8696 16.788 20.9737 16.7064 20.8836C16.6447 20.8161 16.5657 20.6189 16.689 20.6137C16.8662 20.606 16.9914 20.6182 17.1889 20.6333C17.3939 20.6459 17.6981 20.6001 17.7073 20.7466Z"
            fill="white" />
        <path
            d="M20.9597 20.1091C21.1606 20.1593 21.2754 20.1538 21.3913 20.3428C21.4497 20.4366 21.4533 20.5869 21.3555 20.7168C21.2924 20.8018 21.2684 20.8283 21.199 20.9129C21.1281 20.9985 21.1196 21.0565 20.9996 21.0739C20.9597 21.0798 20.9254 21.0702 20.9032 21.038C20.8239 20.9232 20.9926 20.784 21.0816 20.6836C21.1155 20.6452 21.1923 20.5311 21.1798 20.4835C21.1561 20.3266 20.9679 20.3292 20.8431 20.2904C20.7973 20.2756 20.6695 20.252 20.6293 20.2265C20.5809 20.1959 20.5953 20.1368 20.6241 20.0929C20.6466 20.0585 20.7633 20.063 20.9597 20.1091Z"
            fill="black" />
        <path
            d="M29.8137 20.646C29.8569 20.657 29.9116 20.6581 29.9201 20.7109C29.9297 20.7767 29.8798 20.8391 29.7466 20.8538C29.6539 20.8442 29.4667 20.6788 29.3939 20.8247C29.3316 20.948 29.724 20.9971 29.7063 21.1193C29.6923 21.2216 29.655 21.2382 29.5645 21.2382C29.5235 21.2404 29.4268 21.1813 29.3939 21.1691C29.3039 21.1274 29.0905 20.9579 29.01 21.0938C28.9306 21.2282 29.4726 21.4106 29.4582 21.5154C29.4438 21.6148 29.3441 21.693 29.2688 21.6672C29.1647 21.6421 28.8313 21.2507 28.6799 21.4043C28.5403 21.5461 29.0978 21.7946 29.0702 21.881C29.0229 22.0261 28.8959 22.0693 28.719 21.9223C28.6267 21.8455 28.4813 21.7026 28.3982 21.8145C28.2959 21.9526 28.5905 22.1265 28.6164 22.1726C28.681 22.2889 28.5326 22.4233 28.4347 22.4012C28.3439 22.389 28.2099 22.0464 28.0829 22.1641C27.9854 22.2539 28.2236 22.4676 28.1988 22.5529C28.1888 22.6323 27.9869 22.7368 27.8931 22.6633C27.7643 22.5777 28.0681 22.1324 27.7698 21.7126C27.6254 21.5343 27.508 21.2574 27.4999 21.2086C27.4885 21.1233 27.4947 20.9768 27.5494 20.9037C27.7584 20.6234 28.7065 20.6423 29.1115 20.6234C29.3829 20.6105 29.5357 20.646 29.8137 20.646Z"
            fill="white" />
        <path
            d="M17.9637 20.6873C17.9091 20.6873 17.8618 20.6991 17.8537 20.7537C17.8434 20.8209 17.8533 20.9276 17.967 20.9306C18.1011 20.9328 18.2646 20.7545 18.3429 20.8671C18.4315 20.9941 17.9737 21.0705 18.0468 21.2248C18.141 21.422 18.3267 21.2414 18.3606 21.2293C18.4529 21.1861 18.7409 20.9295 18.858 21.0986C18.9617 21.2473 18.4887 21.4633 18.4315 21.5342C18.4153 21.5549 18.3817 21.6664 18.3946 21.6937C18.498 21.9234 18.759 21.7033 18.934 21.5117C18.999 21.4404 19.0463 21.4013 19.1112 21.3843C19.2009 21.3611 19.2792 21.3788 19.3032 21.4593C19.3176 21.5051 19.304 21.559 19.2703 21.5903C19.2338 21.6254 18.8262 21.9197 18.8399 22.0075C18.8679 22.1859 18.9757 22.2095 19.0547 22.1715C19.1396 22.1338 19.3782 21.7288 19.5188 21.7823C19.5561 21.7967 19.6026 21.803 19.6174 21.8388C19.6381 21.8879 19.63 21.9566 19.5989 21.9979C19.5595 22.0511 19.4849 22.1209 19.4347 22.1652C19.3918 22.2029 19.3442 22.2475 19.3187 22.2944C19.2523 22.4137 19.3508 22.4683 19.4598 22.4683C19.4982 22.4683 19.5188 22.4469 19.5454 22.424C19.6119 22.3675 19.6809 22.1157 19.8157 22.1829C19.9567 22.2538 19.6957 22.4532 19.7215 22.5946C19.7599 22.7013 19.9294 22.7231 19.9763 22.6437C20.028 22.5171 19.9973 22.3217 20.0494 22.1017C20.1 21.9045 20.2417 21.6029 20.31 21.484C20.3536 21.4139 20.4064 21.3588 20.4264 21.275C20.4278 21.2691 20.4289 21.2636 20.43 21.2577C20.4415 21.1694 20.3857 21.0967 20.3259 21.0428C20.2277 20.9531 20.0952 20.8981 19.9722 20.8571C19.6097 20.7364 19.2216 20.7253 18.8059 20.7061C18.5264 20.6924 18.2488 20.6873 17.9637 20.6873Z"
            fill="white" />
        <path
            d="M27.7352 22.9458C27.7861 22.8428 28.0176 22.9558 28.039 22.9754C28.1029 23.0315 28.1247 23.1234 28.1719 23.1906C28.2299 23.2733 28.3805 23.4483 28.3721 23.5421C28.365 23.6182 28.0723 23.8452 28.0084 23.7917C28.0065 23.7898 28.0051 23.7873 28.0021 23.785C27.9589 23.5022 27.8655 23.2305 27.7285 22.9761C27.7285 22.965 27.7315 22.9547 27.7352 22.9458Z"
            fill="white" />
        <path
            d="M28.0519 23.9343C28.1324 23.9343 28.2697 23.9657 28.3254 24.0148C28.3716 24.0551 28.3949 24.1156 28.4277 24.1655L28.5976 24.4051L28.9919 24.9349L29.1724 25.1678C29.206 25.2251 29.1968 25.2675 29.147 25.307L29.1163 25.3111C28.9328 25.3111 28.6478 25.2428 28.523 25.1328C28.4606 25.0774 28.4274 25.0117 28.3875 24.9456L28.1948 24.5893C28.1637 24.5361 28.053 24.3733 28.0334 24.3153C28.0312 24.3087 28.0283 24.2998 28.026 24.2895C28.029 24.2434 28.0301 24.1972 28.0301 24.1503C28.0301 24.0887 28.0279 24.027 28.0234 23.9657C28.0301 23.948 28.0393 23.9362 28.0519 23.9343Z"
            fill="white" />
        <path
            d="M19.3681 24.1123C19.4737 23.966 19.6111 23.8453 19.7392 23.8649C19.7687 23.866 19.7901 23.8771 19.8042 23.8937C19.7946 23.9782 19.7901 24.0643 19.7901 24.1506L19.7913 24.1905L19.7879 24.1994C19.7517 24.329 19.7384 24.2991 19.651 24.4685C19.518 24.7251 19.3729 25.0921 19.2873 25.1316C19.1625 25.1892 18.9723 25.1822 18.835 25.2166C18.6386 25.2664 18.499 25.2154 18.499 25.1239C18.4998 25.0065 19.2895 24.2311 19.3681 24.1123Z"
            fill="white" />
        <path
            d="M19.4197 25.3243C19.5353 25.3354 19.5718 25.4894 19.7081 25.5219C19.7945 25.5425 19.8945 25.496 19.9625 25.4569C20.0064 25.4314 20.0677 25.3812 20.126 25.3875C20.5174 26.0735 21.2244 26.6321 22.1087 26.9581C22.1105 26.9618 22.112 26.9651 22.1138 26.9688C22.1209 27.0031 22.1109 27.0316 22.0991 27.046C22.0525 27.0991 21.6025 27.8073 21.5105 27.8294C21.4301 27.8579 21.121 27.66 21.0099 27.5994C20.4232 27.2819 19.8683 26.8566 19.4389 26.3035C19.3031 26.1296 18.9194 25.6832 18.9239 25.499C18.9276 25.369 19.3518 25.3214 19.4197 25.3243Z"
            fill="white" />
        <path
            d="M28.4341 25.4295C28.4828 25.4099 28.8332 25.5395 28.8391 25.6255C28.8358 25.6964 28.6213 25.9969 28.3809 26.3193C27.9597 26.8849 27.4372 27.2678 26.8535 27.593C26.728 27.6628 26.5947 27.7263 26.4618 27.7813L26.3492 27.8256C26.3141 27.8256 26.2823 27.8164 26.2602 27.7928C26.2151 27.7463 25.7599 27.0676 25.7385 27.0385C25.7211 27.0152 25.7259 26.9753 25.7422 26.9477C26.5718 26.6342 27.2426 26.1162 27.6388 25.4804C27.7056 25.462 27.8227 25.5624 27.8736 25.5875C27.9622 25.6311 28.0741 25.675 28.1834 25.6447C28.2978 25.6133 28.3444 25.4705 28.4341 25.4295Z"
            fill="white" />
        <path
            d="M24.5275 27.2368C24.5736 27.2641 24.5976 27.3162 24.615 27.3513C24.6501 27.4229 24.7612 28.0686 24.8192 28.3208C24.8369 28.4046 24.8601 28.5342 24.8465 28.6225C24.8347 28.6996 24.7453 28.8074 24.6523 28.82C24.5751 28.8314 24.4208 28.7148 24.3946 28.6564C24.3606 28.5793 24.3661 28.4847 24.358 28.3947C24.3377 28.1229 24.2979 27.4683 24.2979 27.3982C24.2979 27.3568 24.3115 27.2929 24.3547 27.2534C24.4127 27.2486 24.4703 27.2435 24.5275 27.2368Z"
            fill="white" />
        <path
            d="M25.0601 27.1482C25.0849 27.17 25.1033 27.1969 25.1181 27.2165C25.1668 27.283 25.3943 27.9154 25.4972 28.1609C25.5309 28.2418 25.5774 28.3692 25.5789 28.4604C25.5807 28.5408 25.5098 28.6656 25.4186 28.6944C25.3418 28.7199 25.1657 28.6302 25.1292 28.5752C25.0804 28.5036 25.0693 28.4072 25.0446 28.3171C24.9759 28.0461 24.8186 27.3919 24.8061 27.3214C24.8002 27.2878 24.8006 27.2383 24.8198 27.1951C24.9013 27.1814 24.9807 27.1655 25.0601 27.1482Z"
            fill="white" />
        <path
            d="M25.5456 27.0159C25.5773 27.0354 25.6024 27.0631 25.6224 27.0838C25.6785 27.1436 25.9816 27.7439 26.1138 27.9747C26.1563 28.0511 26.2187 28.1715 26.232 28.2619C26.2426 28.3413 26.1877 28.4735 26.1005 28.5141C26.0278 28.5481 25.8417 28.4805 25.7985 28.4307C25.7416 28.3653 25.7191 28.2712 25.6837 28.1848C25.5821 27.9241 25.3466 27.2939 25.3255 27.2252C25.3141 27.1887 25.3086 27.1307 25.33 27.0812C25.4027 27.0609 25.4751 27.0395 25.5456 27.0159Z"
            fill="white" />
        <path
            d="M23.9949 27.2708C24.037 27.3043 24.054 27.3583 24.0673 27.3944C24.0935 27.4705 24.1256 28.1251 24.1514 28.3828C24.1592 28.4674 24.1669 28.5995 24.1426 28.6848C24.1208 28.7601 24.0196 28.8561 23.9259 28.8576C23.8476 28.8587 23.708 28.7251 23.6899 28.6638C23.6648 28.5829 23.6829 28.4899 23.6851 28.3987C23.6984 28.1269 23.7376 27.4723 23.7464 27.4033C23.7512 27.3634 23.7712 27.3051 23.8147 27.2708C23.8472 27.2715 23.879 27.2715 23.91 27.2715C23.9384 27.2715 23.9668 27.2715 23.9949 27.2708Z"
            fill="white" />
        <path
            d="M23.5028 27.2565C23.5367 27.2953 23.5449 27.3503 23.5515 27.3868C23.5659 27.4662 23.495 28.1171 23.481 28.3763C23.4747 28.4609 23.4618 28.5927 23.4245 28.6731C23.3909 28.744 23.2761 28.823 23.1838 28.8098C23.1055 28.799 22.99 28.6443 22.9811 28.5812C22.9693 28.497 23.001 28.4084 23.0173 28.3191C23.073 28.0525 23.2148 27.4119 23.234 27.3451C23.2432 27.3119 23.2665 27.2676 23.303 27.238C23.3691 27.2451 23.436 27.2513 23.5028 27.2565Z"
            fill="white" />
        <path
            d="M23.006 27.196C23.0477 27.2428 23.0458 27.31 23.0466 27.3536C23.0466 27.4341 22.8638 28.0629 22.8044 28.315C22.7837 28.3981 22.7483 28.5251 22.6973 28.5986C22.6523 28.6621 22.5256 28.72 22.437 28.6909C22.3624 28.6665 22.2742 28.4948 22.2764 28.4306C22.2794 28.346 22.3262 28.2641 22.3587 28.1788C22.4592 27.9259 22.7099 27.32 22.7405 27.2572C22.7564 27.2262 22.7867 27.1856 22.8291 27.1624C22.8867 27.1753 22.9462 27.186 23.006 27.196Z"
            fill="white" />
        <path
            d="M22.5203 27.0893C22.5498 27.141 22.5376 27.2031 22.5317 27.244C22.5199 27.323 22.2408 27.9164 22.1426 28.1563C22.1093 28.235 22.054 28.355 21.9927 28.4189C21.938 28.4753 21.8033 28.5123 21.7202 28.4698C21.6508 28.434 21.591 28.2505 21.6031 28.1874C21.619 28.1047 21.6781 28.0308 21.7235 27.9518C21.8623 27.7177 22.2046 27.1587 22.2448 27.1011C22.2615 27.0775 22.2891 27.0491 22.3238 27.0317C22.3885 27.0524 22.4545 27.0712 22.5203 27.0893Z"
            fill="white" />
        <path
            d="M19.8937 22.9226C19.962 22.9056 20.0979 22.8535 20.123 22.9204C19.9775 23.1755 19.8767 23.448 19.8265 23.7326C19.7737 23.7633 19.6408 23.6861 19.5046 23.6289C19.3203 23.5502 19.595 23.3941 19.6906 23.253C19.7423 23.1766 19.828 22.975 19.8937 22.9226Z"
            fill="white" />
        <path
            d="M19.8096 24.4657C19.8469 24.7364 19.9278 24.9959 20.0489 25.2411C20.0219 25.2909 19.7505 25.3939 19.604 25.2702C19.5213 25.168 19.7158 24.4539 19.8096 24.4657Z"
            fill="white" />
        <path
            d="M38.5693 19.8376C38.6362 19.8376 38.6952 19.8376 38.7477 19.8646C38.82 19.9015 39.0338 20.1134 39.0316 20.1987C39.0301 20.2441 38.7632 20.3276 38.6432 20.373C38.5538 20.4132 38.3526 20.4937 38.3183 20.5048C38.2958 20.5129 38.1359 20.5144 38.1093 20.5137C38.0731 20.5148 37.8239 20.5174 37.7194 20.5174C37.6773 20.5188 36.9182 20.5388 36.6602 20.5388C36.3733 20.5388 36.0916 20.5454 35.8058 20.5454C35.7419 20.5454 35.4155 20.5506 35.3964 20.5528H34.1717H33.9062L33.8018 20.5569L33.7364 20.5609H32.9478C32.888 20.5609 32.4892 20.5727 32.3112 20.5831C32.0657 20.6034 31.7039 20.634 31.688 20.6351C31.64 20.6351 31.544 20.6532 31.5297 20.5997C31.5145 20.5425 31.633 20.5155 31.6703 20.5085C32.1093 20.4221 32.5498 20.3169 33.0467 20.2549C33.8734 20.1511 34.2714 20.1386 34.4061 20.0987C34.4844 20.0747 34.4685 19.9728 34.4061 19.965C33.5197 19.8605 31.537 20.2493 31.2524 20.3084C30.7237 20.4225 30.3319 20.4509 30.2016 20.452H28.9688C28.2832 20.4509 27.9863 20.5262 27.9395 20.5354C27.8069 20.5657 27.6818 20.6074 27.564 20.6684C27.3144 20.7965 27.1556 20.9545 27.2609 21.2543C27.2981 21.3189 27.3336 21.4079 27.3698 21.4725C27.4547 21.6412 27.564 21.8491 27.6522 22.0141C27.7161 22.1315 27.7556 22.2788 27.7556 22.4262L27.7202 22.6093C27.7179 22.6407 27.6412 22.7758 27.6009 22.7518C27.5968 22.7489 27.5898 22.7411 27.5806 22.7308C27.5322 22.6599 27.4809 22.5901 27.4263 22.5225C27.4086 22.4978 27.3945 22.4779 27.3882 22.4705C27.3244 22.387 27.509 22.2729 27.492 22.167C27.4573 21.9569 27.1486 21.5548 26.9168 21.3632C26.7809 21.251 26.655 21.1022 26.5343 20.9648C26.4844 20.8965 26.4287 20.84 26.3781 20.7725C26.3338 20.7127 26.3131 20.6754 26.295 20.6023C26.2599 20.4564 26.3474 20.3678 26.4416 20.2929C26.4977 20.2482 26.604 20.1817 26.6908 20.1463C26.9249 20.0499 27.4739 19.9525 27.7988 19.91C27.9066 19.8993 28.1702 19.8679 28.3674 19.8639C28.5874 19.8639 28.7971 19.8705 29.0031 19.8864C29.4048 19.9178 29.7973 19.9927 30.2149 19.9986C30.8226 20.0082 31.4074 19.9702 31.9971 19.9418C32.2599 19.9292 32.5372 19.9119 32.8185 19.8882C33.2502 19.8513 34.566 19.8679 34.7602 19.8801C34.8558 19.8856 35.7272 19.9215 36.1676 19.9554C36.2655 19.9628 36.3449 19.972 36.408 19.9831C36.6014 19.9791 36.7934 19.9875 36.9829 19.9761C37.3369 19.9536 37.6921 19.9144 38.0417 19.8864L38.5693 19.8376Z"
            fill="white" />
        <path
            d="M14.1971 19.8033C14.7591 19.8033 15.256 19.8505 15.7988 19.8767C16.0775 19.8893 16.3474 19.8952 16.6261 19.9081C16.9071 19.9214 17.1955 19.9428 17.4812 19.9428C17.9937 19.9428 18.4766 19.9096 18.9754 19.8863L19.359 19.8852C19.5983 19.8812 19.8626 19.8712 20.1045 19.8945C20.2551 19.9085 20.4072 19.9096 20.553 19.9266C20.7513 19.9495 21.0939 19.9901 21.2379 20.0551C21.3708 20.1141 21.4676 20.2039 21.5185 20.2604C21.6164 20.3682 21.7622 20.5365 21.6806 20.6635C21.647 20.7274 21.5536 20.8204 21.5049 20.8766C21.4399 20.9493 20.9322 21.3709 20.806 21.5504C20.6915 21.7102 20.6583 21.8306 20.5877 21.9561C20.4914 22.1175 20.5973 22.2375 20.5619 22.332C20.457 22.4435 20.3607 22.5598 20.2747 22.6816C20.2558 22.692 20.2392 22.6953 20.2259 22.6857C20.1388 22.6248 20.1558 22.4944 20.1768 22.3253C20.186 22.198 20.2883 21.9347 20.3256 21.8668C20.3972 21.7316 20.6284 21.4481 20.6468 21.3968C20.7949 20.9818 20.3825 20.7252 20.069 20.6229C19.9649 20.5889 19.8608 20.5502 19.7515 20.5302C19.3476 20.4571 18.9149 20.4653 18.4792 20.4516C18.1798 20.4424 17.8641 20.4306 17.5591 20.4306L16.9008 20.4291C16.6908 20.4125 16.4781 20.4003 16.282 20.3538C15.9461 20.274 15.6644 20.2009 15.3284 20.1267C15.0426 20.0639 14.734 20.0093 14.4286 19.9901C14.2208 19.9772 13.8589 19.9543 13.6433 19.9543C13.4846 19.9543 12.3086 19.9421 12.1347 19.9905C12.0745 20.0023 12.0841 20.1156 12.1248 20.1256C12.3507 20.1902 13.1896 20.2087 13.7456 20.1895C14.0723 20.2053 14.4375 20.246 14.7465 20.2903C15.1464 20.3471 15.5156 20.4199 15.8863 20.5373L16.282 20.6406C16.3474 20.6609 16.4327 20.7045 16.3433 20.7658C16.0986 20.7658 15.8722 20.7182 15.6241 20.7145C14.9994 20.7145 14.0982 20.6957 13.4716 20.6957C13.4063 20.6916 10.3688 20.6591 10.0062 20.6384C9.60272 20.6152 9.23903 20.4217 9.10316 20.3549C9.05148 20.332 8.89936 20.2138 8.90861 20.1906C8.93776 20.1156 9.10316 19.8332 9.23277 19.8228C9.50746 19.8487 9.84601 19.8852 10.1292 19.8978C10.1292 19.8978 12.158 19.8753 12.2178 19.8708C12.5235 19.8468 13.2498 19.8155 13.5636 19.8099C13.7375 19.807 14.0317 19.7959 14.1971 19.8033Z"
            fill="white" />
        <path
            d="M28.0403 24.6061C28.1341 24.5943 28.3294 25.4032 28.2053 25.4645C28.0798 25.5313 27.7811 25.3781 27.7464 25.3375C27.7398 25.3305 27.7361 25.322 27.7354 25.3131C27.8494 25.0982 27.9325 24.8723 27.9809 24.6371C27.9971 24.6205 28.0156 24.6113 28.0403 24.6061Z"
            fill="white" />
        <path
            d="M23.9807 19.866C22.9646 19.866 21.8751 20.1532 21.8345 20.2152C21.7403 20.3633 21.9427 20.3574 21.9375 20.563C21.9312 20.8148 21.7355 20.9836 21.6676 21.0563C21.4088 21.331 21.0787 21.4709 20.8506 21.7777C20.8332 21.8006 20.8162 21.904 20.8395 21.9357C20.8996 22.0162 21.0411 21.9273 21.075 21.9003C21.555 21.5248 22.0054 21.3742 22.5496 21.2051C22.6848 21.1626 23.3704 21.0194 24.255 21.0574C25.037 21.091 25.7581 21.2955 26.3857 21.664C26.6364 21.811 26.8601 21.9937 27.0979 22.1912C27.1843 22.264 27.2519 22.1576 27.2548 22.1181C27.2581 22.0724 27.2209 22.0077 27.1972 21.9693C27.0167 21.6677 26.6183 21.3952 26.3422 21.0711C26.2055 20.9105 26.1372 20.8525 26.0859 20.7606C25.9172 20.4752 26.1753 20.4589 26.1428 20.3282C26.1177 20.2241 25.1167 19.866 23.9807 19.866Z"
            fill="white" />
    </g>
    <defs>
        <clipPath id="clip0_310_1785">
            <rect width="32" height="10.6562" fill="white" transform="translate(8 19)" />
        </clipPath>
    </defs>
</svg>