<svg width="1em" height="1em" viewBox="0 0 48 48" fill="none" xmlns="http://www.w3.org/2000/svg">
    <g clip-path="url(#clip0_310_1846)">
        <path fill-rule="evenodd" clip-rule="evenodd"
            d="M8 23.8674C8 19.5224 15.1634 16 24 16C32.8366 16 40 19.5224 40 23.8674C40 28.2125 32.8366 31.7349 24 31.7349C15.1634 31.7349 8 28.2125 8 23.8674Z"
            fill="#DB1C30" />
        <path fill-rule="evenodd" clip-rule="evenodd"
            d="M25.0912 30.4682C24.8552 30.4682 24.664 30.6595 24.664 30.8954C24.664 31.1314 24.8552 31.3227 25.0912 31.3227C25.3273 31.3227 25.5186 31.1314 25.5186 30.8954C25.5186 30.6595 25.3273 30.4682 25.0912 30.4682ZM24.0006 30.4682C23.7647 30.4682 23.5734 30.6595 23.5734 30.8954C23.5734 31.1314 23.7647 31.3227 24.0006 31.3227C24.2366 31.3227 24.4279 31.1314 24.4279 30.8954C24.4279 30.6595 24.2366 30.4682 24.0006 30.4682ZM22.8945 30.4682C22.6586 30.4682 22.4673 30.6595 22.4673 30.8954C22.4673 31.1314 22.6586 31.3227 22.8945 31.3227C23.1305 31.3227 23.3219 31.1314 23.3219 30.8954C23.3219 30.6595 23.1305 30.4682 22.8945 30.4682ZM26.1819 30.4071C25.9459 30.4071 25.7547 30.5984 25.7547 30.8343C25.7547 31.0703 25.9459 31.2616 26.1819 31.2616C26.4179 31.2616 26.6091 31.0703 26.6091 30.8343C26.6091 30.5984 26.4179 30.4071 26.1819 30.4071ZM21.804 30.4071C21.568 30.4071 21.3767 30.5984 21.3767 30.8343C21.3767 31.0703 21.568 31.2616 21.804 31.2616C22.0399 31.2616 22.2312 31.0703 22.2312 30.8343C22.2312 30.5984 22.0399 30.4071 21.804 30.4071ZM27.2936 30.2984C27.0576 30.2984 26.8663 30.4897 26.8663 30.7256C26.8663 30.9616 27.0576 31.1529 27.2936 31.1529C27.5295 31.1529 27.7208 30.9616 27.7208 30.7256C27.7208 30.4897 27.5295 30.2984 27.2936 30.2984ZM20.6923 30.2984C20.4564 30.2984 20.2651 30.4897 20.2651 30.7256C20.2651 30.9616 20.4564 31.1529 20.6923 31.1529C20.9283 31.1529 21.1196 30.9616 21.1196 30.7256C21.1196 30.4897 20.9283 30.2984 20.6923 30.2984ZM28.4456 30.1699C28.2097 30.1699 28.0184 30.3612 28.0184 30.5972C28.0184 30.8331 28.2097 31.0244 28.4456 31.0244C28.6816 31.0244 28.8729 30.8331 28.8729 30.5972C28.8729 30.3612 28.6816 30.1699 28.4456 30.1699ZM19.5403 30.1699C19.3043 30.1699 19.113 30.3612 19.113 30.5972C19.113 30.8331 19.3043 31.0244 19.5403 31.0244C19.7762 31.0244 19.9675 30.8331 19.9675 30.5972C19.9675 30.3612 19.7762 30.1699 19.5403 30.1699ZM29.5977 29.9798C29.3618 29.9798 29.1705 30.1711 29.1705 30.4071C29.1705 30.643 29.3618 30.8343 29.5977 30.8343C29.8337 30.8343 30.025 30.643 30.025 30.4071C30.025 30.1711 29.8337 29.9798 29.5977 29.9798ZM18.3882 29.9798C18.1522 29.9798 17.961 30.1711 17.961 30.4071C17.961 30.643 18.1522 30.8343 18.3882 30.8343C18.6242 30.8343 18.8155 30.643 18.8155 30.4071C18.8155 30.1711 18.6242 29.9798 18.3882 29.9798ZM30.7469 29.7278C30.5108 29.7278 30.3195 29.9191 30.3195 30.1551C30.3195 30.391 30.5108 30.5823 30.7469 30.5823C30.9828 30.5823 31.1741 30.391 31.1741 30.1551C31.1741 29.9191 30.9828 29.7278 30.7469 29.7278ZM17.2391 29.7278C17.0031 29.7278 16.8118 29.9191 16.8118 30.1551C16.8118 30.391 17.0031 30.5823 17.2391 30.5823C17.475 30.5823 17.6663 30.391 17.6663 30.1551C17.6663 29.9191 17.475 29.7278 17.2391 29.7278ZM31.9309 29.4439C31.6948 29.4439 31.5035 29.6352 31.5035 29.8711C31.5035 30.1071 31.6948 30.2984 31.9309 30.2984C32.1669 30.2984 32.3581 30.1071 32.3581 29.8711C32.3581 29.6352 32.1669 29.4439 31.9309 29.4439ZM16.055 29.4439C15.8191 29.4439 15.6278 29.6352 15.6278 29.8711C15.6278 30.1071 15.8191 30.2984 16.055 30.2984C16.291 30.2984 16.4823 30.1071 16.4823 29.8711C16.4823 29.6352 16.291 29.4439 16.055 29.4439ZM33.0423 29.0882C32.8063 29.0882 32.615 29.2795 32.615 29.5155C32.615 29.7514 32.8063 29.9427 33.0423 29.9427C33.2782 29.9427 33.4695 29.7514 33.4695 29.5155C33.4695 29.2795 33.2782 29.0882 33.0423 29.0882ZM14.9436 29.0882C14.7077 29.0882 14.5164 29.2795 14.5164 29.5155C14.5164 29.7514 14.7077 29.9427 14.9436 29.9427C15.1796 29.9427 15.3709 29.7514 15.3709 29.5155C15.3709 29.2795 15.1796 29.0882 14.9436 29.0882ZM34.1956 28.6401C33.9596 28.6401 33.7683 28.8313 33.7683 29.0673C33.7683 29.3033 33.9596 29.4945 34.1956 29.4945C34.4315 29.4945 34.6228 29.3033 34.6228 29.0673C34.6228 28.8313 34.4315 28.6401 34.1956 28.6401ZM13.7903 28.6401C13.5543 28.6401 13.363 28.8313 13.363 29.0673C13.363 29.3033 13.5543 29.4945 13.7903 29.4945C14.0262 29.4945 14.2175 29.3033 14.2175 29.0673C14.2175 28.8313 14.0262 28.6401 13.7903 28.6401ZM35.3141 28.1142C35.0781 28.1142 34.8869 28.3055 34.8869 28.5414C34.8869 28.7774 35.0781 28.9687 35.3141 28.9687C35.5502 28.9687 35.7415 28.7774 35.7415 28.5414C35.7415 28.3055 35.5502 28.1142 35.3141 28.1142ZM12.6717 28.1142C12.4357 28.1142 12.2444 28.3055 12.2444 28.5414C12.2444 28.7774 12.4357 28.9687 12.6717 28.9687C12.9077 28.9687 13.099 28.7774 13.099 28.5414C13.099 28.3055 12.9077 28.1142 12.6717 28.1142ZM36.4228 27.4661C36.1869 27.4661 35.9956 27.6574 35.9956 27.8933C35.9956 28.1293 36.1869 28.3206 36.4228 28.3206C36.6588 28.3206 36.8501 28.1293 36.8501 27.8933C36.8501 27.6574 36.6588 27.4661 36.4228 27.4661ZM11.563 27.4661C11.3271 27.4661 11.1358 27.6574 11.1358 27.8933C11.1358 28.1293 11.3271 28.3206 11.563 28.3206C11.799 28.3206 11.9903 28.1293 11.9903 27.8933C11.9903 27.6574 11.799 27.4661 11.563 27.4661ZM37.4775 26.6748C37.2415 26.6748 37.0502 26.8661 37.0502 27.102C37.0502 27.338 37.2415 27.5293 37.4775 27.5293C37.7134 27.5293 37.9047 27.338 37.9047 27.102C37.9047 26.8661 37.7134 26.6748 37.4775 26.6748ZM10.5083 26.6748C10.2724 26.6748 10.0811 26.8661 10.0811 27.102C10.0811 27.338 10.2724 27.5293 10.5083 27.5293C10.7443 27.5293 10.9356 27.338 10.9356 27.102C10.9356 26.8661 10.7443 26.6748 10.5083 26.6748ZM38.3735 25.6861C38.1375 25.6861 37.9462 25.8774 37.9462 26.1133C37.9462 26.3493 38.1375 26.5406 38.3735 26.5406C38.6094 26.5406 38.8007 26.3493 38.8007 26.1133C38.8007 25.8774 38.6094 25.6861 38.3735 25.6861ZM9.6124 25.6861C9.37644 25.6861 9.18515 25.8774 9.18515 26.1133C9.18515 26.3493 9.37644 26.5406 9.6124 26.5406C9.84837 26.5406 10.0397 26.3493 10.0397 26.1133C10.0397 25.8774 9.84837 25.6861 9.6124 25.6861ZM38.9325 24.6239C38.6965 24.6239 38.5052 24.8152 38.5052 25.0512C38.5052 25.2871 38.6965 25.4784 38.9325 25.4784C39.1686 25.4784 39.3598 25.2871 39.3598 25.0512C39.3598 24.8152 39.1686 24.6239 38.9325 24.6239ZM9.05337 24.6239C8.8174 24.6239 8.62611 24.8152 8.62611 25.0512C8.62611 25.2871 8.8174 25.4784 9.05337 25.4784C9.28933 25.4784 9.48062 25.2871 9.48062 25.0512C9.48062 24.8152 9.28933 24.6239 9.05337 24.6239ZM39.1651 23.4403C38.9291 23.4403 38.7379 23.6315 38.7379 23.8675C38.7379 24.1035 38.9291 24.2947 39.1651 24.2947C39.4011 24.2947 39.5923 24.1035 39.5923 23.8675C39.5923 23.6315 39.4011 23.4403 39.1651 23.4403ZM8.82082 23.4403C8.58486 23.4403 8.39357 23.6315 8.39357 23.8675C8.39357 24.1035 8.58486 24.2947 8.82082 24.2947C9.05679 24.2947 9.24808 24.1035 9.24808 23.8675C9.24808 23.6315 9.05679 23.4403 8.82082 23.4403ZM38.9325 22.2566C38.6965 22.2566 38.5052 22.4479 38.5052 22.6838C38.5052 22.9198 38.6965 23.111 38.9325 23.111C39.1686 23.111 39.3598 22.9198 39.3598 22.6838C39.3598 22.4479 39.1686 22.2566 38.9325 22.2566ZM9.05336 22.2566C8.81739 22.2566 8.6261 22.4479 8.6261 22.6838C8.6261 22.9198 8.81739 23.111 9.05336 23.111C9.28932 23.111 9.48061 22.9198 9.48061 22.6838C9.48061 22.4479 9.28932 22.2566 9.05336 22.2566ZM38.3735 21.1944C38.1375 21.1944 37.9462 21.3857 37.9462 21.6217C37.9462 21.8576 38.1375 22.0489 38.3735 22.0489C38.6094 22.0489 38.8007 21.8576 38.8007 21.6217C38.8007 21.3857 38.6094 21.1944 38.3735 21.1944ZM9.61241 21.1944C9.37646 21.1944 9.18517 21.3857 9.18517 21.6217C9.18517 21.8576 9.37646 22.0489 9.61241 22.0489C9.84838 22.0489 10.0397 21.8576 10.0397 21.6217C10.0397 21.3857 9.84838 21.1944 9.61241 21.1944ZM37.4775 20.2057C37.2415 20.2057 37.0502 20.397 37.0502 20.6329C37.0502 20.8689 37.2415 21.0602 37.4775 21.0602C37.7134 21.0602 37.9047 20.8689 37.9047 20.6329C37.9047 20.397 37.7134 20.2057 37.4775 20.2057ZM10.5084 20.2057C10.2724 20.2057 10.0811 20.397 10.0811 20.6329C10.0811 20.8689 10.2724 21.0602 10.5084 21.0602C10.7443 21.0602 10.9356 20.8689 10.9356 20.6329C10.9356 20.397 10.7443 20.2057 10.5084 20.2057ZM36.4228 19.4144C36.1869 19.4144 35.9956 19.6057 35.9956 19.8417C35.9956 20.0776 36.1869 20.2689 36.4228 20.2689C36.6588 20.2689 36.8501 20.0776 36.8501 19.8417C36.8501 19.6057 36.6588 19.4144 36.4228 19.4144ZM11.563 19.4144C11.3271 19.4144 11.1358 19.6057 11.1358 19.8417C11.1358 20.0776 11.3271 20.2689 11.563 20.2689C11.799 20.2689 11.9903 20.0776 11.9903 19.8417C11.9903 19.6057 11.799 19.4144 11.563 19.4144ZM35.3141 18.7663C35.0781 18.7663 34.8869 18.9576 34.8869 19.1935C34.8869 19.4295 35.0781 19.6207 35.3141 19.6207C35.5502 19.6207 35.7415 19.4295 35.7415 19.1935C35.7415 18.9576 35.5502 18.7663 35.3141 18.7663ZM12.6717 18.7663C12.4357 18.7663 12.2445 18.9576 12.2445 19.1935C12.2445 19.4295 12.4357 19.6207 12.6717 19.6207C12.9077 19.6207 13.099 19.4295 13.099 19.1935C13.099 18.9576 12.9077 18.7663 12.6717 18.7663ZM34.1956 18.2405C33.9596 18.2405 33.7683 18.4318 33.7683 18.6677C33.7683 18.9037 33.9596 19.095 34.1956 19.095C34.4315 19.095 34.6228 18.9037 34.6228 18.6677C34.6228 18.4318 34.4315 18.2405 34.1956 18.2405ZM13.7903 18.2405C13.5543 18.2405 13.363 18.4318 13.363 18.6677C13.363 18.9037 13.5543 19.095 13.7903 19.095C14.0263 19.095 14.2175 18.9037 14.2175 18.6677C14.2175 18.4318 14.0263 18.2405 13.7903 18.2405ZM33.0423 17.7923C32.8063 17.7923 32.615 17.9836 32.615 18.2195C32.615 18.4555 32.8063 18.6468 33.0423 18.6468C33.2782 18.6468 33.4695 18.4555 33.4695 18.2195C33.4695 17.9836 33.2782 17.7923 33.0423 17.7923ZM14.9436 17.7923C14.7077 17.7923 14.5164 17.9836 14.5164 18.2195C14.5164 18.4555 14.7077 18.6468 14.9436 18.6468C15.1796 18.6468 15.3709 18.4555 15.3709 18.2195C15.3709 17.9836 15.1796 17.7923 14.9436 17.7923ZM23.9929 17.6023C16.0449 17.6023 9.60182 20.4073 9.60182 23.8675C9.60182 27.3277 16.0449 30.1327 23.9929 30.1327C31.941 30.1327 38.3841 27.3277 38.3841 23.8675C38.3841 20.4073 31.941 17.6023 23.9929 17.6023ZM31.9309 17.4366C31.6948 17.4366 31.5035 17.6279 31.5035 17.8639C31.5035 18.0998 31.6948 18.2911 31.9309 18.2911C32.1669 18.2911 32.3581 18.0998 32.3581 17.8639C32.3581 17.6279 32.1669 17.4366 31.9309 17.4366ZM16.055 17.4366C15.8191 17.4366 15.6278 17.6279 15.6278 17.8639C15.6278 18.0998 15.8191 18.2911 16.055 18.2911C16.291 18.2911 16.4823 18.0998 16.4823 17.8639C16.4823 17.6279 16.291 17.4366 16.055 17.4366ZM30.7469 17.1526C30.5108 17.1526 30.3195 17.3439 30.3195 17.5799C30.3195 17.8158 30.5108 18.0071 30.7469 18.0071C30.9828 18.0071 31.1741 17.8158 31.1741 17.5799C31.1741 17.3439 30.9828 17.1526 30.7469 17.1526ZM17.2391 17.1526C17.0031 17.1526 16.8118 17.3439 16.8118 17.5799C16.8118 17.8158 17.0031 18.0071 17.2391 18.0071C17.475 18.0071 17.6663 17.8158 17.6663 17.5799C17.6663 17.3439 17.475 17.1526 17.2391 17.1526ZM29.5977 16.9007C29.3618 16.9007 29.1705 17.0919 29.1705 17.3279C29.1705 17.5639 29.3618 17.7551 29.5977 17.7551C29.8337 17.7551 30.025 17.5639 30.025 17.3279C30.025 17.0919 29.8337 16.9007 29.5977 16.9007ZM18.3882 16.9007C18.1523 16.9007 17.961 17.0919 17.961 17.3279C17.961 17.5639 18.1523 17.7551 18.3882 17.7551C18.6242 17.7551 18.8155 17.5639 18.8155 17.3279C18.8155 17.0919 18.6242 16.9007 18.3882 16.9007ZM28.4456 16.7106C28.2097 16.7106 28.0184 16.9018 28.0184 17.1378C28.0184 17.3737 28.2097 17.565 28.4456 17.565C28.6816 17.565 28.8729 17.3737 28.8729 17.1378C28.8729 16.9018 28.6816 16.7106 28.4456 16.7106ZM19.5403 16.7106C19.3043 16.7106 19.113 16.9018 19.113 17.1378C19.113 17.3737 19.3043 17.565 19.5403 17.565C19.7762 17.565 19.9675 17.3737 19.9675 17.1378C19.9675 16.9018 19.7762 16.7106 19.5403 16.7106ZM27.2936 16.5822C27.0576 16.5822 26.8663 16.7735 26.8663 17.0094C26.8663 17.2454 27.0576 17.4366 27.2936 17.4366C27.5295 17.4366 27.7208 17.2454 27.7208 17.0094C27.7208 16.7735 27.5295 16.5822 27.2936 16.5822ZM20.6923 16.5822C20.4564 16.5822 20.2651 16.7734 20.2651 17.0094C20.2651 17.2454 20.4564 17.4366 20.6923 17.4366C20.9283 17.4366 21.1196 17.2454 21.1196 17.0094C21.1196 16.7734 20.9283 16.5822 20.6923 16.5822ZM26.1819 16.4734C25.9459 16.4734 25.7547 16.6647 25.7547 16.9007C25.7547 17.1366 25.9459 17.3279 26.1819 17.3279C26.4179 17.3279 26.6091 17.1366 26.6091 16.9007C26.6091 16.6647 26.4179 16.4734 26.1819 16.4734ZM21.804 16.4734C21.568 16.4734 21.3767 16.6647 21.3767 16.9007C21.3767 17.1366 21.568 17.3279 21.804 17.3279C22.0399 17.3279 22.2312 17.1366 22.2312 16.9007C22.2312 16.6647 22.0399 16.4734 21.804 16.4734ZM25.0912 16.4124C24.8552 16.4124 24.664 16.6037 24.664 16.8396C24.664 17.0756 24.8552 17.2669 25.0912 17.2669C25.3273 17.2669 25.5186 17.0756 25.5186 16.8396C25.5186 16.6037 25.3273 16.4124 25.0912 16.4124ZM24.0006 16.4124C23.7647 16.4124 23.5734 16.6037 23.5734 16.8396C23.5734 17.0756 23.7647 17.2669 24.0006 17.2669C24.2366 17.2669 24.4279 17.0756 24.4279 16.8396C24.4279 16.6037 24.2366 16.4124 24.0006 16.4124ZM22.8945 16.4124C22.6586 16.4124 22.4673 16.6037 22.4673 16.8396C22.4673 17.0756 22.6586 17.2668 22.8945 17.2668C23.1306 17.2668 23.3219 17.0756 23.3219 16.8396C23.3219 16.6037 23.1306 16.4124 22.8945 16.4124ZM23.9929 16.0796C32.7819 16.0796 39.9068 19.5664 39.9068 23.8675C39.9068 28.1687 32.7819 31.6554 23.9929 31.6554C15.204 31.6554 8.0791 28.1687 8.0791 23.8675C8.0791 19.5664 15.204 16.0796 23.9929 16.0796Z"
            fill="white" />
        <path fill-rule="evenodd" clip-rule="evenodd"
            d="M25.996 24.1015L25.7423 24.9938H26.2662L25.996 24.1015ZM25.2103 21.6604H26.1211L26.6876 22.2271L28.0434 27.1086H27.1539L26.5875 26.5419L26.5196 26.3013H25.4231L25.2282 27.1086H24.4209L23.8545 26.5419L25.2103 21.6604Z"
            fill="black" />
        <path fill-rule="evenodd" clip-rule="evenodd"
            d="M20.9596 21.6604H22.7095C22.8802 21.6699 22.9783 21.6976 23.1555 21.8309L23.706 22.3939C23.773 22.4948 23.8142 22.705 23.8411 22.8843L23.8012 23.536H22.9268L22.3628 22.9734L21.8106 22.9729C21.8058 23.8913 21.801 24.8096 21.7962 25.7279H22.1344C22.259 25.7279 22.36 25.627 22.36 25.5025V24.4988H22.005V23.8332L23.3673 23.8332L23.8146 24.3069C23.8146 24.9949 23.8012 25.6299 23.8012 26.318C23.8012 26.681 23.3341 27.108 22.9707 27.108H21.5265C21.3479 27.1169 21.1706 27.0257 21.0717 26.935L20.4421 26.2993C20.3751 26.1984 20.3 26.0254 20.3018 25.8841V22.3177C20.3018 21.9547 20.5963 21.6604 20.9596 21.6604Z"
            fill="black" />
        <path fill-rule="evenodd" clip-rule="evenodd"
            d="M30.8662 21.6604H34.1537L34.4188 22.0298V23.0363H33.5784C33.58 24.3937 33.5817 25.7512 33.5833 27.1086H32.578L32.0073 26.5419V23.0363H31.3335L30.8662 22.6669V21.6604Z"
            fill="black" />
        <path fill-rule="evenodd" clip-rule="evenodd"
            d="M16.0859 21.6604H17.136L17.7022 22.2271L17.702 25.7283H17.9602C18.0846 25.7283 18.1855 25.6274 18.1855 25.503V23.2875V21.6604H19.1917L19.7579 22.2271V26.4513C19.7579 26.8143 19.4636 27.1086 19.1007 27.1086H17.3093C17.1239 27.1001 17.0064 27.0293 16.869 26.9256L16.2214 26.2884C16.1545 26.1874 16.1085 26.0536 16.0859 25.8846V25.2744V23.2875V21.6604Z"
            fill="black" />
        <path fill-rule="evenodd" clip-rule="evenodd"
            d="M34.6709 21.6604H35.6803L36.2484 22.2271V27.1086H35.2389L34.6709 26.5419V21.6604Z" fill="black" />
        <path fill-rule="evenodd" clip-rule="evenodd"
            d="M27.1553 21.6604H30.4428L30.7079 22.0298V23.0363H29.8675C29.8692 24.3937 29.8546 25.7512 29.8563 27.1086H28.8674L28.2963 26.5419V23.0363H27.6225L27.1553 22.6669V21.6604Z"
            fill="black" />
        <path fill-rule="evenodd" clip-rule="evenodd"
            d="M13.3194 24.9273V25.7283H13.6569C13.8905 25.7283 14.0798 25.5384 14.0798 25.3041V24.9273H13.3194ZM13.3194 23.0407V23.547H13.5882C13.7714 23.547 13.92 23.398 13.92 23.2142V23.0407H13.3194ZM11.751 21.6604L14.3055 21.6604C14.4595 21.6783 14.5512 21.7081 14.723 21.806C14.8871 21.9192 15.2085 22.2587 15.3361 22.4322C15.399 22.5274 15.463 22.6022 15.4884 22.847V23.9006C15.4884 24.1573 15.3327 24.3776 15.1109 24.4717C15.4214 24.7194 15.6443 24.8901 15.6482 25.4124V26.2167C15.6482 26.7093 15.25 27.1086 14.7588 27.1086H12.3157L11.751 26.5419V21.6604Z"
            fill="black" />
        <path fill-rule="evenodd" clip-rule="evenodd"
            d="M16.0859 21.6604H17.1347L17.1345 25.5003C17.1345 25.6247 17.2352 25.7255 17.3595 25.7255H17.9579C18.0822 25.7255 18.1829 25.6247 18.1829 25.5003V23.2864V21.6604H19.1878V25.8817C19.1878 26.2445 18.894 26.5386 18.5315 26.5386H16.7423C16.3798 26.5386 16.0859 26.2445 16.0859 25.8817V25.272V23.2864V21.6604Z"
            fill="white" />
        <path fill-rule="evenodd" clip-rule="evenodd"
            d="M20.9589 21.6604H22.7068C23.0697 21.6604 23.3639 21.9545 23.3639 22.3173V22.9686H22.3576V22.6987C22.3576 22.5743 22.2569 22.4735 22.1324 22.4735H21.5332C21.4088 22.4735 21.3079 22.5743 21.3079 22.6987V25.5003C21.3079 25.6247 21.4088 25.7255 21.5332 25.7255H22.1324C22.2569 25.7255 22.3576 25.6247 22.3576 25.5003V24.4972H22.003V23.8319H23.2422H23.3639V25.8817C23.3639 26.2445 23.0697 26.5386 22.7068 26.5386H20.9589C20.596 26.5386 20.3018 26.2445 20.3018 25.8817V22.3173C20.3018 21.9545 20.596 21.6604 20.9589 21.6604Z"
            fill="white" />
        <path d="M35.6784 21.6604H34.6709V26.5386H35.6784V21.6604Z" fill="white" />
        <path fill-rule="evenodd" clip-rule="evenodd"
            d="M30.8662 21.6604H34.1537V22.6662H33.0126V26.5386H32.0073V22.6662H30.8662V21.6604Z" fill="white" />
        <path fill-rule="evenodd" clip-rule="evenodd"
            d="M27.1553 21.6604H30.4428V22.6662H29.3017V26.5386H28.2963V22.6662H27.1553V21.6604Z" fill="white" />
        <path fill-rule="evenodd" clip-rule="evenodd"
            d="M25.6639 23.2735L25.2119 24.8765H26.116L25.6639 23.2735ZM25.209 21.6604H26.1189L27.4734 26.5386H26.5848L26.3572 25.7318H24.9706L24.743 26.5386H23.8545L25.209 21.6604Z"
            fill="white" />
        <path fill-rule="evenodd" clip-rule="evenodd"
            d="M12.753 24.3587V25.7255H13.6539C13.8871 25.7255 14.0762 25.5357 14.0762 25.3016V24.7826C14.0762 24.5485 13.8871 24.3587 13.6539 24.3587H12.753ZM12.753 22.4735V23.5457H13.5853C13.7682 23.5457 13.9165 23.3968 13.9165 23.2132V22.806C13.9165 22.6224 13.7682 22.4735 13.5853 22.4735H12.753ZM11.751 21.6604C12.6011 21.6604 13.4513 21.6604 14.3015 21.6604C14.6423 21.6604 14.9186 21.9377 14.9186 22.2799V23.3328C14.9186 23.6749 14.6423 23.9522 14.3015 23.9522L14.3692 23.9703C14.7738 24.0534 15.0782 24.4128 15.0782 24.8436V25.6473C15.0782 26.1395 14.6806 26.5386 14.1902 26.5386C13.3771 26.5386 12.564 26.5386 11.751 26.5386V21.6604Z"
            fill="white" />
        <path fill-rule="evenodd" clip-rule="evenodd"
            d="M24.2497 19.7516V20.3438H24.8426C25.0065 20.3438 25.1393 20.2112 25.1393 20.0477C25.1393 19.8841 25.0065 19.7516 24.8426 19.7516H24.2497ZM24.9321 18.8651L24.2497 18.8666V19.271H24.9321C25.0465 19.271 25.1393 19.1708 25.1393 19.0641C25.1393 18.9575 25.0465 18.8651 24.9321 18.8651ZM22.1709 18.386H25.1914C25.5432 18.386 25.8284 18.6706 25.8284 19.0217C25.8284 19.1972 25.7572 19.3561 25.6419 19.4712L25.5342 19.5436L25.6193 19.6009C25.7484 19.7298 25.8411 19.845 25.8284 20.1047C25.8284 20.4983 25.5088 20.8251 25.1144 20.8251L22.1709 20.8243V19.9959H22.6007V20.3438H23.6324V19.7515H23.2688V19.9242H22.8391V19.0958H23.2688V19.271H23.6324V18.8666H22.6007V19.2144H22.1709V18.386Z"
            fill="black" />
    </g>
    <defs>
        <clipPath id="clip0_310_1846">
            <rect width="32" height="15.7349" fill="white" transform="translate(8 16)" />
        </clipPath>
    </defs>
</svg>