<svg width="1em" height="1em" viewBox="0 0 48 48" fill="none" xmlns="http://www.w3.org/2000/svg">
    <path
        d="M22.234 7.76522C18.0807 8.43855 14.6607 10.9586 12.8607 14.6986C10.9407 18.6719 11.2674 23.3519 13.7274 27.0052C16.4807 31.1119 21.4007 33.1986 26.2674 32.3386C28.9407 31.8652 31.6007 30.3719 33.374 28.3452C35.2007 26.2652 36.2474 23.7919 36.474 21.0119C36.654 18.9186 36.234 16.6852 35.3074 14.7652C34.6674 13.4319 34.0407 12.5186 33.0674 11.5052C31.274 9.63855 29.1007 8.42522 26.574 7.89189C25.8807 7.74522 25.5607 7.71189 24.3007 7.69189C23.2407 7.67855 22.6674 7.69855 22.234 7.76522ZM25.034 8.99855C27.5807 9.23855 29.8674 10.2652 31.6474 11.9586C32.7474 13.0052 33.4207 13.9119 34.034 15.1652C35.2874 17.7119 35.5274 20.5186 34.734 23.2452C33.574 27.2252 30.174 30.2719 26.034 31.0386C25.5274 31.1386 25.054 31.1652 24.034 31.1652C22.534 31.1652 22.0207 31.0852 20.7407 30.6919C14.8474 28.8586 11.594 22.5786 13.4807 16.6652C14.0407 14.9119 15.014 13.3719 16.4007 12.0452C18.7274 9.81189 21.8807 8.70522 25.034 8.99855Z"
        fill="black" />
    <path
        d="M26.1336 13.532V14.3987H23.7003H21.2669V15.232V16.0653L18.8536 16.0787L16.4336 16.0987V19.632C16.4336 23.0787 16.4403 23.1853 16.5869 23.892C16.8003 24.872 17.1203 25.792 17.6403 26.8587C18.2936 28.212 19.2136 29.7053 19.3469 29.6253C19.5136 29.5187 20.3869 28.0787 20.8669 27.0987C21.4003 26.012 21.7136 25.2053 21.8669 24.512C21.9136 24.3053 21.9736 24.132 21.9936 24.132C22.0136 24.132 22.0869 24.272 22.1603 24.452C22.4003 25.052 23.1936 26.532 23.6669 27.2653L24.1469 27.9987L24.3269 27.752C25.2736 26.4187 26.1603 24.6653 26.5669 23.2987C26.8803 22.252 26.8403 22.332 26.9403 22.5987C27.1336 23.132 27.8403 24.4653 28.3803 25.332C28.7003 25.8453 28.9803 26.2653 29.0003 26.2653C29.0203 26.2653 29.2336 25.9587 29.4736 25.5787C30.5603 23.912 31.3069 22.232 31.6869 20.632C31.8136 20.0653 31.8269 19.812 31.8469 16.3453L31.8736 12.6653H29.0069H26.1336V13.532ZM30.9336 16.6587C30.9336 20.0587 30.9136 20.2653 30.4936 21.4787C30.3603 21.852 30.1336 22.3987 29.9869 22.692C29.6403 23.392 29.0736 24.332 29.0003 24.332C28.8203 24.332 27.7936 22.3787 27.4803 21.432C27.0603 20.1853 27.0536 20.112 27.0203 16.712L26.9869 13.5987H28.9603H30.9336V16.6587ZM26.1003 18.3653C26.1003 21.0787 26.0869 21.4987 25.9803 21.9987C25.7203 23.1987 25.2469 24.3587 24.5269 25.5253L24.1803 26.0853L24.0469 25.9253C23.5269 25.2787 22.7069 23.532 22.3936 22.3987C22.2469 21.8453 22.2403 21.7387 22.2136 18.5453L22.1936 15.2653L24.1469 15.2787L26.1003 15.2987V18.3653ZM21.2669 19.9453C21.2669 23.2053 21.2269 23.6653 20.8603 24.7653C20.7469 25.092 20.5269 25.6453 20.3669 25.992C20.0803 26.5987 19.4336 27.7053 19.3269 27.772C19.2536 27.812 18.5603 26.672 18.2336 25.9653C17.9403 25.3453 17.6869 24.6187 17.4936 23.8653C17.3936 23.4987 17.3736 22.9587 17.3536 20.212L17.3269 16.9987H19.2936H21.2669V19.9453Z"
        fill="black" />
    <path
        d="M27.2804 13.852C27.3538 14.0453 30.6204 19.8053 30.6738 19.8386C30.7071 19.8586 30.7338 18.652 30.7338 16.8386V13.7986H28.9938C28.0404 13.7986 27.2671 13.8253 27.2804 13.852Z"
        fill="black" />
    <path
        d="M27.2206 18.0985C27.2473 19.3519 27.2873 19.9652 27.3673 20.3185C27.494 20.8785 27.794 21.7785 28.0473 22.3252C28.274 22.8119 28.9473 23.9985 28.994 23.9985C29.1073 23.9985 30.2006 21.8585 30.2006 21.6452C30.2006 21.5452 27.3806 16.5519 27.254 16.4319C27.2073 16.3852 27.194 16.8852 27.2206 18.0985Z"
        fill="black" />
    <path
        d="M22.4477 15.5187C22.4344 15.5454 22.7277 16.1054 23.101 16.7654C23.4677 17.4254 24.241 18.7921 24.8077 19.7987L25.8344 21.6321L25.881 21.0654C25.901 20.7521 25.921 19.3854 25.9277 18.0254C25.9344 15.7787 25.921 15.5454 25.821 15.5054C25.6744 15.4454 22.4744 15.4587 22.4477 15.5187Z"
        fill="black" />
    <path
        d="M22.4207 19.9653C22.454 21.9786 22.4807 22.1719 22.9074 23.3053C23.1207 23.8719 23.654 24.9653 23.9407 25.4053C24.134 25.7053 24.1607 25.7253 24.234 25.6186C24.454 25.2986 24.9674 24.3253 25.174 23.8519L25.394 23.3319L24.4607 21.6786C23.9407 20.7719 23.3074 19.6586 23.0474 19.1986C22.7874 18.7386 22.534 18.3053 22.4874 18.2319C22.4074 18.1186 22.394 18.3586 22.4207 19.9653Z"
        fill="black" />
    <path
        d="M17.7407 17.5787C17.9673 17.9653 18.4073 18.7587 20.0673 21.712C20.8473 23.1053 20.974 23.2987 21.0073 23.1453C21.034 23.0453 21.054 21.6653 21.0607 20.0787L21.0673 17.1987H19.294H17.5273L17.7407 17.5787Z"
        fill="black" />
    <path
        d="M17.5474 21.5988C17.5807 23.3121 17.594 23.4721 17.754 24.0654C18.0407 25.1188 18.514 26.1788 19.154 27.2188L19.314 27.4788L19.594 26.9988C19.9207 26.4521 20.534 25.2054 20.534 25.0854C20.534 25.0388 20.374 24.7254 20.174 24.3854C19.974 24.0454 19.314 22.8788 18.7007 21.7988C18.0874 20.7188 17.574 19.8188 17.554 19.7988C17.534 19.7788 17.534 20.5921 17.5474 21.5988Z"
        fill="black" />
    <path
        d="M29.1204 34.6654C28.0937 34.7854 27.4271 35.1654 27.0804 35.8254C26.9137 36.1387 26.9004 36.2254 26.9004 36.9654C26.9004 37.712 26.9137 37.792 27.0937 38.152C27.4871 38.9654 28.4137 39.332 30.0337 39.332C31.0871 39.332 31.9937 39.0854 32.4271 38.6787C32.6404 38.4787 32.8604 38.0387 32.8671 37.812C32.8671 37.672 32.8404 37.6654 32.3804 37.6654H31.9004L31.8137 38.012C31.6471 38.7187 31.1804 38.9654 30.0004 38.9654C29.3404 38.9654 29.1937 38.9454 28.9537 38.8187C28.3671 38.5054 28.1671 37.972 28.2137 36.8387C28.2537 35.9854 28.3671 35.632 28.7071 35.3387C29.0004 35.0787 29.3271 34.9987 30.0471 34.992C30.7937 34.992 31.1937 35.092 31.5004 35.3587C31.6871 35.5187 31.7537 35.632 31.7804 35.8454L31.8204 36.132H32.2737H32.7337V35.5054V34.8787L32.2871 34.7987C31.2071 34.612 30.0404 34.5587 29.1204 34.6654Z"
        fill="black" />
    <path
        d="M8.40065 34.852C8.40065 34.9987 8.52065 35.0654 8.77398 35.0654C9.02065 35.0654 9.31398 35.2387 9.36065 35.412C9.38065 35.4987 9.40065 36.2054 9.40065 36.9854C9.40065 38.7587 9.36065 38.852 8.60065 38.972C8.40065 39.0054 8.33398 39.0454 8.33398 39.1387C8.33398 39.2587 8.44065 39.2654 11.054 39.2654C13.9873 39.2654 14.3073 39.232 14.7873 38.912C15.1073 38.6987 15.2673 38.3787 15.2673 37.932C15.2673 37.292 15.0073 37.0587 14.1673 36.9387C13.9207 36.8987 13.7073 36.8587 13.6873 36.8387C13.674 36.8254 13.8207 36.7787 14.014 36.7387C14.7007 36.592 15.0273 36.272 15.0273 35.7387C15.0207 35.332 14.8607 35.0454 14.554 34.892C14.3207 34.772 14.0807 34.7654 11.354 34.7454C8.46732 34.7254 8.40065 34.7254 8.40065 34.852ZM13.094 35.1387C13.474 35.2454 13.6673 35.4654 13.6673 35.7987C13.6673 36.1654 13.5073 36.4587 13.2473 36.5654C12.914 36.6987 12.194 36.752 11.3473 36.6987L10.5807 36.6454L10.6207 36.0054C10.6607 35.4254 10.6807 35.352 10.834 35.212C10.994 35.0787 11.0673 35.0654 11.9207 35.0654C12.4207 35.0654 12.9473 35.0987 13.094 35.1387ZM13.374 37.2054C13.7607 37.3054 13.934 37.5254 13.934 37.9187C13.934 38.7187 13.2607 39.0054 11.6473 38.892C10.7073 38.8254 10.654 38.7787 10.614 37.8454L10.5807 37.132H11.8273C12.534 37.132 13.2073 37.1654 13.374 37.2054Z"
        fill="black" />
    <path
        d="M15.5342 34.8987C15.5342 35.0454 15.5608 35.0654 15.7608 35.0654C16.0675 35.0654 16.3875 35.1854 16.4675 35.332C16.5075 35.4054 16.5342 36.0654 16.5342 36.8454C16.5342 38.1587 16.5408 38.252 16.6875 38.532C16.9542 39.072 17.6808 39.332 18.8875 39.332C19.6475 39.332 20.0675 39.232 20.4675 38.9654L20.8008 38.7387V39.0054V39.2654H21.8675H22.9342V39.1054C22.9342 38.972 22.8942 38.9387 22.6342 38.9054C22.4742 38.8787 22.2742 38.8054 22.1875 38.732L22.0342 38.612L22.0542 36.672L22.0742 34.732H20.9008H19.7275L19.7475 34.8787C19.7608 34.9987 19.8275 35.0387 20.0608 35.0787C20.4275 35.1387 20.6542 35.2854 20.7475 35.5187C20.8475 35.7787 20.7675 37.9187 20.6475 38.212C20.4408 38.712 19.9408 38.9454 19.0675 38.952C18.4542 38.9587 18.1008 38.812 17.9008 38.4654C17.7475 38.1987 17.7342 37.792 17.8208 35.8787L17.8675 34.732H16.7008H15.5342V34.8987Z"
        fill="black" />
    <path
        d="M23.3076 34.792C23.2209 34.932 23.3542 35.0654 23.5809 35.0654C23.7476 35.0654 23.8676 35.1187 24.0076 35.2587L24.2009 35.452V36.952C24.2009 37.7787 24.1809 38.5054 24.1609 38.5654C24.1076 38.6987 23.8409 38.832 23.5209 38.892C23.3076 38.932 23.2676 38.9654 23.2676 39.0987V39.2654H24.8342H26.4009V39.0987C26.4009 38.9654 26.3609 38.932 26.1542 38.892C25.8542 38.8387 25.6609 38.7454 25.5542 38.6054C25.4942 38.5254 25.4742 38.072 25.4676 36.9854C25.4676 35.492 25.4676 35.472 25.6209 35.292C25.7342 35.1654 25.8676 35.0987 26.0742 35.072C26.3142 35.0387 26.3742 35.0054 26.3876 34.8787L26.4076 34.732H24.8742C24.0276 34.732 23.3276 34.7587 23.3076 34.792Z"
        fill="black" />
    <path
        d="M33.4009 34.8987C33.4009 35.0454 33.4276 35.0654 33.6342 35.0654C33.9409 35.0654 34.1676 35.1787 34.2609 35.3787C34.3609 35.5987 34.3609 38.332 34.2609 38.5587C34.1676 38.7654 33.8276 38.932 33.5076 38.932C33.2942 38.932 33.2676 38.952 33.2676 39.0987V39.2654H34.9342C36.5676 39.2654 36.6009 39.2654 36.6009 39.132C36.6009 38.9854 36.5676 38.9654 36.1742 38.8987C36.0209 38.872 35.8342 38.7787 35.7209 38.6654C35.5476 38.492 35.5342 38.4387 35.5342 37.9854C35.5342 37.512 35.5409 37.492 35.7276 37.3787C35.8342 37.3187 35.9676 37.2654 36.0209 37.2654C36.0742 37.2654 36.6076 37.712 37.2076 38.2654L38.3009 39.2654H39.3142C40.2809 39.2654 40.3342 39.2587 40.3342 39.132C40.3342 39.0387 40.2676 38.9854 40.0742 38.932C39.9342 38.8987 39.6542 38.7387 39.4542 38.5787C38.9942 38.2187 37.0009 36.5187 37.0009 36.492C37.0009 36.4787 37.2476 36.2787 37.5542 36.052C38.2142 35.5587 38.9142 35.2187 39.4609 35.112C39.8142 35.0454 39.8676 35.0187 39.8676 34.8854V34.732H38.4009C37.0076 34.732 36.9342 34.7387 36.9342 34.8587C36.9342 34.952 37.0009 34.9987 37.1876 35.032C37.6609 35.1187 37.7276 35.3187 37.3876 35.6454C37.2009 35.8187 35.8742 36.8054 35.6209 36.9587C35.5542 36.9987 35.5342 36.832 35.5342 36.212C35.5342 35.252 35.5876 35.152 36.1009 35.0787C36.3809 35.0387 36.4409 35.0054 36.4542 34.8787L36.4742 34.732H34.9409H33.4009V34.8987Z"
        fill="black" />
</svg>