<svg width="1em" height="1em" viewBox="0 0 48 48" fill="none" xmlns="http://www.w3.org/2000/svg">
    <g clip-path="url(#clip0_310_2360)">
        <path
            d="M11.2159 19.1197C11.3588 18.7985 11.4815 18.5376 12.3805 18.5376H17.5704C17.8566 18.5376 18.1424 18.3971 18.1424 17.996V16.5718C18.1424 16.4103 18.3061 16.1894 18.735 16.1894H29.4828C29.7892 16.1894 30.0347 16.3501 30.0347 16.7314V17.8555C30.0347 18.1564 30.1776 18.4774 30.6271 18.4774H39.2497C39.556 18.4774 39.9647 18.5574 39.781 18.9391C39.5968 19.32 36.7978 24.8975 36.608 25.2701C36.5351 25.4129 36.4783 25.6034 35.9116 25.6034H30.6112C30.3599 25.6034 29.9471 25.6034 29.9471 26.0806V27.408C29.9471 27.5989 29.8017 27.8853 29.3402 27.8853H18.7061C18.3741 27.8853 18.1314 27.7177 18.1314 27.3921V26.2234C18.1314 25.969 17.9936 25.5958 17.6053 25.5958H8.67883C8.39531 25.5958 8.12834 25.3809 8.29837 24.968C8.46839 24.5543 11.2159 19.1197 11.2159 19.1197Z"
            fill="#C7D6EE" />
        <path d="M8.98047 24.3474L9.22856 24.3481L11.6675 19.582L11.4193 19.5813L8.98047 24.3474Z"
            fill="url(#paint0_linear_310_2360)" />
        <path
            d="M17.626 25.0205H9.2774C8.98614 25.0205 8.88399 24.8898 8.99738 24.6674C9.62955 23.4325 11.7084 19.3714 11.7623 19.2635C11.8255 19.1368 11.9785 18.9817 12.2612 18.9817H17.8635C18.4447 18.9817 18.5437 18.7322 18.5437 18.2816V16.9393C18.5437 16.7588 18.6656 16.6388 18.8801 16.6388H29.141C29.4166 16.6388 29.5386 16.7283 29.5386 16.9088V17.9004C29.5386 18.2912 29.4634 18.9218 30.3502 18.9218H38.8289C39.2097 18.9218 39.3086 19.1741 39.107 19.5733C38.3567 21.0599 36.5104 24.5847 36.453 24.7043C36.3802 24.8563 36.1544 24.9901 35.7937 24.9901H30.2282C29.769 24.9901 29.3105 25.2905 29.3105 25.7415V26.8869C29.3105 27.0956 29.1829 27.2434 28.956 27.2434H18.9997C18.6917 27.2434 18.5742 27.072 18.5742 26.8435V25.8014C18.5742 25.441 18.3295 25.0205 17.626 25.0205Z"
            fill="#E9CF98" />
        <path
            d="M28.7598 24.7516L29.9292 25.9487C29.9292 25.9487 30.0126 25.6863 30.3297 25.6212L29.0202 24.4214C29.0202 24.4214 28.8098 24.5383 28.7598 24.7516Z"
            fill="white" />
        <path
            d="M17.6533 25.6043C17.6533 25.6043 18.1211 25.6211 18.1211 26.2278L19.2066 24.6528L18.906 24.4395L17.6533 25.6043Z"
            fill="white" />
        <path
            d="M29.1914 19.6406L30.4245 18.4602C30.4245 18.4602 30.2573 18.4401 30.0898 18.1731L28.8672 19.3946L29.1914 19.6406Z"
            fill="white" />
        <path
            d="M28.6582 17.2287L29.7974 16.2746C29.7974 16.2746 29.9229 16.3461 29.975 16.4593L28.7837 17.5369L28.6582 17.2287Z"
            fill="white" />
        <path
            d="M18.1504 16.6202C18.1504 16.4226 18.3373 16.1894 18.6433 16.1894L19.5075 17.2388C19.5075 17.2388 19.2488 17.2388 19.2082 17.3324C19.1671 17.4262 19.1263 17.627 19.1263 17.627L18.1504 16.6202Z"
            fill="white" />
        <path
            d="M17.7773 18.5102C17.7773 18.5102 18.1467 18.4527 18.1467 18.065L19.0034 19.055L18.4573 19.4426L17.7773 18.5102Z"
            fill="white" />
        <path
            d="M24.1126 16.1894L24.0732 16.6408H29.01C29.1719 16.6408 29.2631 16.6808 29.3241 16.8L29.8708 16.3227C29.8708 16.3227 29.7335 16.1894 29.4832 16.1894H24.1126V16.1894Z"
            fill="url(#paint1_linear_310_2360)" />
        <path
            d="M18.6435 16.1893C18.5119 16.1893 18.3599 16.2533 18.2793 16.3524L18.6336 16.7302C18.6336 16.7302 18.7043 16.6407 18.9878 16.6407H24.0731L24.1124 16.1893H18.6435V16.1893Z"
            fill="url(#paint2_linear_310_2360)" />
        <path
            d="M18.1505 16.6202V17.996C18.1505 18.212 18.1064 18.2649 18.1064 18.2649L18.4973 18.6729C18.4973 18.6729 18.5532 18.532 18.5532 18.4454V17.0823C18.5532 16.9962 18.5611 16.8708 18.5611 16.8708L18.1941 16.4244C18.1941 16.4244 18.1505 16.5024 18.1505 16.6202"
            fill="url(#paint3_linear_310_2360)" />
        <path
            d="M29.5467 16.8289C29.5467 16.8289 29.5361 16.9889 29.5361 17.075C29.5361 17.161 29.5467 18.3231 29.5467 18.4094C29.5467 18.4954 29.6743 18.655 29.6743 18.655L30.1421 18.2485C30.1421 18.2485 30.0312 18.212 30.0312 17.996V16.6202C30.0312 16.5024 29.933 16.4244 29.933 16.4244L29.5467 16.8289V16.8289Z"
            fill="url(#paint4_linear_310_2360)" />
        <path
            d="M17.5998 18.5391C17.4532 18.5391 12.417 18.5448 12.1486 18.5448C11.7593 18.5448 11.5303 18.7134 11.5303 18.7134L11.8506 19.1367C11.8506 19.1367 11.9787 18.9816 12.2615 18.9816H17.9443C18.1422 18.9816 18.291 18.8937 18.291 18.8937L17.9196 18.4556C17.9196 18.4556 17.7373 18.5391 17.5998 18.5391"
            fill="url(#paint5_linear_310_2360)" />
        <path
            d="M8.83023 24.7044L8.24951 25.1044C8.24951 25.1044 8.20347 25.2697 8.29024 25.4003C8.37721 25.5306 8.51001 25.5508 8.51001 25.5508L9.26585 25.0205C9.26585 25.0205 8.83808 25.0007 9.01606 24.6895C9.19404 24.3784 9.18439 24.2611 9.18439 24.2611C9.18439 24.2611 8.97671 24.2946 8.83023 24.7044Z"
            fill="url(#paint6_linear_310_2360)" />
        <path
            d="M10.4252 20.7877C9.9621 21.7238 8.40672 24.7311 8.35231 24.8385C8.29779 24.9455 8.24316 25.1326 8.24316 25.1326L8.84256 24.7044L11.6511 19.2088C11.6511 19.2088 10.8884 19.851 10.4252 20.7877"
            fill="url(#paint7_linear_310_2360)" />
        <path
            d="M9.27819 25.0335L8.50781 25.5778C8.50781 25.5778 17.2828 25.5991 17.5045 25.5991C17.7259 25.5991 17.8189 25.6406 17.8189 25.6406L18.2141 25.1995C18.2141 25.1995 17.8366 25.0335 17.6269 25.0335H9.27819V25.0335Z"
            fill="url(#paint8_linear_310_2360)" />
        <path
            d="M18.0439 25.8817C18.0439 25.8817 18.1248 26.0412 18.1248 26.1685V27.3081C18.1248 27.4712 18.1895 27.6125 18.1895 27.6125L18.575 27.1665V25.8013C18.575 25.5835 18.4527 25.4002 18.4527 25.4002L18.0439 25.8817V25.8817Z"
            fill="url(#paint9_linear_310_2360)" />
        <path
            d="M29.3096 25.6603V27.0255L29.9146 27.5454C29.9146 27.5454 29.9296 27.4068 29.9296 27.2441V26.104C29.9296 25.9769 29.9671 25.8969 29.9671 25.8969L29.4381 25.3774C29.4381 25.3774 29.3096 25.4421 29.3096 25.6603"
            fill="url(#paint10_linear_310_2360)" />
        <path
            d="M28.8575 27.2533H24.1006V27.8875H29.3644C29.5434 27.8875 29.752 27.7706 29.7917 27.7409L29.1951 27.1852C29.1951 27.1852 29.1558 27.2533 28.8575 27.2533Z"
            fill="url(#paint11_linear_310_2360)" />
        <path
            d="M18.3701 27.8082C18.3701 27.8082 18.4926 27.8936 18.835 27.8936C19.1771 27.8936 24.0998 27.8874 24.0998 27.8874V27.2533H19.0189C18.927 27.2533 18.8655 27.2365 18.8655 27.2365L18.3701 27.8082V27.8082Z"
            fill="url(#paint12_linear_310_2360)" />
        <path
            d="M19.7368 17.2258C19.4612 17.2258 19.1861 17.3762 19.1861 17.6768V19.149C19.1861 19.4492 19.0023 19.5695 18.7883 19.5695H12.6968C12.4494 19.5695 12.2579 19.6709 12.1479 19.8754C12.0579 20.0434 10.5366 23.038 10.045 24.0058C9.9384 24.2157 10.0315 24.3433 10.3051 24.3433H18.8192C19.1861 24.3433 19.2474 24.674 19.2474 25.0042V26.1483C19.2474 26.359 19.4613 26.5994 19.7061 26.5994H23.9892V17.2258H19.7368Z"
            fill="url(#paint13_linear_310_2360)" />
        <path
            d="M29.7109 25.1591L30.2014 25.6543C30.2014 25.6543 30.3238 25.5877 30.8961 25.5877H36.1269C36.2356 25.5877 36.3855 25.5341 36.3855 25.5341L33.6205 24.9856C33.6205 24.9856 30.4193 24.9878 30.2695 24.9856C30.2639 24.9855 30.2582 24.9854 30.2526 24.9854C29.9281 24.9854 29.7109 25.1591 29.7109 25.1591Z"
            fill="url(#paint14_linear_310_2360)" />
        <path
            d="M29.8945 18.8344C29.8945 18.8344 30.1336 18.9128 30.3289 18.9128H38.5648C38.8154 18.9128 38.9617 18.9312 38.9617 18.9312L39.6272 18.5415C39.6272 18.5415 39.4136 18.4816 39.2001 18.4816H30.6468C30.433 18.4816 30.3439 18.4326 30.3439 18.4326L29.8945 18.8344Z"
            fill="url(#paint15_linear_310_2360)" />
        <path
            d="M39.2046 19.1417C39.2046 19.1417 39.2423 19.3469 39.1711 19.4864C39.1002 19.6258 36.6108 24.4343 36.4985 24.6552C36.3858 24.8758 36.1318 24.9573 36.1318 24.9573L36.4155 25.5144C36.4155 25.5144 36.516 25.4394 36.5753 25.3637C36.6344 25.2882 39.6973 19.1668 39.792 18.9521C39.8864 18.7372 39.8035 18.6594 39.8035 18.6594L39.2046 19.1417Z"
            fill="url(#paint16_linear_310_2360)" />
        <path
            d="M35.8681 24.9987C35.5412 24.9987 33.7021 25.0124 33.7021 25.0124L36.3175 25.5339C36.3175 25.5339 36.481 25.4676 36.5628 25.3332C36.6447 25.1994 36.5626 25.1594 36.4673 25.2395C36.3722 25.3203 36.2088 25.1865 36.2902 25.0927C36.3722 24.9987 36.4537 24.7043 36.4537 24.7043C36.4537 24.7043 36.1952 24.9987 35.8681 24.9987"
            fill="url(#paint17_linear_310_2360)" />
        <path
            d="M11.5381 24.5847C9.82531 24.697 9.27832 25.015 9.27832 25.015H17.4574C18.3876 25.015 18.2814 25.1399 18.2762 25.1455L18.9421 24.4539C18.9421 24.4539 17.3243 24.4539 16.2965 24.4354C16.1659 24.433 16.0193 24.4318 15.8592 24.4318C14.7607 24.4318 13.0332 24.4868 11.5381 24.5847M18.276 25.1458C18.276 25.1458 18.2761 25.1456 18.2762 25.1455L18.276 25.1458Z"
            fill="url(#paint18_linear_310_2360)" />
        <path
            d="M30.8295 24.4354C30.1018 24.4539 28.9561 24.4539 28.9561 24.4539L29.7196 25.1602C29.7196 25.1602 29.7982 24.9949 30.472 24.9949C31.1461 24.9949 36.0043 24.9785 36.0043 24.9785C36.0043 24.9785 36.0862 24.7176 34.6557 24.6174C33.5289 24.5383 31.8284 24.4334 31.0064 24.4334C30.9418 24.4334 30.8827 24.434 30.8295 24.4354"
            fill="url(#paint19_linear_310_2360)" />
        <path
            d="M29.0986 19.6432C29.0986 19.6432 30.2446 19.6432 30.9725 19.6618C31.7003 19.6805 36.112 19.484 37.3255 19.3717C38.5387 19.2596 38.9258 18.9417 38.9258 18.9417C38.9258 18.9417 31.2121 18.9821 30.5382 18.9821C29.8647 18.9821 29.9586 18.8509 29.9586 18.8509L29.0986 19.6432V19.6432Z"
            fill="url(#paint20_linear_310_2360)" />
        <path
            d="M18.4932 25.4204C18.4932 25.4204 18.5749 25.681 18.5749 25.8817V26.7849C18.5749 27.0255 18.6568 27.1462 18.6568 27.1462L19.3515 26.4637C19.3515 26.4637 19.2477 26.223 19.2477 26.0424V25.0243C19.2477 24.7888 19.1879 24.5973 19.1879 24.5973L18.4932 25.4204V25.4204Z"
            fill="url(#paint21_linear_310_2360)" />
        <path
            d="M28.6865 25.0185C28.6865 25.254 28.6703 25.8839 28.6703 26.0649C28.6703 26.245 28.6279 26.4637 28.6279 26.4637L29.3226 27.1462C29.3226 27.1462 29.4046 27.0255 29.4046 26.7849V25.8817C29.4046 25.681 29.4863 25.4204 29.4863 25.4204L28.7424 24.5783C28.7424 24.5783 28.6865 24.7836 28.6865 25.0185Z"
            fill="url(#paint22_linear_310_2360)" />
        <path d="M18.8818 27.2264L23.949 27.2664L23.9695 27.2659V26.5994L19.556 26.5838L18.8818 27.2264Z"
            fill="url(#paint23_linear_310_2360)" />
        <path d="M23.9891 26.5993H23.9688V27.2659L29.179 27.2065L28.3414 26.5837L23.9891 26.5993Z"
            fill="url(#paint24_linear_310_2360)" />
        <path
            d="M18.9503 16.6371C18.8072 16.6371 18.6748 16.7128 18.6748 16.7128L19.3464 17.3618C19.3464 17.3618 19.4126 17.2209 19.8859 17.2209H23.9899V16.6371H18.9503Z"
            fill="url(#paint25_linear_310_2360)" />
        <path
            d="M23.9893 16.637V17.2208H28.0931C28.5664 17.2208 28.6644 17.4231 28.6644 17.4231L29.3358 16.7744C29.3358 16.7744 29.1721 16.637 29.029 16.637H23.9893V16.637Z"
            fill="url(#paint26_linear_310_2360)" />
        <path
            d="M18.5468 17.2039V18.3825C18.5468 18.5223 18.4844 18.6879 18.4844 18.6879L19.1421 19.4211C19.1421 19.4211 19.1865 19.3602 19.1865 19.0549C19.1865 18.7493 19.2131 17.5537 19.2131 17.5537L18.5555 16.8292C18.5555 16.8292 18.5468 17.0208 18.5468 17.2039"
            fill="url(#paint27_linear_310_2360)" />
        <path
            d="M28.6924 17.5677V19.0331C28.6924 19.3385 28.8379 19.4211 28.8379 19.4211L29.6417 18.6259C29.6417 18.6259 29.5369 18.4595 29.5369 18.3201C29.5369 18.1803 29.5301 17.3282 29.5301 17.145C29.5301 16.9617 29.5383 16.7922 29.5383 16.7922L28.6924 17.5677V17.5677Z"
            fill="url(#paint28_linear_310_2360)" />
        <path
            d="M18.0027 18.9979H12.3635C12.2 18.9979 11.9342 19.0582 11.8525 19.1386L12.3635 19.6604C12.3635 19.6604 12.5063 19.5602 12.8538 19.5602H18.7178C18.8815 19.5602 19.0447 19.4997 19.0447 19.4997L18.3911 18.8376C18.3911 18.8376 18.2274 18.9979 18.0027 18.9979"
            fill="url(#paint29_linear_310_2360)" />
        <path
            d="M35.5674 24.3654C35.5674 24.3654 35.8831 24.2489 35.9819 24.6172C35.9819 24.6172 36.0607 24.7338 36.2778 24.4233C36.4948 24.1133 38.5476 19.966 38.5273 19.9074C38.5075 19.8495 38.0931 19.7717 38.0931 19.7717L35.5674 24.3654V24.3654Z"
            fill="url(#paint30_linear_310_2360)" />
        <path
            d="M38.1519 19.8109C38.2509 19.8688 38.3494 19.9465 38.2113 20.2371C38.0733 20.5273 36.4945 23.5513 36.1592 24.1325C35.8237 24.7138 36.1193 24.9465 36.1193 24.9465C36.1193 24.9465 36.3762 24.83 36.4534 24.7043C36.5311 24.5783 38.9416 19.8882 39.1075 19.5733C39.2735 19.2583 39.1583 19.1322 39.1583 19.1322L38.1519 19.8109V19.8109Z"
            fill="url(#paint31_linear_310_2360)" />
        <path
            d="M23.9893 17.2258V26.5994H28.2093C28.4538 26.5994 28.668 26.5091 28.668 26.2383V24.8403C28.668 24.57 28.8513 24.3601 29.0657 24.3601H35.4318C35.6553 24.3601 35.8558 24.2317 35.9723 24.0204C36.4925 23.0757 37.9251 20.3361 38.0335 20.1153C38.1658 19.8457 38.0839 19.6895 37.7773 19.6895H29.3409C28.974 19.6895 28.6983 19.4194 28.6983 19.0888V17.5565C28.6983 17.3461 28.5761 17.2258 28.3008 17.2258H23.9893V17.2258Z"
            fill="url(#paint32_linear_310_2360)" />
        <path
            d="M9.20898 24.7542L10.0257 24.2677C10.0257 24.2677 9.93216 24.2277 10.0792 23.9387C10.2264 23.6496 11.6054 20.888 11.6054 20.888L11.2977 20.8226L9.20898 24.7542V24.7542Z"
            fill="url(#paint33_linear_310_2360)" />
        <path
            d="M9.13538 24.3966C8.93099 24.758 8.97214 24.8982 8.97214 24.8982L9.46239 24.5771C9.46239 24.5771 11.6486 20.4231 11.8733 19.9412C12.0982 19.4597 11.7631 19.2636 11.7631 19.2636C11.7631 19.2636 9.33977 24.0355 9.13538 24.3966"
            fill="url(#paint34_linear_310_2360)" />
        <path
            d="M9.46555 25.0322C9.43309 25.0536 9.13429 25.0897 9.07596 25.0322C9.01741 24.9752 8.91972 24.9306 8.99778 24.8666C9.07596 24.8025 10.0369 24.2415 10.0369 24.2415C10.0369 24.2415 9.92026 24.3052 10.9076 24.3052H18.8063C19.0142 24.3052 19.209 24.4453 19.2351 24.5348C19.2612 24.6243 19.2091 24.6624 19.1442 24.6498C19.0795 24.6369 18.9103 24.5858 18.8714 24.5219C18.8324 24.4582 18.9233 24.4072 18.3516 24.4072C17.78 24.4072 13.415 24.4711 12.4278 24.5603C11.4404 24.6498 10.1409 24.5858 9.46555 25.0322Z"
            fill="white" />
        <path
            d="M38.6407 18.9584C38.673 18.9375 38.9721 18.9013 39.0305 18.9584C39.0888 19.0159 39.1865 19.0605 39.1084 19.1244C39.0305 19.1881 38.0692 19.7495 38.0692 19.7495C38.0692 19.7495 38.1857 19.6859 37.1986 19.6859H29.2997C29.0918 19.6859 28.897 19.5457 28.8712 19.4563C28.8451 19.3667 28.8969 19.3282 28.9616 19.3412C29.027 19.3542 29.1957 19.4052 29.2349 19.4688C29.2738 19.5328 29.1827 19.5835 29.7545 19.5835C30.3263 19.5835 34.6908 19.5199 35.6786 19.4307C36.6657 19.3412 37.9653 19.4052 38.6407 18.9584Z"
            fill="white" />
        <path
            d="M12.0164 19.6967C12.0164 19.6064 12.0674 19.4359 12.0267 19.386C11.9858 19.3357 12.1084 19.2754 12.1902 19.3253C12.2718 19.3757 12.4455 19.4157 12.4658 19.456C12.4863 19.496 12.4556 19.5962 12.3433 19.6365C12.2309 19.6765 12.1287 19.7668 11.9551 20.1378C11.7814 20.5095 10.7903 22.3958 10.7903 22.3958C10.7903 22.3958 10.9335 22.0949 10.8721 22.0846C10.8108 22.0747 10.668 22.3256 10.668 22.3256L12.0164 19.6967Z"
            fill="white" />
        <path
            d="M18.8465 19.5192C18.7619 19.5276 18.7383 19.4366 18.8104 19.4247C18.883 19.4129 18.9789 19.4072 19.0631 19.0819C19.1476 18.7567 19.0874 17.7698 19.0753 17.5926C19.0631 17.4152 18.979 17.2025 19.0995 17.1081C19.2197 17.0133 19.304 17.2144 19.617 17.2144C19.9298 17.2144 20.6401 17.1908 20.6401 17.1908C20.6401 17.1908 19.6411 17.2613 19.4724 17.2853C19.3039 17.3089 19.1595 17.4387 19.1834 17.6753C19.2077 17.9118 19.1476 19.1295 19.0995 19.2594C19.0513 19.3893 18.9669 19.5074 18.8465 19.5192Z"
            fill="white" />
        <path
            d="M25.5868 17.198C25.4543 17.2041 28.1246 17.2288 28.2929 17.2288C28.4615 17.2288 28.654 17.2791 28.6902 17.4444C28.7263 17.6101 28.7007 18.1526 28.7007 18.1526C28.7007 18.1526 28.7837 17.4563 28.9041 17.3264C29.0244 17.196 28.9883 17.0072 28.8318 17.0422C28.6753 17.078 27.4361 17.1161 25.5868 17.198Z"
            fill="white" />
        <path
            d="M29.1528 24.4449C29.0688 24.4327 28.9727 24.4213 28.9484 24.4921C28.9243 24.5625 29.0563 24.6098 28.9243 24.6803C28.7926 24.7511 28.6943 24.7945 28.6943 24.7356C28.6943 24.6765 28.7624 24.3737 29.0147 24.3737C29.2668 24.3737 35.491 24.3619 35.5876 24.3619C35.6833 24.3619 35.8036 24.3737 35.8514 24.4682C35.8993 24.5625 35.9593 24.7984 35.9955 24.8692C36.0314 24.9401 35.9715 24.9401 35.8633 24.7984C35.7553 24.6567 35.4793 24.5981 35.2633 24.6098C35.0471 24.6216 29.1528 24.4449 29.1528 24.4449Z"
            fill="white" />
        <path
            d="M36.0192 24.6453C36.0192 24.6453 35.9593 24.5158 35.9232 24.4327C35.8872 24.3504 35.7793 24.3154 35.7793 24.3154C35.7793 24.3154 35.8992 24.1733 36.0672 23.8671C36.2354 23.5609 37.0277 22.0982 37.1117 21.8978C37.1117 21.8978 36.9315 22.4407 37.2798 21.9923C37.2798 21.9923 36.1513 24.0907 36.0792 24.2324C36.0073 24.3741 36.0192 24.6453 36.0192 24.6453Z"
            fill="white" />
        <path
            d="M19.3223 26.2956C19.3223 26.2956 19.3366 26.4651 19.2364 26.5355C19.1359 26.6061 19.0929 26.7328 19.179 26.7893C19.2651 26.8457 19.3225 26.8174 19.3799 26.7328C19.4373 26.6483 19.6384 26.5778 19.7675 26.6061C19.7675 26.6061 19.3223 26.662 19.3223 26.2956Z"
            fill="white" />
        <path
            d="M25.5088 26.5979C25.5088 26.5979 27.9314 26.7232 28.0749 26.7297C28.218 26.7361 28.3189 26.7407 28.3189 26.7407C28.3189 26.7407 28.0617 26.7007 28.1378 26.6196L25.5088 26.5979Z"
            fill="white" />
        <path
            d="M28.3805 26.5781C28.3805 26.5781 28.3088 26.6908 28.4236 26.7468C28.5386 26.8032 28.6535 26.8596 28.7252 26.775C28.7968 26.6905 28.6679 26.4649 28.6821 26.3099C28.6821 26.3099 28.7395 26.5498 28.3805 26.5781Z"
            fill="white" />
        <path
            d="M31.335 26.7822H31.2008V27.0054H31.335C31.4033 27.0054 31.4235 26.9787 31.4235 26.9349V26.8523C31.4235 26.7959 31.3968 26.7822 31.335 26.7822ZM31.335 27.0777H31.2008V27.2614H31.1191V26.7086H31.335C31.4571 26.7086 31.5052 26.762 31.5052 26.8523V26.9349C31.5052 26.9948 31.4841 27.0351 31.4235 27.0618L31.575 27.2614H31.4783L31.335 27.0777ZM31.3098 27.4297C31.5979 27.4297 31.7492 27.2358 31.7492 26.9977C31.7492 26.7597 31.5979 26.5628 31.3098 26.5628C31.0214 26.5628 30.8667 26.7597 30.8667 26.9977C30.8667 27.2358 31.0214 27.4297 31.3098 27.4297M31.3098 26.4896C31.6291 26.4896 31.824 26.7163 31.824 26.9967C31.824 27.2732 31.6291 27.5032 31.3098 27.5032C30.9886 27.5032 30.792 27.2732 30.792 26.9967C30.792 26.7163 30.9886 26.4896 31.3098 26.4896Z"
            fill="black" />
        <path
            d="M14.8884 30.1335H13.9969V29.0192H13.1367V31.7893H13.9969V30.5949H14.8884V31.7893H15.7495V29.0192H14.8884V30.1335Z"
            fill="black" />
        <path d="M30.713 31.3283V29.0192H29.8525V31.7893H31.9445V31.3283H30.713Z" fill="black" />
        <path d="M35.6055 29.0192V29.4812H36.3885V31.7893H37.2486V29.4812H38.0323V29.0192H35.6055Z" fill="black" />
        <path
            d="M10.0322 29.5957C10.0322 29.2495 10.2452 29.019 10.5645 29.019H12.2901V29.4805H11.053C10.9568 29.4805 10.8936 29.5505 10.8936 29.6539V31.1541C10.8936 31.2584 10.9568 31.3281 11.053 31.3281H12.2901V31.7891H10.5645C10.2452 31.7891 10.0322 31.5579 10.0322 31.2122V29.5957Z"
            fill="black" />
        <path
            d="M24.9994 30.6655L25.7433 31.7893H24.8285L24.17 30.6466V30.2855H24.5254C24.6213 30.2855 24.685 30.2154 24.685 30.1121V29.6541C24.685 29.5507 24.6213 29.4812 24.5254 29.4812H23.9235V31.7893H23.0625V29.0192H25.0135C25.3339 29.0192 25.5457 29.2498 25.5457 29.596L25.5466 30.1559C25.5466 30.4609 25.3591 30.6655 25.0765 30.6655H24.9994Z"
            fill="black" />
        <path
            d="M27.982 31.3283C28.0771 31.3283 28.1413 31.2587 28.1413 31.1549V29.6541C28.1413 29.5509 28.0771 29.4808 27.982 29.4808H27.3817C27.2861 29.4808 27.2218 29.5509 27.2218 29.6541V31.1549C27.2218 31.2587 27.2861 31.3283 27.3817 31.3283H27.982ZM26.3613 29.596C26.3613 29.2498 26.5735 29.0192 26.8931 29.0192H28.4699C28.7891 29.0192 29.0025 29.2498 29.0025 29.596V31.2125C29.0025 31.5583 28.7891 31.7893 28.4699 31.7893H26.8931C26.5735 31.7893 26.3613 31.5583 26.3613 31.2125V29.596V29.596Z"
            fill="black" />
        <path
            d="M19.5781 29.0192H20.5011L21.0518 31.1608C21.056 31.1802 21.0701 31.1916 21.09 31.1916C21.1096 31.1916 21.1249 31.1802 21.1285 31.1608L21.6639 29.0192H22.3863L21.719 31.3964C21.6383 31.667 21.4923 31.7893 21.186 31.7893H20.7565C20.5595 31.7893 20.3988 31.6894 20.3022 31.3943L19.5781 29.0192Z"
            fill="black" />
        <path
            d="M17.4799 31.2408C17.4799 31.2939 17.5117 31.3278 17.56 31.3278H18.9744V31.7893H17.1511C16.8318 31.7893 16.6191 31.5582 16.6191 31.213V29.596C16.6191 29.2498 16.8318 29.0192 17.1511 29.0192H18.9744V29.4812H17.56C17.5117 29.4812 17.4799 29.5155 17.4799 29.5677V30.1331H18.812V30.595H17.4799V31.2408Z"
            fill="black" />
        <path
            d="M33.4053 31.2408C33.4053 31.2939 33.4369 31.3278 33.4844 31.3278H34.8994V31.7893H33.076C32.7569 31.7893 32.543 31.5582 32.543 31.213V29.596C32.543 29.2498 32.7569 29.0192 33.076 29.0192H34.8994V29.4812H33.4844C33.4369 29.4812 33.4053 29.5155 33.4053 29.5677V30.1331H34.7366V30.595H33.4053V31.2408Z"
            fill="black" />
    </g>
    <defs>
        <linearGradient id="paint0_linear_310_2360" x1="11.5018" y1="19.6628" x2="11.4893" y2="24.3737"
            gradientUnits="userSpaceOnUse">
            <stop stop-color="#C7D6EE" />
            <stop offset="0.185394" stop-color="#91AFC8" />
            <stop offset="1" stop-color="#002334" />
        </linearGradient>
        <linearGradient id="paint1_linear_310_2360" x1="25.3935" y1="14.9313" x2="28.2874" y2="17.8778"
            gradientUnits="userSpaceOnUse">
            <stop stop-color="#E1E8F5" />
            <stop offset="0.89888" stop-color="#92A5C1" />
            <stop offset="0.955063" stop-color="#476886" />
            <stop offset="1" stop-color="#E1E8F5" />
        </linearGradient>
        <linearGradient id="paint2_linear_310_2360" x1="19.7852" y1="17.8613" x2="22.7457" y2="14.847"
            gradientUnits="userSpaceOnUse">
            <stop stop-color="#E1E8F5" />
            <stop offset="0.0393219" stop-color="#476886" />
            <stop offset="0.0898895" stop-color="#92A5C1" />
            <stop offset="1" stop-color="#E1E8F5" />
        </linearGradient>
        <linearGradient id="paint3_linear_310_2360" x1="17.854" y1="17.9991" x2="18.8191" y2="17.0827"
            gradientUnits="userSpaceOnUse">
            <stop stop-color="#E1E8F5" />
            <stop offset="0.157303" stop-color="#C7D6EE" />
            <stop offset="1" stop-color="#E1E8F5" />
        </linearGradient>
        <linearGradient id="paint4_linear_310_2360" x1="30.3448" y1="18.0351" x2="29.3229" y2="17.0648"
            gradientUnits="userSpaceOnUse">
            <stop stop-color="#E1E8F5" />
            <stop offset="0.157303" stop-color="#C7D6EE" />
            <stop offset="1" stop-color="#E1E8F5" />
        </linearGradient>
        <linearGradient id="paint5_linear_310_2360" x1="13.211" y1="20.4729" x2="16.5314" y2="17.0922"
            gradientUnits="userSpaceOnUse">
            <stop stop-color="#476886" />
            <stop offset="0.129211" stop-color="#92A5C1" />
            <stop offset="1" stop-color="#E1E8F5" />
        </linearGradient>
        <linearGradient id="paint6_linear_310_2360" x1="8.97473" y1="25.1639" x2="8.588" y2="24.6015"
            gradientUnits="userSpaceOnUse">
            <stop stop-color="#002334" />
            <stop offset="0.106735" stop-color="white" />
            <stop offset="0.185394" stop-color="#91AFC8" />
            <stop offset="0.241577" stop-color="#002334" />
            <stop offset="0.533707" stop-color="#5E738F" />
            <stop offset="0.758423" stop-color="#002334" />
            <stop offset="1" stop-color="#002334" />
        </linearGradient>
        <linearGradient id="paint7_linear_310_2360" x1="11.8045" y1="21.2423" x2="8.77596" y2="22.8115"
            gradientUnits="userSpaceOnUse">
            <stop stop-color="#91AFC8" />
            <stop offset="1" stop-color="#002334" />
        </linearGradient>
        <linearGradient id="paint8_linear_310_2360" x1="13.4649" y1="25.9672" x2="13.239" y2="24.6628"
            gradientUnits="userSpaceOnUse">
            <stop stop-color="#A5B9CC" />
            <stop offset="1" stop-color="#002334" />
        </linearGradient>
        <linearGradient id="paint9_linear_310_2360" x1="18.1397" y1="26.5064" x2="18.5284" y2="26.5064"
            gradientUnits="userSpaceOnUse">
            <stop stop-color="#5E738F" />
            <stop offset="0.48877" stop-color="#91AFC8" />
            <stop offset="1" stop-color="#91AFC8" />
        </linearGradient>
        <linearGradient id="paint10_linear_310_2360" x1="29.8485" y1="26.4614" x2="29.3672" y2="26.4614"
            gradientUnits="userSpaceOnUse">
            <stop stop-color="#5E738F" />
            <stop offset="0.320221" stop-color="#91AFC8" />
            <stop offset="1" stop-color="#91AFC8" />
        </linearGradient>
        <linearGradient id="paint11_linear_310_2360" x1="26.233" y1="28.7102" x2="27.5143" y2="26.4507"
            gradientUnits="userSpaceOnUse">
            <stop stop-color="#A5B9CC" />
            <stop offset="1" stop-color="#002334" />
        </linearGradient>
        <linearGradient id="paint12_linear_310_2360" x1="20.6846" y1="26.5944" x2="21.9758" y2="28.8715"
            gradientUnits="userSpaceOnUse">
            <stop stop-color="#002334" />
            <stop offset="0.775284" stop-color="#A5B9CC" />
            <stop offset="1" stop-color="#A5B9CC" />
        </linearGradient>
        <linearGradient id="paint13_linear_310_2360" x1="15.4138" y1="18.0236" x2="21.1801" y2="28.1925"
            gradientUnits="userSpaceOnUse">
            <stop stop-color="#FFEFCF" />
            <stop offset="0.460678" stop-color="#FFE4A6" />
            <stop offset="1" stop-color="#BC956E" />
        </linearGradient>
        <linearGradient id="paint14_linear_310_2360" x1="31.916" y1="26.5861" x2="33.5448" y2="24.7375"
            gradientUnits="userSpaceOnUse">
            <stop stop-color="#5E738F" />
            <stop offset="0.606735" stop-color="#91AFC8" />
            <stop offset="1" stop-color="#C7DFF4" />
        </linearGradient>
        <linearGradient id="paint15_linear_310_2360" x1="33.5758" y1="16.6718" x2="35.7231" y2="20.4586"
            gradientUnits="userSpaceOnUse">
            <stop stop-color="#E1E8F5" />
            <stop offset="0.814606" stop-color="#7F97B4" />
            <stop offset="0.904495" stop-color="#476886" />
            <stop offset="1" stop-color="#002334" />
        </linearGradient>
        <linearGradient id="paint16_linear_310_2360" x1="36.1349" y1="25.2387" x2="39.6344" y2="19.0674"
            gradientUnits="userSpaceOnUse">
            <stop stop-color="#8CA0B5" />
            <stop offset="0.140442" stop-color="#E1E8F5" />
            <stop offset="0.814606" stop-color="#7F97B4" />
            <stop offset="0.904495" stop-color="#476886" />
            <stop offset="1" stop-color="#002334" />
        </linearGradient>
        <linearGradient id="paint17_linear_310_2360" x1="34.8917" y1="25.3419" x2="36.1537" y2="24.6001"
            gradientUnits="userSpaceOnUse">
            <stop stop-color="#002334" />
            <stop offset="0.814606" stop-color="#A5B9CC" />
            <stop offset="0.887634" stop-color="#002334" />
            <stop offset="1" stop-color="#002334" />
        </linearGradient>
        <linearGradient id="paint18_linear_310_2360" x1="11.938" y1="22.6011" x2="16.0285" y2="26.7658"
            gradientUnits="userSpaceOnUse">
            <stop stop-color="#D4BC7B" />
            <stop offset="0.331467" stop-color="#7F5F39" />
            <stop offset="1" stop-color="#D4BC7B" />
        </linearGradient>
        <linearGradient id="paint19_linear_310_2360" x1="34.0403" y1="23.1839" x2="31.1185" y2="26.1587"
            gradientUnits="userSpaceOnUse">
            <stop stop-color="#D4BC7B" />
            <stop offset="0.331467" stop-color="#7F5F39" />
            <stop offset="1" stop-color="#D4BC7B" />
        </linearGradient>
        <linearGradient id="paint20_linear_310_2360" x1="36.5311" y1="16.8185" x2="31.8085" y2="21.6267"
            gradientUnits="userSpaceOnUse">
            <stop stop-color="#D4BC7B" />
            <stop offset="0.331467" stop-color="#7F5F39" />
            <stop offset="1" stop-color="#D4BC7B" />
        </linearGradient>
        <linearGradient id="paint21_linear_310_2360" x1="18.648" y1="25.8718" x2="19.2762" y2="25.8718"
            gradientUnits="userSpaceOnUse">
            <stop stop-color="#D3BD8B" />
            <stop offset="1" stop-color="#7F5F39" />
        </linearGradient>
        <linearGradient id="paint22_linear_310_2360" x1="29.3315" y1="25.8623" x2="28.7032" y2="25.8623"
            gradientUnits="userSpaceOnUse">
            <stop stop-color="#D3BD8B" />
            <stop offset="1" stop-color="#7F5F39" />
        </linearGradient>
        <linearGradient id="paint23_linear_310_2360" x1="20.9644" y1="26.1282" x2="22.1008" y2="28.1321"
            gradientUnits="userSpaceOnUse">
            <stop stop-color="#7F5F39" />
            <stop offset="0.646072" stop-color="#D3BD8B" />
            <stop offset="0.887634" stop-color="#FFE4A6" />
            <stop offset="1" stop-color="#FFE4A6" />
        </linearGradient>
        <linearGradient id="paint24_linear_310_2360" x1="27.0236" y1="26.138" x2="25.7822" y2="28.3272"
            gradientUnits="userSpaceOnUse">
            <stop stop-color="#7F5F39" />
            <stop offset="0.455063" stop-color="#D3BD8B" />
            <stop offset="0.887634" stop-color="#FFE4A6" />
            <stop offset="1" stop-color="#FFE4A6" />
        </linearGradient>
        <linearGradient id="paint25_linear_310_2360" x1="20.1329" y1="18.145" x2="22.7806" y2="15.4492"
            gradientUnits="userSpaceOnUse">
            <stop stop-color="#D4BC7B" />
            <stop offset="0.0393219" stop-color="#7F5F39" />
            <stop offset="0.106735" stop-color="#D1AC75" />
            <stop offset="1" stop-color="#D4BC7B" />
        </linearGradient>
        <linearGradient id="paint26_linear_310_2360" x1="27.8856" y1="18.1989" x2="25.1916" y2="15.456"
            gradientUnits="userSpaceOnUse">
            <stop stop-color="#D4BC7B" />
            <stop offset="0.0393219" stop-color="#7F5F39" />
            <stop offset="0.106735" stop-color="#D1AC75" />
            <stop offset="1" stop-color="#D4BC7B" />
        </linearGradient>
        <linearGradient id="paint27_linear_310_2360" x1="18.3476" y1="18.5843" x2="19.3333" y2="17.6484"
            gradientUnits="userSpaceOnUse">
            <stop stop-color="#FFE292" />
            <stop offset="0.157303" stop-color="#D1AC75" />
            <stop offset="1" stop-color="#FFE292" />
        </linearGradient>
        <linearGradient id="paint28_linear_310_2360" x1="29.6935" y1="18.5713" x2="28.6659" y2="17.5956"
            gradientUnits="userSpaceOnUse">
            <stop stop-color="#FFE292" />
            <stop offset="0.157303" stop-color="#D1AC75" />
            <stop offset="1" stop-color="#FFE292" />
        </linearGradient>
        <linearGradient id="paint29_linear_310_2360" x1="13.8081" y1="20.9305" x2="16.8838" y2="17.799"
            gradientUnits="userSpaceOnUse">
            <stop stop-color="#7F5F39" />
            <stop offset="1" stop-color="#BD9B6A" />
        </linearGradient>
        <linearGradient id="paint30_linear_310_2360" x1="36.3998" y1="21.4988" x2="37.7083" y2="22.8311"
            gradientUnits="userSpaceOnUse">
            <stop stop-color="#7F5F39" />
            <stop offset="1" stop-color="#D4BC7B" />
        </linearGradient>
        <linearGradient id="paint31_linear_310_2360" x1="35.9569" y1="24.8048" x2="38.8147" y2="19.2002"
            gradientUnits="userSpaceOnUse">
            <stop stop-color="#A78A5E" />
            <stop offset="0.764038" stop-color="#7F5F39" />
            <stop offset="0.915726" stop-color="#674C2B" />
            <stop offset="1" stop-color="#674C2B" />
        </linearGradient>
        <linearGradient id="paint32_linear_310_2360" x1="33.484" y1="26.071" x2="25.3024" y2="16.1437"
            gradientUnits="userSpaceOnUse">
            <stop stop-color="#FFEFCF" />
            <stop offset="0.460678" stop-color="#FFE4A6" />
            <stop offset="1" stop-color="#BC956E" />
        </linearGradient>
        <linearGradient id="paint33_linear_310_2360" x1="8.88083" y1="24.2943" x2="11.7179" y2="21.4058"
            gradientUnits="userSpaceOnUse">
            <stop stop-color="#7F5F39" />
            <stop offset="1" stop-color="#E9CF98" />
        </linearGradient>
        <linearGradient id="paint34_linear_310_2360" x1="8.3706" y1="24.1224" x2="12.1911" y2="20.2326"
            gradientUnits="userSpaceOnUse">
            <stop stop-color="#7F5F39" />
            <stop offset="1" stop-color="#E4CB90" />
        </linearGradient>
        <clipPath id="clip0_310_2360">
            <rect width="32" height="16" fill="white" transform="translate(8 16)" />
        </clipPath>
    </defs>
</svg>