<svg width="1em" height="1em" viewBox="0 0 48 48" fill="none" xmlns="http://www.w3.org/2000/svg">
    <path d="M33.1944 36.8676L15.8003 36.8716L10.4214 20.2254L24.4913 9.93348L38.5658 20.219L33.1944 36.8676Z"
        fill="#7B7C7F" />
    <g filter="url(#filter0_f_310_2600)">
        <path d="M33.0217 36.4479L15.9712 36.4518L10.6987 20.0649L24.4905 9.93339L38.2869 20.0586L33.0217 36.4479Z"
            fill="#B8B9BD" />
        <path d="M33.0217 36.4479L15.9712 36.4518L10.6987 20.0649L24.4905 9.93339L38.2869 20.0586L33.0217 36.4479Z"
            stroke="white" />
    </g>
    <path fill-rule="evenodd" clip-rule="evenodd"
        d="M11.8184 20.5077L23.4224 22.507L24.7218 11.3792L24.8835 23.7876L37.2349 20.4802L26.9858 25.1865L24.9427 25.0148L32.5206 35.491L24.4881 26.9553L16.5847 35.5379L22.2373 25.2342L11.8184 20.5077Z"
        fill="#FEFEFE" />
    <path fill-rule="evenodd" clip-rule="evenodd"
        d="M11.8184 20.5077L23.4224 22.507L24.7218 11.3792L24.8835 23.7876L37.2349 20.4802L26.9858 25.1865L24.9427 25.0148L32.5206 35.491L24.4881 26.9553L16.5847 35.5379L22.2373 25.2342L11.8184 20.5077Z"
        fill="url(#paint0_linear_310_2600)" />
    <path fill-rule="evenodd" clip-rule="evenodd"
        d="M11.8184 20.5077L23.4224 22.507L24.7218 11.3792L24.8835 23.7876L37.2349 20.4802L26.9858 25.1865L24.9427 25.0148L32.5206 35.491L24.4881 26.9553L16.5847 35.5379L22.2373 25.2342L11.8184 20.5077Z"
        fill="url(#paint1_linear_310_2600)" />
    <path fill-rule="evenodd" clip-rule="evenodd"
        d="M11.8184 20.5077L23.4224 22.507L24.7218 11.3792L24.8835 23.7876L37.2349 20.4802L26.9858 25.1865L24.9427 25.0148L32.5206 35.491L24.4881 26.9553L16.5847 35.5379L22.2373 25.2342L11.8184 20.5077Z"
        fill="url(#paint2_linear_310_2600)" />
    <path fill-rule="evenodd" clip-rule="evenodd" d="M11.8213 20.5054L24.6106 24.8421L23.3595 22.4639L11.8213 20.5054Z"
        fill="black" />
    <path fill-rule="evenodd" clip-rule="evenodd" d="M16.5723 35.5478L24.841 24.8142L22.198 25.2229L16.5723 35.5478Z"
        fill="black" />
    <path fill-rule="evenodd" clip-rule="evenodd"
        d="M32.5935 35.5192L25.5515 26.1941L24.4277 24.7061L27.0667 25.1403L32.5935 35.5192V35.5192Z" fill="black" />
    <path fill-rule="evenodd" clip-rule="evenodd" d="M24.7255 11.3708L24.5605 24.9511L26.4241 23.0213L24.7255 11.3708Z"
        fill="black" />
    <path fill-rule="evenodd" clip-rule="evenodd" d="M37.2336 20.4741L24.457 24.8489L25.7012 22.467L37.2336 20.4741Z"
        fill="black" />
    <path fill-rule="evenodd" clip-rule="evenodd"
        d="M11.8184 20.5077L23.4224 22.507L24.7218 11.3792L24.8835 23.7876L37.2349 20.4802L26.9858 25.1865L24.9427 25.0148L32.5206 35.491L24.4881 26.9553L16.5847 35.5379L22.2373 25.2342L11.8184 20.5077Z"
        fill="url(#paint3_linear_310_2600)" />
    <defs>
        <filter id="filter0_f_310_2600" x="8.91052" y="8.14563" width="31.1643" height="30.094"
            filterUnits="userSpaceOnUse" color-interpolation-filters="sRGB">
            <feFlood flood-opacity="0" result="BackgroundImageFix" />
            <feBlend mode="normal" in="SourceGraphic" in2="BackgroundImageFix" result="shape" />
            <feGaussianBlur stdDeviation="0.893859" result="effect1_foregroundBlur_310_2600" />
        </filter>
        <linearGradient id="paint0_linear_310_2600" x1="38.1593" y1="41.8085" x2="26.9064" y2="28.2178"
            gradientUnits="userSpaceOnUse">
            <stop />
            <stop offset="1" stop-opacity="0" />
        </linearGradient>
        <linearGradient id="paint1_linear_310_2600" x1="4.39505" y1="16.8223" x2="19.6321" y2="23.3884"
            gradientUnits="userSpaceOnUse">
            <stop />
            <stop offset="1" stop-opacity="0" />
        </linearGradient>
        <linearGradient id="paint2_linear_310_2600" x1="13.6738" y1="39.5606" x2="20.95" y2="29.6617"
            gradientUnits="userSpaceOnUse">
            <stop />
            <stop offset="1" stop-opacity="0" />
        </linearGradient>
        <linearGradient id="paint3_linear_310_2600" x1="24.6708" y1="5.23699" x2="25.1928" y2="20.021"
            gradientUnits="userSpaceOnUse">
            <stop stop-color="#999999" />
            <stop offset="1" stop-color="#999999" stop-opacity="0" />
        </linearGradient>
    </defs>
</svg>