<svg width="1em" height="1em" viewBox="0 0 48 48" fill="none" xmlns="http://www.w3.org/2000/svg">
    <g clip-path="url(#clip0_310_2653)">
        <path
            d="M14.6318 13.0972C17.6887 14.1604 20.7292 15.2728 23.7932 16.3145C23.9016 16.3565 24.009 16.3565 24.1173 16.3145C27.1762 15.2676 30.2147 14.1645 33.2665 13.0972C32.1838 14.8229 31.0909 16.5425 29.9847 18.253C29.4735 18.0331 28.947 17.8501 28.4317 17.6395C28.7302 17.114 29.0513 16.6008 29.3539 16.0774C28.3683 16.5732 27.3654 17.0343 26.387 17.5445C27.0709 17.8052 27.7559 18.0607 28.4348 18.3358C28.8131 18.4901 29.2189 18.7876 29.2445 19.2314C29.3048 19.7241 28.9684 20.1269 28.7302 20.5216C27.256 22.828 25.7899 25.1406 24.3085 27.443C24.3167 26.8357 24.2472 26.2223 24.3187 25.6191C24.9015 23.7696 25.4771 21.9181 26.0077 20.0533C26.112 19.7763 25.8022 19.628 25.6028 19.5309C25.0405 19.2825 24.514 18.9533 23.9384 18.7406C23.3546 18.9931 22.7944 19.2988 22.2219 19.5759C22.045 19.6577 21.7955 19.8192 21.8968 20.0503C22.4233 21.9161 23.005 23.7666 23.5837 25.617C23.6481 26.2213 23.5867 26.8347 23.5898 27.443C22.1319 25.1611 20.6771 22.8761 19.2212 20.5931C18.9677 20.173 18.5996 19.7436 18.663 19.2191C18.6968 18.7784 19.1006 18.486 19.4789 18.3327C20.1516 18.0587 20.8345 17.8082 21.5123 17.5434C20.536 17.0353 19.5371 16.5701 18.5526 16.0784C18.8542 16.6018 19.1752 17.114 19.4727 17.6406C18.9544 17.8471 18.4299 18.0383 17.9136 18.2499C16.8115 16.5374 15.7207 14.8168 14.6318 13.0972Z"
            fill="black" />
        <path
            d="M21.1094 33.978C21.1196 32.9699 21.1022 31.9629 21.1186 30.9548C22.7769 30.9661 24.4361 30.9518 26.0944 30.961C26.4185 30.9497 26.7968 31.1123 26.8612 31.4619C26.9011 31.8044 26.8919 32.152 26.8673 32.4945C26.8469 32.8728 26.4502 33.1018 26.1006 33.0773C24.748 33.0803 23.3954 33.0752 22.0418 33.0783C22.0428 33.3809 22.0438 33.6825 22.0479 33.9851C21.7351 33.9933 21.4222 33.9892 21.1094 33.978ZM22.0387 31.6388C22.0428 31.8739 22.0448 32.1091 22.0499 32.3452C23.334 32.333 24.6181 32.3565 25.9022 32.334C26.1353 32.1991 25.9769 31.875 26.0208 31.6582C24.6948 31.6132 23.3657 31.649 22.0387 31.6388Z"
            fill="black" />
        <path
            d="M8.11814 31.4199C8.25105 31.1193 8.59558 30.9517 8.91558 30.9588C10.5411 30.9547 12.1667 30.9609 13.7933 30.9568C13.7963 31.2349 13.7974 31.514 13.7994 31.7921C12.2066 31.8033 10.6117 31.7777 9.01986 31.8043C8.99021 31.8278 8.93194 31.8759 8.90229 31.9004C8.88389 32.3002 8.90638 32.702 8.89002 33.1027C9.03418 33.1385 9.18037 33.1753 9.33066 33.1692C10.8192 33.1651 12.3078 33.1712 13.7963 33.1651C13.7974 33.434 13.7984 33.7029 13.7984 33.9717C12.2393 34.0167 10.6781 33.9779 9.11903 33.9942C8.73667 34.0096 8.26229 33.936 8.11098 33.527C8.02817 33.1651 8.08542 32.7899 8.07009 32.4229C8.0752 32.0896 8.02613 31.7461 8.11814 31.4199Z"
            fill="#010101" />
        <path
            d="M14.5749 33.2439C14.5718 32.4812 14.5697 31.7185 14.5789 30.9569C14.9122 30.9579 15.2465 30.9559 15.5809 30.962C15.5921 31.693 15.5686 32.425 15.5952 33.156C16.8322 33.1805 18.0703 33.1662 19.3074 33.1642C19.3585 32.4301 19.3196 31.694 19.3309 30.9599C19.6683 30.9579 20.0057 30.9589 20.343 30.9548C20.3502 31.7165 20.3522 32.4792 20.3451 33.2419C20.3492 33.6508 19.9617 33.9923 19.5619 33.9851C18.4005 34.0199 17.2381 33.9739 16.0757 33.9943C15.7403 33.9933 15.3989 34.0137 15.0707 33.9309C14.7926 33.8267 14.5595 33.5516 14.5749 33.2439Z"
            fill="#010101" />
        <path
            d="M27.6535 30.9568C29.2821 30.9609 30.9107 30.9568 32.5393 30.9578C32.891 30.9507 33.3051 31.1337 33.393 31.5048C33.4175 31.8452 33.4165 32.1887 33.392 32.5292C33.3409 32.8154 33.0883 32.9657 32.8573 33.0986C33.0781 33.3788 33.2744 33.6763 33.4728 33.9728C33.0699 33.9472 32.4586 34.1885 32.2336 33.7325C32.0987 33.5178 31.9709 33.299 31.84 33.0823C30.7635 33.0731 29.6869 33.0782 28.6104 33.0792C28.6124 33.3757 28.6135 33.6722 28.6165 33.9697C28.2945 33.9983 27.9714 33.9993 27.6504 33.9779C27.6555 32.9708 27.6463 31.9638 27.6535 30.9568ZM28.6206 31.605C28.6124 31.8503 28.6124 32.0967 28.6135 32.3421C29.8853 32.3329 31.1581 32.3595 32.4289 32.3298C32.4606 32.3073 32.524 32.2613 32.5567 32.2378C32.5383 32.0313 32.662 31.7195 32.4146 31.6172C31.151 31.5907 29.8853 31.6162 28.6206 31.605Z"
            fill="#010101" />
        <path
            d="M34.1902 31.7084C34.1769 31.2473 34.6584 30.9263 35.0857 30.958C36.699 30.9569 38.3123 30.961 39.9256 30.9559C39.9307 31.963 39.943 32.971 39.9134 33.978C39.6332 33.9903 39.35 34.0169 39.0709 33.9821C38.9442 33.7173 39.0515 33.3718 39.0208 33.0783C37.7245 33.0773 36.4281 33.0784 35.1318 33.0773C35.1297 33.3799 35.1318 33.6836 35.1338 33.9872C34.8199 33.9954 34.5071 33.9913 34.1942 33.978C34.2034 33.2215 34.1748 32.4649 34.1902 31.7084ZM35.1358 31.6481C35.1318 31.8801 35.1328 32.1122 35.1369 32.3453C36.4291 32.3382 37.7224 32.3433 39.0157 32.3422C39.0178 32.1081 39.0188 31.875 39.0219 31.6409C37.7265 31.6409 36.4312 31.6276 35.1358 31.6481Z"
            fill="#010101" />
    </g>
    <defs>
        <clipPath id="clip0_310_2653">
            <rect width="32" height="21.0607" fill="white" transform="translate(8 13)" />
        </clipPath>
    </defs>
</svg>