<svg width="1em" height="1em" viewBox="0 0 48 48" fill="none" xmlns="http://www.w3.org/2000/svg">
    <g clip-path="url(#clip0_310_2692)">
        <path fill-rule="evenodd" clip-rule="evenodd"
            d="M35.3871 22.1057L31.5625 26.534H33.4364L37.2534 22.1093L35.3871 22.1057V22.1057ZM38.0278 22.1057L34.2031 26.534H36.0771L39.894 22.1093L38.0278 22.1057V22.1057Z"
            fill="#D50000" />
        <path fill-rule="evenodd" clip-rule="evenodd"
            d="M16.0681 23.1702C15.525 23.1686 13.6191 23.2166 13.6191 24.0881C13.6191 24.7014 14.5107 24.878 15.2469 24.9574C15.768 25.0136 16.2097 25.0109 16.2097 25.0109C16.2097 25.0109 16.6238 25.0274 17.1254 24.999C17.9036 24.9547 18.8944 24.7793 18.8944 24.0879C18.8944 23.175 16.3075 23.1717 16.2079 23.1717C16.1955 23.1717 16.1457 23.1704 16.0681 23.1702V23.1702ZM10.9517 23.1957L8.42459 23.1967C8.42464 23.1967 8.30619 23.1866 8.23564 23.2417C8.16976 23.2931 8.16914 23.4092 8.16914 23.4092L8.15039 24.7816C8.15039 24.9943 8.39165 24.9775 8.39165 24.9775L11.0398 24.9754C11.0398 24.9754 11.9102 24.9971 12.5039 24.796C12.893 24.6643 13.0931 24.4117 13.0931 24.091C13.0931 23.732 12.7474 23.4842 12.2789 23.3542C11.6903 23.191 10.9516 23.1957 10.9516 23.1957H10.9517ZM22.2184 23.1957L19.6922 23.1967C19.6922 23.1967 19.5736 23.1866 19.5031 23.2417C19.4372 23.2931 19.4367 23.4092 19.4367 23.4092L19.4176 24.7816C19.4176 24.9943 19.6589 24.9775 19.6589 24.9775L22.308 24.9754C22.308 24.9754 23.1771 24.9971 23.771 24.796C24.1601 24.6643 24.3611 24.4117 24.3611 24.091C24.3611 23.732 24.0155 23.4842 23.5457 23.3542C22.9582 23.191 22.2184 23.1957 22.2184 23.1957V23.1957ZM29.7793 23.1977C29.7563 23.1977 26.8481 23.2 26.8481 23.2C26.8481 23.2 26.6305 23.1987 26.3413 23.2247C25.7614 23.2766 24.891 23.4535 24.891 24.0881C24.891 24.3834 25.051 24.5926 25.3275 24.7247C25.9291 24.9968 26.9761 24.9765 26.9761 24.9765H29.5925C29.8216 24.9765 29.8446 24.841 29.8446 24.7496C29.8446 24.6584 29.851 24.2964 29.851 24.0881C29.851 23.88 29.6257 23.8977 29.6257 23.8977H27.2974C27.195 23.8977 27.195 23.981 27.195 23.981C27.195 23.981 27.1899 24.0883 27.1899 24.1835C27.1899 24.279 27.2872 24.2764 27.2872 24.2764H28.6299C28.7182 24.2764 28.7285 24.3477 28.7285 24.3477V24.509C28.7285 24.592 28.6401 24.5975 28.6401 24.5975H27.099C26.8609 24.5975 26.0264 24.5975 26.0264 24.0881C26.0264 23.579 27.012 23.5742 27.012 23.5742H29.7653C29.8766 23.5742 29.8613 23.4402 29.8613 23.4402V23.2724C29.8613 23.1996 29.8024 23.1977 29.7793 23.1977ZM30.683 23.199C30.4769 23.199 30.4104 23.2326 30.404 23.4229C30.3989 23.5735 30.3822 24.5139 30.3822 24.7315C30.3822 24.9488 30.5025 24.9765 30.6459 24.9765H34.8648C34.9595 24.9765 34.9557 24.903 34.9557 24.8862V24.6767C34.9557 24.5969 34.8392 24.5975 34.8392 24.5975H31.6481C31.524 24.5975 31.5278 24.5204 31.5278 24.5204C31.5278 24.5204 31.5291 24.4474 31.5291 24.3659C31.5291 24.2846 31.6033 24.2714 31.6392 24.2714H34.6421C34.7304 24.2714 34.7291 24.1885 34.7291 24.1885V23.981C34.7291 23.8913 34.6203 23.8947 34.6203 23.8947H31.6289C31.5291 23.8947 31.5278 23.7935 31.5278 23.7935L31.5304 23.6805C31.5304 23.5824 31.6289 23.5742 31.6289 23.5742H34.7931C34.8865 23.5742 34.8993 23.5068 34.8993 23.4402V23.2724C34.8993 23.1917 34.788 23.199 34.788 23.199H30.683V23.199ZM16.2165 23.5482C16.4809 23.5482 17.7595 23.5713 17.7595 24.0944C17.7609 24.6565 16.5664 24.624 16.2165 24.624C15.8664 24.624 14.763 24.6024 14.763 24.0944C14.763 23.5322 15.9519 23.5482 16.2165 23.5482V23.5482ZM10.9752 23.5742C10.9752 23.5742 11.3306 23.5879 11.6022 23.691C11.8151 23.7717 11.9588 23.9174 11.9588 24.0889C11.9588 24.2333 11.8652 24.3788 11.696 24.4564C11.4066 24.5889 10.974 24.5969 10.974 24.5969L9.3435 24.598C9.3435 24.598 9.2515 24.6003 9.2515 24.5149C9.2515 24.5149 9.266 23.6705 9.266 23.6595C9.266 23.6483 9.26494 23.5752 9.36219 23.5752C9.47406 23.5752 10.9752 23.5742 10.9752 23.5742V23.5742ZM22.2421 23.5742C22.2421 23.5742 22.5979 23.5879 22.8693 23.691C23.083 23.7717 23.2264 23.9174 23.2264 24.0889C23.2264 24.2333 23.1329 24.3788 22.9627 24.4564C22.6734 24.5889 22.2408 24.5969 22.2408 24.5969L20.6107 24.598C20.6107 24.598 20.5191 24.6003 20.5191 24.5149C20.5191 24.5149 20.5333 23.6705 20.5333 23.6595C20.5333 23.6483 20.5322 23.5752 20.6295 23.5752C20.7413 23.5752 22.2421 23.5742 22.2421 23.5742V23.5742Z"
            fill="black" />
    </g>
    <defs>
        <clipPath id="clip0_310_2692">
            <rect width="32" height="4.68429" fill="white" transform="translate(8 22)" />
        </clipPath>
    </defs>
</svg>