<svg width="1em" height="1em" viewBox="0 0 48 48" fill="none" xmlns="http://www.w3.org/2000/svg">
    <g clip-path="url(#clip0_310_26356)">
        <path
            d="M39.7333 23.9997C39.7333 32.6893 32.6891 39.7333 23.9999 39.7333C15.3106 39.7333 8.2666 32.6893 8.2666 23.9997C8.2666 15.3108 15.3106 8.2666 23.9999 8.2666C32.6891 8.2666 39.7333 15.3108 39.7333 23.9997Z"
            fill="#231F20" />
        <path
            d="M39.1811 23.9998C39.1811 32.3846 32.3844 39.1813 23.9999 39.1813C15.6154 39.1813 8.81836 32.3846 8.81836 23.9998C8.81836 15.6155 15.6154 8.8186 23.9999 8.8186C32.3844 8.8186 39.1811 15.6155 39.1811 23.9998"
            fill="#BDBCBC" />
        <path
            d="M11.7897 16.3535C11.7897 16.3661 10.1053 16.6222 10.1069 16.6302C10.1152 16.6721 10.0197 25.2951 11.5579 24.8611C12.5707 24.3845 12.0257 18.7659 12.0257 19.5216C12.0257 20.575 12.128 22.3027 12.5321 25.0161C12.9876 28.0726 12.7956 28.4534 13.008 29.1116C12.514 28.6318 11.7453 28.4159 11.7453 28.4159L12.8352 32.0999L13.6379 32.0917C13.6379 32.0917 13.6495 31.8442 13.66 31.8325C13.6816 31.8323 14.4528 31.8896 14.9827 32.8593C18.0487 38.4707 26.1208 36.3129 24.0078 36.4345L27.334 36.0341C17.5924 37.7008 15.765 33.2092 15.2751 32.3125C14.9682 31.8628 14.086 31.3916 13.5313 31.6599C13.5313 31.6599 14.8852 31.7139 14.825 31.3549C15.248 31.7658 13.773 30.69 13.773 30.69L13.8472 30.9232C14.076 30.9463 13.973 30.6994 14.214 30.659L13.9149 30.5221C13.8765 30.4751 14.0811 30.2309 13.3507 25.3297C12.9495 22.6366 13.0303 20.5401 13.0303 19.4968C13.0303 18.4861 12.9644 18.4146 12.9662 18.4071L12.3726 18.0195L12.2587 17.9964C12.0951 17.9632 11.933 17.9108 11.8627 17.8718C11.8992 17.8176 11.9202 17.7453 11.9202 17.6259C11.9202 17.5104 11.9078 17.3599 11.8917 17.1655C11.8705 16.9055 11.881 15.9739 11.8451 16.285C9.95359 32.7011 12.572 14.4477 12.2503 14.7984L12.4342 14.59C13.3252 13.5615 16.4378 11.1596 24.4689 10.9718C32.9618 10.7728 33.0003 13.8749 33.0294 13.9203L35.2294 15.01C35.2004 14.9634 32.3429 10.2206 23.7179 10.4225C15.5904 10.6128 13.1778 13.397 12.2695 14.4452L12.0899 14.6492C11.7165 15.0564 11.288 15.0601 11.288 15.6601C11.288 15.9805 10.9288 16.4073 10.9507 16.6723C11.9991 18.5142 11.6372 17.6037 11.7897 16.3535L11.7897 16.3535ZM35.0146 15.5638C34.8293 15.6434 34.8573 15.944 34.8958 16.3597C34.9243 16.6696 34.957 17.0209 34.8958 17.2661L35.108 17.3195C35.1782 17.0381 35.1433 16.6669 35.1133 16.3393C35.0943 16.1311 35.0647 15.816 35.109 15.7601C35.1143 15.7673 35.1755 18.1061 35.6575 18.6636C36.4239 19.5509 36.0417 19.0404 36.0417 20.5866C36.0417 21.3487 36.6118 22.2369 36.5891 22.548C36.3051 22.1885 36.2244 21.2635 36.1521 20.4338C36.0676 19.4678 35.9953 18.6338 35.6517 18.3566C36.0751 17.9853 34.6037 16.0398 34.7042 17.3572C34.7733 17.8181 34.5479 16.3226 34.2207 15.8135C33.2183 14.2535 31.1418 12.4308 23.9258 12.1803C17.311 11.9506 14.0326 14.6657 13.1899 15.494C13.1909 15.4922 13.2993 15.3051 13.2993 15.3051L12.2245 14.751L11.9204 17.9691L12.3804 17.2431C12.3804 17.2431 13.123 15.8964 13.1367 15.8649C13.2526 15.7282 16.387 12.1386 23.9181 12.4001C31.9459 12.6787 33.4115 14.9591 34.0375 15.9329C34.3389 16.4024 34.4181 16.9272 34.4883 17.3901C34.5801 17.9997 34.6678 18.5754 35.3524 18.4834C35.4152 18.4752 35.4669 18.4892 35.515 18.5282C35.7863 18.7468 35.8612 19.6142 35.9346 20.4528C36.0307 21.5624 36.1225 22.6103 36.6324 22.8672L36.7744 22.9388L36.7897 22.7794C36.8087 22.5757 37.2484 17.7791 35.8903 16.2065C35.3555 15.5873 35.1587 15.5018 35.0146 15.5638H35.0146ZM37.9182 19.5397C37.7942 18.961 37.5962 18.3298 37.3028 17.6878C37.4569 18.0433 37.7034 18.677 37.9182 19.5397ZM37.3028 17.6878C37.2653 17.6008 37.2315 17.5257 37.2067 17.4736C37.2421 17.5453 37.2706 17.6162 37.3028 17.6878ZM36.6187 16.0997C38.4133 17.8302 38.0914 22.2957 38.0914 22.2957L37.2183 21.2814V25.6081L36.6139 26.8248C35.5392 32.5712 32.9876 37.6416 22.9816 37.3711C12.9758 37.1007 11.4315 31.7601 10.4913 26.6897C9.55106 21.6195 10.8942 16.076 10.8942 16.076C7.93924 24.8643 11.4315 31.4896 11.4315 31.4896C11.4315 31.4896 13.1101 37.709 23.4519 37.6416C33.7931 37.5741 35.4052 31.8277 35.4052 31.8277L35.5931 33.2781C35.5931 33.2781 37.9953 31.0807 38.7337 26.4835C39.108 24.1561 37.6617 17.1053 36.6187 16.0997V16.0997ZM37.2067 17.4736C37.1719 17.4006 37.1507 17.3603 37.1507 17.3603C37.1703 17.3983 37.1882 17.436 37.2067 17.4736Z"
            fill="#231F20" />
        <path
            d="M37.8781 21.6383C37.8901 21.6559 37.8781 21.6383 37.8781 21.6383V21.6383ZM12.1805 14.4287C12.1805 14.4287 13.5479 13.1677 14.5243 12.2386C14.5243 12.2386 13.2222 12.9685 12.1805 14.4287ZM11.8166 31.1644C12.5908 32.7262 13.3527 33.7425 13.3527 33.7425C13.3527 33.7425 12.6267 32.6474 11.8166 31.1644ZM37.1793 16.1543L36.9248 15.4129L39.1972 16.2207L36.9987 15.0939L39.2315 13.7689L36.7776 14.7749L37.1703 12.3213L36.3738 14.6914L35.7963 14.5283C34.5854 12.7281 32.9217 11.8271 30.8282 10.8229C26.9371 8.95586 21.7506 9.45093 21.7506 9.45093C21.7506 9.45093 27.8736 9.52889 32.5571 12.305C33.5245 12.8784 34.331 13.6734 35.0003 14.572L33.9895 14.6277L35.1481 14.7755C35.2574 14.9295 35.363 15.086 35.4643 15.2448L34.1194 16.0217L35.5704 15.4127C35.7198 15.6547 35.8618 15.9011 35.9953 16.1504L35.4215 17.9465L36.0998 16.3479C37.1048 18.2918 37.6343 20.3568 37.8781 21.6383C37.5968 18.956 37.1059 17.044 36.4123 15.6098L36.463 15.4908C36.463 15.4908 39.0019 18.8092 38.5464 24.2517C38.0909 29.6942 36.7887 31.619 35.4865 32.9464L35.4215 32.2825C35.4215 32.2825 33.534 37.9244 24.1593 37.7914C14.7847 37.6584 14.0686 34.6058 14.0686 34.6058L13.5478 34.3399C13.5478 34.3399 11.3345 32.6147 9.96729 28.0349C8.60001 23.4552 9.9021 19.7385 9.9021 19.7385C9.9021 19.7385 9.18602 22.7915 9.70685 25.9109C9.97674 27.5274 10.9452 29.5701 11.8166 31.1644C11.177 29.8749 10.5285 28.2134 10.2929 26.4418C9.77177 22.5259 9.9021 19.871 10.553 17.8801C11.204 15.8892 11.5947 15.026 11.5947 15.026C11.5947 15.026 8.86066 18.2121 8.79547 24.9818C8.73034 31.7518 14.4591 36.3976 16.9979 37.3933C19.5369 38.3888 27.5443 39.716 32.3617 36.3314C37.1793 32.9464 36.8536 32.0838 38.416 28.9639C39.979 25.8445 39.3276 19.5393 37.1793 16.1543V16.1543ZM36.0391 14.9129C36.0338 14.9042 36.0291 14.8955 36.0238 14.8873L36.0724 14.8935L36.0391 14.9129ZM36.2629 15.3124C36.2355 15.2605 36.208 15.2075 36.1801 15.1568L36.3331 15.0924L36.2629 15.3124ZM13.3527 15.026C13.743 14.3623 15.7612 13.1677 15.7612 13.1677C15.7612 13.1677 14.6543 13.8316 13.4177 15.2916C12.1805 16.7516 13.8733 15.1588 16.1519 13.6322C18.4303 12.1058 21.6202 12.2386 21.6202 12.2386C21.6202 12.2386 20.5788 11.4421 16.6076 12.7033L20.4485 11.0439C20.4485 11.0439 14.5896 12.305 12.8968 14.6943C11.204 17.0836 12.9618 15.6898 13.3527 15.026V15.026ZM32.9491 14.8162C33.6675 15.5622 34.1848 16.2207 34.1848 16.2207C34.1848 16.2207 33.9731 15.5498 32.9491 14.8162V14.8162ZM10.6834 24.5837C11.3994 31.619 14.3942 34.6058 14.3942 34.6058C14.3942 34.6058 16.6726 36.8624 23.7685 37.1941C30.8643 37.5259 33.1434 34.7384 33.3387 34.2739C33.534 33.8093 32.4269 34.5392 32.1015 34.4064C31.7759 34.2739 33.1434 31.8179 33.1434 31.8179C32.4271 34.4728 33.534 31.4198 34.2497 31.7518C34.966 32.0833 32.8176 32.9464 33.534 33.6102C34.2497 34.2739 35.7467 29.5614 36.7237 27.4375C37.7002 25.3138 37.3746 23.1235 37.3096 21.7296C37.2447 20.3358 36.919 19.7385 36.919 19.7385L36.7237 23.0573C36.7237 23.0573 36.8541 23.5216 35.8121 21.1985L34.966 18.942C34.3801 29.2961 32.0361 33.2122 32.0361 33.2122C32.0361 33.2122 31.1899 35.8003 24.3543 35.8669C17.5189 35.9328 16.5422 34.1409 16.5422 34.1409C14.329 31.2206 13.0269 24.9818 13.3527 20.867C13.678 16.7519 13.3527 15.6234 16.282 14.3623C19.2115 13.1015 23.6383 12.9685 23.6383 12.9685C28.9554 12.819 31.6285 13.8697 32.9491 14.8162C32.7844 14.6452 32.6091 14.4692 32.4269 14.2961C31.4504 13.3671 22.4013 11.4421 17.6491 13.3005C12.8968 15.1588 12.5713 16.9508 12.8968 22.3934C13.2224 27.8359 14.915 32.3489 16.0867 34.0747C17.2585 35.8003 21.425 36.3314 21.425 36.3314C15.7612 36.1984 15.1102 33.2122 14.7847 32.6806C14.4591 32.1497 13.4826 31.0876 13.2873 31.9508C13.0921 32.8135 11.3417 27.5375 11.6673 27.2719C11.9927 27.0064 14.0034 29.9598 14.0034 29.9598C14.0034 29.9598 13.2873 28.4994 12.5713 24.3845C11.8551 20.2696 12.9618 18.2121 12.2457 18.0793C11.5296 17.9465 13.1362 24.1513 11.0852 24.4272C10.5009 24.5059 10.9858 18.9395 11.2465 17.8112C11.5067 16.6828 11.7902 16.3535 11.7902 16.3535C11.7902 16.3535 9.96729 17.5484 10.6834 24.5837"
            fill="url(#paint0_linear_310_26356)" />
        <path
            d="M24.9665 35.4301C24.9776 35.4296 26.5978 35.3501 28.0113 35.0316C29.2393 34.7551 30.3262 34.2266 30.337 34.2214L30.341 34.2193L30.3454 34.2174C30.3514 34.2148 30.957 33.9534 31.3295 33.5975C31.707 33.2364 31.8787 32.764 31.8805 32.7593C31.8881 32.7388 32.5492 30.9769 33.0492 29.0947C33.5094 27.3627 33.8251 25.448 33.8282 25.4289C33.8332 25.4037 34.2145 23.469 34.3214 21.411C34.4114 19.6814 34.2326 17.7177 34.2307 17.698C34.2296 17.6833 34.1375 16.5203 33.6708 15.7599C33.2514 15.0767 32.4416 14.7412 32.4335 14.7377L32.4264 14.7349L32.4195 14.7313C32.4102 14.7266 31.4699 14.2555 29.6864 13.8675C28.264 13.5581 26.2868 13.3372 24.6496 13.3052C22.7779 13.2685 20.7685 13.3989 19.2751 13.6543C17.4841 13.9604 16.3205 14.4152 16.3088 14.4197L16.2991 14.4234L16.289 14.4262C16.2774 14.4293 15.1169 14.7474 14.5068 15.5221C13.887 16.309 13.7866 17.6017 13.7857 17.6147L13.7849 17.6226C13.7832 17.6356 13.6533 18.7505 13.6533 20.1169C13.6533 20.3618 13.6574 20.6149 13.6674 20.8713C13.7373 22.6912 14.0554 24.7083 14.0586 24.7285C14.0623 24.7483 14.4934 27.1164 14.9849 29.1121C15.3491 30.5916 15.8234 31.9004 15.8281 31.9133L15.8313 31.9227L15.8338 31.9323C15.8356 31.9389 15.9972 32.603 16.2601 33.0665C16.4889 33.4697 16.8259 33.7068 16.8295 33.7088L16.8349 33.7127L16.8404 33.7172C16.8429 33.7189 17.0722 33.9042 17.4242 34.0971C17.8295 34.319 18.3726 34.557 18.3957 34.5667C18.434 34.5816 19.6313 35.04 21.2098 35.2483C22.8581 35.4659 24.9454 35.4304 24.9664 35.4301L24.9665 35.4301Z"
            fill="url(#paint1_radial_310_26356)" stroke="#6D0115" stroke-width="2" />
        <path
            d="M17.8123 34.162C17.7408 34.1293 17.7018 34.1103 17.7018 34.1103C17.6978 34.1086 17.6775 34.0997 17.6445 34.0846L17.6325 34.0136C17.3498 32.455 16.9184 29.6074 16.7773 26.1349C16.6028 22.0515 16.6095 17.0469 16.6261 14.6228V14.4475C16.6737 14.4315 16.7231 14.4153 16.7741 14.3989L16.7748 14.5746C16.7581 16.978 16.7501 22.0205 16.9257 26.1289C17.0691 29.6618 17.5138 32.5451 17.7948 34.0769L17.8123 34.162V34.162Z"
            fill="#6D0115" />
        <path
            d="M18.2793 34.3617C18.2221 34.3386 18.1683 34.3163 18.1184 34.2955L18.1046 34.186C17.8987 32.7182 17.5344 29.7259 17.3613 25.8979C17.1774 21.8286 17.2106 16.7135 17.2393 14.3882L17.2397 14.2576C17.288 14.2437 17.3374 14.2297 17.3879 14.2158L17.3883 14.36C17.3595 16.6693 17.3253 21.8079 17.5097 25.8915C17.6866 29.806 18.0639 32.8443 18.2662 34.2683L18.2793 34.3617V34.3617Z"
            fill="#6D0115" />
        <path
            d="M21.7701 13.6275C21.8075 18.1352 21.9153 31.1385 21.9467 34.9054L21.9495 35.2235C21.9014 35.2185 21.8519 35.2129 21.802 35.2072L21.7983 34.9049C21.7669 31.1408 21.6593 18.1712 21.6219 13.6472L21.6182 13.5153C21.6681 13.5112 21.718 13.507 21.768 13.5032L21.7701 13.6275V13.6275Z"
            fill="#6D0115" />
        <path
            d="M23.7022 13.5688C23.7151 17.5188 23.7581 30.5938 23.7726 35.0124L23.7736 35.3132C23.7216 35.3139 23.6717 35.3144 23.624 35.3145V34.9733C23.6092 30.498 23.5661 17.3981 23.5534 13.5201L23.5527 13.4192C23.6009 13.4185 23.6492 13.418 23.6978 13.4175L23.7022 13.5688Z"
            fill="#6D0115" />
        <path
            d="M24.444 13.5884C24.4221 17.9748 24.3568 31.139 24.3376 35.0127L24.3372 35.3028C24.2859 35.3042 24.2359 35.3054 24.1865 35.3064L24.1886 35.0709C24.2073 31.2654 24.2735 17.9391 24.2954 13.5591L24.2919 13.4177C24.3436 13.4182 24.3951 13.4188 24.4466 13.4196L24.444 13.5884V13.5884Z"
            fill="#6D0115" />
        <path
            d="M26.45 34.9357C26.5566 33.1727 26.7577 29.4352 26.8403 25.2061C26.9246 20.8959 26.8871 15.9908 26.8611 13.687L26.8527 13.5388C26.9128 13.544 26.9725 13.5494 27.0319 13.555L27.04 13.7449C27.0658 16.0741 27.1021 20.934 27.0187 25.2094C26.9366 29.4033 26.7381 33.1144 26.631 34.8983L26.6155 35.1531C26.5531 35.1605 26.4991 35.1677 26.4355 35.1745L26.45 34.9357V34.9357Z"
            fill="#6D0115" />
        <path
            d="M31.5188 33.1884C31.4394 33.2966 31.3561 33.3867 31.2852 33.4554L31.3564 33.0771C31.6666 31.4703 32.0677 28.9848 32.2679 26.0661C32.5058 22.5965 32.5363 17.8523 32.5312 15.1565L32.5344 14.8982C32.5922 14.9302 32.6508 14.9641 32.7094 15.0006L32.7097 15.3449C32.7131 18.0716 32.6785 22.6831 32.4458 26.0781C32.2494 28.9434 31.8596 31.3934 31.5511 33.0084L31.5188 33.1884V33.1884Z"
            fill="#6D0115" />
        <path
            d="M33.2336 27.3678C33.3621 26.3522 33.4807 25.2124 33.5623 24.0084C33.7418 21.3624 33.7464 18.3646 33.7236 16.4569L33.7196 16.1384C33.7944 16.3054 33.8547 16.4766 33.9034 16.6409L33.9069 16.9368C33.923 18.8469 33.9057 21.5822 33.7404 24.0202C33.7058 24.5335 33.6642 25.0351 33.6181 25.5206L33.5636 26.0568C33.4492 26.6301 33.304 27.3292 33.1445 28.0386L33.2336 27.3678V27.3678Z"
            fill="#6D0115" />
        <path
            d="M30.8878 33.7686C30.8313 33.807 30.7637 33.8506 30.6875 33.8967L30.7417 33.5924C31.0391 31.9556 31.502 28.9848 31.6839 25.5326C31.8834 21.7403 31.8841 17.2325 31.8674 14.9247L31.8605 14.5979C31.9113 14.6158 31.9713 14.6379 32.0378 14.6645L32.0461 14.9689C32.0625 17.2921 32.0606 21.7702 31.8619 25.5418C31.6851 28.8989 31.2429 31.8027 30.9444 33.4729L30.8878 33.7686V33.7686Z"
            fill="#6D0115" />
        <path
            d="M28.6974 34.5189C28.838 32.9938 29.0958 29.8367 29.2197 26.0281C29.3587 21.7525 29.3592 16.6858 29.349 14.2382L29.3435 13.8901C29.4056 13.9028 29.4669 13.9157 29.5269 13.9288L29.5276 14.2657C29.5376 16.7253 29.5366 21.772 29.3979 26.0339C29.2749 29.8174 29.0198 32.9592 28.8784 34.5001L28.8603 34.6872C28.8012 34.7046 28.7422 34.7226 28.6768 34.7408L28.6974 34.5189V34.5189Z"
            fill="#6D0115" />
        <path
            d="M28.0818 34.663C28.2362 33.3679 28.4893 30.8575 28.5935 27.5924C28.7456 22.8417 28.7269 16.8507 28.707 14.0784L28.7036 13.77C28.7627 13.7801 28.821 13.7902 28.8787 13.8008L28.8854 14.1231C28.9051 16.9165 28.9231 22.8708 28.7716 27.5983C28.6687 30.8131 28.4222 33.2985 28.2666 34.6167L28.2378 34.8553C28.1785 34.8698 28.1152 34.8858 28.0527 34.9002L28.0818 34.663Z"
            fill="#6D0115" />
        <path
            d="M27.5823 34.7681C27.703 33.3987 27.9114 30.6864 28.0093 27.3867C28.1461 22.7752 28.1108 16.9357 28.078 13.8912L28.0744 13.6736C28.1351 13.6818 28.1951 13.6903 28.2544 13.699L28.2576 13.99C28.2901 17.0627 28.323 22.8281 28.1877 27.3919C28.0914 30.6407 27.8879 33.321 27.7664 34.7142L27.7441 34.9669C27.6827 34.9796 27.6249 34.9915 27.5615 35.0036L27.5823 34.7681V34.7681Z"
            fill="#6D0115" />
        <path
            d="M27.0032 34.8843C27.1055 33.2848 27.2991 29.9428 27.3836 26.3581C27.496 21.5928 27.5015 16.2772 27.4965 13.7889L27.4914 13.6016C27.5519 13.6083 27.6119 13.6151 27.6714 13.6221L27.6751 13.8332C27.6799 16.3408 27.6739 21.6234 27.562 26.3621C27.4784 29.904 27.2887 33.2093 27.1853 34.8337L27.1698 35.0734C27.1061 35.084 27.0547 35.093 26.9893 35.1029L27.0032 34.8843V34.8843Z"
            fill="#6D0115" />
        <path
            d="M26.3894 13.7057C26.3819 16.2523 26.3563 22.0295 26.2737 26.9574C26.2165 30.3686 26.108 33.3503 26.0449 34.8968L26.0311 35.2123C25.9808 35.2165 25.9302 35.2208 25.8799 35.2248L25.8944 34.9444C25.957 33.415 26.0673 30.4048 26.1253 26.955C26.2084 22.0029 26.2338 16.1926 26.2412 13.6667L26.2423 13.4919C26.2924 13.4954 26.3423 13.4987 26.3921 13.5024L26.3894 13.7057V13.7057Z"
            fill="#6D0115" />
        <path
            d="M25.6554 13.5884C25.676 15.8358 25.7067 20.234 25.6794 24.3787C25.6496 28.8653 25.5523 33.1492 25.5063 34.9935L25.5008 35.2517C25.4502 35.255 25.3999 35.2579 25.3496 35.2609L25.3565 35.0419C25.4022 33.2276 25.5008 28.906 25.5308 24.3775C25.5582 20.2572 25.528 15.8855 25.5073 13.6273L25.5056 13.4504C25.5552 13.4527 25.6046 13.455 25.654 13.4574L25.6554 13.5884V13.5884Z"
            fill="#6D0115" />
        <path
            d="M25.0724 13.5787C25.1029 16.1562 25.1453 20.7696 25.1246 25.1206C25.1054 29.1686 25.0188 33.0455 24.9665 35.0712L24.9621 35.2808C24.9118 35.283 24.8621 35.2851 24.8125 35.2872L24.8187 35.0418C24.8709 33.0097 24.9567 29.1496 24.9761 25.1199C24.9965 20.7907 24.9547 16.2018 24.9242 13.6176L24.9208 13.4294C24.9708 13.4308 25.0207 13.4324 25.0705 13.4338L25.0724 13.5787V13.5787Z"
            fill="#6D0115" />
        <path
            d="M19.823 34.8719C19.7713 34.8591 19.7199 34.8459 19.6689 34.8321L19.6601 34.7358C19.5354 33.3899 19.2845 30.3632 19.1807 26.8105C19.0482 22.2783 19.0923 16.6138 19.1248 13.9465L19.1236 13.8296C19.1731 13.8211 19.2229 13.8125 19.2734 13.8042L19.2737 13.9225C19.2413 16.5776 19.1964 22.2619 19.3293 26.8063C19.4345 30.405 19.6906 33.4627 19.8133 34.7775L19.823 34.8719Z"
            fill="#6D0115" />
        <path
            d="M18.8168 34.566C18.7631 34.5468 18.7107 34.5279 18.6597 34.5091L18.6475 34.3978C18.4205 32.5033 17.9813 28.411 17.8421 24.0694C17.7242 20.3963 17.826 16.2966 17.8947 14.2348L17.8973 14.0837C17.9465 14.0717 17.9965 14.0597 18.0471 14.0479L18.0452 14.1781C17.9767 16.217 17.8716 20.3583 17.9905 24.0649C18.1316 28.4677 18.5817 32.6139 18.8053 34.4656L18.8168 34.566Z"
            fill="#6D0115" />
        <path
            d="M14.5888 27.0151C14.4075 26.1318 14.3014 25.4867 14.2995 25.4754L14.2741 25.0886C14.1694 23.767 14.0754 22.2865 14.0535 21.0241C14.0276 19.5314 14.0385 18.0389 14.0558 16.9226L14.0496 16.7803C14.0932 16.6109 14.1476 16.4333 14.2151 16.2607L14.2024 17.0544C14.1864 18.154 14.1772 19.5876 14.2023 21.0218C14.23 22.6189 14.3734 24.5666 14.5077 26.0972L14.5888 27.0151V27.0151Z"
            fill="#6D0115" />
        <path
            d="M15.8797 31.7285C15.7768 31.4267 15.6589 31.0706 15.5367 30.6817L15.4461 30.1596C15.2146 28.7909 15.0093 27.3371 14.951 26.2205C14.6483 22.5086 14.6329 18.2237 14.652 15.9429L14.6557 15.5232C14.7028 15.4717 14.7515 15.4232 14.8011 15.3774L14.802 15.7744C14.7808 18.0042 14.7891 22.4084 15.0993 26.2107C15.167 27.5126 15.4359 29.2749 15.7122 30.8243L15.8797 31.7285V31.7285Z"
            fill="#6D0115" />
        <path
            d="M16.6101 32.5092C16.3048 31.0045 15.9283 28.7853 15.7335 26.2478C15.4311 22.3103 15.4415 17.6769 15.4713 15.3846L15.4749 14.9111C15.4315 14.9334 15.3798 14.9614 15.3224 14.995L15.3226 15.3896C15.293 17.6871 15.2829 22.3202 15.5853 26.2589C15.7794 28.7865 16.1535 30.9997 16.4585 32.5089L16.6484 33.4043C16.6812 33.4414 16.716 33.4779 16.7528 33.5132C16.7797 33.5386 16.8077 33.5638 16.8366 33.5885L16.6101 32.5092V32.5092Z"
            fill="#6D0115" />
        <path
            d="M19.298 34.6438C19.1598 33.4026 18.9158 30.8889 18.8147 27.8552C18.6483 22.8638 18.6365 16.6338 18.6398 14.046L18.6384 13.9199C18.5878 13.93 18.5377 13.9401 18.4883 13.9504L18.4913 14.0603C18.4879 16.6578 18.5001 22.8758 18.6661 27.86C18.7651 30.8265 19.0005 33.2969 19.1404 34.5699L19.1521 34.6795C19.2029 34.696 19.2544 34.7122 19.3066 34.728L19.298 34.6438V34.6438Z"
            fill="#6D0115" />
        <path
            d="M16.1409 14.6212C16.086 14.6423 16.0355 14.6621 15.9895 14.6807L15.9866 14.9039C15.9369 17.2334 15.8716 21.891 16.0567 24.9515C16.3192 29.2915 16.8632 32.3679 17.1321 33.6892L17.1572 33.8194C17.2142 33.8552 17.2791 33.8934 17.3325 33.9237L17.2992 33.764C17.04 32.5114 16.4745 29.3943 16.2051 24.9428C16.0188 21.8619 16.0867 17.1573 16.1364 14.8499L16.1409 14.6155"
            fill="#6D0115" />
        <path
            d="M19.9134 13.7058C19.8631 13.7129 19.8132 13.7202 19.7632 13.7274L19.7657 13.8521C19.7399 16.2785 19.707 21.077 19.7855 25.278C19.8601 29.2727 20.1052 32.9154 20.2433 34.7189L20.261 34.9698C20.3116 34.98 20.3623 34.9901 20.4131 34.9998L20.3968 34.7784C20.2599 33.0027 20.0095 29.3195 19.9339 25.2752C19.8552 21.0693 19.8885 16.2642 19.9143 13.8423L19.9134 13.7058V13.7058Z"
            fill="#6D0115" />
        <path
            d="M20.5441 13.624C20.4933 13.6301 20.4428 13.6362 20.3923 13.6425L20.392 13.764C20.3535 15.7424 20.2965 19.8356 20.3798 23.911C20.4698 28.5456 20.7124 32.9213 20.8296 34.8434L20.843 35.076C20.8941 35.0842 20.9448 35.0923 20.9954 35.1L20.9786 34.8459C20.8617 32.931 20.6184 28.5496 20.5284 23.908C20.4451 19.8263 20.5024 15.7267 20.5409 13.7545L20.5441 13.624Z"
            fill="#6D0115" />
        <path
            d="M21.1517 13.5581C21.1022 13.5628 21.0527 13.568 21.0033 13.5731L21.0022 13.6962C20.9856 15.8194 20.9627 20.2831 21.0137 24.6139C21.0633 28.8135 21.1899 32.9655 21.2535 34.8669L21.2625 35.1395C21.3127 35.1464 21.3627 35.1532 21.4119 35.1597L21.402 34.8661C21.3385 32.9669 21.2116 28.8132 21.1622 24.612C21.1109 20.2613 21.1344 15.7765 21.1509 13.6665L21.1517 13.5581V13.5581Z"
            fill="#6D0115" />
        <path
            d="M22.4402 13.4578C22.3886 13.4607 22.3369 13.4637 22.2852 13.4668L22.2889 13.5498C22.3146 17.4419 22.4027 30.712 22.4311 35.0127L22.4335 35.2701C22.4861 35.2746 22.5361 35.2788 22.583 35.2825L22.5798 35.0224C22.5512 30.7298 22.4632 17.424 22.4374 13.5397L22.4402 13.4578V13.4578Z"
            fill="#6D0115" />
        <path
            d="M23.0656 13.4299C23.0153 13.4315 22.9647 13.4334 22.9141 13.4351L22.9178 13.5786C22.9254 17.6977 22.9494 30.9682 22.9566 34.9537L22.9543 35.3082C22.9929 35.3106 23.021 35.312 23.037 35.3129C23.0455 35.3129 23.0686 35.3134 23.105 35.3138L23.1053 34.9442C23.0979 30.9473 23.0739 17.6953 23.0663 13.5788L23.0656 13.4299V13.4299Z"
            fill="#6D0115" />
        <path
            d="M29.2024 34.3168C29.4171 32.5101 29.8069 28.7763 29.9718 24.2989C30.0948 20.9658 29.9972 16.4945 29.933 14.2585L29.9216 14.0178C29.984 14.0326 30.0445 14.0474 30.1038 14.0622L30.1128 14.3095C30.1769 16.5656 30.2721 20.9952 30.15 24.3053C29.9852 28.777 29.5965 32.5086 29.3811 34.3239L29.3554 34.5309C29.3022 34.549 29.2398 34.5699 29.168 34.5926L29.2024 34.3168V34.3168Z"
            fill="#6D0115" />
        <path
            d="M29.9467 34.0586C30.1203 32.4859 30.425 29.3774 30.6087 25.5001C30.785 21.777 30.7758 16.9702 30.7544 14.4217L30.7507 14.2363C30.6932 14.2196 30.6332 14.2027 30.5708 14.1853L30.5759 14.4052C30.5974 16.9469 30.6069 21.7641 30.4305 25.4919C30.2447 29.4162 29.9349 32.5513 29.7627 34.1007L29.7295 34.3816C29.783 34.3573 29.8459 34.3282 29.9146 34.2962L29.9467 34.0586V34.0586Z"
            fill="#6D0115" />
        <path
            d="M30.493 33.7136C30.7032 32.3061 30.9894 30.0044 31.1515 27.0646C31.3929 22.6917 31.4365 17.1132 31.4434 14.6193L31.4398 14.4537C31.3895 14.4361 31.3306 14.4163 31.2632 14.394L31.2652 14.5614C31.2588 17.0244 31.2165 22.6521 30.9733 27.055C30.8045 30.1145 30.5015 32.48 30.2901 33.8626L30.249 34.1345C30.3148 34.1016 30.3806 34.0677 30.444 34.0341L30.493 33.7136V33.7136Z"
            fill="#6D0115" />
        <path
            d="M32.0537 31.8893C32.0537 31.8893 32.2137 31.4484 32.4112 30.8177L32.486 30.3276C32.7291 28.701 32.9857 26.672 33.1559 24.4737C33.3823 21.5472 33.3329 17.9826 33.2699 15.8368L33.2562 15.4319C33.1969 15.371 33.1346 15.3134 33.0697 15.2595L33.0841 15.5891C33.1499 17.6946 33.2129 21.4232 32.9779 24.4605C32.7803 27.0133 32.4661 29.3367 32.1919 31.0651L32.0537 31.8893Z"
            fill="#6D0115" />
        <path fill-rule="evenodd" clip-rule="evenodd"
            d="M19.4609 25.4918V23.9476H18.1364L18.1413 20.0606H19.8705L19.8612 18.4998H16.2666L16.5915 30.4457H18.171L18.1364 25.4918H19.4609Z"
            fill="#1A1A1A" />
        <path fill-rule="evenodd" clip-rule="evenodd"
            d="M20.4854 18.4998L20.6852 30.4457H22.3162L22.3493 18.4998H20.4854Z" fill="#1A1A1A" />
        <path fill-rule="evenodd" clip-rule="evenodd"
            d="M30.9611 30.4457L31.2962 20.0048H32.574L32.5642 18.4998H28.1318V20.0065H29.4202L29.3831 30.4457H30.9611Z"
            fill="#1A1A1A" />
        <path fill-rule="evenodd" clip-rule="evenodd"
            d="M24.8091 24.0287L24.8269 19.971H25.7376C26.1504 20.8747 26.4157 22.0698 26.6237 24.0287H24.8091ZM23.354 30.4454H23.514H24.6911H24.8639L24.8807 25.5057H26.6899C26.8321 26.3776 26.867 29.0689 26.8755 30.4454H27.0251H28.2068H28.3402C28.4784 24.3468 28.0491 20.8996 26.863 18.4998H23.2158L23.354 30.4454V30.4454Z"
            fill="#1A1A1A" />
        <path fill-rule="evenodd" clip-rule="evenodd"
            d="M19.6544 23.7334H18.3266L18.3316 19.8465H20.0651L20.0558 18.2856H16.4521L16.7779 30.2314H18.3614L18.3266 25.2776H19.6544V23.7334Z"
            fill="url(#paint2_radial_310_26356)" />
        <path fill-rule="evenodd" clip-rule="evenodd"
            d="M22.5503 18.2856H20.6816L20.882 30.2314H22.5171L22.5503 18.2856Z" fill="url(#paint3_radial_310_26356)" />
        <path fill-rule="evenodd" clip-rule="evenodd"
            d="M29.6011 30.2314H31.183L31.519 19.7907H32.8L32.7902 18.2856H28.3467V19.7924H29.6383L29.6011 30.2314Z"
            fill="url(#paint4_radial_310_26356)" />
        <path fill-rule="evenodd" clip-rule="evenodd"
            d="M25.0162 23.8144L25.0341 19.7569H25.947C26.3609 20.6606 26.6269 21.8556 26.8354 23.8144H25.0162ZM23.5575 30.2311H23.7178H24.898H25.0711L25.088 25.2914H26.9018C27.0443 26.1633 27.0793 28.8546 27.0878 30.2311H27.2378H28.4224H28.5562C28.6947 24.1326 28.2644 20.6854 27.0752 18.2856H23.4189L23.5575 30.2311V30.2311Z"
            fill="url(#paint5_radial_310_26356)" />
    </g>
    <defs>
        <linearGradient id="paint0_linear_310_26356" x1="9.04155" y1="38.1917" x2="38.9695" y2="9.58257"
            gradientUnits="userSpaceOnUse">
            <stop stop-color="#8C8C8C" />
            <stop offset="0.5" stop-color="#464646" />
            <stop offset="0.75" stop-color="white" />
            <stop offset="1" stop-color="white" />
        </linearGradient>
        <radialGradient id="paint1_radial_310_26356" cx="0" cy="0" r="1" gradientUnits="userSpaceOnUse"
            gradientTransform="translate(24 24.3658) scale(10.4534 11.1734)">
            <stop stop-color="#E60A47" />
            <stop offset="1" stop-color="#7C0626" />
        </radialGradient>
        <radialGradient id="paint2_radial_310_26356" cx="0" cy="0" r="1" gradientUnits="userSpaceOnUse"
            gradientTransform="translate(24.6262 24.2585) scale(8.17405 5.9729)">
            <stop stop-color="#D3D1D2" />
            <stop offset="0.5" stop-color="#C9C7C8" />
            <stop offset="1" stop-color="#8D8B8C" />
        </radialGradient>
        <radialGradient id="paint3_radial_310_26356" cx="0" cy="0" r="1" gradientUnits="userSpaceOnUse"
            gradientTransform="translate(24.6262 24.2585) scale(8.17405 5.9729)">
            <stop stop-color="#D3D1D2" />
            <stop offset="0.5" stop-color="#C9C7C8" />
            <stop offset="1" stop-color="#8D8B8C" />
        </radialGradient>
        <radialGradient id="paint4_radial_310_26356" cx="0" cy="0" r="1" gradientUnits="userSpaceOnUse"
            gradientTransform="translate(24.6259 24.2585) scale(8.17405 5.9729)">
            <stop stop-color="#D3D1D2" />
            <stop offset="0.5" stop-color="#C9C7C8" />
            <stop offset="1" stop-color="#8D8B8C" />
        </radialGradient>
        <radialGradient id="paint5_radial_310_26356" cx="0" cy="0" r="1" gradientUnits="userSpaceOnUse"
            gradientTransform="translate(24.6263 24.2585) scale(8.17405 5.9729)">
            <stop stop-color="#D3D1D2" />
            <stop offset="0.5" stop-color="#C9C7C8" />
            <stop offset="1" stop-color="#8D8B8C" />
        </radialGradient>
        <clipPath id="clip0_310_26356">
            <rect width="32" height="32" fill="white" transform="translate(8 8)" />
        </clipPath>
    </defs>
</svg>