<svg width="1em" height="1em" viewBox="0 0 48 48" fill="none" xmlns="http://www.w3.org/2000/svg">
    <g clip-path="url(#clip0_310_26418)">
        <path
            d="M24.0003 18.187C15.2232 18.187 8.1875 20.8179 8.1875 24.1163C8.1875 27.3947 15.2812 30.0459 24.0003 30.0459C32.7195 30.0459 39.8133 27.3858 39.8133 24.1163C39.8133 20.8468 32.7195 18.187 24.0003 18.187Z"
            fill="#003478" />
        <path
            d="M30.2288 25.3724C30.233 25.3996 30.2686 25.4256 30.3031 25.4379C30.3159 25.4421 30.3221 25.4506 30.3088 25.4795C30.2104 25.6905 30.1198 25.8122 29.9964 25.9956C29.8828 26.165 29.7549 26.2972 29.6001 26.4244C29.3665 26.6176 29.0422 26.828 28.774 26.6866C28.655 26.6248 28.6034 26.4581 28.6057 26.3231C28.6114 25.9436 28.7802 25.554 29.0919 25.1711C29.472 24.7033 29.8921 24.4606 30.1678 24.5932C30.4531 24.7293 30.3621 25.0596 30.2343 25.3188C30.2244 25.3389 30.2244 25.3559 30.2286 25.3723M33.2899 22.4154C33.3104 22.3792 33.2888 22.3528 33.2431 22.3528C33.0048 22.3528 32.6922 22.3533 32.4439 22.3533C32.3848 22.3533 32.3543 22.3604 32.3264 22.4155C32.2347 22.5911 31.118 24.2648 30.9101 24.5898C30.875 24.6393 30.8323 24.6324 30.8274 24.5757C30.8063 24.3826 30.6396 24.1607 30.3769 24.0545C30.1768 23.9734 29.9811 23.9586 29.7776 23.9857C29.4103 24.035 29.0831 24.2288 28.7954 24.4473C28.3618 24.7769 27.9877 25.2042 27.5047 25.5199C27.2411 25.6917 26.8801 25.8416 26.6385 25.6179C26.4199 25.4152 26.4446 24.965 26.7791 24.6168C26.8143 24.5803 26.8566 24.6111 26.8499 24.6435C26.8184 24.801 26.857 24.9576 26.9767 25.0674C27.1226 25.1982 27.3314 25.213 27.5102 25.1256C27.7211 25.0211 27.8451 24.8193 27.8812 24.5902C27.9371 24.2349 27.6636 23.9215 27.3213 23.8964C27.0433 23.8768 26.7767 23.9736 26.5169 24.188C26.3866 24.2961 26.3127 24.3759 26.2 24.5361C26.1726 24.5756 26.1304 24.5795 26.1317 24.5212C26.1444 24.0663 25.9564 23.8104 25.5803 23.802C25.2884 23.7949 24.9765 23.9534 24.7334 24.1472C24.4669 24.3613 24.2339 24.6449 23.9841 24.9114C23.953 24.9442 23.9259 24.9426 23.9172 24.879C23.9101 24.5776 23.8339 24.2856 23.6944 24.0783C23.645 24.0061 23.5411 23.9705 23.4538 24.0191C23.4135 24.0412 23.2733 24.1057 23.1712 24.1879C23.1205 24.2296 23.1007 24.2901 23.1232 24.3675C23.2579 24.8178 23.2283 25.3298 23.0456 25.7622C22.8778 26.1583 22.5518 26.5155 22.1685 26.6364C21.9161 26.7164 21.6537 26.6773 21.4913 26.4535C21.2682 26.1446 21.3583 25.6074 21.6908 25.1613C21.9842 24.7686 22.4086 24.5191 22.8319 24.3584C22.8817 24.3392 22.892 24.3072 22.8779 24.2649C22.855 24.1954 22.8182 24.1006 22.8033 24.0573C22.7644 23.9539 22.6557 23.9372 22.523 23.9517C22.2154 23.9874 21.9379 24.0928 21.6639 24.2396C20.9462 24.6239 20.5863 25.3677 20.4287 25.7657C20.3527 25.9568 20.2878 26.0761 20.2039 26.1818C20.0907 26.324 19.9487 26.4535 19.689 26.6816C19.6655 26.7025 19.648 26.7461 19.6678 26.7867C19.6942 26.8415 19.8293 27.0323 19.8674 27.0493C19.9097 27.0701 19.9588 27.0408 19.9784 27.027C20.1601 26.9038 20.3776 26.7085 20.484 26.5761C20.5213 26.5307 20.5596 26.5498 20.5794 26.6187C20.6787 26.9729 20.9387 27.2621 21.2982 27.3831C21.9563 27.6051 22.6389 27.2838 23.1541 26.7246C23.4815 26.3692 23.5997 26.1406 23.7252 25.9852C23.9379 25.7217 24.3574 25.1321 24.8572 24.7536C25.0404 24.614 25.2573 24.5075 25.3663 24.5783C25.4539 24.635 25.4822 24.7668 25.3417 25.0222C24.8322 25.9526 24.0826 27.0457 23.9451 27.3108C23.9199 27.3568 23.9423 27.3929 23.9901 27.3929C24.2567 27.3916 24.521 27.3923 24.763 27.3923C24.8033 27.3909 24.8213 27.3719 24.8415 27.3435C25.2325 26.7314 25.6005 26.1489 25.9949 25.5466C26.017 25.5111 26.0373 25.5381 26.0382 25.5537C26.0467 25.6934 26.0806 25.8846 26.1637 26.0101C26.3128 26.2421 26.524 26.3418 26.7584 26.3433C26.9448 26.3461 27.0391 26.3171 27.2402 26.242C27.4038 26.1814 27.5351 26.1017 27.6359 26.0297C27.6948 25.9886 27.7051 26.0572 27.7037 26.0677C27.6132 26.5536 27.7249 27.1293 28.2078 27.368C28.7857 27.653 29.4206 27.2525 29.786 26.8909C29.8217 26.8561 29.8601 26.8598 29.8637 26.9349C29.8722 27.073 29.9339 27.2368 30.0481 27.3514C30.3542 27.6586 30.972 27.5369 31.592 27.057C31.99 26.7498 32.4065 26.3157 32.7827 25.8561C32.7969 25.8383 32.807 25.8097 32.7799 25.7807C32.7226 25.7207 32.6397 25.6521 32.5829 25.5993C32.557 25.5772 32.519 25.5836 32.4972 25.6C32.1116 25.9668 31.7644 26.3851 31.2627 26.7309C31.0935 26.849 30.8238 26.9443 30.7027 26.7803C30.6555 26.7167 30.6609 26.6287 30.707 26.5131C30.8532 26.1483 33.1692 22.6224 33.2894 22.4144"
            fill="white" />
        <path
            d="M22.394 22.8409C22.4039 22.8933 22.4243 22.9035 22.448 22.8991C22.566 22.8755 22.6951 22.7784 22.7715 22.666C22.8411 22.564 22.8738 22.4168 22.8046 22.3579C22.743 22.3048 22.6425 22.3198 22.5681 22.3856C22.4199 22.5165 22.3748 22.7024 22.394 22.8411M16.4913 27.3798C15.6278 27.3854 14.867 26.8522 14.7797 25.9284C14.7312 25.4164 14.8759 24.9602 15.1656 24.5843C15.4227 24.2494 15.8576 23.9712 16.2258 23.9032C16.3456 23.8813 16.5066 23.8947 16.5731 23.9745C16.6775 24.096 16.6475 24.2295 16.5431 24.2827C16.2622 24.4261 15.9242 24.6716 15.757 25.0069C15.6214 25.2805 15.594 25.6103 15.8011 25.9244C16.1479 26.448 17.1145 26.4624 18.0133 25.6274C18.2359 25.4231 18.4351 25.2267 18.6375 24.9941C19.0334 24.5415 19.1651 24.3766 19.6913 23.6467C19.6969 23.6382 19.6997 23.6272 19.6969 23.6218C19.6927 23.6119 19.6856 23.6105 19.6699 23.6091C19.3186 23.619 19.0124 23.7235 18.7147 23.946C18.629 24.0085 18.5056 23.9997 18.4516 23.9174C18.3915 23.8243 18.4346 23.7032 18.5335 23.6348C19.0124 23.3017 19.5355 23.2413 20.0697 23.1512C20.0692 23.1512 20.1067 23.1526 20.1373 23.1124C20.3566 22.831 20.5222 22.5771 20.7559 22.2925C20.9915 22.0037 21.2957 21.7385 21.5282 21.5393C21.8527 21.2603 22.0608 21.1664 22.2723 21.0514C22.328 21.0222 22.2652 20.9874 22.2482 20.9874C21.0675 20.7655 19.8402 20.4783 18.6675 20.9124C17.8554 21.2155 17.4995 21.8595 17.6707 22.2899C17.7925 22.5951 18.194 22.6448 18.5698 22.4608C18.882 22.3079 19.1709 22.0613 19.3757 21.744C19.4902 21.5678 19.7317 21.6949 19.6012 22.0009C19.2581 22.8075 18.6025 23.4472 17.804 23.4742C17.1244 23.4963 16.686 22.9963 16.6874 22.3796C16.6902 21.163 18.0445 20.3617 19.4678 20.2419C21.1819 20.1002 22.8054 20.5568 24.5073 20.7632C25.8112 20.9211 27.0614 20.9244 28.372 20.6233C28.527 20.5897 28.6357 20.6885 28.6256 20.845C28.6128 21.0712 28.4376 21.2891 28.0059 21.5245C27.515 21.7938 27.0014 21.8755 26.465 21.8798C25.168 21.8912 23.9598 21.3851 22.7095 21.1134C22.7109 21.1681 22.7254 21.2333 22.6795 21.2679C21.987 21.7787 21.361 22.2974 20.9417 23.026C20.9276 23.0428 20.9347 23.0588 20.9597 23.0571C21.3237 23.0378 21.6511 23.0284 21.9909 23.0013C22.0503 22.9956 22.0526 22.9815 22.0473 22.9382C22.0172 22.687 22.0906 22.4007 22.3115 22.2037C22.5376 22.001 22.8207 21.9779 23.0084 22.1239C23.2217 22.2902 23.2028 22.5892 23.0861 22.8134C22.9673 23.0409 22.7711 23.1626 22.5828 23.2217C22.5828 23.2217 22.5432 23.2302 22.5491 23.2661C22.5562 23.3235 22.8131 23.4657 22.8351 23.5036C22.8563 23.5396 22.845 23.5955 22.8064 23.6384C22.7792 23.6695 22.7366 23.6986 22.6822 23.6976C22.6382 23.6968 22.6115 23.6815 22.5552 23.6511C22.44 23.5887 22.2961 23.4862 22.2002 23.3653C22.1675 23.3244 22.1508 23.3236 22.0692 23.3281C21.7014 23.3493 21.128 23.4047 20.7395 23.4533C20.6453 23.4646 20.6315 23.4825 20.6121 23.5152C19.9927 24.5366 19.3313 25.6381 18.6052 26.3756C17.8263 27.1663 17.1789 27.3745 16.4916 27.3798"
            fill="white" />
        <path
            d="M24.0002 19.1566C15.9255 19.1566 9.38044 21.3879 9.38044 24.1182C9.38044 26.8488 15.9255 29.0803 24.0002 29.0803C32.0747 29.0803 38.6193 26.8488 38.6193 24.1182C38.6193 21.3879 32.0747 19.1566 24.0002 19.1566ZM24.0002 29.5299C15.6316 29.5299 8.84766 27.1071 8.84766 24.1182C8.84766 21.129 15.6316 18.7065 24.0002 18.7065C32.3679 18.7065 39.1515 21.129 39.1515 24.1182C39.1515 27.1071 32.3679 29.5299 24.0002 29.5299"
            fill="white" />
    </g>
    <defs>
        <clipPath id="clip0_310_26418">
            <rect width="32" height="12.2331" fill="white" transform="translate(8 18)" />
        </clipPath>
    </defs>
</svg>