<svg width="1em" height="1em" viewBox="0 0 48 48" fill="none" xmlns="http://www.w3.org/2000/svg">
    <g clip-path="url(#clip0_310_2768)">
        <path fill-rule="evenodd" clip-rule="evenodd"
            d="M16.54 20.4491C15.2191 20.4491 14.4775 22.0153 14.4775 23.9482C14.4775 25.8791 15.2191 27.4454 16.54 27.4454C17.8632 27.4454 18.5601 25.8789 18.5601 23.9482C18.5601 22.0153 17.8632 20.4491 16.54 20.4491ZM16.54 26.5781C15.8066 26.5781 15.5269 25.4011 15.5269 23.9482C15.5269 22.4955 15.8066 21.3183 16.54 21.3183C17.2756 21.3183 17.5106 22.4955 17.5106 23.9482C17.5106 25.4011 17.2756 26.5781 16.54 26.5781ZM29.0211 20.4491C27.7001 20.4491 26.9605 22.0153 26.9605 23.9482C26.9605 25.8791 27.7001 27.4454 29.0211 27.4454C30.3444 27.4454 31.0411 25.8789 31.0411 23.9482C31.0411 22.0153 30.3444 20.4491 29.0211 20.4491V20.4491ZM29.0211 26.5781C28.2876 26.5781 28.01 25.4011 28.01 23.9482C28.01 22.4955 28.2876 21.3183 29.0211 21.3183C29.7565 21.3183 29.9916 22.4955 29.9916 23.9482C29.9916 25.4011 29.7565 26.5781 29.0211 26.5781V26.5781ZM12.1453 28.7036C10.6358 28.7036 9.41211 27.3058 9.41211 23.9988C9.41211 21.2818 10.636 19.2961 12.1453 19.2961C12.6701 19.2961 12.7166 19.4522 13.0146 19.4786C13.2394 19.4988 13.4603 19.428 13.5717 19.3166L13.669 21.286C13.2153 20.5829 12.5992 20.3194 12.3399 20.3194C11.4929 20.3194 10.5772 21.1623 10.5772 24.0312C10.571 26.8761 11.3553 27.743 12.113 27.743C12.437 27.743 12.6195 27.6805 12.7877 27.5304V24.1165C12.7877 23.853 12.6356 23.6241 12.4189 23.5187H14.1999C13.9811 23.6239 13.8312 23.853 13.8312 24.1165V27.2C13.8312 27.4861 13.9184 27.7392 14.0459 27.8528C13.7196 27.9783 13.195 28.7036 12.1453 28.7036V28.7036ZM24.4258 27.2772C25.6171 27.2772 26.5999 26.0655 26.5999 23.934C26.5999 21.8046 25.6253 20.6173 24.432 20.6173H22.6266C22.8434 20.7225 22.9933 20.9495 22.9933 21.2149V26.6796C22.9933 26.9671 22.9121 27.1232 22.7785 27.279C22.9711 27.2772 24.4258 27.2772 24.4258 27.2772ZM24.4401 21.3954C25.0439 21.3954 25.5341 22.1856 25.5341 23.9482C25.5341 25.7111 25.0439 26.5013 24.4401 26.5013H23.9801V21.3954H24.4401ZM37.0202 23.0366C37.5309 23.5675 38.5886 24.4794 38.5886 25.6707C38.5886 26.6288 37.847 27.407 37.002 27.407C36.5685 27.407 36.3681 27.2387 35.9385 27.2387C35.7946 27.2387 35.6691 27.2692 35.5636 27.3197L35.5656 25.6058C35.5656 25.6058 35.9466 26.3392 36.5322 26.5338C37.0244 26.6978 37.5976 26.396 37.5976 25.7232C37.5976 25.0098 36.6253 24.157 36.4975 24.0254C35.979 23.4944 35.4926 22.9109 35.4926 22.1471C35.4926 21.2333 36.1774 20.4958 37.0224 20.4958C37.4559 20.4958 37.4822 20.6234 37.7759 20.6234C37.9199 20.6234 38.0535 20.595 38.1569 20.5444L38.1549 21.9789C38.1549 21.9789 37.6566 21.3306 37.1844 21.3306C36.7935 21.3306 36.4772 21.6549 36.4772 22.0559C36.4774 22.5219 36.8502 22.846 37.0202 23.0366V23.0366ZM33.2986 20.6173C33.517 20.7225 33.6673 20.9495 33.6673 21.2149V24.167L32.644 21.2149C32.5347 20.9354 32.5205 20.761 32.6825 20.6173H31.1425C31.2538 20.6723 31.3474 20.7575 31.4126 20.8632C31.4778 20.9689 31.512 21.0908 31.5113 21.2149V26.6816C31.5115 26.8062 31.4768 26.9283 31.4113 27.0343C31.3458 27.1403 31.2519 27.2259 31.1404 27.2814H32.725C32.508 27.1738 32.3725 26.9449 32.3725 26.6816V23.1378L33.5781 26.6553C33.5982 26.7121 33.6166 26.7769 33.6166 26.8394C33.6166 27.0279 33.5252 27.1899 33.3774 27.2814H34.881C34.664 27.1738 34.5305 26.9449 34.5305 26.6816V21.2151C34.5305 20.9496 34.6864 20.7227 34.9054 20.6174H33.2986V20.6173ZM35.8837 20.212C35.8837 20.3286 35.8608 20.444 35.8162 20.5517C35.7716 20.6594 35.7062 20.7572 35.6238 20.8396C35.5414 20.9221 35.4436 20.9874 35.3359 21.032C35.2282 21.0766 35.1128 21.0996 34.9962 21.0995C35.1745 20.9739 35.3244 20.8037 35.3973 20.593C35.1441 20.593 34.9638 20.3945 34.9638 20.1392C34.9641 20.0172 35.0127 19.9004 35.0989 19.8142C35.1851 19.728 35.3019 19.6795 35.4239 19.6793C35.6772 19.6793 35.8957 19.8616 35.8837 20.212V20.212ZM20.0311 23.5208V21.3954H20.5255C21.0078 21.3954 21.3968 21.673 21.3968 22.461C21.3968 23.1176 21.0078 23.5207 20.5255 23.5207H20.0311V23.5208V23.5208ZM20.0311 24.3496H20.4262L21.2792 26.6796C21.3521 26.9286 21.2792 27.1718 21.0606 27.2772H22.6875C22.5315 27.1476 22.3756 26.8638 22.2662 26.5843L21.3644 24.1814C21.9986 23.8814 22.4401 23.2351 22.4401 22.4874C22.4401 21.454 21.8061 20.5464 20.5559 20.6173H18.6838C18.7951 20.6723 18.8887 20.7575 18.9539 20.8632C19.0191 20.9689 19.0533 21.0907 19.0525 21.2149V26.6796C19.0525 26.9429 18.9006 27.1718 18.6838 27.2772H20.3837C20.1649 27.1718 20.0311 26.941 20.0311 26.6774V24.3496V24.3496Z"
            fill="#CC2229" />
    </g>
    <defs>
        <clipPath id="clip0_310_2768">
            <rect width="32" height="32" fill="white" transform="translate(8 8)" />
        </clipPath>
    </defs>
</svg>