<svg width="1em" height="1em" viewBox="0 0 48 48" fill="none" xmlns="http://www.w3.org/2000/svg">
    <path
        d="M24.0002 28.779C30.014 28.779 34.8891 25.4759 34.8891 21.4012C34.8891 17.3266 30.014 14.0234 24.0002 14.0234C17.9864 14.0234 13.1113 17.3266 13.1113 21.4012C13.1113 25.4759 17.9864 28.779 24.0002 28.779Z"
        fill="url(#paint0_linear_310_2773)" stroke="black" />
    <path
        d="M23.9999 28.2013C29.3264 28.2013 33.6444 25.1569 33.6444 21.4013C33.6444 17.6458 29.3264 14.6013 23.9999 14.6013C18.6734 14.6013 14.3555 17.6458 14.3555 21.4013C14.3555 25.1569 18.6734 28.2013 23.9999 28.2013Z"
        fill="url(#paint1_radial_310_2773)" />
    <path fill-rule="evenodd" clip-rule="evenodd"
        d="M29.9996 22.1789C29.5996 20.6678 29.1107 19.2456 28.2218 17.8678C27.3498 16.5807 25.5089 17.0389 24.0742 16.8149V25.6527C24.0742 28.3176 28.78 27.6665 31.464 25.1727C30.5458 24.5114 30.292 23.2665 29.9996 22.1789V22.1789Z"
        fill="url(#paint2_linear_310_2773)" />
    <path fill-rule="evenodd" clip-rule="evenodd"
        d="M33.2851 21.4013C33.2851 17.7684 29.1082 14.8235 23.9558 14.8235H23.9482V16.3493H24.0749V16.815C25.5091 17.039 27.3505 16.5808 28.2225 17.8679C29.1114 19.2457 29.6002 20.6679 30.0002 22.179C30.2931 23.2666 30.5469 24.5115 31.4647 25.1728C32.5358 24.1777 33.2851 22.8893 33.2851 21.4013V21.4013Z"
        fill="url(#paint3_linear_310_2773)" />
    <path fill-rule="evenodd" clip-rule="evenodd"
        d="M17.9996 22.1789C18.3996 20.6678 18.8885 19.2456 19.7774 17.8678C20.6494 16.5807 22.4903 17.0389 23.9249 16.8149V25.6527C23.9249 28.3176 19.2192 27.6665 16.5352 25.1727C17.4534 24.5114 17.7072 23.2665 17.9996 22.1789V22.1789Z"
        fill="url(#paint4_linear_310_2773)" />
    <path fill-rule="evenodd" clip-rule="evenodd"
        d="M14.7148 21.4013C14.7148 17.7684 18.8917 14.8235 24.0442 14.8235H24.0517V16.3493H23.9251V16.815C22.4908 17.039 20.6495 16.5808 19.7775 17.8679C18.8886 19.2457 18.3997 20.6679 17.9997 22.179C17.7068 23.2666 17.4531 24.5115 16.5353 25.1728C15.4642 24.1777 14.7148 22.8893 14.7148 21.4013Z"
        fill="url(#paint5_linear_310_2773)" />
    <path
        d="M38.1548 29.6226C38.0734 29.5026 37.6765 29.5226 37.5361 29.5373C37.4388 29.5475 37.3463 29.5808 37.2694 29.6333C37.2308 30.9519 37.2481 32.5355 37.2481 33.9426C37.2481 34.0857 37.213 34.4586 37.2694 34.5399C37.3321 34.631 37.5908 34.6146 37.7174 34.6146C37.9045 34.6146 38.0779 34.6248 38.1548 34.5293C38.1934 33.2586 38.1761 31.6093 38.1761 30.2199C38.1761 30.079 38.2112 29.7057 38.1548 29.6226V29.6226Z"
        fill="#CE181E" />
    <path
        d="M39.0826 29.6439C39.0635 30.935 39.072 32.5266 39.072 33.9213C39.072 34.0959 39.0306 34.4493 39.0933 34.5399C39.1604 34.6373 39.5769 34.6346 39.7653 34.6146C39.8582 34.6048 39.9613 34.5742 40 34.5079V29.6546C39.8417 29.4777 39.2604 29.5004 39.0826 29.6439V29.6439Z"
        fill="#CE181E" />
    <path
        d="M10.1547 30.6146C10.6973 30.5129 11.196 30.6724 11.552 30.8386C11.6347 30.8773 11.8364 31.0209 11.9253 30.988C12.076 30.9324 12.0373 30.3933 11.9787 30.2626C11.9067 30.1018 11.6453 29.9995 11.456 29.9426C11.2564 29.8826 10.9738 29.8298 10.7413 29.8146C10.1596 29.7764 9.67644 29.8791 9.312 30.0386C8.58533 30.3569 8.052 31.084 8 32.0973V32.5133C8.13422 33.932 9.00044 34.7826 10.688 34.6573C10.9267 34.6395 11.1516 34.6133 11.392 34.5506C11.5902 34.4986 11.9116 34.4293 11.9787 34.2733C12.0316 34.1498 12.0107 33.916 12.0107 33.7293C12.0107 33.3169 12.0107 33.0146 12.0107 32.5773C12.0107 32.2782 12.0569 32.0026 11.8507 31.9266C11.6431 31.8502 11.2738 31.9053 10.976 31.9053H10.528C10.3898 31.9053 10.1831 31.8858 10.112 31.9266C9.96444 32.0115 10.008 32.5169 10.112 32.6306C10.4036 32.6555 10.7413 32.6342 11.0507 32.6413V33.74C10.4316 34.0373 9.72756 33.8093 9.39733 33.4626C9.04933 33.0978 8.87556 32.3782 9.04533 31.7133C9.19111 31.1418 9.56889 30.7244 10.1547 30.6146V30.6146Z"
        fill="#CE181E" />
    <path
        d="M32.3519 29.9426C32.2847 30.0133 32.2594 30.2835 32.2345 30.3906C31.9812 31.4719 31.7181 32.6386 31.4772 33.6546C31.2043 32.5751 30.939 31.4777 30.6665 30.3799C30.6336 30.2479 30.5941 29.9906 30.5279 29.9319C30.4407 29.855 30.2141 29.8679 30.0372 29.8679C29.8603 29.8679 29.6385 29.8679 29.5572 29.9426C29.4932 30.0013 29.451 30.2408 29.4185 30.3799C29.163 31.4742 28.8945 32.5959 28.6399 33.6439C28.3981 32.5848 28.1212 31.4546 27.8825 30.3799C27.8479 30.2248 27.8341 29.9879 27.7652 29.9213C27.6576 29.8173 26.8959 29.8399 26.8265 29.9533C26.7559 30.0688 26.8843 30.3884 26.9225 30.5399C27.2234 31.7306 27.5167 32.8342 27.8185 33.9959C27.863 34.1662 27.9101 34.4657 27.9999 34.5399C28.1572 34.6697 29.0519 34.6595 29.1945 34.5399C29.2634 34.4822 29.2887 34.3155 29.3225 34.1773C29.5585 33.2084 29.7536 32.3093 30.0052 31.3933C30.2167 32.3133 30.4679 33.2293 30.6985 34.1453C30.7336 34.2839 30.7483 34.4644 30.8159 34.5293C30.9745 34.6813 31.9052 34.6595 32.0425 34.5186C32.1296 34.4293 32.1674 34.1386 32.2132 33.9639C32.5114 32.8217 32.8425 31.6355 33.1199 30.5399C33.1692 30.3457 33.2603 30.1413 33.2052 29.9319C33.0479 29.8568 32.4799 29.8079 32.3519 29.9426V29.9426Z"
        fill="#CE181E" />
    <path
        d="M24.0644 33.8466C23.972 33.7821 23.9262 33.6079 23.9151 33.4626C23.8795 32.9919 23.9342 32.2794 23.9258 31.8519C24.1755 31.8457 24.4511 31.8652 24.6831 31.8412C24.7982 31.6954 24.8 31.2843 24.6938 31.1266C24.4742 31.0794 24.1698 31.1172 23.9151 31.1052C23.9084 30.8452 23.9289 30.5581 23.9044 30.3159C23.7253 30.1888 23.1742 30.1857 23.0084 30.3266C22.984 30.5688 23.0044 30.8559 22.9978 31.1159C22.8746 31.0968 22.684 31.1003 22.5604 31.1159C22.428 31.2554 22.4338 31.6892 22.5498 31.8412C22.6769 31.8706 22.8711 31.8328 22.9978 31.8626C23.0729 32.6443 22.8275 33.7612 23.1791 34.3052C23.3062 34.5017 23.5693 34.6452 23.9044 34.6679C24.1818 34.6866 24.6009 34.6501 24.7044 34.5079C24.8084 34.3652 24.7889 33.9692 24.6938 33.8252C24.5169 33.8577 24.2306 33.9626 24.0644 33.8466V33.8466Z"
        fill="#CE181E" />
    <path
        d="M14.6671 31.0199C14.1098 30.9794 13.9524 31.3879 13.7178 31.6066C13.7116 31.4599 13.7307 31.2879 13.7071 31.1586C13.5484 31.0479 13.0707 31.0425 12.9391 31.1799C12.9213 32.2714 12.9213 33.4377 12.9391 34.5292C13.1173 34.6568 13.6676 34.6568 13.8458 34.5292C13.8707 33.8572 13.8493 33.139 13.8564 32.4492C14.0164 32.227 14.1604 31.9497 14.4431 31.8839C14.6111 31.8448 14.8231 31.9968 14.9338 31.9479C15.0307 31.9052 15.0178 31.7083 15.0191 31.5639C15.0236 31.1523 15.0138 31.0452 14.6671 31.0199V31.0199Z"
        fill="#CE181E" />
    <path
        d="M17.7599 31.1799C17.4577 31.0315 17.059 30.9781 16.6506 31.0412C15.9306 31.1528 15.5061 31.643 15.3599 32.3319C15.2821 32.6972 15.2928 33.1581 15.3706 33.5052C15.5324 34.2279 15.9728 34.595 16.7892 34.6786H17.3012C17.4621 34.6555 17.6639 34.6306 17.8559 34.5826C18.0061 34.5448 18.2421 34.4986 18.3039 34.3906C18.3781 34.2608 18.343 33.9377 18.2932 33.7826C18.0901 33.7803 17.8839 33.8795 17.6639 33.9319C16.939 34.1043 16.1826 33.9292 16.2452 33.0892C16.7386 33.0892 17.2799 33.0892 17.8026 33.0892C18.0572 33.0892 18.3444 33.1297 18.4426 32.9826C18.5328 32.8475 18.5004 32.5626 18.4852 32.3959C18.4292 31.7759 18.1484 31.3706 17.7599 31.1799ZM16.2452 32.4919C16.2528 32.0123 16.527 31.6346 17.0132 31.6706C17.4075 31.6999 17.6132 32.0168 17.5999 32.4919C17.1968 32.4919 16.6479 32.4919 16.2452 32.4919Z"
        fill="#CE181E" />
    <path
        d="M22.0049 32.8866C22.0049 32.3395 22.0417 31.7769 21.7702 31.436C21.3955 30.9657 20.4666 30.9355 19.7862 31.148C19.58 31.2124 19.3311 31.2933 19.2529 31.4466C19.1742 31.6009 19.2151 32.0133 19.3489 32.044C19.4595 32.0693 19.6146 31.9449 19.7009 31.9053C19.98 31.7769 20.5289 31.5813 20.8849 31.7986C21.0835 31.92 21.1129 32.1449 21.0982 32.5133C20.2693 32.4982 19.4844 32.5582 19.1675 33.0893C18.9777 33.4075 19.0049 33.8942 19.1675 34.1773C19.3293 34.4582 19.64 34.6262 20.0209 34.6786H20.4049C20.5911 34.652 20.7457 34.5857 20.8849 34.508C21.0271 34.4289 21.1364 34.3311 21.2475 34.252C21.2515 34.3369 21.2333 34.4733 21.2582 34.5613C21.4137 34.6169 21.8902 34.6835 21.9835 34.5506C22.0289 34.4866 22.0049 34.2662 22.0049 34.1453V32.8866V32.8866ZM21.0982 33.6333C21.0724 33.7275 20.8782 33.8893 20.7355 33.964C20.508 34.0826 20.1604 34.0311 20.0315 33.8786C19.9102 33.7355 19.9071 33.4742 20.0102 33.324C20.1853 33.0684 20.6577 33.0857 21.0982 33.0893C21.0626 33.2822 21.1453 33.4613 21.0982 33.6333Z"
        fill="#CE181E" />
    <path
        d="M36.1387 31.4572C35.8053 30.9905 34.8769 30.9234 34.1867 31.1265C33.9849 31.186 33.6693 31.2834 33.5893 31.4572C33.5173 31.6136 33.5542 32.0243 33.696 32.0438C33.804 32.0585 33.9684 31.9465 34.08 31.8945C34.4035 31.7429 35.2075 31.5354 35.392 31.9692C35.4587 32.126 35.4329 32.2407 35.4453 32.5025C34.5587 32.5065 33.788 32.5612 33.4827 33.1532C33.3115 33.4847 33.3644 33.9487 33.5253 34.2092C33.6849 34.4678 34.0129 34.6327 34.368 34.6785H34.7413C35.0635 34.6394 35.3044 34.4852 35.5093 34.3052C35.528 34.2887 35.556 34.2434 35.584 34.2625C35.6035 34.3989 35.5435 34.498 35.616 34.5718C35.7373 34.6954 36.1969 34.5989 36.32 34.5612C36.3595 33.982 36.3413 33.4669 36.3413 32.9185C36.3413 32.3692 36.3884 31.8069 36.1387 31.4572V31.4572ZM35.4453 33.6225C35.4044 33.7914 35.0351 34.0114 34.8267 34.0278C34.6035 34.0452 34.4187 33.9616 34.336 33.8252C34.208 33.6136 34.304 33.3163 34.4747 33.2065C34.7022 33.0603 35.0453 33.0976 35.4453 33.0892C35.4142 33.2807 35.4867 33.4514 35.4453 33.6225V33.6225Z"
        fill="#CE181E" />
    <path fill-rule="evenodd" clip-rule="evenodd"
        d="M29.6877 24.8487C29.5788 24.8487 29.4735 24.8407 29.3735 24.8247C29.3108 24.8144 27.8255 24.5464 27.8668 22.7149V19.4687L24.0001 17.3522L20.1335 19.4687V22.7122C20.1752 24.5464 18.6899 24.8144 18.6268 24.8247C18.5277 24.8407 18.4219 24.8487 18.313 24.8487C18.0072 24.8487 17.2241 24.7767 16.561 24.1113C15.9486 23.4967 15.6406 22.5851 15.6446 21.4016C15.6566 18.1176 19.405 15.4456 24.0001 15.4456C28.5952 15.4456 32.3437 18.1176 32.3557 21.4016C32.3601 22.5847 32.0517 23.4967 31.4397 24.1109C30.7766 24.7767 29.9935 24.8487 29.6877 24.8487Z"
        fill="white" />
    <path
        d="M24.0004 15.5567C26.2147 15.5567 28.2929 16.1731 29.8533 17.2918C31.3898 18.394 32.2396 19.8536 32.2449 21.402C32.2493 22.5549 31.952 23.4398 31.3609 24.0327C30.7271 24.6687 29.9796 24.7376 29.6876 24.7376C29.5844 24.7376 29.4849 24.73 29.3916 24.7149C29.388 24.7145 29.0258 24.6496 28.6747 24.3803C28.196 24.0131 27.9613 23.4536 27.9782 22.7171V22.7145V22.7118V19.4025L27.8627 19.3394L24.1071 17.2838L24.0004 17.2256L23.8938 17.2838L20.1382 19.3394L20.0227 19.4025V22.7171C20.0622 24.4478 18.668 24.7051 18.6098 24.7149C18.516 24.73 18.416 24.7376 18.3133 24.7376C18.0213 24.7376 17.2738 24.6687 16.64 24.0327C16.0493 23.4398 15.752 22.5545 15.756 21.402C15.7618 19.854 16.6111 18.394 18.148 17.2918C19.708 16.1727 21.7867 15.5567 24.0009 15.5567M24.0009 15.3345C19.3249 15.3345 15.5467 18.0505 15.5342 21.4011C15.524 24.1216 17.1769 24.9598 18.3138 24.9598C18.4307 24.9598 18.5418 24.9509 18.6453 24.9345C18.6453 24.9345 20.2898 24.6678 20.2453 22.7123V19.5345L24.0009 17.4789L27.7564 19.5345V22.7123C27.712 24.6678 29.3564 24.9345 29.3564 24.9345C29.46 24.9509 29.5711 24.9598 29.688 24.9598C30.8244 24.9598 32.4778 24.1216 32.4676 21.4011C32.4551 18.0505 28.6769 15.3345 24.0009 15.3345V15.3345Z"
        fill="#4D4D4D" />
    <path d="M24.3959 16.8937L19.3105 19.6929L19.5146 20.0635L24.6 17.2643L24.3959 16.8937Z" fill="white" />
    <path d="M23.6054 16.893L23.4014 17.2637L28.4868 20.0629L28.6908 19.6922L23.6054 16.893Z" fill="white" />
    <defs>
        <linearGradient id="paint0_linear_310_2773" x1="18.6051" y1="15.9221" x2="29.9829" y2="27.4777"
            gradientUnits="userSpaceOnUse">
            <stop stop-color="#F7F7F7" />
            <stop offset="1" stop-color="#252525" />
        </linearGradient>
        <radialGradient id="paint1_radial_310_2773" cx="0" cy="0" r="1" gradientUnits="userSpaceOnUse"
            gradientTransform="translate(24.0221 27.7124) scale(7.02889)">
            <stop stop-color="#CCCCCC" />
            <stop offset="1" stop-color="white" />
        </radialGradient>
        <linearGradient id="paint2_linear_310_2773" x1="23.0369" y1="18.8296" x2="30.0324" y2="26.1487"
            gradientUnits="userSpaceOnUse">
            <stop stop-color="#9B9B9B" />
            <stop offset="0.09" stop-color="#828282" />
            <stop offset="0.25" stop-color="#5E5E5E" />
            <stop offset="0.4" stop-color="#444444" />
            <stop offset="0.53" stop-color="#343434" />
            <stop offset="0.64" stop-color="#2F2F2F" />
            <stop offset="0.78" stop-color="white" />
            <stop offset="1" stop-color="#A0A0A0" />
        </linearGradient>
        <linearGradient id="paint3_linear_310_2773" x1="28.8682" y1="23.7186" x2="28.4447" y2="15.4648"
            gradientUnits="userSpaceOnUse">
            <stop stop-color="#9B9B9B" />
            <stop offset="0.54" stop-color="#2F2F2F" />
            <stop offset="0.72" stop-color="#313131" />
            <stop offset="0.8" stop-color="#383838" />
            <stop offset="0.85" stop-color="#444444" />
            <stop offset="0.9" stop-color="#565656" />
            <stop offset="0.94" stop-color="#6C6C6C" />
            <stop offset="0.97" stop-color="#888888" />
            <stop offset="1" stop-color="#A6A6A6" />
        </linearGradient>
        <linearGradient id="paint4_linear_310_2773" x1="24.9623" y1="18.8296" x2="17.9667" y2="26.1487"
            gradientUnits="userSpaceOnUse">
            <stop stop-color="#9B9B9B" />
            <stop offset="0.09" stop-color="#828282" />
            <stop offset="0.25" stop-color="#5E5E5E" />
            <stop offset="0.4" stop-color="#444444" />
            <stop offset="0.53" stop-color="#343434" />
            <stop offset="0.64" stop-color="#2F2F2F" />
            <stop offset="0.78" stop-color="white" />
            <stop offset="1" stop-color="#A0A0A0" />
        </linearGradient>
        <linearGradient id="paint5_linear_310_2773" x1="19.1317" y1="23.7186" x2="19.5553" y2="15.4648"
            gradientUnits="userSpaceOnUse">
            <stop stop-color="#9B9B9B" />
            <stop offset="0.54" stop-color="#2F2F2F" />
            <stop offset="0.72" stop-color="#313131" />
            <stop offset="0.8" stop-color="#383838" />
            <stop offset="0.85" stop-color="#444444" />
            <stop offset="0.9" stop-color="#565656" />
            <stop offset="0.94" stop-color="#6C6C6C" />
            <stop offset="0.97" stop-color="#888888" />
            <stop offset="1" stop-color="#A6A6A6" />
        </linearGradient>
    </defs>
</svg>