<svg width="1em" height="1em" viewBox="0 0 48 48" fill="none" xmlns="http://www.w3.org/2000/svg">
    <g clip-path="url(#clip0_310_26281)">
        <path fill-rule="evenodd" clip-rule="evenodd"
            d="M36.2864 21.6827C36.8087 21.7117 37.1856 22.0888 37.2438 22.5821C37.2728 22.8431 37.2728 23.2493 37.2728 23.5103C37.2728 23.8295 37.2728 24.0905 37.2438 24.3516C37.1567 24.9609 36.7215 25.3091 36.2864 25.3091H35.9382H35.5319C35.1258 25.3091 34.6615 24.9609 34.5745 24.3516C34.5456 24.0905 34.5456 23.8293 34.5456 23.5393C34.5456 23.2493 34.5456 22.8431 34.5745 22.5819C34.6325 22.0886 35.0386 21.7115 35.5609 21.6825C35.6768 21.6535 35.764 21.6535 35.9091 21.6535L36.2864 21.6827ZM35.996 20C36.5473 20 37.0695 20.029 37.5048 20.0869C38.7232 20.2321 39.7098 21.1894 39.9126 22.379C39.9416 22.5821 39.9998 23.0462 39.9998 23.5105C39.9998 24.0038 39.9416 24.4679 39.9126 24.6419C39.7098 25.8605 38.7232 26.7889 37.5048 26.963C37.0695 26.992 36.5473 27.05 35.996 27.05H35.8219C35.2417 27.05 34.7486 26.992 34.2843 26.963C33.0659 26.7889 32.1086 25.8605 31.9053 24.6419C31.8763 24.4679 31.8184 24.0038 31.8184 23.5105C31.8184 23.0464 31.8763 22.5823 31.9053 22.379C32.1084 21.1894 33.0659 20.2322 34.2843 20.0869C34.7486 20.029 35.2419 20 35.793 20H35.996Z"
            fill="#003A80" />
        <path fill-rule="evenodd" clip-rule="evenodd"
            d="M25.5234 23.5103C25.5234 23.1332 25.5524 22.7562 25.6394 22.3788C25.8424 21.1892 26.7998 20.2321 28.0184 20.0868C28.4537 20.029 28.976 20 29.527 20C30.1364 20 30.6876 20.029 31.1517 20.0869C31.3258 20.1159 31.4418 20.261 31.4418 20.4351V21.4794C31.4418 21.6825 31.2967 21.8276 31.1226 21.8276C31.1226 21.8276 30.5713 21.7984 30.2813 21.7984C29.9331 21.7984 29.6431 21.7984 29.3238 21.8276C28.8017 21.8566 28.4245 22.2337 28.3664 22.727C28.3374 22.988 28.3082 23.2493 28.3082 23.5103V23.5393C28.3082 23.8005 28.3372 24.0615 28.3664 24.3226C28.4245 24.8158 28.7727 25.193 29.3238 25.251C29.614 25.2799 29.9621 25.3091 30.2813 25.3091C30.5713 25.3091 31.1226 25.2801 31.1226 25.2801C31.2967 25.2801 31.4418 25.4252 31.4418 25.6283V26.6728C31.4418 26.8469 31.3258 26.992 31.1517 27.021C30.6876 27.021 30.1364 27.0498 29.527 27.0498C28.976 27.0498 28.4537 26.9918 28.0184 26.9628C26.7998 26.7887 25.8426 25.8604 25.6394 24.6418C25.5524 24.2938 25.5234 23.9166 25.5234 23.5395C25.5234 22.3499 25.5234 24.7001 25.5234 23.5103Z"
            fill="#003A80" />
        <path fill-rule="evenodd" clip-rule="evenodd"
            d="M24.7399 25.2221C24.9428 25.2221 25.0879 25.3962 25.0879 25.5702V26.6148C25.0879 26.8178 24.9428 26.9629 24.7399 26.9629H20.591C19.8367 26.9629 19.2275 26.3537 19.2275 25.5994V21.4797C19.2275 20.7256 19.8367 20.1162 20.591 20.1162H24.7397C24.9426 20.1162 25.0877 20.2613 25.0877 20.4354V21.4507C25.0877 21.654 24.9426 21.7989 24.7397 21.7989H22.1868C21.9837 21.7989 21.8386 21.915 21.8386 22.1181V22.7565L24.0146 22.7275C24.1885 22.7275 24.3626 22.9016 24.3626 23.0757V23.9461C24.3626 24.1491 24.1885 24.2943 24.0146 24.2943H21.8386V24.8745C21.8386 25.0775 21.9837 25.2226 22.1868 25.2226H24.7399V25.2221Z"
            fill="#003A80" />
        <path fill-rule="evenodd" clip-rule="evenodd"
            d="M14.1792 26.9629C13.57 26.9629 13.0477 26.5566 12.8736 26.0054L11.4521 20.5223C11.4521 20.4934 11.4521 20.4644 11.4521 20.4354C11.4521 20.2613 11.5973 20.1162 11.8003 20.1162H13.9181C14.0922 20.1162 14.2373 20.2323 14.2661 20.3772L15.3686 24.9612C15.3686 25.0194 15.4267 25.0772 15.5137 25.0772C15.5717 25.0772 15.6296 25.0192 15.6296 24.9612L16.7611 20.3772C16.7901 20.2321 16.9352 20.1162 17.0803 20.1162H18.2697C18.4728 20.1162 18.6179 20.2613 18.6179 20.4354C18.6179 20.4644 18.6179 20.4934 18.6179 20.5223L17.2543 25.8896C17.1092 26.4988 16.616 26.9629 15.9198 26.9629H14.1792V26.9629Z"
            fill="#003A80" />
        <path fill-rule="evenodd" clip-rule="evenodd"
            d="M8.34817 20.116H10.408C10.6111 20.116 10.7562 20.2611 10.7562 20.4352V26.6147C10.7562 26.8178 10.6111 26.9629 10.408 26.9629H8.34817C8.17408 26.9629 8 26.8178 8 26.6147V20.4352C8 20.2611 8.17408 20.116 8.34817 20.116Z"
            fill="#003A80" />
    </g>
    <defs>
        <clipPath id="clip0_310_26281">
            <rect width="32" height="7.04978" fill="white" transform="translate(8 20)" />
        </clipPath>
    </defs>
</svg>