<svg width="1em" height="1em" viewBox="0 0 48 48" fill="none" xmlns="http://www.w3.org/2000/svg">
    <g clip-path="url(#clip0_310_26305)">
        <path
            d="M34.687 24.888C34.661 26.3235 34.971 27.0839 36.1544 27.0839C37.3358 27.0839 37.5053 25.7886 37.5053 24.803C37.5053 23.8168 37.2811 22.8593 36.0399 22.8593C35.2784 22.8593 34.7163 23.451 34.687 24.888ZM32.293 30.8867V21.1697H34.7163C34.7163 21.1697 34.7163 21.3104 34.7163 21.5639C34.7163 22.0896 34.9283 21.8728 35.0991 21.668C35.1278 21.6337 35.6678 20.9726 36.8841 20.9726C38.0968 20.9726 39.9832 21.8173 39.9832 24.803C39.9832 27.1125 38.8578 28.8021 36.9141 28.8021C35.843 28.8021 35.2238 28.3804 35.0822 28.2102C34.9404 28.0424 34.7436 28.0131 34.7436 28.2102C34.7436 28.4077 34.7436 30.8867 34.7436 30.8867H32.293"
            fill="#231F20" />
        <path
            d="M13.5636 18.016H16.1831C16.1831 18.016 16.1831 23.7047 16.1831 24.888C16.1831 26.0701 15.6755 28.5493 12.0429 28.5493C8.40979 28.5493 8.01562 26.2386 8.01562 24.944V23.6767H10.5506C10.5506 23.6767 10.5506 24.1554 10.5506 24.9154C10.5506 25.6757 11.0577 26.3795 12.0147 26.3795C12.9721 26.3795 13.5636 25.8446 13.5636 24.944C13.5636 24.0427 13.5636 18.016 13.5636 18.016Z"
            fill="#231F20" />
        <path
            d="M21.6613 23.8456C21.6613 23.1407 21.2678 22.4649 20.3665 22.4649C19.4934 22.4649 19.1834 23.0839 19.1834 23.8456H21.6613ZM20.1139 20.8881C22.171 20.8881 23.9727 21.6764 23.9727 25.3097H19.1008C19.1008 26.4644 19.5791 26.9433 20.424 26.9433C21.2691 26.9433 21.5505 26.2669 21.5505 26.2669H23.9452C23.9452 27.3093 22.5086 28.7175 20.3394 28.6895C17.8617 28.6895 16.6504 26.8588 16.6504 24.9717C16.6504 23.0839 17.7199 20.8881 20.1139 20.8881"
            fill="#231F20" />
        <path
            d="M29.45 23.8456C29.45 23.1407 29.0561 22.4649 28.1548 22.4649C27.2822 22.4649 26.9715 23.0839 26.9715 23.8456H29.45ZM27.9027 20.8881C29.9595 20.8881 31.7608 21.6764 31.7608 25.3097H26.8891C26.8891 26.4644 27.3678 26.9433 28.2134 26.9433C29.0576 26.9433 29.3395 26.2669 29.3395 26.2669H31.7341C31.7341 27.3093 30.2973 28.7175 28.1288 28.6895C25.6498 28.6895 24.4385 26.8588 24.4385 24.9717C24.4385 23.0839 25.5093 20.8881 27.9027 20.8881"
            fill="#231F20" />
        <path
            d="M38.3795 29.7219C38.3795 29.337 38.6928 29.0244 39.0789 29.0244C39.4637 29.0244 39.7764 29.337 39.7764 29.7219C39.7764 30.1061 39.4637 30.4206 39.0789 30.4206C38.6928 30.4206 38.3795 30.1061 38.3795 29.7219ZM38.2988 29.7219C38.2988 30.1525 38.6475 30.502 39.0789 30.502C39.5075 30.502 39.8581 30.1525 39.8581 29.7219C39.8581 29.2913 39.5075 28.9418 39.0789 28.9418C38.6475 28.9418 38.2988 29.2913 38.2988 29.7219"
            fill="#231F20" />
        <path
            d="M39.391 30.1208L39.2291 29.7384C39.2805 29.7206 39.2976 29.708 39.3249 29.6788C39.3605 29.6406 39.3828 29.5803 39.3828 29.5257C39.3828 29.3878 39.2768 29.2939 39.1231 29.2939H38.7979V30.1208H38.8943V29.7627H39.1294L39.2837 30.1208H39.391ZM38.8917 29.6788V29.3839H39.1211C39.2169 29.3839 39.2779 29.4385 39.2779 29.5231C39.2779 29.6192 39.2133 29.6788 39.1077 29.6788H38.8917Z"
            fill="#231F20" />
    </g>
    <defs>
        <clipPath id="clip0_310_26305">
            <rect width="32" height="12.9027" fill="white" transform="translate(8 18)" />
        </clipPath>
    </defs>
</svg>