<svg width="1em" height="1em" viewBox="0 0 48 48" fill="none" xmlns="http://www.w3.org/2000/svg">
    <path
        d="M24.2516 32.4651C28.5406 29.0904 30.5561 24.7229 31.4534 21.289C32.3713 17.7725 32.5109 14.3938 32.5078 14.2731L32.502 14.0828L32.3601 13.9665C28.8656 10.7341 24.3535 9.00642 24.1408 8.93639L24.0276 8.89868L23.915 8.93639C23.7022 9.00642 19.2992 10.7341 15.6956 13.9665L15.5533 14.0828L15.5479 14.2731C15.5444 14.3938 15.644 17.7824 16.5988 21.289C17.4821 24.5321 19.3571 29.2188 23.8041 32.4651L24.0276 32.6285L24.2516 32.4651Z"
        fill="#1A377A" />
    <path fill-rule="evenodd" clip-rule="evenodd"
        d="M24.0336 12.1116C23.2831 12.3558 18.9447 13.811 16.3018 15.7811C16.3098 17.1839 16.7771 26.2794 24.0336 31.9294C31.1218 26.2794 31.7462 17.1834 31.7543 15.7811C29.1113 13.811 24.7842 12.3558 24.0336 12.1116Z"
        fill="#CB9F18" />
    <path
        d="M23.8542 9.50464L23.8654 9.93107C23.7079 9.8211 23.4942 9.76274 23.2482 9.76274C23.1329 9.76274 22.9829 9.79147 22.8555 9.8413L22.8779 10.1331C23.0103 10.0581 23.1338 10.0433 23.2595 10.0433C23.6203 10.0433 23.8767 10.3135 23.8767 10.6717C23.8767 11.0277 23.6217 11.3001 23.2482 11.3001C23.1104 11.3001 22.9493 11.2755 22.8667 11.2328L22.8555 11.5246C22.9834 11.5547 23.1154 11.5807 23.2482 11.5807C23.4879 11.5807 23.7043 11.5273 23.8654 11.4236L23.8542 11.8051H24.0225H24.2021V11.4348C24.3587 11.5268 24.5598 11.5807 24.7856 11.5807C24.9185 11.5807 25.0505 11.5547 25.1784 11.5246L25.1672 11.2328C25.0846 11.2755 24.9234 11.3001 24.7856 11.3001C24.4126 11.3001 24.1909 11.0272 24.1909 10.6717C24.1909 10.3131 24.414 10.0433 24.7744 10.0433C24.9001 10.0433 25.0231 10.0577 25.156 10.1331L25.1784 9.8413C25.0509 9.79102 24.901 9.76274 24.7856 9.76274C24.5545 9.76274 24.3561 9.82244 24.2021 9.91985V9.50464H24.0225H23.8542Z"
        fill="#CB9F18" />
    <path
        d="M24.0225 12.1082V13.2528L26.6933 13.0957C25.4014 12.566 24.3578 12.2168 24.0225 12.1082ZM24.0225 13.2528V15.4635L28.2643 15.0707L31.7207 16.4061C31.7359 16.1314 31.7422 15.9151 31.7431 15.7777C31.3486 15.4837 30.9158 15.2049 30.4638 14.9361L28.2643 15.0595L24.0225 13.2528ZM24.0225 15.4635V15.4747V17.6854L28.2643 17.1243L31.5299 18.269C31.6121 17.7034 31.6556 17.2042 31.687 16.7989L28.2643 17.1131L24.0225 15.4635ZM24.0225 17.6854V19.9074L28.2643 19.1892L31.1932 20.0981C31.2992 19.6264 31.3822 19.1797 31.4513 18.7627L28.2643 19.1667L24.0225 17.6854ZM24.0225 19.9074V22.1181L28.2643 21.2428L30.7107 21.9161C30.831 21.5242 30.9311 21.1422 31.0249 20.7714L28.2643 21.2315L24.0225 19.9074ZM24.0225 22.1181V24.34L28.2643 23.2964L30.0711 23.7228C30.1896 23.427 30.2941 23.137 30.3965 22.8475L28.2643 23.2851L24.0225 22.1181ZM24.0225 24.34V26.5507L28.2643 25.3612L29.2406 25.552C29.3273 25.3823 29.4067 25.2158 29.4875 25.047L28.2643 25.3388L24.0225 24.34ZM24.0225 26.5507V26.5619V28.7726L28.1297 27.4597C28.1458 27.4354 28.1588 27.4058 28.1746 27.3811L24.0225 26.5507ZM24.0225 28.7726V30.9946L25.7843 30.3549C26.1506 29.9846 26.494 29.6071 26.8167 29.2215L24.0225 28.7726ZM24.0225 30.9946V31.926C24.3641 31.6598 24.6868 31.3869 24.9988 31.1068L24.0225 30.9946Z"
        fill="#CB9F18" />
    <path
        d="M24.0216 12.1082C23.6868 12.2168 22.6306 12.566 21.3396 13.0957L24.0216 13.2528V12.1082ZM24.0216 13.2528L19.7798 15.0595L17.5803 14.9361C17.1278 15.2054 16.6955 15.4832 16.301 15.7777C16.3019 15.9155 16.2965 16.1301 16.3122 16.4061L19.7798 15.0707L24.0216 15.4635V13.2528ZM24.0216 15.4635L19.7798 17.1131L16.3459 16.7989C16.3773 17.2051 16.4316 17.702 16.5142 18.269L19.7798 17.1243L24.0216 17.6854V15.4635ZM24.0216 17.6854L19.7798 19.1667L16.5815 18.7627C16.6511 19.1806 16.7449 19.6246 16.8509 20.0981L19.7798 19.1892L24.0216 19.9074V17.6854ZM24.0216 19.9074L19.7798 21.2315L17.008 20.7602C17.1022 21.1319 17.2126 21.5229 17.3334 21.9161L19.7798 21.2428L24.0216 22.1181V19.9074ZM24.0216 22.1181L19.7798 23.2851L17.6364 22.8475C17.7392 23.1384 17.8541 23.4256 17.973 23.7228L19.7798 23.2964L24.0216 24.34V22.1181ZM24.0216 24.34L19.7798 25.3388L18.5454 25.047C18.6266 25.2171 18.7047 25.3809 18.7922 25.552L19.7798 25.3612L24.0216 26.5507V24.34ZM24.0216 26.5619L19.8583 27.3811C19.8731 27.4036 19.8884 27.426 19.9032 27.4485L24.0216 28.7726V26.5619ZM24.0216 28.7726L21.2162 29.2215C21.5371 29.6049 21.8845 29.9869 22.2486 30.3549L24.0216 30.9946V28.7726ZM24.0216 30.9946L23.0341 31.118C23.3456 31.3977 23.6805 31.6603 24.0216 31.926V30.9946Z"
        fill="#E3B80F" />
    <path
        d="M21.3516 13.0991C20.1801 13.5794 18.8069 14.2105 17.5811 14.9395L19.7806 15.063L24.0224 13.2562L21.3516 13.0991ZM19.7806 15.0742L16.3242 16.4096C16.331 16.5281 16.3354 16.6614 16.3467 16.8023L19.7806 17.1166L24.0224 15.4669L19.7806 15.0742ZM19.7806 17.1278L16.515 18.2724C16.5379 18.43 16.5545 18.5983 16.5823 18.7662L19.7806 19.1702L24.0224 17.6889L19.7806 17.1278ZM19.7806 19.1926L16.8516 20.1016C16.9001 20.3184 16.9513 20.537 17.0088 20.7637L19.7806 21.235L24.0224 19.9108L19.7806 19.1926ZM19.7806 21.2462L17.3342 21.9195C17.4276 22.2248 17.5254 22.5354 17.6372 22.8509L19.7806 23.2886L24.0224 22.1215L19.7806 21.2462ZM19.7806 23.2998L17.9738 23.7262C18.1476 24.1599 18.3352 24.6092 18.5462 25.0504L19.7806 25.3422L24.0224 24.3434L19.7806 23.2998ZM19.7806 25.3646L18.793 25.5554C19.1059 26.1668 19.4637 26.7772 19.8591 27.3846L24.0224 26.5542L19.7806 25.3646ZM19.904 27.4519C20.2981 28.0521 20.7322 28.6459 21.217 29.225L24.0224 28.7761L19.904 27.4519ZM22.2494 30.3584C22.5034 30.6156 22.7584 30.8737 23.0349 31.1215L24.0224 30.998L22.2494 30.3584Z"
        fill="#DA442D" />
    <path
        d="M26.6933 13.0991L24.0225 13.2562L28.2643 15.063L30.4638 14.9395C29.2384 14.2105 27.8648 13.5799 26.6933 13.0991ZM28.2643 15.0742L24.0225 15.4669L28.2643 17.1166L31.6982 16.8023C31.7095 16.6596 31.7144 16.5294 31.7207 16.4096L28.2643 15.0742ZM28.2643 17.1278L24.0225 17.6889L28.2643 19.1702L31.4513 18.7662C31.4792 18.5969 31.507 18.4313 31.5299 18.2724L28.2643 17.1278ZM28.2643 19.1926L24.0225 19.9108L28.2643 21.235L31.0249 20.7749C31.0828 20.5469 31.1443 20.3197 31.1932 20.1016L28.2643 19.1926ZM28.2643 21.2462L24.0225 22.1215L28.2643 23.2886L30.3965 22.8509C30.5083 22.5345 30.6164 22.2266 30.7107 21.9195L28.2643 21.2462ZM28.2643 23.2998L24.0225 24.3434L28.2643 25.3422L29.4875 25.0504C29.6994 24.6078 29.8973 24.1612 30.0711 23.7262L28.2643 23.2998ZM28.2643 25.3646L24.0225 26.5542L28.1746 27.3846C28.57 26.7772 28.9282 26.1668 29.2406 25.5554L28.2643 25.3646ZM28.1297 27.4631L24.0225 28.7761L26.8167 29.225C27.3001 28.6473 27.7365 28.0615 28.1297 27.4631ZM25.7843 30.3584L24.0225 30.998L24.9988 31.1102C25.273 30.8643 25.532 30.6138 25.7843 30.3584Z"
        fill="#C83E29" />
    <path
        d="M22.3164 34.6116L22.2603 35.0604L23.3488 35.0492L23.3937 34.6116H22.3164ZM9.43368 34.6228L9.01847 37.9445H10.107L10.2753 36.5642H10.2865L10.9599 37.9332H12.1606L11.2853 36.2051L12.4636 34.6228H11.3302L10.3651 35.947H10.3539L10.511 34.6228H9.43368ZM30.7328 35.24C30.2516 35.2409 29.9522 35.3877 29.8912 35.8796L29.7116 37.316C29.6447 37.8547 29.9527 37.9449 30.34 37.9445H31.7316C32.1656 37.9436 32.4565 37.8035 32.5171 37.316L32.5395 37.1141H31.451C31.4093 37.338 31.2198 37.4054 31.1031 37.4058C30.8186 37.4058 30.8167 37.1845 30.8338 37.0467L30.8562 36.8559H32.5732L32.6966 35.8684C32.7595 35.3639 32.4798 35.2395 32.0458 35.24H30.7328ZM33.8076 35.24C33.4014 35.2404 33.1154 35.3854 33.0557 35.8684L32.8874 37.2824C32.8264 37.7739 33.0737 37.9113 33.4709 37.9108H33.83C34.0119 37.9104 34.217 37.8875 34.3687 37.7537C34.4477 37.6846 34.4544 37.6576 34.5595 37.4507H34.5707L34.4809 38.1689H32.8425L32.7752 38.831H34.7054C35.0276 38.831 35.499 38.7785 35.5694 38.2138L35.9285 35.2624H34.84L34.7951 35.644H34.7839C34.7148 35.411 34.5693 35.2395 34.2004 35.24H33.8076ZM36.8151 35.24C36.4877 35.275 36.2725 35.4458 36.2203 35.8684L36.0408 37.2824C35.9797 37.7739 36.2383 37.9113 36.6355 37.9108H36.9834C37.1652 37.9108 37.3699 37.8762 37.522 37.7425C37.6006 37.6734 37.619 37.6576 37.724 37.4507L37.6455 38.1577L36.0071 38.1689L35.9285 38.831L37.8699 38.8198C38.1922 38.8193 38.6635 38.7785 38.734 38.2138L39.0931 35.2624H38.0046L37.9485 35.6328C37.8793 35.3998 37.7227 35.2395 37.3537 35.24H36.9722C36.9214 35.2401 36.8618 35.235 36.8151 35.24ZM20.8576 35.2512C20.5402 35.2512 20.4271 35.3248 20.3077 35.4195C20.208 35.5102 20.1901 35.5407 20.1281 35.7001H20.1169L20.1618 35.2849H19.0733L18.7478 37.9332H19.8364L20.0496 36.1939C20.0621 36.0902 20.1003 35.7903 20.4087 35.7899C20.726 35.7894 20.6919 36.048 20.678 36.1602L20.4648 37.9332L21.5533 37.922L21.8002 35.8909C21.8653 35.3693 21.5883 35.2508 21.2054 35.2512H20.8576ZM24.3251 35.2512C23.9189 35.2517 23.6329 35.3967 23.5732 35.8796L23.4049 37.2936C23.3439 37.7851 23.6024 37.9225 23.9997 37.922H24.3476C24.5294 37.922 24.7345 37.8987 24.8862 37.7649C24.9652 37.6958 24.9719 37.6689 25.077 37.4619H25.0882L24.9984 38.1801H23.3713L23.2927 38.8422H25.2341C25.5564 38.8422 26.0169 38.7897 26.0869 38.225L26.4461 35.2737H25.3575L25.3126 35.6552H25.3014C25.2323 35.4222 25.0869 35.2508 24.7179 35.2512H24.3251ZM27.3438 35.2512C27.0163 35.2871 26.7901 35.4574 26.7378 35.8796L26.6929 36.2387C26.6121 36.8901 27.0049 36.9035 27.4336 36.9121L28.3425 36.9345L28.3313 37.0131C28.3215 37.0907 28.2775 37.3942 27.9273 37.3946C27.8524 37.3946 27.7806 37.3816 27.7253 37.3385C27.6697 37.2994 27.6338 37.2384 27.6356 37.1477H26.5583L26.5358 37.3048C26.4618 37.9041 26.8671 37.9449 27.2316 37.9445H28.567C29.0244 37.944 29.3171 37.7703 29.375 37.3048L29.4198 36.9569C29.4948 36.3532 29.0585 36.3366 28.6904 36.3285L27.7702 36.3173L27.7927 36.1153C27.8335 35.7876 28.1239 35.7899 28.1518 35.7899C28.194 35.7899 28.26 35.8029 28.3201 35.846C28.3802 35.8891 28.4319 35.9569 28.4211 36.0816H29.5096L29.5321 35.8796C29.5909 35.4052 29.353 35.2508 28.9373 35.2512H27.4897C27.4389 35.2513 27.3906 35.2461 27.3438 35.2512ZM13.5072 35.2624C13.1988 35.2629 12.7616 35.2961 12.688 35.8909L12.5085 37.3273C12.4398 37.8789 12.767 37.9674 13.1593 37.9669L14.506 37.9557C14.9544 37.9552 15.2556 37.7968 15.3139 37.3273L15.4935 35.8909C15.555 35.3953 15.3135 35.262 14.8651 35.2624H13.5072ZM16.683 35.2624C16.2023 35.2633 15.9024 35.3998 15.8414 35.8909L15.6618 37.3273C15.5949 37.8659 15.9029 37.9561 16.2902 37.9557H17.6818C18.1158 37.9548 18.4067 37.8143 18.4673 37.3273L18.4897 37.1365H17.4012C17.3595 37.3609 17.17 37.4166 17.0533 37.417C16.7688 37.417 16.767 37.1962 16.784 37.0579L16.8065 36.8784H18.5234L18.6468 35.8909C18.7097 35.3863 18.43 35.262 17.996 35.2624H16.683ZM23.3151 35.2737L22.2266 35.2849L21.9012 37.922H22.9897L23.3151 35.2737ZM34.4697 35.7338C34.7826 35.7333 34.7516 36.0161 34.739 36.1153L34.6268 37.0018C34.6183 37.071 34.5806 37.3717 34.2677 37.3722C34.0109 37.3722 33.9804 37.1666 33.9984 37.0243L34.1218 36.0816C34.1416 35.9223 34.2269 35.7342 34.4697 35.7338ZM37.5445 35.7338C37.5702 35.7282 37.6039 35.7338 37.6343 35.7338C37.9471 35.7338 37.9049 36.0161 37.8924 36.1153L37.7801 36.9906C37.7716 37.0597 37.7339 37.3717 37.421 37.3722C37.1643 37.3726 37.145 37.1666 37.1629 37.0243L37.2752 36.0816C37.2924 35.9422 37.3645 35.7726 37.5445 35.7338ZM24.9872 35.745C25.3001 35.745 25.2691 36.0273 25.2565 36.1265L25.1443 37.0131C25.1358 37.0822 25.0981 37.3829 24.7852 37.3834C24.5285 37.3838 24.4984 37.1778 24.5159 37.0355L24.6393 36.0929C24.6591 35.9331 24.7444 35.7454 24.9872 35.745ZM31.2939 35.7786C31.4757 35.7786 31.6072 35.8859 31.5744 36.149L31.552 36.3285H30.9236L30.946 36.1041C30.9707 35.9057 31.1161 35.7791 31.2939 35.7786ZM14.102 35.7899C14.4149 35.7894 14.3803 36.0646 14.3713 36.1377L14.2591 37.0692C14.2429 37.2029 14.2129 37.417 13.9 37.417C13.5871 37.4175 13.6141 37.2029 13.6307 37.0692L13.7429 36.1377C13.7518 36.0646 13.7896 35.7899 14.102 35.7899ZM17.2441 35.8011C17.4259 35.8011 17.5574 35.8972 17.5247 36.1602L17.5022 36.3397H16.8738L16.8962 36.1265C16.9209 35.9286 17.0664 35.8015 17.2441 35.8011ZM32.4498 38.1577L26.4909 38.1689C26.4909 38.1689 26.4577 38.6196 26.2441 38.831L32.3712 38.8198L32.4498 38.1577ZM22.956 38.1689L8.99603 38.1914L8.90625 38.8534L22.8775 38.831L22.956 38.1689Z"
        fill="#181A21" fill-opacity="0.941176" />
    <path
        d="M24.0225 9.50806V11.8085H24.202V11.4382C24.3587 11.5302 24.5598 11.5841 24.7855 11.5841C24.9184 11.5841 25.0504 11.5581 25.1783 11.528L25.1671 11.2362C25.0845 11.2789 24.9234 11.3036 24.7855 11.3036C24.4125 11.3036 24.1908 11.0306 24.1908 10.6751C24.1908 10.3165 24.4139 10.0467 24.7743 10.0467C24.9 10.0467 25.023 10.0611 25.1559 10.1365L25.1783 9.84471C25.0508 9.79444 24.9009 9.76616 24.7855 9.76616C24.5544 9.76616 24.356 9.82586 24.202 9.92327V9.50806H24.0225Z"
        fill="#CB9F18" />
    <path
        d="M23.8542 9.50806L23.8654 9.93449C23.7079 9.82451 23.4942 9.76616 23.2482 9.76616C23.1329 9.76616 22.9829 9.79489 22.8555 9.84471L22.8779 10.1365C23.0103 10.0615 23.1338 10.0467 23.2595 10.0467C23.6203 10.0467 23.8767 10.3169 23.8767 10.6751C23.8767 11.0311 23.6217 11.3036 23.2482 11.3036C23.1104 11.3036 22.9493 11.2789 22.8667 11.2362L22.8555 11.528C22.9834 11.5581 23.1154 11.5841 23.2482 11.5841C23.4879 11.5841 23.7043 11.5307 23.8654 11.427L23.8542 11.8085H24.0225V9.50806H23.8542Z"
        fill="#E3B80F" />
</svg>