<svg width="1em" height="1em" viewBox="0 0 48 48" fill="none" xmlns="http://www.w3.org/2000/svg">
    <g clip-path="url(#clip0_310_2897)">
        <path fill-rule="evenodd" clip-rule="evenodd"
            d="M23.8606 27.429C23.6718 27.1896 23.359 27.0552 23.0513 27.0552C22.2985 27.0552 21.801 27.6416 21.801 28.3849C21.801 29.0719 22.2702 29.659 23.0513 29.659C23.4351 29.659 23.7284 29.4929 23.9275 29.2197L24.3108 29.5013C24.211 29.6365 23.8087 30.0743 23.042 30.0743C21.9759 30.0743 21.3184 29.2057 21.3184 28.3849C21.3184 27.3699 22.0325 26.6399 23.0652 26.6399C23.5056 26.6399 23.9702 26.8018 24.2393 27.1474L23.8606 27.429"
            fill="black" />
        <path fill-rule="evenodd" clip-rule="evenodd"
            d="M28.2964 29.659C27.5813 29.659 27.1182 29.0719 27.1182 28.3567C27.1182 27.6416 27.5813 27.0552 28.2964 27.0552C29.0116 27.0552 29.4747 27.6416 29.4747 28.3567C29.4747 29.0719 29.0116 29.659 28.2964 29.659ZM28.2964 30.0743C29.2499 30.0743 29.9249 29.3267 29.9249 28.3567C29.9249 27.3882 29.2499 26.6399 28.2964 26.6399C27.3425 26.6399 26.668 27.3882 26.668 28.3567C26.668 29.3267 27.3425 30.0743 28.2964 30.0743Z"
            fill="black" />
        <path fill-rule="evenodd" clip-rule="evenodd" d="M8 26.8066H8.43181V29.6589H9.8943V30.0742H8V26.8066Z"
            fill="black" />
        <path fill-rule="evenodd" clip-rule="evenodd" d="M12.4727 26.8066H12.9045V30.0742H12.4727V26.8066Z"
            fill="black" />
        <path fill-rule="evenodd" clip-rule="evenodd"
            d="M15.8037 26.8066H16.3826L18.1741 29.4935H18.1839V26.8066H18.6249V30.0742H18.064L16.2539 27.3888H16.2447V30.0742H15.8037V26.8066"
            fill="black" />
        <path fill-rule="evenodd" clip-rule="evenodd"
            d="M32.7646 26.8066H33.1965V29.6589H34.6589V30.0742H32.7646V26.8066Z" fill="black" />
        <path fill-rule="evenodd" clip-rule="evenodd"
            d="M37.2373 26.8066H37.8034L39.5589 29.4935H39.5679V26.8066H39.9997V30.0742H39.4503L37.6788 27.3888H37.6678V30.0742H37.2373V26.8066"
            fill="black" />
        <path fill-rule="evenodd" clip-rule="evenodd"
            d="M25.0506 21.5793C25.0463 20.6478 24.9931 19.5963 24.8442 18.6284C24.8442 18.6284 24.5347 18.5921 24.1316 18.5863C24.1039 18.2074 24.0816 18 24.0816 18H23.9816C23.9816 18 23.9593 18.2074 23.9316 18.5863C23.5285 18.5921 23.219 18.6284 23.219 18.6284C23.069 19.5963 23.0158 20.6478 23.0121 21.5793C22.6808 21.6172 22.417 21.6546 22.417 21.6546V21.7504C22.417 21.7504 22.6808 21.7872 23.0121 21.8257C23.0158 22.7572 23.069 23.8082 23.219 24.7761C23.219 24.7761 23.5285 24.8129 23.9316 24.8187C23.9593 25.1976 23.9816 25.4045 23.9816 25.4045H24.0816C24.0816 25.4045 24.1039 25.1976 24.1316 24.8187C24.5347 24.8129 24.8442 24.7761 24.8442 24.7761C24.9931 23.8082 25.0463 22.7572 25.0506 21.8257C25.3819 21.7872 25.6462 21.7504 25.6462 21.7504V21.6546C25.6462 21.6546 25.3819 21.6172 25.0506 21.5793ZM24.6214 18.9142C24.7517 19.821 24.7852 20.9594 24.7889 21.5509C24.5996 21.5315 24.4055 21.5151 24.2374 21.5072C24.2332 20.412 24.1928 19.5231 24.1539 18.9142H24.6214ZM23.4413 18.9142H23.9088C23.871 19.5231 23.8295 20.412 23.8258 21.5072C23.6577 21.5151 23.4626 21.5315 23.2743 21.5509C23.278 20.9594 23.3105 19.821 23.4413 18.9142V18.9142ZM23.4413 24.4908C23.3105 23.5835 23.278 22.4456 23.2743 21.8541C23.4626 21.873 23.6577 21.8893 23.8258 21.8978C23.8295 22.993 23.871 23.8814 23.9088 24.4908H23.4413H24.6214H24.1539C24.1928 23.8814 24.2332 22.993 24.2374 21.8978C24.4055 21.8893 24.5996 21.873 24.7889 21.8541C24.7852 22.4456 24.7517 23.5835 24.6214 24.4908H23.4413"
            fill="black" />
    </g>
    <defs>
        <clipPath id="clip0_310_2897">
            <rect width="32" height="12.0742" fill="white" transform="translate(8 18)" />
        </clipPath>
    </defs>
</svg>