<svg width="1em" height="1em" viewBox="0 0 48 48" fill="none" xmlns="http://www.w3.org/2000/svg">
    <path
        d="M16.2739 22.4568H17.9159L18.5215 24.7627H18.5624C18.5915 24.5706 18.6207 24.3667 18.6731 24.1808L19.1678 22.4568H20.7928L21.5146 26.8474H19.9716L19.7559 24.4425H19.727C19.698 24.588 19.6688 24.7393 19.6222 24.8791L18.9875 26.8475H18.0559L17.4852 24.9897C17.4386 24.8034 17.3977 24.6287 17.386 24.4425H17.3336C17.3221 24.6172 17.3105 24.7976 17.293 24.972L17.1064 26.8474H15.5635L16.2739 22.4568Z"
        fill="#ACACAC" />
    <path
        d="M23.8764 25.2578L23.6902 24.4832C23.6436 24.2967 23.6144 24.1047 23.5851 23.9184H23.5272L23.2358 25.2578H23.8764ZM22.8223 26.8474H21.1338L22.6592 22.4568H24.4238L25.9903 26.8474H24.3014L24.1561 26.2998H22.9504L22.8223 26.8474Z"
        fill="#ACACAC" />
    <path
        d="M30.3272 24.262C30.3152 24.9783 30.3152 25.578 29.797 26.1368C29.3311 26.6437 28.6152 26.9173 27.9338 26.9173C26.5947 26.9173 25.5117 26.0904 25.5117 24.6812C25.5117 23.2489 26.5654 22.387 27.9456 22.387C28.7084 22.387 29.7567 22.7655 30.0999 23.5167L28.6093 24.0642C28.4871 23.8429 28.2601 23.7264 28.0037 23.7264C27.4334 23.7264 27.1186 24.2155 27.1186 24.7453C27.1186 25.2284 27.4214 25.6828 27.9396 25.6828C28.1902 25.6828 28.5104 25.5662 28.5859 25.2985H27.8641V24.262H30.3272Z"
        fill="#ACACAC" />
    <path
        d="M30.4463 22.4568H31.978L33.4103 24.8909H33.4567C33.3929 24.524 33.3229 24.1455 33.3229 23.7729V22.4568H34.8483V26.8474H33.3229L31.9196 24.5416H31.8731C31.9253 24.8441 31.972 25.1296 31.972 25.421V26.8474H30.4463V22.4568H30.4463Z"
        fill="#ACACAC" />
    <path
        d="M37.4321 25.2578L37.2456 24.4832C37.1991 24.2967 37.17 24.1047 37.1407 23.9184H37.0825L36.7914 25.2578H37.4321ZM36.3781 26.8474H34.6895L36.2148 22.4568H37.9793L39.5456 26.8474H37.857L37.7115 26.2998H36.5062L36.3781 26.8474Z"
        fill="#ACACAC" />
    <path d="M13.1294 26.8518L14.7838 26.852L13.1905 22.4687L11.9794 22.4685L11.7568 23.0785L13.1294 26.8518Z"
        fill="black" />
    <path
        d="M12.0078 20.6035C11.5639 20.6035 11.2041 20.9632 11.2041 21.4074C11.2041 21.851 11.5639 22.2109 12.0078 22.2109C12.4517 22.2109 12.8113 21.851 12.8113 21.4073C12.8113 20.9632 12.4517 20.6035 12.0078 20.6035Z"
        fill="#E22E2F" />
    <path d="M8.4541 26.8518L10.9204 26.8516L9.6869 23.4658L8.4541 26.8518Z" fill="black" />
    <path d="M11.1996 26.8518L12.854 26.852L11.2604 22.4687L10.0495 22.4685L9.82715 23.0785L11.1996 26.8518Z"
        fill="black" />
</svg>