<svg width="1em" height="1em" viewBox="0 0 48 48" fill="none" xmlns="http://www.w3.org/2000/svg">
    <path
        d="M23.7436 17.0667C19.6 17.0675 15.8689 18.4809 15.4427 20.375C15.1592 21.6349 16.4728 22.9276 18.4809 23.6839C20.8297 21.5499 23.4863 19.2924 26.9519 17.7417C23.7927 19.7745 21.4624 22.008 19.564 24.0506C20.2023 24.2173 20.8997 24.3701 21.639 24.4549C22.7059 22.8077 23.8934 20.7582 27.4019 17.775C24.8532 20.8397 23.6644 22.6599 22.6352 24.5835C26.4284 24.923 30.8424 24.4474 31.8936 21.1167C32.3481 19.0963 29.0684 17.2961 24.5769 17.0917C24.2962 17.0789 24.0198 17.0666 23.7436 17.0667ZM23.5936 17.375C25.275 17.3555 26.5936 17.5417 26.5936 17.5417C23.3332 18.7086 21.0362 19.9029 18.0102 21.6167C18.0395 21.646 15.6227 21.2653 17.3602 19.2667C18.6718 17.758 21.4317 17.4 23.5936 17.375ZM27.8519 17.9333C27.8519 17.9333 30.0586 18.2129 30.6019 20.1667C31.2002 22.3181 25.533 23.1808 25.1519 22.8583C26.2004 20.3238 26.5101 20.3021 27.8519 17.9333Z"
        fill="#FF0000" />
    <path
        d="M12.982 27.7095C12.7006 27.7095 12.4631 27.7562 12.2639 27.8514C12.0648 27.9467 11.8663 28.1127 11.6707 28.3381V27.7906H10.3177C9.95635 27.7903 9.73721 28.0481 9.59961 28.4293C9.89713 28.4676 10.2833 28.3347 10.3177 28.8856V31.4912H11.7748V29.6054C11.7748 29.3243 11.8236 29.1202 11.9309 28.9971C12.0382 28.8739 12.1802 28.8146 12.3472 28.8146C12.4497 28.8146 12.5415 28.8489 12.6178 28.9058C12.6941 28.9628 12.7429 29.036 12.7739 29.1289C12.793 29.187 12.8051 29.2907 12.8051 29.4533V31.4912H14.2622V29.5851C14.2622 29.3179 14.3133 29.128 14.4183 29.0072C14.5232 28.8864 14.6628 28.8247 14.8346 28.8247C14.9801 28.8247 15.101 28.8896 15.1988 29.0174C15.2656 29.0987 15.3029 29.2151 15.3029 29.3824V31.4912H16.76V29.1694C16.7599 28.6676 16.6455 28.3002 16.4165 28.0643C16.1875 27.8285 15.8668 27.7095 15.459 27.7095C15.1823 27.7095 14.9501 27.7541 14.7617 27.8413C14.5733 27.9284 14.3662 28.0964 14.1373 28.3381C14.0252 28.1313 13.8766 27.9763 13.7002 27.8717C13.5237 27.7671 13.2849 27.7095 12.982 27.7095ZM25.2525 27.75C24.9503 27.7291 24.6794 27.8778 24.6488 28.0846C24.6182 28.2914 24.8359 28.4794 25.138 28.5003C25.4401 28.5212 25.711 28.3624 25.7416 28.1556C25.7722 27.9488 25.5546 27.771 25.2525 27.75ZM21.0686 27.7805C20.7653 27.8487 20.7961 27.9978 20.694 28.115C20.86 28.161 21.062 28.1123 21.0686 28.5206V31.4912H22.1302V30.2036C22.1302 29.9586 22.1649 29.7913 22.2447 29.6967C22.3245 29.602 22.4286 29.5547 22.5569 29.5547C22.6731 29.5547 22.7633 29.586 22.8275 29.6561C22.8917 29.7262 22.9316 29.842 22.9316 30.011V31.4912H23.9931V29.7879C23.9931 29.4347 23.909 29.1678 23.7434 28.9971C23.5777 28.8264 23.3548 28.7436 23.0669 28.7436C22.8726 28.7436 22.6991 28.7723 22.5569 28.8349C22.4147 28.8974 22.2742 29.0039 22.1302 29.1492V27.7805H21.0686ZM31.8092 27.7805C31.5573 27.7858 31.5282 27.9393 31.4449 28.0542C31.6374 28.0542 31.745 28.1809 31.8092 28.3685V29.0681C31.7051 28.9599 31.5793 28.8788 31.4449 28.8247C31.3105 28.7707 31.1622 28.7436 30.9974 28.7436C30.6591 28.7436 30.3842 28.8619 30.1648 29.0985C29.9454 29.335 29.8317 29.6764 29.8317 30.1225C29.8317 30.5213 29.9349 30.8575 30.1336 31.1363C30.3322 31.4152 30.621 31.552 30.9974 31.552C31.1847 31.552 31.3547 31.5182 31.5073 31.4405C31.6218 31.3814 31.7432 31.2648 31.882 31.0958V31.4912H32.8811V27.7805H31.8092ZM18.8935 28.7436C18.6957 28.7436 18.5119 28.7555 18.3419 28.7842C18.1719 28.8129 18.0331 28.8535 17.936 28.9058C17.8007 28.9785 17.6958 29.0706 17.6238 29.1694C17.5518 29.2683 17.5058 29.4026 17.4677 29.575L18.4772 29.6764C18.5188 29.5598 18.576 29.4753 18.6437 29.4331C18.7304 29.379 18.8553 29.3519 19.0288 29.3519C19.1641 29.3519 19.256 29.3824 19.3098 29.4331C19.3635 29.4838 19.393 29.5699 19.393 29.6967C19.2612 29.7474 19.1363 29.7871 19.0184 29.8183C18.9004 29.8496 18.6454 29.9028 18.2482 29.9805C17.9169 30.0447 17.6845 30.1428 17.5613 30.2746C17.4382 30.4064 17.3844 30.577 17.3844 30.7815C17.3844 30.9995 17.4633 31.1803 17.6342 31.329C17.805 31.4777 18.0539 31.552 18.3835 31.552C18.6316 31.552 18.8518 31.5149 19.0392 31.4405C19.1762 31.3847 19.3167 31.2969 19.4555 31.1668C19.4676 31.2445 19.4746 31.3028 19.4867 31.3391C19.4988 31.3755 19.5301 31.4219 19.57 31.4912H20.5587C20.5032 31.3797 20.4711 31.2893 20.4546 31.2175C20.4381 31.1456 20.4338 31.0502 20.4338 30.9234V29.7372C20.4338 29.6105 20.4026 29.4711 20.3505 29.3317C20.2985 29.1923 20.2326 29.0833 20.1424 29.0072C20.014 28.8974 19.8458 28.829 19.6532 28.7943C19.4607 28.7597 19.2109 28.7436 18.8935 28.7436ZM28.3955 28.7436C28.1787 28.7436 27.9948 28.7783 27.8439 28.8551C27.693 28.932 27.5438 29.0613 27.3964 29.2404V28.8044H26.4077C26.2011 28.8099 26.1679 28.9619 26.1163 29.0579C26.263 29.0745 26.3885 29.1281 26.4077 29.3621V31.4912H27.4692V30.2036C27.4692 29.9586 27.5039 29.7913 27.5837 29.6967C27.6635 29.602 27.7676 29.5547 27.8959 29.5547C28.0122 29.5547 28.1024 29.586 28.1665 29.6561C28.2307 29.7262 28.2706 29.842 28.2706 30.011V31.4912H29.3322V29.7879C29.3322 29.4331 29.2481 29.1669 29.0824 28.9971C28.9167 28.8273 28.6886 28.7436 28.3955 28.7436ZM35.202 28.7436C35.0528 28.7436 34.9288 28.7833 34.8273 28.8551C34.7259 28.927 34.6209 29.0495 34.5255 29.2404V28.8044H33.5368C33.2967 28.805 33.3235 28.9484 33.2974 29.0681C33.3991 29.1141 33.526 29.0993 33.5368 29.3519V31.4912H34.5984V30.5889C34.5984 30.158 34.6556 29.864 34.7649 29.7068C34.8412 29.5953 34.9487 29.5446 35.0875 29.5446C35.1604 29.5446 35.2644 29.5649 35.3893 29.6155L35.712 28.8856C35.5264 28.7909 35.3581 28.7436 35.202 28.7436ZM37.2731 28.7436C37.0753 28.7436 36.8915 28.7555 36.7215 28.7842C36.5515 28.8129 36.4127 28.8535 36.3156 28.9058C36.1803 28.9785 36.0754 29.0706 36.0034 29.1694C35.9314 29.2683 35.8854 29.4026 35.8473 29.575L36.8568 29.6764C36.8984 29.5598 36.9556 29.4753 37.0233 29.4331C37.11 29.379 37.2349 29.3519 37.4084 29.3519C37.5437 29.3519 37.6356 29.3824 37.6894 29.4331C37.7432 29.4838 37.7726 29.5699 37.7726 29.6967C37.6408 29.7474 37.5159 29.7871 37.398 29.8183C37.28 29.8496 37.025 29.9028 36.6278 29.9805C36.2965 30.0447 36.0641 30.1428 35.9409 30.2746C35.8178 30.4064 35.764 30.577 35.764 30.7815C35.764 30.9995 35.8429 31.1803 36.0138 31.329C36.1846 31.4777 36.4335 31.552 36.7631 31.552C37.0112 31.552 37.2315 31.5149 37.4188 31.4405C37.5558 31.3847 37.6963 31.2969 37.8351 31.1668C37.8472 31.2445 37.8542 31.3028 37.8663 31.3391C37.8784 31.3755 37.9097 31.4219 37.9496 31.4912H38.9383C38.8828 31.3797 38.8507 31.2893 38.8342 31.2175C38.8177 31.1456 38.8134 31.0502 38.8134 30.9234V29.7372C38.8134 29.6105 38.7822 29.4711 38.7301 29.3317C38.6781 29.1923 38.6122 29.0833 38.522 29.0072C38.3936 28.8974 38.2254 28.829 38.0328 28.7943C37.8403 28.7597 37.5905 28.7436 37.2731 28.7436ZM24.6696 28.8044V31.4912H25.7312V28.8044H24.6696ZM31.3304 29.5142C31.4709 29.5142 31.5819 29.5623 31.6739 29.6662C31.7658 29.7702 31.8196 29.9315 31.8196 30.1428C31.8196 30.3759 31.7745 30.5466 31.6843 30.6497C31.5941 30.7528 31.4761 30.8018 31.3408 30.8018C31.2142 30.8018 31.104 30.7519 31.0182 30.6497C30.9323 30.5475 30.8933 30.3827 30.8933 30.163C30.8933 29.9282 30.9349 29.7659 31.0182 29.6662C31.1014 29.5666 31.2073 29.5142 31.3304 29.5142ZM19.393 30.2137V30.3861C19.393 30.5145 19.3731 30.6201 19.3306 30.7004C19.2881 30.7807 19.2135 30.8474 19.112 30.9032C19.0106 30.9589 18.9074 30.9843 18.7894 30.9843C18.6767 30.9843 18.5873 30.9547 18.5292 30.9032C18.4711 30.8516 18.446 30.7916 18.446 30.7105C18.446 30.6396 18.4702 30.5737 18.5292 30.5179C18.5865 30.4638 18.72 30.4114 18.9351 30.3557C19.093 30.3168 19.2473 30.2644 19.393 30.2137ZM37.7726 30.2137V30.3861C37.7726 30.5145 37.7527 30.6201 37.7102 30.7004C37.6677 30.7807 37.5931 30.8474 37.4916 30.9032C37.3902 30.9589 37.287 30.9843 37.169 30.9843C37.0563 30.9843 36.9669 30.9547 36.9088 30.9032C36.8507 30.8516 36.8256 30.7916 36.8256 30.7105C36.8256 30.6396 36.8498 30.5737 36.9088 30.5179C36.9661 30.4638 37.0996 30.4114 37.3147 30.3557C37.4726 30.3168 37.6269 30.2644 37.7726 30.2137Z"
        fill="#666666" />
</svg>