<svg width="1em" height="1em" viewBox="0 0 48 48" fill="none" xmlns="http://www.w3.org/2000/svg">
    <g clip-path="url(#clip0_310_26210)">
        <path
            d="M12.7232 26.6172H14.2574V23.4199H13.3673C12.9909 23.4199 12.7376 23.5945 12.4771 23.8245C12.1949 24.0943 11.1744 25.0622 11.1744 25.0622V23.4278H10.2698C9.756 23.4278 9.49547 23.6262 9.21322 23.8721C9.01059 24.0308 6 26.6172 6 26.6172H7.82372L9.63297 24.9829V26.6172H11.1021L12.7232 25.0067V26.6172ZM16.0739 26.6172H18.5562V25.7921H16.5226C16.3344 25.7921 16.1318 25.6652 16.1318 25.2605V25.205C16.1318 24.848 16.2982 24.6972 16.5153 24.6972H18.5562V23.8642H16.0232C14.9883 23.8642 14.5758 24.3561 14.5758 25.1177V25.3716C14.5758 26.2602 15.0245 26.6172 16.0739 26.6172H16.0739ZM21.6174 26.6172V25.7762H20.4306V23.4279H18.8891V26.6251H21.6174V26.6172ZM24.5991 25.5462C24.5991 25.7048 24.5412 25.8 24.3675 25.8H23.5352C23.3905 25.8 23.2964 25.7524 23.2964 25.6334C23.2964 25.5065 23.3543 25.4351 23.5352 25.4351H24.5991V25.5462ZM26.1333 25.5462V24.9432C26.1333 24.253 25.7208 23.8642 24.8379 23.8642H22.0878V24.6576H24.2951C24.5195 24.6576 24.5991 24.7369 24.5991 24.9273V24.9591H22.8405C22.1023 24.9591 21.8418 25.3002 21.8418 25.7445V25.8318C21.8386 25.9193 21.8517 26.0067 21.8803 26.0885C21.909 26.1704 21.9525 26.245 22.0082 26.3078C22.2253 26.5299 22.6378 26.6013 23.1951 26.6013H24.7221C25.7208 26.6172 26.1333 26.3713 26.1333 25.5462H26.1333ZM28.0077 24.6972H28.9702V23.8642H27.0017C26.6833 23.8642 26.4807 24.0467 26.4807 24.3561V26.6172H28.0222V24.6972H28.0077ZM31.9808 24.848C31.9808 24.967 31.9301 25.0384 31.7564 25.0384H30.6637V24.9273C30.6637 24.7687 30.7216 24.6734 30.9025 24.6734H31.742C31.8795 24.6735 31.9808 24.721 31.9808 24.848H31.9808ZM33.4354 24.7845V24.6735C33.4354 24.2212 33.2038 23.8721 32.1255 23.8721H30.5406C29.5419 23.8721 29.1294 24.245 29.1294 25.0543V25.5303C29.1294 26.2205 29.5419 26.6172 30.4321 26.6172H33.2473V25.8159H30.9676C30.7433 25.8159 30.6637 25.7445 30.6637 25.5541V25.5303H32.4295C33.0519 25.5224 33.4354 25.3002 33.4354 24.7845H33.4354ZM37.8283 26.6172V25.0781C37.8283 24.1181 37.4085 23.8642 36.1638 23.8642H33.7249V26.6172H35.2664V24.7607H35.6789C36.1421 24.7607 36.294 25.0543 36.294 25.3716V26.6251H37.8283L37.8283 26.6172Z"
            fill="black" />
        <path
            d="M40.7011 21C39.9195 21 38.7978 21.2539 37.582 21.7378C36.504 22.1702 35.4706 22.726 34.499 23.396C35.4308 23.0166 36.4145 22.8127 37.4083 22.793C38.7833 22.793 39.782 23.3722 38.3274 25.4111C42.6189 22.3408 42.4959 21 40.7011 21Z"
            fill="black" />
    </g>
    <defs>
        <clipPath id="clip0_310_26210">
            <rect width="36" height="5.625" fill="white" transform="translate(6 21)" />
        </clipPath>
    </defs>
</svg>