<svg width="1em" height="1em" viewBox="0 0 48 48" fill="none" xmlns="http://www.w3.org/2000/svg">
    <g clip-path="url(#clip0_310_26218)">
        <path d="M39.1941 27.3851H9.44824L9.72912 26.6846H39.4762L39.1941 27.3851Z" fill="#D6001C" />
        <path
            d="M30.3222 25.4609C30.2748 25.6257 30.1193 25.7261 29.9749 25.6851C29.8302 25.6442 29.7514 25.4774 29.7986 25.3127C29.8459 25.148 30.0015 25.0476 30.146 25.0886C30.2905 25.1295 30.3694 25.2962 30.3222 25.4609ZM30.7553 23.1872C30.7553 23.1872 30.7247 24.0676 30.1441 24.5685L30.7553 23.1872ZM18.3263 25.3693C18.2385 25.57 18.0197 25.6761 17.856 25.6054C17.6922 25.5347 17.6451 25.3163 17.7329 25.1156C17.8208 24.9149 18.0291 24.8121 18.1928 24.8829C18.3567 24.9535 18.414 25.1687 18.3263 25.3693ZM14.1169 22.1855C14.1169 22.1855 14.3308 22.9899 13.4293 23.9463L14.1169 22.1855ZM38.6402 25.5315C38.5026 25.5315 38.5496 25.3751 38.5496 25.3751L39.0004 24.325L37.683 24.3269L37.4435 24.8843H38.116L37.8371 25.5315H34.9318C34.7841 25.5374 34.8194 25.4185 34.8194 25.4185L35.2212 24.3259L34.5972 24.3269L34.1547 25.5095C34.1385 25.5472 34.0816 25.6117 33.9771 25.5882C33.8629 25.5531 33.9255 25.3957 33.9255 25.3957L34.2843 24.3269L33.6586 24.3265L33.2528 25.5315L30.7171 25.5323C30.8775 24.9631 30.4192 24.7354 30.4192 24.7354C31.9775 23.2328 30.6979 22.0587 30.6979 22.0587L29.2078 25.5315C29.2078 25.5315 26.6253 25.5335 26.3596 25.5315C26.0938 25.5296 26.1804 25.3967 26.2297 25.3536C26.4522 25.1525 27.371 24.3257 27.371 24.3257H26.569L25.7336 25.0289L26.7294 22.7092H25.9502L24.8793 25.5296C24.8793 25.5296 22.2318 25.5306 21.7531 25.5308C21.7018 25.5308 21.6549 25.5 21.6371 25.4521C21.6001 25.352 21.6062 25.2263 21.6635 25.1092C21.7617 24.9085 21.9729 24.8092 22.1354 24.8876C22.2291 24.9329 22.2858 25.0273 22.2985 25.1377H22.8136C22.8202 24.7927 22.6681 24.4844 22.3863 24.3484C21.9663 24.1458 21.4201 24.4023 21.1664 24.9211C21.0673 25.1238 21.0283 25.3363 21.0415 25.5323H18.8474C19.0285 25.0307 18.8725 24.5145 18.4653 24.3388C18.0357 24.1532 17.4888 24.4229 17.2585 24.9493C17.1732 25.1444 17.1366 25.3457 17.1461 25.5315H17.1456H15.06C14.6934 25.5088 14.8122 25.1453 14.8122 25.1453L16.1184 22.1172H15.1559L14.1932 24.485C13.8866 25.1093 13.6056 25.2794 13.5473 25.3028C13.0735 25.4928 13.162 24.9176 13.162 24.9176C15.66 22.4359 14.0328 20.0454 14.0328 20.0454L12.3141 24.781C9.88476 25.8282 8.71595 24.4395 8.71595 24.4395L8.07422 25.7145C10.2515 26.9895 12.1995 25.6007 12.1995 25.6007C12.3553 26.0652 12.5713 26.2669 12.7983 26.3207C13.4652 26.4436 13.9412 25.7372 13.9412 25.7372C14.0866 26.1866 14.4671 26.2269 14.5199 26.2276C14.5727 26.2285 16.5137 26.2276 16.5137 26.2276C17.0179 26.2276 17.2407 25.9162 17.2463 25.9163C17.3196 26.057 17.4314 26.1696 17.5811 26.2343C17.9173 26.3795 18.3411 26.2397 18.6202 25.9204C18.7245 26.211 18.9814 26.2276 18.9814 26.2276C18.9814 26.2276 20.2591 26.2294 20.5626 26.2276C20.8584 26.2261 21.1375 25.9381 21.152 25.923C21.2246 26.0547 21.3398 26.2189 21.5429 26.2276C21.5428 26.2276 23.9655 26.2271 24.1413 26.2276C24.3905 26.2285 24.7396 25.9187 24.7396 25.9187L24.6117 26.2276H25.2199L25.4344 25.729C25.582 26.1651 25.9301 26.2269 25.9737 26.2276C26.0173 26.2285 28.6349 26.2276 28.6349 26.2276C29.0168 26.2335 29.2747 25.9148 29.2747 25.9148C29.4179 26.178 29.5752 26.2688 29.7421 26.2866C30.178 26.333 30.465 26.0105 30.465 26.0105C30.5109 26.1926 30.6777 26.2279 30.7176 26.2276C30.7574 26.2274 32.6171 26.2276 32.6171 26.2276C33.0206 26.1886 33.241 25.9246 33.241 25.9246C33.3321 26.2052 33.5453 26.2738 33.6919 26.2895C34.1044 26.317 34.3153 25.9194 34.3153 25.9194C34.4595 26.1906 34.6932 26.2279 34.7507 26.2276C34.8083 26.2274 37.292 26.2276 37.292 26.2276C37.6357 26.205 37.7958 25.9167 37.7958 25.9167C37.8756 26.1736 38.0283 26.2279 38.103 26.2276C38.1774 26.2274 39.6755 26.2276 39.6755 26.2276L39.9753 25.531L38.6402 25.5315Z"
            fill="#D6001C" />
    </g>
    <defs>
        <clipPath id="clip0_310_26218">
            <rect width="32" height="7.39066" fill="white" transform="translate(8 20)" />
        </clipPath>
    </defs>
</svg>