<svg width="1em" height="1em" viewBox="0 0 48 48" fill="none" xmlns="http://www.w3.org/2000/svg">
    <g clip-path="url(#clip0_310_26223)">
        <path
            d="M19.1404 22.5571V26.3107H16.515C15.7649 26.3107 15.2549 25.9108 15.2549 25.0689V22.5571H16.5072V25.0291C16.5072 25.1136 16.5361 25.1658 16.6622 25.1658H17.8881V22.5571H19.1404Z"
            fill="#2056AE" />
        <path
            d="M13.6236 22.5569C14.3737 22.5569 14.8837 22.8601 14.8837 23.702V26.3105H13.6314V23.8493C13.6314 23.7648 13.6025 23.7126 13.4764 23.7126H12.4627V26.3105H11.2007V23.872C11.2007 23.7876 11.1722 23.7126 11.0463 23.7126H10.0326V26.3105H8.78027V22.5537L11.1935 22.5569H13.6236Z"
            fill="#2056AE" />
        <path
            d="M23.8378 26.3104L22.4808 26.3103C21.7306 26.3103 21.2207 25.9104 21.2207 25.0685V21.4058H22.473V22.5537H23.8378V23.6987H22.473V25.0381C22.473 25.1228 22.4993 25.1655 22.6253 25.1655H23.8378V26.3104Z"
            fill="#2056AE" />
        <path d="M19.583 26.3104H20.8353V21.4058H19.583V26.3104Z" fill="#2056AE" />
        <path d="M24.125 26.3105H25.3773V22.5537H24.125V26.3105Z" fill="#2056AE" />
        <path d="M24.125 22.0321H25.3773V21.1973H24.125V22.0321Z" fill="#2056AE" />
        <path
            d="M28.7905 26.3105L26.9914 26.3103C26.2415 26.3103 25.7314 25.9105 25.7314 25.0686V23.7956C25.7314 22.9537 26.2415 22.5537 26.9914 22.5537H28.7905V23.6987H27.136C27.01 23.6987 26.9838 23.7414 26.9838 23.8259V25.0382C26.9838 25.1228 27.01 25.1655 27.136 25.1655H28.7905V26.3105Z"
            fill="#2056AE" />
        <path
            d="M31.7031 26.3105L30.346 26.3103C29.5958 26.3103 29.0859 25.9105 29.0859 25.0686V23.7956C29.0859 22.9537 29.5958 22.5537 30.346 22.5537H33.2235V26.3105H31.9712V23.6987H30.4905C30.3645 23.6987 30.3383 23.7414 30.3383 23.8259V25.0382C30.3383 25.1228 30.3645 25.1655 30.4905 25.1655H31.7031V26.3105Z"
            fill="#2056AE" />
        <path
            d="M35.7351 22.5537H34.5989C33.9442 22.5537 33.5596 22.8814 33.5596 23.5747V26.3105H34.8119V23.8259C34.8119 23.7414 34.8383 23.6987 34.9643 23.6987H35.7351V22.5537Z"
            fill="#2056AE" />
        <path d="M8.78091 26.8969L8.22656 27.7714H36.1875L39.7739 22.5537H38.5213L35.534 26.8969H8.78091Z"
            fill="#F46717" />
    </g>
    <defs>
        <clipPath id="clip0_310_26223">
            <rect width="32" height="6.96875" fill="white" transform="translate(8 21)" />
        </clipPath>
    </defs>
</svg>