<svg width="1em" height="1em" viewBox="0 0 48 48" fill="none" xmlns="http://www.w3.org/2000/svg">
    <g clip-path="url(#clip0_310_26434)">
        <mask id="mask0_310_26434" style="mask-type:alpha" maskUnits="userSpaceOnUse" x="8" y="6" width="32"
            height="36">
            <path d="M40 41.2051H8V6.00513H40V41.2051Z" fill="black" />
        </mask>
        <g mask="url(#mask0_310_26434)">
            <path fill-rule="evenodd" clip-rule="evenodd"
                d="M23.2832 40.788C18.8091 38.707 14.9231 35.2963 12.3406 31.1858C9.76437 27.0871 8.41045 22.3401 8.0792 16.2455C7.9737 14.3011 7.9737 11.8757 8.07863 8.83207L8.12627 7.44298L9.49722 7.21326C14.3213 6.40839 19.201 6 24.0002 6C28.7993 6 33.6785 6.40839 38.502 7.21326L39.8729 7.44298L39.9212 8.83207C40.0267 11.8763 40.0267 14.3017 39.9206 16.2455C39.5888 22.3401 38.2354 27.0871 35.6592 31.1858C33.0772 35.2963 29.1901 38.707 24.7166 40.788L24.0002 41.121L23.2832 40.788Z"
                fill="black" />
        </g>
        <path fill-rule="evenodd" clip-rule="evenodd"
            d="M24.0004 7.00146C19.1623 7.00146 14.1403 7.41312 9.04323 8.28971C8.96714 10.3258 8.8804 13.473 9.02611 16.1436C9.35063 22.098 10.6661 26.7195 13.166 30.6882C15.6584 34.6453 19.5182 38.0478 24.0004 40.0686C28.4825 38.0478 32.342 34.6453 34.8344 30.6882C37.3346 26.7195 38.6496 22.098 38.9745 16.1436C39.1195 13.473 39.0332 10.3258 38.9571 8.28971C33.86 7.41312 28.8384 7.00146 24.0004 7.00146ZM24.0004 7.57509C28.7695 7.57509 33.612 7.97923 38.3996 8.77684C38.5047 11.7974 38.5047 14.2008 38.4002 16.1126C38.0812 21.9655 36.7937 26.5003 34.3477 30.3832C31.9021 34.2658 28.2344 37.4729 24.0004 39.4378C19.7659 37.4729 16.0986 34.2658 13.653 30.3832C11.207 26.5003 9.9192 21.9655 9.60048 16.1126C9.49607 14.2008 9.49601 11.7974 9.60111 8.77684C14.3887 7.97923 19.2309 7.57509 24.0004 7.57509Z"
            fill="white" />
        <path fill-rule="evenodd" clip-rule="evenodd"
            d="M13.9941 10.3072C13.9471 10.306 13.8971 10.3082 13.8442 10.3137C13.1358 10.3876 12.4284 10.4689 11.7217 10.5581V12.6452C11.8442 12.6295 11.9671 12.6145 12.0896 12.5996V11.9538C12.6738 11.8823 13.259 11.8162 13.8442 11.7553C14.2673 11.7114 14.5038 11.5348 14.5038 11.0977V10.8614C14.5038 10.4876 14.3228 10.3152 13.9941 10.3072ZM13.9534 10.6391C14.0486 10.6292 14.1442 10.7014 14.1442 10.7971V11.2198C14.1442 11.3107 14.0486 11.3976 13.9534 11.4078C13.3317 11.4715 12.7103 11.5416 12.0896 11.6172V10.8488C12.7103 10.7729 13.3317 10.7031 13.9534 10.6391Z"
            fill="white" />
        <path fill-rule="evenodd" clip-rule="evenodd"
            d="M23.3215 9.78952C23.9838 9.78475 24.6462 9.78713 25.3082 9.79599V10.1323C24.6004 10.1231 23.8924 10.1211 23.1843 10.1269C23.0884 10.1279 22.9925 10.2106 22.9925 10.3063V11.3521C22.9925 11.4477 23.0884 11.5424 23.1843 11.5413C23.8193 11.5359 24.454 11.5369 25.0891 11.5441V10.98C24.7206 10.9759 24.352 10.9739 23.9838 10.9742V10.6375C24.4725 10.6375 24.9611 10.6413 25.4498 10.6484V11.8852C24.7632 11.875 24.0766 11.8722 23.3901 11.8763C22.8874 11.8797 22.6318 11.7933 22.6318 11.3065V10.3968C22.6318 9.94237 22.8601 9.79293 23.3215 9.78952V9.78952Z"
            fill="white" />
        <path fill-rule="evenodd" clip-rule="evenodd"
            d="M30.4949 10.0078C30.099 10.0089 29.9209 10.1339 29.9209 10.5434V11.4754C29.9209 11.9714 30.1764 12.0682 30.678 12.1019C31.1387 12.1333 31.5987 12.1679 32.059 12.2057C32.5555 12.2465 32.8153 12.1621 32.8153 11.6933V10.7613C32.8153 10.2837 32.5146 10.156 32.059 10.1186C31.5987 10.0804 31.1387 10.0461 30.678 10.0144C30.6125 10.01 30.5515 10.0077 30.4949 10.0078ZM30.473 10.3374C31.0705 10.3766 31.6673 10.4216 32.2641 10.4719C32.3597 10.4801 32.4553 10.5703 32.4553 10.6792V11.7118C32.4553 11.8071 32.3597 11.8946 32.2641 11.8864C31.6673 11.8361 31.0705 11.7911 30.473 11.7516C30.3635 11.7441 30.2811 11.6437 30.2811 11.5481V10.5158C30.2811 10.4065 30.3635 10.33 30.473 10.3374Z"
            fill="white" />
        <path fill-rule="evenodd" clip-rule="evenodd"
            d="M21.7281 9.81348V11.3233C21.7281 11.8009 21.4766 11.9057 20.9699 11.9214C20.5287 11.935 20.0874 11.9513 19.6462 11.9711C19.176 11.9922 18.8887 11.903 18.8887 11.4302V9.92037L19.249 9.90199V11.4754C19.249 11.5711 19.3313 11.649 19.4405 11.6439C20.0189 11.617 20.5969 11.5953 21.1753 11.5786C21.2852 11.5755 21.3582 11.4918 21.3582 11.3961V9.82267C21.4814 9.81926 21.6046 9.8162 21.7281 9.81348V9.81348Z"
            fill="white" />
        <path fill-rule="evenodd" clip-rule="evenodd"
            d="M26.3516 9.81543C27.2401 9.83653 28.1284 9.8699 29.0166 9.91551V10.2519C28.2488 10.2127 27.4807 10.1824 26.7123 10.1613V10.675C27.3958 10.6941 28.0789 10.7199 28.7617 10.753V11.0896C28.0789 11.0566 27.3958 11.0304 26.7123 11.0117V11.5754C27.4807 11.5965 28.2488 11.6268 29.0166 11.6663V12.0027C28.1284 11.9574 27.2401 11.924 26.3516 11.9026V9.81543Z"
            fill="white" />
        <path fill-rule="evenodd" clip-rule="evenodd"
            d="M17.9842 9.97168V10.308C17.2168 10.3553 16.4497 10.4115 15.6832 10.4765V10.9906C16.365 10.9324 17.0472 10.8816 17.7297 10.8381V11.1747C17.0472 11.2183 16.365 11.269 15.6832 11.3269V11.891C16.4497 11.8256 17.2168 11.7695 17.9842 11.7225V12.0588C17.0967 12.1133 16.2098 12.18 15.3232 12.2587V10.1712C16.2098 10.0925 17.0967 10.0261 17.9842 9.97168V9.97168Z"
            fill="white" />
        <path fill-rule="evenodd" clip-rule="evenodd"
            d="M33.4824 10.2458C34.4154 10.3364 35.3476 10.4406 36.2782 10.5577V10.8944C35.8759 10.8436 35.4729 10.7953 35.0695 10.7497V12.5005C34.947 12.4865 34.8245 12.4729 34.7013 12.4593V10.7085C34.2956 10.6639 33.8888 10.622 33.4824 10.5825V10.2458Z"
            fill="white" />
        <path fill-rule="evenodd" clip-rule="evenodd"
            d="M21.1385 14.24C22.8515 14.0899 25.1695 14.049 27.3838 14.2162C27.5098 14.2257 27.6323 14.2553 27.7486 14.3044C28.4741 14.6087 29.7612 15.2746 31.1924 16.0913C31.2555 16.1273 31.3149 16.1696 31.3695 16.2176C31.7486 16.5508 32.7092 17.5313 32.7092 17.5313L32.4096 17.472C32.3676 17.4638 32.3284 17.4475 32.2929 17.4237C31.6868 17.0176 30.802 16.4889 30.0605 16.1161C29.9725 16.0722 29.8773 16.0439 29.7793 16.0337C29.4186 15.9953 28.931 15.9616 28.612 15.9486C28.4546 15.9422 28.3475 15.9159 28.1936 15.838C27.8994 15.6892 27.1869 15.3668 26.8321 15.2317C26.6802 15.1738 26.6027 15.1602 26.454 15.1626C25.8442 15.1714 24.455 15.2157 23.7456 15.2596C23.721 15.261 23.6974 15.2599 23.6736 15.2562L23.3354 15.2034C24.2943 15.0387 26.6645 14.8279 27.6456 14.7765L27.2463 14.6434C27.1692 14.6179 27.089 14.6043 27.0074 14.6022C26.7945 14.5972 26.3209 14.5877 25.7061 14.5869L25.4961 14.587C24.5649 14.5888 23.3668 14.6116 22.2619 14.6945C22.1653 14.7016 22.0711 14.7248 21.9824 14.7639C21.536 14.9595 20.4476 15.5482 19.3561 16.1529L19.1137 16.2874C18.8315 16.4442 18.5523 16.6003 18.2871 16.7489C18.2871 16.7489 18.4233 16.5743 18.4495 16.5403C18.4727 16.5107 18.4799 16.5052 18.5113 16.4848C18.5552 16.4561 18.7049 16.3577 18.8559 16.2578L18.9677 16.1837C19.0584 16.1235 19.1393 16.0695 19.1849 16.0381C19.2074 16.0228 19.2218 16.0119 19.2501 15.9908C19.5787 15.7437 20.0974 15.3079 20.4065 15.038C20.4765 14.977 20.5359 14.9062 20.5847 14.8273C20.6846 14.6659 20.7938 14.4909 20.8611 14.3939C20.9184 14.3098 21.0163 14.2509 21.1385 14.24V14.24Z"
            fill="white" />
        <path fill-rule="evenodd" clip-rule="evenodd"
            d="M21.9687 15.8914C22.008 15.891 22.0325 15.9332 22.0131 15.9669L21.1852 17.3889C21.1392 17.4726 21.062 17.5349 20.9706 17.5625L19.4183 18.0469C19.2381 18.1014 19.0859 18.1307 18.8982 18.145C18.5539 18.1708 17.5312 18.2028 17.5312 18.2028L17.5538 18.1545C17.5643 18.1317 17.5831 18.1137 17.6063 18.1038L18.0902 17.8988C18.1264 17.8835 18.1581 17.86 18.1823 17.8297L18.9296 16.912C18.9696 16.8629 19.0218 16.816 19.0774 16.7867C19.5712 16.5276 20.4492 16.1385 21.0641 15.9336C21.1221 15.9142 21.2002 15.9019 21.2613 15.9012L21.9687 15.8914Z"
            fill="white" />
        <path fill-rule="evenodd" clip-rule="evenodd"
            d="M18.1056 18.4461C18.138 18.4433 18.1687 18.4614 18.1813 18.491C18.224 18.5901 18.2124 18.7007 18.1711 18.7953C18.1551 18.8338 18.1056 18.8713 18.065 18.8801L17.7254 18.9553C17.705 18.9598 17.6862 18.9434 17.6876 18.9227L17.7193 18.525C17.7217 18.4982 17.7428 18.4767 17.7698 18.4747L18.1056 18.4461Z"
            fill="white" />
        <path fill-rule="evenodd" clip-rule="evenodd"
            d="M25.6349 16.7671C25.6857 16.7583 25.7379 16.7654 25.7847 16.7875L26.1392 16.9567C26.174 16.9734 26.1996 17.0051 26.2088 17.0432C26.2569 17.2454 26.316 17.5133 26.3556 17.7411C26.3716 17.8357 26.3538 17.9324 26.3057 18.0158C26.159 18.2701 25.8577 18.7276 25.6891 18.9734C25.6516 19.0286 25.6471 19.0953 25.6587 19.161C25.7352 19.5824 26.0539 21.0541 26.0539 21.0541L25.8533 20.872C25.8133 20.8352 25.7871 20.7964 25.77 20.7457C25.6274 20.3293 25.3605 19.4595 25.2377 19.0364C25.2179 18.9666 25.2329 18.8921 25.2789 18.8366C25.4881 18.5833 25.7929 18.1782 25.971 17.9215C26.0208 17.8493 26.0372 17.7697 26.0078 17.7101C25.9669 17.6264 25.898 17.499 25.8318 17.3836C25.814 17.3516 25.7843 17.3278 25.7492 17.3162L25.5086 17.2393C25.4666 17.226 25.4216 17.2267 25.38 17.2417C24.8558 17.4313 24.1508 17.7047 23.7195 17.883C23.6564 17.9092 23.6304 17.9113 23.554 17.8997C23.4291 17.8813 23.0653 17.8163 22.8869 17.783C22.8548 17.7768 22.8388 17.7407 22.8551 17.7125L23.0667 17.3469C23.0954 17.2975 23.1428 17.2624 23.1988 17.2498C23.8792 17.0953 24.779 16.9176 25.6349 16.7671V16.7671Z"
            fill="white" />
        <path fill-rule="evenodd" clip-rule="evenodd"
            d="M18.2365 17.1501L18.0973 17.321C18.0895 17.3285 18.082 17.3357 18.0741 17.3435C17.9516 17.4337 17.436 17.8276 17.2964 17.9379C17.2568 17.9692 17.2411 17.9964 17.2319 18.0458C17.2005 18.2201 17.1483 18.5513 17.133 18.7348C17.1285 18.7886 17.1053 18.8152 17.0504 18.8373C16.8112 18.9343 16.5276 19.0364 16.2983 19.128C16.2492 19.1474 16.2355 19.1549 16.2065 19.177C16.1837 19.1947 15.8789 19.4661 15.8789 19.4661C15.8789 19.4661 16.5413 19.3033 16.7842 19.2485C16.8422 19.2356 16.8672 19.239 16.9207 19.2642C16.9709 19.2873 17.0545 19.3204 17.0985 19.3364C17.1661 19.3612 17.2019 19.3602 17.2766 19.3438C17.5503 19.2829 18.0106 19.174 18.2557 19.1103C18.3829 19.0773 18.4525 19.0429 18.5604 18.9677C18.6778 18.8863 18.975 18.664 18.975 18.664C18.975 18.664 18.9695 18.7032 18.9654 18.725C18.9623 18.7437 18.9555 18.7542 18.9432 18.7689C18.8828 18.8414 18.7771 18.9595 18.7245 19.0136C18.6041 19.1379 18.5321 19.1821 18.3809 19.2451C17.6848 19.5345 16.4952 19.9838 15.6029 20.2919C15.5445 20.3124 15.5193 20.329 15.4759 20.3733C15.4288 20.421 15.366 20.4904 15.366 20.4904C15.366 20.4904 16.0936 20.5432 16.3157 20.5687C16.3877 20.5769 16.4392 20.6004 16.4942 20.6477C16.6767 20.8043 17.2811 21.4249 17.4619 21.6404C17.4619 21.6404 15.7438 21.9253 14.9477 22.1224C14.8494 22.1466 14.8003 22.2089 14.7781 22.2875C14.7122 22.5183 14.557 23.2604 14.557 23.2604C14.557 23.2604 14.5017 23.2427 14.4246 23.1985C14.3717 23.1682 14.3447 23.143 14.2867 23.0817C14.0983 22.8832 13.7888 22.5033 13.6401 22.2831C13.5964 22.2181 13.578 22.1353 13.6326 22.0689C13.794 21.8708 14.1181 21.5093 14.297 21.3234C14.3161 21.3033 14.3403 21.2683 14.3659 21.2179C14.426 21.0987 14.5054 20.7968 14.533 20.6877L14.5418 20.6525L14.543 20.6477C14.543 20.6477 14.5413 20.6487 14.5382 20.6507L14.5055 20.6712C14.4613 20.6989 14.3898 20.7438 14.359 20.7631C14.313 20.7923 14.3004 20.8049 14.2812 20.8451C14.2522 20.9057 14.2014 21.0014 14.1628 21.0678C14.1502 21.0895 14.1164 21.1232 14.0983 21.1372C13.8701 21.3112 13.6179 21.498 13.4384 21.624C13.4261 21.6325 13.4104 21.6288 13.3998 21.6186C13.377 21.5957 13.2811 21.4872 13.264 21.4616C13.2497 21.4402 13.2432 21.4201 13.2432 21.3942C13.2429 21.3489 13.2473 21.2693 13.2517 21.21C13.2572 21.1399 13.2773 21.1066 13.363 21.018C13.4589 20.919 13.5633 20.8148 13.6732 20.7079C13.9424 20.4819 14.6221 19.9318 15.8359 19.0678C15.8588 19.0514 15.8796 19.0324 15.8963 19.0095C16.0239 18.838 16.386 18.3695 16.4754 18.2582C16.488 18.2426 16.502 18.2279 16.5181 18.2153C16.661 18.1027 16.7317 18.054 16.8767 17.9627C17.2149 17.7503 17.8697 17.3629 18.2365 17.1501L18.2365 17.1501Z"
            fill="white" />
        <path fill-rule="evenodd" clip-rule="evenodd"
            d="M15.4923 22.988L15.3425 24.0192L14.833 23.4228C14.9258 23.2222 15.1971 23.033 15.4923 22.988Z"
            fill="white" />
        <path fill-rule="evenodd" clip-rule="evenodd"
            d="M18.8482 23.5352C18.5944 23.9518 18.291 24.3944 18.0617 24.6708C18.0317 24.7069 17.9917 24.7348 17.9463 24.7518C17.6955 24.8455 17.2775 24.9864 16.9697 25.08L18.8482 23.5352Z"
            fill="white" />
        <path fill-rule="evenodd" clip-rule="evenodd"
            d="M29.6786 16.8406C29.813 16.7912 29.9605 16.7947 30.0925 16.8501C31.1169 17.2791 32.8395 18.2881 33.797 18.9989C33.8895 19.0677 33.9263 19.115 33.9505 19.226C34.1754 20.2459 34.2607 21.8224 34.1191 23.1497C34.1089 23.245 34.0898 23.3022 34.04 23.404C33.4332 24.6414 32.7504 25.806 32.0318 26.7044L32.0332 26.6897C32.0426 26.594 32.0941 26.0546 32.0969 25.7628C32.0972 25.7298 32.1126 25.6995 32.1389 25.6794C32.2723 25.5759 32.4556 25.4288 32.5593 25.3393C32.6098 25.2957 32.6378 25.2631 32.6641 25.2208C32.9568 24.749 33.4803 23.7611 33.6912 23.1667C33.7427 23.0217 33.7632 22.8682 33.7506 22.7146C33.683 21.8864 33.5526 20.7388 33.3585 19.9899C33.3254 19.8622 33.2408 19.7543 33.123 19.694C32.9555 19.6083 32.6269 19.4588 31.8785 19.1596C31.7748 19.118 31.6779 19.0605 31.5926 18.989C31.1019 18.5778 30.3348 17.9613 29.8574 17.6066C29.7178 17.5027 29.5397 17.4649 29.3698 17.5034C29.022 17.5821 28.5794 17.6917 28.3303 17.7591C28.2457 17.7819 28.2123 17.7839 28.1249 17.7737C28.0794 17.7685 28.0206 17.7627 27.9589 17.7571L27.8653 17.7489C27.7565 17.7396 27.6544 17.7318 27.6145 17.7288L27.5967 17.7274C28.4085 17.3472 29.1896 17.019 29.6786 16.8406L29.6786 16.8406Z"
            fill="white" />
        <path fill-rule="evenodd" clip-rule="evenodd"
            d="M17.5925 22.0728C17.673 22.0469 17.7587 22.0439 17.8406 22.0636C18.2098 22.1521 18.9912 22.3431 19.5819 22.4939C19.6648 22.515 19.7682 22.5923 19.8122 22.6655L19.9409 22.8789C19.9859 22.9538 19.989 23.0457 19.9491 23.1233C19.8417 23.331 19.6886 23.6121 19.5267 23.902L19.4042 24.12C19.1787 24.5191 18.9542 24.9041 18.8267 25.1067C18.7428 25.2404 18.696 25.2997 18.5466 25.3524C17.9654 25.5564 17.2437 25.8001 16.8148 25.9387C16.7271 25.9669 16.6974 26.02 16.7145 26.117C16.7452 26.2937 16.8441 26.8935 16.882 27.0685C16.896 27.1332 16.9479 27.1846 17.0441 27.1662C17.2976 27.1182 17.9726 26.9535 17.9726 26.9535C17.9726 26.9535 17.7737 27.1369 17.6546 27.2452C17.6327 27.2656 17.6075 27.2806 17.5792 27.2898C17.3952 27.3511 16.9462 27.4767 16.8063 27.5073C16.6971 27.5308 16.6275 27.4879 16.5995 27.3647C16.5995 27.3647 16.408 26.5518 16.3388 26.2753C16.3278 26.2331 16.3169 26.1967 16.3036 26.1552C16.2518 25.9952 16.1272 25.6806 16.0569 25.5158C16.0487 25.4968 16.0446 25.4764 16.0449 25.4553C16.047 25.267 16.0818 24.8469 16.0818 24.8469C16.0818 24.8469 16.4951 25.2333 16.695 25.3729C16.7401 25.4045 16.767 25.411 16.8223 25.397C17.097 25.3266 17.7286 25.1182 18.0753 24.9889C18.1545 24.9593 18.2238 24.9095 18.2777 24.8445C18.6363 24.4125 19.0861 23.7405 19.3458 23.2336C19.3816 23.1639 19.3884 23.0839 19.3659 23.009L19.3099 22.8251C19.2935 22.7713 19.2366 22.7107 19.184 22.6907C18.5729 22.4588 18.091 22.2866 17.5249 22.0942L17.5925 22.0728Z"
            fill="white" />
        <path fill-rule="evenodd" clip-rule="evenodd"
            d="M28.5432 19.9934L28.7544 20.085C28.8168 20.1119 28.8738 20.1514 28.9209 20.2004C30.2159 21.5485 31.2516 22.9463 31.459 23.3146C31.499 23.3854 31.5263 23.4562 31.5362 23.5372C31.7689 25.5032 31.5689 27.5859 31.0936 29.3976C31.0506 29.561 31.0025 29.6448 30.8448 29.7629C30.3373 30.1436 29.5798 30.7507 28.8264 31.3697L28.5889 31.5653C27.6814 32.3147 26.8193 33.0485 26.4534 33.386C26.3616 33.4712 26.2814 33.5672 26.2159 33.6737C26.0443 33.9518 25.7824 34.4305 25.6538 34.6681L25.6179 34.7345C25.5921 34.7824 25.5771 34.8104 25.5771 34.8104C25.4065 34.439 25.0345 33.5328 24.9069 33.1665C24.8653 33.047 24.8578 32.9843 24.9018 32.8243C25.11 32.0649 26.0937 29.8569 26.2852 29.4575L26.2855 29.621C26.2855 29.6448 26.2818 29.6683 26.2742 29.6907C26.1879 29.9518 25.659 31.6921 25.5515 32.4468C25.5276 32.6146 25.5297 32.6599 25.5515 32.8247C25.5986 33.177 25.8098 33.8232 25.8098 33.8232C25.8098 33.8232 25.935 33.5624 26.0518 33.386C26.1091 33.2996 26.1435 33.258 26.237 33.1655C26.71 32.6989 27.5169 31.9777 28.3573 31.2524L28.6548 30.9967C29.3004 30.444 29.9449 29.9062 30.4541 29.4953C30.5865 29.3884 30.6359 29.317 30.6653 29.1141C30.8113 28.1146 30.8537 26.3205 30.7656 25.015C30.7489 24.7685 30.6687 24.5302 30.5295 24.3257C30.2101 23.8548 29.8282 23.4092 29.2492 22.837C29.1666 22.7549 29.1103 22.6501 29.0891 22.5357C28.9202 21.637 28.5431 19.9934 28.5431 19.9934H28.5432Z"
            fill="white" />
        <path fill-rule="evenodd" clip-rule="evenodd"
            d="M21.7254 20.6477C21.7254 20.6477 21.8431 21.0279 21.9566 21.4408L21.9962 21.5873C22.0679 21.8563 22.1319 22.1219 22.155 22.2899C22.1772 22.4516 22.1734 22.4952 22.1158 22.6501C21.9759 23.0211 21.7186 23.6179 21.4441 24.228L21.3257 24.4897C20.9889 25.2299 20.6479 25.945 20.4823 26.2545C20.4007 26.407 20.3239 26.5064 20.1704 26.662C19.8199 27.0177 19.149 27.6901 18.7338 28.0662C18.5829 28.2031 18.5423 28.3199 18.5116 28.4969C18.4621 28.7811 18.413 29.2662 18.3993 29.5168C18.3874 29.737 18.4232 29.8402 18.5464 30.0584C19.2784 31.3605 21.722 34.3563 22.4181 34.9854C22.4686 35.031 22.5055 35.0616 22.6119 35.1321C22.7143 35.2002 23.048 35.416 23.048 35.416C23.0613 35.4252 23.0726 35.4374 23.0811 35.4514L23.2019 35.6635C23.2019 35.6635 23.1906 35.6579 23.1703 35.6478L23.1181 35.622C23.0761 35.6011 23.0207 35.5736 22.9569 35.5418L22.8018 35.4644C22.564 35.3454 22.2805 35.2022 22.1315 35.1222C22.07 35.0892 22.0124 35.0504 21.9588 35.0058C21.1436 34.3304 18.6454 31.4147 17.9107 30.1973C17.7274 29.8933 17.7087 29.7949 17.7332 29.5073C17.7793 28.9718 17.8506 28.2984 17.9131 28.0033C17.951 27.8252 17.9902 27.7207 18.127 27.5634C18.5869 27.0355 19.1477 26.3386 19.6943 25.6234L19.8864 25.3705C20.7147 24.2735 21.4777 23.1754 21.7626 22.616C21.8278 22.4887 21.8332 22.4445 21.8346 22.3243C21.8383 21.9757 21.7268 21.2969 21.6974 21.1253C21.693 21.0984 21.6916 21.0712 21.694 21.044L21.7254 20.6477Z"
            fill="white" />
        <path fill-rule="evenodd" clip-rule="evenodd"
            d="M23.9586 24.9626C23.9586 24.9626 24.0528 25.5199 24.0815 25.6816C24.0975 25.7732 24.1009 25.7977 24.0777 25.8876C24.0024 26.1766 23.6547 27.6998 23.3764 29.2591L23.3331 29.5054C23.2193 30.1622 23.1211 30.8141 23.0639 31.3718C23.0315 31.6888 23.042 31.7647 23.126 32.0459C23.3638 32.8404 24.2435 34.9163 24.4125 35.2949C24.4312 35.3367 24.4425 35.3807 24.4479 35.4259L24.5114 35.9155C24.2296 35.491 22.6981 32.6835 22.0965 31.1288C22.0255 30.9456 22.0118 30.8554 22.0903 30.5187C22.5087 28.7325 23.6406 25.6973 23.9586 24.9626H23.9586Z"
            fill="white" />
    </g>
    <defs>
        <clipPath id="clip0_310_26434">
            <rect width="32" height="35.1209" fill="white" transform="translate(8 6)" />
        </clipPath>
    </defs>
</svg>