<svg width="1em" height="1em" viewBox="0 0 48 48" fill="none" xmlns="http://www.w3.org/2000/svg">
    <g clip-path="url(#clip0_310_26084)">
        <path
            d="M14.9863 10.8084C14.9863 9.8049 15.804 8.98682 16.808 8.98682H30.8402C31.8588 8.98682 32.6764 9.8049 32.6764 10.8084V37.2356C32.6764 38.2394 31.8588 39.0571 30.8402 39.0571H16.808C15.804 39.0571 14.9863 38.2394 14.9863 37.2356V10.8084Z"
            fill="white" />
        <path
            d="M15.7422 13.9263V10.8082C15.7422 10.222 16.2216 9.74365 16.8079 9.74365H30.84C31.4419 9.74365 31.9204 10.222 31.9204 10.8082V13.9263H15.7422Z"
            fill="#004990" />
        <path d="M31.9194 14.6831H15.7422V33.3619H31.9194V14.6831Z" fill="#004990" />
        <path
            d="M28.5088 12.3991C28.5706 12.4913 28.7099 12.5996 28.8019 12.6457C29.0647 12.7849 29.2971 12.8309 29.5431 12.8309C29.9293 12.8309 30.1607 12.6608 30.1607 12.4143C30.1607 12.1201 29.8666 12.074 29.4196 12.0134C28.8489 11.9359 28.5402 11.673 28.5402 11.2104C28.5548 10.7471 28.9882 10.3911 29.6205 10.3911C30.0518 10.3911 30.346 10.4843 30.5313 10.5765V11.179C30.4695 11.0711 30.3302 10.9936 30.1921 10.9324C30.0056 10.87 29.8205 10.8392 29.6205 10.8392C29.3117 10.8392 29.1263 10.9628 29.1263 11.1182C29.1263 11.3794 29.3734 11.4108 29.9137 11.5192C30.4538 11.6269 30.7783 11.859 30.7626 12.3368C30.747 12.8922 30.3145 13.2632 29.5431 13.2632C29.2028 13.2632 28.7715 13.201 28.5088 13.0627V12.3991Z"
            fill="white" />
        <path
            d="M18.922 11.287C18.922 11.5649 18.6907 11.6727 18.3358 11.6727H17.6877V10.885H18.3358C18.6907 10.885 18.922 10.9933 18.922 11.287ZM19.3229 12.5218C19.1847 12.2596 19.0769 12.0591 18.8759 11.9659C19.3083 11.8737 19.524 11.6267 19.524 11.2562C19.524 10.9013 19.369 10.6238 19.0769 10.5155C18.8917 10.438 18.6591 10.438 18.3043 10.438H16.8848C17.024 10.5302 17.1004 10.8081 17.1004 11.0557V12.6144C17.1004 12.8458 17.0239 13.1394 16.8848 13.2169H17.9023C17.7641 13.1394 17.6877 12.8458 17.6877 12.6144V12.1197H18.119C18.3358 12.1197 18.4592 12.1972 18.5514 12.3678C18.7052 12.6144 18.8143 12.9541 18.9995 13.2169H19.817C19.571 13.0473 19.4465 12.7845 19.3229 12.5218Z"
            fill="white" />
        <path
            d="M21.4852 13.2941C21.8704 13.2941 22.196 13.1856 22.442 12.9691C22.7362 12.723 22.9361 12.3518 22.9361 11.8274C22.9361 11.3186 22.7362 10.9324 22.442 10.6848C22.196 10.4843 21.8704 10.376 21.4852 10.376C21.0989 10.376 20.7753 10.4843 20.5273 10.6848C20.2352 10.9324 20.0342 11.3186 20.0342 11.8274C20.0342 12.3518 20.2352 12.723 20.5273 12.9691C20.7753 13.1856 21.1146 13.2941 21.4852 13.2941ZM20.8989 12.5686C20.7294 12.4142 20.6519 12.1676 20.6519 11.8274C20.6519 11.5028 20.7294 11.2564 20.8989 11.0868C21.0371 10.9475 21.2382 10.8554 21.4852 10.8554C21.7322 10.8554 21.9332 10.9475 22.0714 11.0868C22.2421 11.2563 22.3341 11.5028 22.3341 11.8274C22.3341 12.1677 22.242 12.4142 22.0714 12.5686C21.9331 12.7078 21.7322 12.7999 21.4852 12.7999C21.2382 12.7999 21.0371 12.7078 20.8989 12.5686Z"
            fill="white" />
        <path
            d="M25.4987 12.506C25.3437 12.7075 25.0203 12.7688 24.6654 12.7688H24.1251V11.0557C24.1251 10.8238 24.2016 10.5301 24.3251 10.438H23.3223C23.4603 10.5302 23.5389 10.8239 23.5389 11.0557V12.6144C23.5389 12.8619 23.4603 13.1237 23.3223 13.2169H25.4054L25.4987 12.506Z"
            fill="white" />
        <path
            d="M28.0143 12.506C27.8594 12.7075 27.5359 12.7845 27.181 12.7688H26.6251V11.0557C26.6251 10.8238 26.7016 10.5301 26.8417 10.438H25.8379C25.976 10.5302 26.0545 10.8239 26.0545 11.0557V12.6144C26.0545 12.8619 25.976 13.1394 25.8379 13.2315H27.9055L28.0143 12.506Z"
            fill="white" />
        <path
            d="M33.6026 10.8082C33.6026 9.28021 32.3673 8.04541 30.84 8.04541H16.8077C15.2793 8.04541 14.0439 9.28021 14.0439 10.8082V37.2354C14.0439 38.7649 15.2793 39.9991 16.8077 39.9991H30.8399C32.3672 39.9991 33.6026 38.7649 33.6026 37.2354V10.8082ZM14.986 10.8082C14.986 9.80469 15.8037 8.98661 16.8077 8.98661H30.8399C31.8585 8.98661 32.6761 9.80469 32.6761 10.8082V37.2354C32.6761 38.2392 31.8585 39.0568 30.8399 39.0568H16.8077C15.8038 39.0568 14.986 38.2392 14.986 37.2354V10.8082Z"
            fill="#004990" />
        <path
            d="M15.7422 34.1177V37.2352C15.7422 37.8235 16.2216 38.3009 16.8079 38.3009H30.84C31.4419 38.3009 31.9204 37.8235 31.9204 37.2352V34.1177H15.7422Z"
            fill="#004990" />
        <path
            d="M22.6734 30.3826V26.2298C23.0744 26.2151 23.4606 26.1994 23.847 26.1679C23.7077 25.8434 23.5685 25.52 23.3989 25.2112C23.1675 25.2415 22.9216 25.2415 22.6734 25.2573V24.3936C22.1331 24.5169 21.547 24.6091 20.945 24.671V30.3826C20.945 31.6472 20.3577 31.9875 20.0029 32.2189H23.6146C23.2765 31.9875 22.6734 31.6472 22.6734 30.3826Z"
            fill="white" />
        <path
            d="M31.0708 32.2041C30.7778 31.9256 30.4061 31.4933 30.2219 30.6453C29.8826 29.0855 29.1718 26.8472 27.6748 25.1796C29.1415 24.3777 30.0365 23.111 30.0365 21.5533C30.0512 20.4409 29.4806 19.2684 28.462 18.5738C28.0297 18.2948 27.5208 18.0943 26.918 17.9707C27.1346 18.4341 27.2729 18.9282 27.3041 19.4228C27.9365 19.9159 28.2768 20.6728 28.2768 21.5834C28.2768 22.7413 27.6905 24.0992 25.6377 24.7942C25.8061 25.1177 25.9757 25.458 26.115 25.7815C26.2238 25.7512 26.3316 25.7207 26.4405 25.6893C27.3973 26.8011 28.1679 28.5453 28.3992 30.1658C28.5699 31.3393 28.1532 31.9256 27.8759 32.2041H31.0708Z"
            fill="white" />
        <path
            d="M19.5397 23.3895V16.9066H21.9936C22.8896 16.9218 23.5534 17.1071 24.078 17.4766C24.772 17.9706 25.1437 18.7581 25.1437 19.7002C25.1437 21.2893 24.0465 23.3119 19.5397 23.3895ZM27.474 30.3354C27.165 30.058 26.7956 29.6254 26.6249 28.7766C26.2856 27.2178 25.6061 25.0256 24.2485 23.4658C24.3092 23.4355 24.3563 23.4197 24.417 23.3894C25.9612 22.602 26.9033 21.2893 26.9033 19.684C26.918 18.5575 26.3465 17.3997 25.3288 16.705C24.5258 16.1649 23.4456 15.9492 22.071 15.9492H16.8691C17.224 16.1805 17.8103 16.5198 17.8103 17.7854V28.4992C17.8103 29.7795 17.224 30.1041 16.8691 30.3354H20.4809C20.1416 30.104 19.5397 29.7795 19.5397 28.4992V24.3462C20.8054 24.3462 21.9936 24.1914 22.9965 23.9296C23.9083 25.0257 24.5877 26.7237 24.8034 28.2825C24.9573 29.4571 24.5564 30.0581 24.2789 30.3355H27.474V30.3354Z"
            fill="white" />
        <path
            d="M22.6735 22.4639V18.8052H24.6186C24.4806 18.4032 24.2324 18.0791 23.8942 17.8315H20.0029C20.3578 18.0633 20.945 18.3879 20.945 19.6687V22.8952C21.5932 22.8031 22.1793 22.665 22.6735 22.4639Z"
            fill="white" />
        <path
            d="M26.2085 36.2178C26.2085 36.7413 26.5174 37.1433 27.0576 37.1433C27.4437 37.1433 27.7986 37.0355 27.9527 36.8502L27.8595 37.4532C27.7212 37.5139 27.4742 37.5914 27.0733 37.5914C26.2086 37.5914 25.6064 37.0815 25.6064 36.2178C25.6064 35.7552 25.7918 35.3992 26.0693 35.1679C26.3163 34.9512 26.6555 34.8276 27.0732 34.8276C27.4742 34.8276 27.7212 34.905 27.8594 34.9825V35.5541C27.6908 35.3689 27.4436 35.2757 27.0575 35.2757C26.5174 35.2757 26.2085 35.6777 26.2085 36.2178Z"
            fill="white" />
        <path
            d="M18.8287 35.6921C18.8287 35.9548 18.6131 36.0627 18.2739 36.0627H17.6563V35.3226H18.2739C18.6131 35.3226 18.8287 35.4146 18.8287 35.6921ZM19.2151 36.8657C19.0915 36.6186 18.9836 36.4176 18.7984 36.3412C19.2003 36.2637 19.4003 36.0166 19.416 35.6775C19.416 35.3226 19.262 35.0597 18.9836 34.9509C18.8141 34.8892 18.5826 34.8892 18.2424 34.8892H16.8994C17.0239 34.9666 17.1005 35.2294 17.1005 35.4753V36.9588C17.1005 37.1744 17.0239 37.4529 16.8994 37.545H17.8563C17.7338 37.4528 17.6563 37.1743 17.6563 36.9588V36.4793H18.0573C18.2739 36.4793 18.3964 36.5715 18.4906 36.7263C18.6288 36.9587 18.7367 37.2812 18.9062 37.5292L19.6944 37.545C19.4464 37.3608 19.3395 37.1274 19.2151 36.8657Z"
            fill="white" />
        <path
            d="M21.2692 37.6071C21.6387 37.6071 21.9475 37.4993 22.1788 37.2981C22.4562 37.0668 22.6584 36.7109 22.6584 36.2178C22.6584 35.7238 22.4563 35.3689 22.1788 35.1207C21.9475 34.9364 21.6387 34.8276 21.2692 34.8276C20.9132 34.8276 20.6044 34.9364 20.3731 35.1207C20.0956 35.3689 19.8945 35.7238 19.8945 36.2178C19.8945 36.7109 20.0956 37.0669 20.3731 37.2981C20.6045 37.4993 20.9133 37.6071 21.2692 37.6071ZM20.7122 36.913C20.5584 36.7726 20.4809 36.5413 20.4809 36.2178C20.4809 35.8933 20.5584 35.663 20.7122 35.507C20.8515 35.369 21.0368 35.2915 21.2839 35.2915C21.5152 35.2915 21.7005 35.3689 21.8398 35.507C21.9936 35.6631 22.0712 35.8933 22.0712 36.2178C22.0712 36.5413 21.9937 36.7727 21.8398 36.913C21.7005 37.0511 21.5152 37.1433 21.2839 37.1433C21.0368 37.1433 20.8515 37.0512 20.7122 36.913Z"
            fill="white" />
        <path
            d="M24.7261 34.8892C24.7891 34.9363 24.8193 34.9823 24.8037 35.0431C24.8037 35.1058 24.7722 35.198 24.7115 35.2912L24.1859 36.047L23.6615 35.2755C23.5997 35.1833 23.5391 35.0913 23.5537 35.0128C23.5684 34.9667 23.5852 34.9206 23.6459 34.8892H22.5811C22.7654 34.9667 22.8585 35.1058 22.9968 35.3069L23.8625 36.5255V36.9589C23.8625 37.1744 23.785 37.453 23.6615 37.5293H24.6183C24.4947 37.453 24.4173 37.1744 24.4173 36.9589V36.5255L25.2055 35.4146C25.3291 35.2608 25.4988 34.9823 25.684 34.8892H24.7261"
            fill="white" />
        <path
            d="M29.8514 37.1126H29.1719V36.3872H30.1917L30.2523 35.9852H29.1719V35.3226H29.7739C30.1141 35.3226 30.3916 35.3371 30.5308 35.4753V34.8892H28.416C28.5396 34.9822 28.6161 35.2607 28.6161 35.4753V36.9588C28.6161 37.1891 28.5396 37.4529 28.416 37.545H30.5465L30.6385 36.8958C30.4837 37.0969 30.1917 37.1126 29.8514 37.1126Z"
            fill="white" />
    </g>
    <defs>
        <clipPath id="clip0_310_26084">
            <rect width="19.6158" height="32" fill="white" transform="translate(14 8)" />
        </clipPath>
    </defs>
</svg>