<svg width="1em" height="1em" viewBox="0 0 48 48" fill="none" xmlns="http://www.w3.org/2000/svg">
    <g clip-path="url(#clip0_310_26181)">
        <path
            d="M39.9635 25.1314C39.9377 24.5342 39.6646 23.5342 38.3504 23.4079C39.5203 23.2322 39.7522 22.4557 39.7573 21.8448C39.7676 21.2237 39.3863 20.1572 37.8402 20.1555C37.6186 20.1571 31.7693 20.1571 31.7641 20.1555V25.1365L29.6666 20.1555H25.8684L24.0492 24.6673L22.1218 20.1538H18.2927L16.6435 24.3362C16.4735 23.1639 15.3655 22.5889 12.8557 22.6332C11.593 22.6571 11.1653 22.4813 11.1653 21.9592C11.1653 21.4558 11.624 21.2647 12.2682 21.2868C12.8969 21.3142 13.4226 21.4148 13.4277 22.2527H16.4116C16.4168 20.4063 14.2162 20.0565 12.4228 20.0412C10.6396 20.0326 8.39782 20.4063 8.34113 22.2271C8.2896 24.0393 9.71714 24.3635 11.7373 24.3362C13.5978 24.314 13.5669 24.8635 13.5772 25.0615C13.572 25.0734 13.5772 25.0837 13.5772 25.099C13.5823 25.314 13.4638 25.7798 12.2682 25.7594C11.4024 25.7594 11.1344 25.3669 11.0622 25.099C11.0158 24.9505 11.0262 24.8396 11.0262 24.8447C10.4232 24.8396 8.04226 24.8396 8.03711 24.8447C8.04227 24.9232 8.04743 25.0085 8.05255 25.099C8.17623 26.1041 9.0678 27.2098 12.4589 27.1569C15.1748 27.1296 15.5149 26.5887 15.7881 26.3959L15.5871 26.9795H18.0659L18.5143 25.8993H21.9002L22.3537 26.9795H25.7087L26.1571 25.8993H29.543L29.9913 26.9795H38.134C39.4584 26.9811 39.9583 25.8481 39.9635 25.1314C39.9583 25.1109 39.9583 25.1502 39.9635 25.1314L39.9635 25.1314ZM19.1791 24.3106L20.2047 21.8261L21.2405 24.3106H19.1791ZM26.8219 24.309L27.8474 21.8279L28.8781 24.309H26.8219ZM34.2842 22.7613V21.7818H36.423C36.7013 21.7802 36.9126 22.002 36.9126 22.2733C36.9126 22.5446 36.6755 22.7613 36.4075 22.7613H34.2842V22.7613ZM34.2842 25.1998V24.234H36.5673C36.8352 24.234 37.0723 24.4473 37.0723 24.7169C37.0723 24.9848 36.8352 25.2015 36.5673 25.2015"
            fill="#0D254D" />
    </g>
    <defs>
        <clipPath id="clip0_310_26181">
            <rect width="32" height="7.2" fill="white" transform="translate(8 20)" />
        </clipPath>
    </defs>
</svg>