<svg width="1em" height="1em" viewBox="0 0 48 48" fill="none" xmlns="http://www.w3.org/2000/svg">
    <g clip-path="url(#clip0_310_2929)">
        <path
            d="M20.8446 11.0491C24.3523 10.9255 27.8636 11.0482 31.3652 11.2731C31.7338 11.3051 32.1073 11.3025 32.4703 11.3801C32.6666 11.4274 32.8788 11.5024 32.9937 11.6808C33.0984 11.875 33.1006 12.1016 33.1278 12.3155C33.2111 13.3662 33.2356 14.4214 33.3141 15.4721C33.1624 15.4905 33.0107 15.4673 32.8591 15.4625C30.1584 15.3226 27.4555 15.2065 24.7504 15.203C23.3494 15.2069 21.9466 15.1933 20.547 15.2613C20.2077 15.3112 19.8237 15.4248 19.6277 15.7272C20.6868 15.9153 21.7437 16.1182 22.8023 16.3098C26.3109 16.9665 29.8221 17.6087 33.3307 18.2644C33.3277 18.9299 33.329 19.5953 33.3303 20.2607C31.3573 19.9341 29.3877 19.5817 27.416 19.2446C23.174 18.5134 18.9334 17.7722 14.6901 17.048C14.6984 16.3094 14.73 15.5712 14.7453 14.8321C14.7721 14.2469 14.7554 13.6538 14.8878 13.0791C14.9768 12.6736 15.1416 12.266 15.4489 11.9762C15.9793 11.4511 16.7464 11.3033 17.4605 11.2293C18.5858 11.1249 19.7158 11.0907 20.8446 11.0491V11.0491ZM14.6699 18.0198C20.7473 19.1411 26.8225 20.2813 32.899 21.4092C33.0318 21.4416 33.1738 21.4443 33.3014 21.4929L33.3167 21.528C33.2834 22.5248 33.2641 23.5225 33.2282 24.5193C33.2049 25.1344 33.1401 25.7779 32.8236 26.3197C32.4843 26.8799 31.8522 27.1898 31.2266 27.3068C30.3048 27.48 29.3632 27.4914 28.4295 27.5427C24.412 27.725 20.3861 27.6242 16.3751 27.3481C16.0547 27.3257 15.7286 27.32 15.4173 27.231C15.256 27.1802 15.0894 27.0982 14.9983 26.9492C14.9005 26.7536 14.8944 26.5305 14.8703 26.3175C14.7843 25.1545 14.7387 23.9894 14.6778 22.8251C16.7469 22.9566 18.8194 23.0302 20.8924 23.0763C22.8939 23.1087 24.8955 23.1083 26.897 23.128C27.3288 23.146 27.7956 23.0636 28.1231 22.7602C28.1709 22.7054 28.2484 22.6546 28.2406 22.5726C27.3384 22.4372 26.4415 22.2688 25.5412 22.1207C21.9186 21.5013 18.2943 20.8876 14.6721 20.2647C14.6677 19.5164 14.673 18.7681 14.6699 18.0198V18.0198Z"
            fill="#19191B" />
        <path
            d="M30.7906 32.8826V34.2683H26.3833V33.878C26.3833 33.273 26.4806 32.8729 27.1908 32.8729H30.7906V32.8826ZM26.9184 32.0239C25.7607 32.0239 25.2256 32.6387 25.2256 33.634V36.4248H26.3833V35.1368H30.7906V36.4151H31.9484V32.0239H26.9184ZM33.3786 32.0239V32.8826H36.1028V36.4151H37.2605V32.8826H39.9847V32.0239H33.3786ZM17.7925 34.7269C17.7925 35.3417 17.9189 35.5661 18.6 35.5661H23.4354V36.4248H18.3276C17.1698 36.4248 16.625 35.8979 16.625 34.9123V32.0239H23.4257V32.8826H17.7827V33.7414H23.1922V34.5854H17.7827V34.7318L17.7925 34.7269ZM9.50321 33.556C9.14323 33.5267 9.08486 33.3998 9.08486 33.1851C9.08486 32.99 9.19188 32.8729 9.4643 32.8729H14.8056V32.0239H9.32809C8.54975 32.0239 8.01465 32.3264 8.01465 33.1949C8.01465 34.0634 8.41354 34.3659 9.30863 34.4439L13.6381 34.805C13.9689 34.8343 14.0662 34.9416 14.0662 35.1856C14.0662 35.41 13.9689 35.5564 13.6673 35.5564H8.22869V36.4151H13.7549C14.7083 36.4151 15.1267 36.0345 15.1267 35.1368C15.1267 34.3171 14.7472 33.9853 13.823 33.9072L9.50321 33.556Z"
            fill="#19191B" />
    </g>
    <defs>
        <clipPath id="clip0_310_2929">
            <rect width="32" height="25.4247" fill="white" transform="translate(8 11)" />
        </clipPath>
    </defs>
</svg>