<svg width="1em" height="1em" viewBox="0 0 48 48" fill="none" xmlns="http://www.w3.org/2000/svg">
    <g clip-path="url(#clip0_310_2937)">
        <path fill-rule="evenodd" clip-rule="evenodd"
            d="M23.6259 12.0088L24.3977 12L31.5153 17.1963L31.7601 17.9352L29.0394 26.34L28.3886 26.7577L19.5893 26.7748L18.9822 26.3203L16.2646 17.9142L16.5061 17.2026L23.6259 12.0088Z"
            fill="white" />
        <path fill-rule="evenodd" clip-rule="evenodd"
            d="M23.9775 21.3477C24.0219 21.3511 24.0674 21.3794 24.1121 21.4342L28.4637 26.6021C28.5142 26.6791 28.4901 26.7652 28.3808 26.7749L19.575 26.7734C19.4398 26.7655 19.4109 26.6645 19.5033 26.5516L23.8488 21.4102C23.8895 21.3656 23.933 21.3442 23.9775 21.3477ZM31.6167 17.8161C31.7053 17.7918 31.7796 17.8411 31.755 17.9485L29.0322 26.3394C28.9828 26.4656 28.8781 26.462 28.7995 26.3391L25.2623 20.6092C25.203 20.504 25.2349 20.4169 25.3665 20.3658L31.6167 17.8161ZM16.2782 17.7899C16.3126 17.7655 16.3683 17.7641 16.4361 17.7906L22.659 20.343C22.7689 20.3932 22.7939 20.4824 22.7176 20.6014L19.157 26.3452C19.0995 26.417 19.0103 26.421 18.9675 26.3196L16.2478 17.9275C16.2306 17.8618 16.2437 17.8143 16.2782 17.7899ZM23.7544 12.0184C23.7882 12.0436 23.8068 12.0963 23.8025 12.1691L23.303 18.8878C23.2894 19.0083 23.2123 19.0598 23.0759 19.0236L16.5237 17.4055C16.4377 17.3729 16.4064 17.2893 16.4894 17.2171L23.6144 12.0319C23.6714 11.9953 23.7205 11.9931 23.7544 12.0184ZM24.269 12.0127C24.2988 11.9944 24.3398 11.9946 24.3869 12.0231L31.5099 17.2107C31.6147 17.2966 31.5788 17.3954 31.4377 17.4323L24.9063 19.0324C24.7878 19.0564 24.7153 18.9989 24.7073 18.8577L24.2185 12.1141C24.2207 12.068 24.2392 12.031 24.269 12.0127Z"
            fill="#0069E5" />
        <path fill-rule="evenodd" clip-rule="evenodd"
            d="M36.5691 31.3594L35.7319 34.3292H37.427L36.5691 31.3594ZM35.1601 29.9975H37.9272L40 36.8277H38.1417L37.7843 35.6501H35.3439L35.0172 36.8277H33.1181L35.1601 29.9975ZM17.6591 29.9975H20.5386L21.8354 34.2882H21.9068L23.132 29.9975H26.0829V36.8277H24.2859L24.4187 31.5951H24.3676L22.6727 36.8277H21.1003L19.3643 31.5951H19.3031L19.4563 36.8277H17.6591V29.9975ZM14.7236 29.9975H16.5514V36.8277H14.7236V29.9975ZM10.7416 29.9668C10.7926 29.9668 10.842 29.9668 10.8896 29.9668C11.2843 29.9668 11.6452 29.989 11.9719 30.0333C12.2986 30.0777 12.5948 30.1409 12.8603 30.2228C13.1188 30.3121 13.3146 30.4992 13.4474 30.7842C13.5801 31.0692 13.6464 31.4555 13.6464 31.9432C13.6464 31.9499 13.6464 31.9585 13.6464 31.9689C13.6464 31.979 13.6464 31.991 13.6464 32.0047C13.6464 32.0114 13.6464 32.0184 13.6464 32.0251C13.6464 32.0318 13.6464 32.0388 13.6464 32.0455C13.6396 32.0525 13.6363 32.0609 13.6363 32.0712C13.6363 32.0813 13.6363 32.0933 13.6363 32.107C13.6363 32.1137 13.6363 32.119 13.6363 32.1224C13.6363 32.1257 13.6363 32.1274 13.6363 32.1274V32.1378H11.9005C11.9005 31.9739 11.8835 31.8391 11.8494 31.7332C11.8153 31.6275 11.7643 31.5506 11.6963 31.5028C11.6281 31.462 11.5363 31.4295 11.4205 31.4055C11.3047 31.3817 11.1652 31.3697 11.0018 31.3697L10.818 31.3493C10.8113 31.3627 10.8046 31.3697 10.7976 31.3697C10.7909 31.3697 10.7841 31.3697 10.7772 31.3697C10.7704 31.3697 10.7637 31.3697 10.7568 31.3697C10.75 31.3697 10.7433 31.3697 10.7363 31.3697C10.6275 31.3697 10.5204 31.3781 10.4149 31.3952C10.3092 31.4125 10.2088 31.4379 10.1136 31.4721C10.0183 31.4994 9.94691 31.5573 9.8991 31.6462C9.85153 31.7349 9.82775 31.8509 9.82775 31.9943C9.82775 32.1036 9.83616 32.1957 9.85321 32.2709C9.87027 32.346 9.8991 32.4107 9.93994 32.4654C9.98078 32.513 10.0387 32.5522 10.1136 32.5829C10.1883 32.6134 10.2804 32.6322 10.3892 32.6389C10.4437 32.6459 10.4966 32.6509 10.5475 32.6543C10.5987 32.6579 10.6513 32.6596 10.7058 32.6596C10.7604 32.6663 10.8147 32.6713 10.8692 32.6747C10.9237 32.6781 10.978 32.6797 11.0326 32.6797C11.0393 32.6797 11.0462 32.6797 11.053 32.6797C11.0597 32.6797 11.0667 32.6797 11.0734 32.6797C11.0801 32.6797 11.0888 32.6797 11.0989 32.6797C11.1092 32.6797 11.1176 32.6797 11.1243 32.6797C11.4647 32.6934 11.7915 32.7259 12.1047 32.777C12.4178 32.828 12.714 32.8979 12.9929 32.9863C13.2721 33.0747 13.483 33.2587 13.6259 33.5379C13.7689 33.817 13.8405 34.1882 13.8405 34.6512C13.8405 34.6783 13.8405 34.704 13.8405 34.7278C13.8405 34.7516 13.8405 34.7737 13.8405 34.7941C13.8405 34.8212 13.8405 34.8469 13.8405 34.8707C13.8405 34.8945 13.8405 34.92 13.8405 34.9474C13.8405 34.9745 13.8405 35.0002 13.8405 35.024C13.8405 35.0478 13.8371 35.0699 13.8302 35.0903C13.8302 35.1175 13.8285 35.1429 13.8251 35.167C13.8217 35.1907 13.8201 35.2162 13.8201 35.2436C13.8133 35.3524 13.7996 35.4581 13.7792 35.5602C13.7588 35.6623 13.7317 35.7644 13.6975 35.8665C13.6704 35.9686 13.6276 36.0623 13.57 36.1474C13.5121 36.2327 13.4422 36.3091 13.3605 36.3773C13.2517 36.4659 13.1359 36.5428 13.0133 36.6077C12.8908 36.6725 12.7616 36.722 12.6253 36.7561C12.4894 36.7835 12.3515 36.8056 12.2119 36.8227C12.0723 36.8397 11.9311 36.8518 11.7881 36.8585C11.7677 36.8585 11.7473 36.8585 11.7268 36.8585C11.7064 36.8585 11.686 36.8618 11.6656 36.8688C11.6452 36.8688 11.6247 36.8688 11.6043 36.8688C11.5839 36.8688 11.5635 36.8688 11.5431 36.8688C11.5226 36.8688 11.5022 36.8688 11.4818 36.8688C11.4614 36.8688 11.4443 36.8688 11.4309 36.8688C11.4105 36.8688 11.39 36.8688 11.3696 36.8688C11.3492 36.8688 11.3288 36.8688 11.3083 36.8688H10.8589C10.3892 36.8688 9.97574 36.8448 9.61826 36.797C9.26102 36.7492 8.96312 36.6742 8.72505 36.5719C8.48 36.4695 8.2979 36.2567 8.17874 35.9333C8.05958 35.6097 8 35.1787 8 34.6406L9.73574 34.6202C9.73574 34.7564 9.74607 34.8755 9.76649 34.9779C9.78691 35.08 9.82078 35.1686 9.86859 35.2433C9.90943 35.3116 9.97742 35.3644 10.0728 35.4019C10.1679 35.4394 10.2871 35.4579 10.43 35.4579L11.2163 35.4377C11.23 35.4444 11.2452 35.448 11.2622 35.448C11.2793 35.448 11.2947 35.448 11.3083 35.448C11.4035 35.448 11.4921 35.4394 11.5738 35.4223C11.6555 35.4053 11.7302 35.3832 11.7984 35.356C11.8801 35.3217 11.9414 35.2554 11.9822 35.1566C12.0231 35.0579 12.0435 34.9337 12.0435 34.7838C12.0435 34.6406 12.0247 34.5248 11.9873 34.4364C11.9498 34.3477 11.8936 34.2898 11.8189 34.2627C11.7506 34.2286 11.6673 34.2031 11.5685 34.186C11.4698 34.169 11.3626 34.157 11.2468 34.15C11.2401 34.15 11.2334 34.15 11.2264 34.15C11.2197 34.15 11.213 34.15 11.206 34.15C11.1993 34.15 11.1942 34.15 11.1909 34.15C11.1875 34.15 11.1822 34.15 11.1755 34.15C11.1142 34.15 11.0563 34.1483 11.0018 34.145C10.9475 34.1416 10.893 34.1366 10.8384 34.1298C10.7909 34.1298 10.7416 34.1282 10.6905 34.1245C10.6395 34.1212 10.5867 34.1161 10.5321 34.1094C10.1374 34.0888 9.78523 34.0479 9.47532 33.9867C9.16565 33.9254 8.8985 33.8437 8.67388 33.7414C8.44925 33.6393 8.28252 33.4365 8.17369 33.1336C8.06462 32.8304 8.01009 32.4301 8.01009 31.9328C8.01009 31.6309 8.04252 31.3666 8.10715 31.1403C8.17177 30.9137 8.26883 30.7214 8.39832 30.5636C8.52757 30.4057 8.69934 30.2822 8.91387 30.1929C9.12817 30.1037 9.38859 30.0454 9.6949 30.018C9.79027 30.0111 9.88733 30.006 9.98607 30.0026C10.0846 29.9992 10.185 29.9941 10.2871 29.9873C10.3416 29.9873 10.3928 29.9855 10.4404 29.9821C10.4879 29.9787 10.5391 29.977 10.5934 29.977C10.6412 29.9702 10.6905 29.9668 10.7416 29.9668ZM30.6318 29.9463C30.6523 29.9599 30.6744 29.9668 30.6981 29.9668C30.7219 29.9668 30.7474 29.9668 30.7748 29.9668C30.8019 29.9668 30.8274 29.9668 30.8514 29.9668C30.8752 29.9668 30.9007 29.9668 30.9278 29.9668C31.1049 29.9736 31.2802 29.9907 31.4537 30.018C31.6274 30.0453 31.7958 30.0862 31.9592 30.1409C32.1225 30.1883 32.2688 30.2681 32.3983 30.3801C32.5276 30.4921 32.6398 30.6295 32.7351 30.7924C32.7827 30.8739 32.8219 30.9587 32.8526 31.0471C32.8831 31.1352 32.9088 31.2268 32.9292 31.3219C32.936 31.3692 32.9427 31.4168 32.9497 31.4644C32.9564 31.5119 32.9631 31.5559 32.9701 31.5965C32.9768 31.6441 32.9819 31.6916 32.9852 31.7392C32.9888 31.7868 32.9905 31.8343 32.9905 31.8817C32.9905 31.9091 32.9905 31.9364 32.9905 31.9636C32.9905 31.991 32.9905 32.0184 32.9905 32.0455C32.9905 32.0592 32.9905 32.0729 32.9905 32.0866C32.9905 32.1003 32.9939 32.1137 33.0006 32.1274C33.0006 32.1411 33.0006 32.1531 33.0006 32.1632C33.0006 32.1736 33.0006 32.1856 33.0006 32.1993C33.0006 32.206 33.0006 32.2127 33.0006 32.2197C33.0006 32.2264 33.0006 32.2334 33.0006 32.2401C33.0006 32.2468 33.0006 32.2521 33.0006 32.2555C33.0006 32.2588 33.0006 32.2605 33.0006 32.2605C33.0006 32.2675 33.0006 32.2725 33.0006 32.2759C33.0006 32.2793 33.0006 32.2845 33.0006 32.2913C33.0006 32.2982 33.0006 32.3033 33.0006 32.3066C33.0006 32.31 33.0006 32.3153 33.0006 32.322V32.4347H31.1628C31.1628 32.2709 31.1457 32.1308 31.1116 32.0148C31.0777 31.8987 31.0299 31.8067 30.9687 31.7382C30.9007 31.67 30.807 31.6188 30.688 31.5847C30.5689 31.5506 30.4207 31.5336 30.2438 31.5336L29.9375 31.5131C29.9306 31.5199 29.9205 31.5249 29.9068 31.5285C29.8931 31.5319 29.883 31.5336 29.8763 31.5336C29.8626 31.5336 29.8506 31.5336 29.8405 31.5336C29.8302 31.5336 29.8184 31.5336 29.8047 31.5336C29.791 31.5336 29.7775 31.5336 29.7638 31.5336C29.7501 31.5336 29.7401 31.5336 29.7333 31.5336C29.7196 31.5403 29.7076 31.5439 29.6975 31.5439C29.6872 31.5439 29.6754 31.5439 29.6617 31.5439C29.6072 31.5506 29.5546 31.559 29.5034 31.5694C29.4525 31.5797 29.3996 31.5915 29.3453 31.6051C29.2975 31.6258 29.2533 31.6496 29.2125 31.677C29.1717 31.7041 29.1342 31.7382 29.1003 31.7793C29.0662 31.8202 29.0371 31.8612 29.0133 31.9021C28.9895 31.9432 28.9708 31.9876 28.9574 32.0354C28.9504 32.083 28.942 32.1308 28.9317 32.1786C28.9216 32.2264 28.9165 32.2742 28.9165 32.322C28.9165 32.3288 28.9165 32.3357 28.9165 32.3424C28.9165 32.3494 28.9165 32.3561 28.9165 32.3631C28.9095 32.3698 28.9062 32.3766 28.9062 32.3835C28.9062 32.3903 28.9062 32.3972 28.9062 32.4039C28.9062 32.4107 28.9062 32.4176 28.9062 32.4244C28.9062 32.4313 28.9062 32.4347 28.9062 32.4347C28.9062 32.4414 28.9062 32.4484 28.9062 32.4551C28.9062 32.4621 28.9062 32.4688 28.9062 32.4755C28.9062 32.5032 28.9045 32.5289 28.9011 32.5529C28.8978 32.5769 28.8959 32.5993 28.8959 32.6199C28.8891 32.6473 28.8858 32.673 28.8858 32.697C28.8858 32.7208 28.8858 32.7465 28.8858 32.7742C28.8858 32.8015 28.8858 32.8273 28.8858 32.8513C28.8858 32.8753 28.8858 32.8976 28.8858 32.9183C28.879 32.9457 28.8757 32.9714 28.8757 32.9954C28.8757 33.0194 28.8757 33.0415 28.8757 33.0622C28.8757 33.1103 28.8757 33.16 28.8757 33.2116C28.8757 33.263 28.8757 33.3161 28.8757 33.3712C28.8757 33.419 28.8757 33.467 28.8757 33.5151C28.8757 33.5631 28.8757 33.6112 28.8757 33.6592C28.8757 33.6729 28.8757 33.6885 28.8757 33.7056C28.8757 33.7226 28.8757 33.738 28.8757 33.7519C28.8757 33.7656 28.8757 33.7793 28.8757 33.793C28.8757 33.8067 28.8757 33.8204 28.8757 33.8341C28.8757 33.8548 28.8757 33.8718 28.8757 33.8855C28.8757 33.8994 28.8757 33.9131 28.8757 33.9268C28.8757 33.9405 28.8757 33.9559 28.8757 33.9732C28.8757 33.9903 28.8757 34.0056 28.8757 34.0193C28.8757 34.2733 28.8942 34.4842 28.9317 34.6524C28.9691 34.8205 29.022 34.9524 29.09 35.0485C29.1649 35.1379 29.2805 35.2063 29.4371 35.2544C29.5938 35.3024 29.798 35.3265 30.0497 35.3265C30.2268 35.3265 30.3851 35.3145 30.5247 35.2904C30.664 35.2664 30.7849 35.2304 30.887 35.1826C30.9891 35.1275 31.0674 35.0382 31.1219 34.9147C31.1765 34.7912 31.2036 34.63 31.2036 34.4311C31.2036 34.4241 31.2036 34.4174 31.2036 34.4104C31.2036 34.4037 31.2036 34.3967 31.2036 34.39C31.2036 34.383 31.2036 34.3761 31.2036 34.3694C31.2036 34.3624 31.2036 34.3557 31.2036 34.3489C31.1969 34.342 31.1933 34.335 31.1933 34.3283C31.1933 34.3213 31.1933 34.3146 31.1933 34.3076C31.1933 34.3006 31.1933 34.2939 31.1933 34.287C31.1933 34.2802 31.1933 34.2733 31.1933 34.2665V34.2459H33.0006V34.4518C33.0006 34.6713 32.9922 34.8806 32.9751 35.0795C32.9581 35.2784 32.9326 35.4706 32.8985 35.6558C32.8644 35.8411 32.7863 36.0109 32.6638 36.1654C32.5413 36.3196 32.3779 36.4551 32.1737 36.5719C32.0646 36.6401 31.9524 36.6946 31.8366 36.7357C31.7208 36.7766 31.6017 36.8073 31.4792 36.8277C31.4179 36.8347 31.3566 36.8414 31.2954 36.8482C31.2341 36.8551 31.1729 36.8618 31.1116 36.8688C31.0436 36.8688 30.979 36.8722 30.9177 36.8789C30.8565 36.8859 30.7952 36.8892 30.7339 36.8892C30.7202 36.8892 30.7049 36.8892 30.688 36.8892C30.671 36.8892 30.6556 36.8892 30.6419 36.8892C30.6285 36.8892 30.6131 36.8892 30.596 36.8892C30.579 36.8892 30.5636 36.8892 30.5501 36.8892C30.4819 36.8892 30.4156 36.8892 30.351 36.8892C30.2864 36.8892 30.2234 36.8892 30.1622 36.8892C30.128 36.8892 30.0956 36.8892 30.0651 36.8892C30.0344 36.8892 30.0022 36.8892 29.968 36.8892C29.9409 36.8825 29.9118 36.8789 29.8813 36.8789C29.8506 36.8789 29.8184 36.8789 29.7843 36.8789C29.7502 36.8789 29.7163 36.8789 29.6822 36.8789C29.648 36.8789 29.6175 36.8789 29.5904 36.8789C29.5563 36.8722 29.5238 36.8688 29.4933 36.8688C29.4626 36.8688 29.4304 36.8688 29.3963 36.8688C29.3283 36.8688 29.2617 36.8688 29.1971 36.8688C29.1325 36.8688 29.0695 36.8688 29.0083 36.8688C28.559 36.8277 28.1965 36.7235 27.921 36.556C27.6452 36.3886 27.4563 36.1611 27.3542 35.874C27.2452 35.5869 27.1635 35.2741 27.1092 34.9356C27.0547 34.5971 27.0241 34.2399 27.0172 33.8639L27.0071 32.9615C27.0071 32.3804 27.0631 31.8932 27.1755 31.4999C27.2877 31.1069 27.4563 30.8044 27.681 30.5924C27.9056 30.3873 28.2169 30.2317 28.6153 30.1257C29.0133 30.0198 29.4984 29.9668 30.0701 29.9668L30.6318 29.9463Z"
            fill="#0069E5" />
    </g>
    <defs>
        <clipPath id="clip0_310_2937">
            <rect width="32" height="24.8889" fill="white" transform="translate(8 12)" />
        </clipPath>
    </defs>
</svg>