<svg width="1em" height="1em" viewBox="0 0 48 48" fill="none" xmlns="http://www.w3.org/2000/svg">
    <g clip-path="url(#clip0_310_2947)">
        <path fill-rule="evenodd" clip-rule="evenodd"
            d="M12.9605 31.7615C12.8982 31.1845 11.3378 30.4821 11.3378 30.4821C10.9321 30.2327 11.1036 29.9211 11.1036 29.9211C11.3534 29.3743 12.664 29.8897 12.664 29.8897L12.9131 29.2971C12.2187 28.7736 11.3322 28.883 11.3322 28.883C10.2425 29.0076 10.0798 29.7438 10.0798 29.7438C9.83127 30.8717 10.7015 31.1393 10.7015 31.1393C11.4949 31.5122 11.7339 31.6654 11.7339 31.6654C12.3842 32.0858 11.8103 32.3633 11.8103 32.3633C11.1031 32.6974 10.2138 32.2387 10.2138 32.2387L9.93652 32.8888C10.673 33.3856 11.8103 33.1758 11.8103 33.1758C13.2541 32.9651 12.9605 31.7615 12.9605 31.7615V31.7615Z"
            fill="#1A3B73" />
        <path fill-rule="evenodd" clip-rule="evenodd"
            d="M15.2869 31.9919C15.2367 31.5246 13.9735 30.9567 13.9735 30.9567C13.6448 30.7543 13.7841 30.5018 13.7841 30.5018C13.9863 30.0599 15.0473 30.4764 15.0473 30.4764L15.249 29.9966C14.6869 29.5733 13.9694 29.6614 13.9694 29.6614C13.0875 29.7622 12.9559 30.3585 12.9559 30.3585C12.7545 31.2714 13.4586 31.4884 13.4586 31.4884C14.1009 31.79 14.2944 31.9139 14.2944 31.9139C14.8204 32.2544 14.3562 32.4783 14.3562 32.4783C13.784 32.7496 13.0638 32.3781 13.0638 32.3781L12.8398 32.9045C13.4358 33.3069 14.3562 33.1366 14.3562 33.1366C15.5248 32.9661 15.2869 31.9919 15.2869 31.9919V31.9919Z"
            fill="#1A3B73" />
        <path fill-rule="evenodd" clip-rule="evenodd"
            d="M16.3434 29.742L15.0967 33.0887L15.8149 33.1016L16.1397 32.3704H17.644L17.9692 33.0344H18.6598L17.3594 29.742H16.3434V29.742ZM16.3836 31.7742L16.8579 30.6088L17.3727 31.7742H16.3836ZM20.9767 31.9505L19.5815 29.7693H18.6598V33.0344L19.3375 33.0477V30.9073L20.8276 33.1428H21.6813V29.7822H20.9767V31.9505V31.9505ZM24.7156 31.2458H23.5776V31.7608H24.3502V32.5463C23.8217 32.7495 23.2665 32.533 23.2665 32.533C22.1688 31.8019 22.765 30.8937 22.765 30.8937C23.4427 29.8367 25.0548 30.4874 25.0548 30.4874V29.8777C23.0899 29.2407 22.2498 30.311 22.2498 30.311C21.1394 31.8419 22.5208 32.845 22.5208 32.845C23.8759 33.6848 25.1768 32.9529 25.1768 32.9529V31.747C25.1496 31.1922 24.7156 31.2458 24.7156 31.2458V31.2458ZM37.6027 31.2458H36.4649V31.7608H37.2365V32.5463C36.7079 32.7495 36.1526 32.533 36.1526 32.533C35.0551 31.8019 35.6512 30.8937 35.6512 30.8937C36.3289 29.8367 37.9411 30.4874 37.9411 30.4874V29.8777C35.9765 29.2407 35.1366 30.311 35.1366 30.311C34.0255 31.8419 35.407 32.845 35.407 32.845C36.7624 33.6848 38.0629 32.9529 38.0629 32.9529V31.747C38.0364 31.1922 37.6027 31.2458 37.6027 31.2458V31.2458Z"
            fill="#1A3B73" />
        <path fill-rule="evenodd" clip-rule="evenodd"
            d="M27.7637 29.0237L26.7203 30.758L25.6774 29.065H24.77L26.3275 31.5984L25.4606 33.224H26.2867L28.6853 29.0237H27.7637V29.0237ZM29.5249 29.6957C28.5418 29.6957 27.7448 30.4932 27.7448 31.4765C27.7448 32.4598 28.5418 33.257 29.5249 33.257C30.5084 33.257 31.3063 32.4598 31.3063 31.4765C31.3063 30.4932 30.5084 29.6957 29.5249 29.6957ZM29.5249 32.5601C28.9265 32.5601 28.4417 32.0748 28.4417 31.4763C28.4417 31.189 28.5559 30.9133 28.7591 30.7101C28.9623 30.5069 29.2379 30.3928 29.5253 30.3928C29.8127 30.3928 30.0883 30.5069 30.2915 30.7101C30.4947 30.9133 30.6088 31.189 30.6088 31.4763C30.6088 31.7638 30.4946 32.0394 30.2913 32.2427C30.0881 32.4459 29.8124 32.5601 29.5249 32.5601V32.5601ZM33.8876 31.9098L32.4921 29.7556H31.5437V33.1016L32.2622 33.0887V30.9209L33.7385 33.1287H34.6053V29.742H33.8876V31.9098ZM33.0667 18.6776C32.5479 16.7619 30.069 15.7964 30.069 15.7964C29.4076 15.5544 29.6717 15.9345 29.6717 15.9345C29.6717 15.9345 32.5241 17.2475 32.5241 19.0752C32.5241 21.3388 29.4159 22.0158 29.4159 22.0158C32.2429 21.1163 32.251 19.1969 32.251 19.1969C32.2014 17.2777 29.6717 15.9345 29.6717 15.9345C28.6964 15.3812 28.1673 15.2428 28.1673 15.2428C26.8943 14.8163 27.3073 15.312 27.3073 15.312C27.3073 15.312 31.1477 16.5221 31.1477 19.1915C31.1477 21.9181 25.7948 22.794 25.7948 22.794C30.8283 21.86 30.8293 19.2141 30.8293 19.2141C30.8293 16.8308 27.3073 15.312 27.3073 15.312C26.7784 15.0239 25.8813 14.7919 25.8813 14.7919C25.0502 14.6147 25.5217 14.9778 25.5217 14.9778C28.8948 16.949 28.8948 19.1278 28.8948 19.1278C28.8948 21.5489 26.675 22.1539 26.675 22.1539C26.03 22.4047 24.7821 22.6054 24.7821 22.6054C24.5801 22.6652 24.4388 22.8041 24.4388 22.967C24.4388 23.0327 24.4547 23.0978 24.5027 23.1495C24.6246 23.2796 25.0348 23.5847 25.0348 23.5847C25.1817 23.723 25.2675 23.8942 25.2675 24.0795C25.2675 24.534 24.7449 24.9029 24.0957 24.9114H24.0478C23.3987 24.9029 22.8756 24.5342 22.8756 24.0795C22.8756 23.8942 22.962 23.723 23.1085 23.5847C23.1085 23.5847 23.5186 23.2796 23.6404 23.1495C23.6884 23.0978 23.7049 23.0329 23.7049 22.967C23.7049 22.8041 23.5633 22.6652 23.3614 22.6054C23.3614 22.6054 22.1133 22.4049 21.4683 22.1539C21.4683 22.1539 19.2486 21.5491 19.2486 19.1278C19.2486 19.1278 19.2486 16.9489 22.6216 14.9778C22.6216 14.9778 23.0929 14.6147 22.262 14.7919C22.262 14.7919 21.3649 15.0239 20.836 15.312C20.836 15.312 17.3142 16.8307 17.3142 19.2141C17.3142 19.2141 17.3149 21.86 22.3489 22.794C22.3489 22.794 16.9958 21.9183 16.9958 19.1915C16.9958 16.5221 20.836 15.312 20.836 15.312C20.836 15.312 21.249 14.8163 19.976 15.2428C19.976 15.2428 19.447 15.381 18.4715 15.9345C18.4715 15.9345 15.9416 17.2777 15.8921 19.1969C15.8921 19.1969 15.9003 21.1163 18.7276 22.0158C18.7276 22.0158 15.6192 21.3386 15.6192 19.0752C15.6192 17.2475 18.4715 15.9345 18.4715 15.9345C18.4715 15.9345 18.7359 15.5542 18.0747 15.7964C18.0747 15.7964 15.5953 16.7621 15.0768 18.6776C15.0768 18.6776 14.9196 19.3992 15.1497 19.9263C15.4286 20.5718 16.1559 21.6409 18.0083 22.24C18.0083 22.24 18.8516 22.5863 22.2249 23.2607L22.4236 23.306C22.4236 23.306 22.5687 23.3696 22.4647 23.4841L22.0001 23.8836C22.0001 23.8836 21.3186 24.4078 22.2913 24.8491C22.2913 24.8491 22.8848 25.0513 23.3031 25.4992C23.3031 25.4992 23.5722 25.7552 24.0279 25.768V25.7698H24.0583C24.0596 25.7698 24.0608 25.7703 24.0618 25.7703V25.7698H24.0814V25.7703L24.0849 25.7698H24.1058V25.7691C24.5675 25.7592 24.8399 25.4992 24.8399 25.4992C25.2584 25.0513 25.8516 24.8491 25.8516 24.8491C26.8246 24.4078 26.1428 23.8836 26.1428 23.8836L25.6784 23.4841C25.5747 23.3696 25.7196 23.306 25.7196 23.306L25.918 23.2607C29.291 22.5863 30.1347 22.24 30.1347 22.24C31.9871 21.6409 32.7144 20.5719 32.9936 19.9263C33.2239 19.3992 33.0667 18.6776 33.0667 18.6776V18.6776Z"
            fill="#1A3B73" />
    </g>
    <defs>
        <clipPath id="clip0_310_2947">
            <rect width="32" height="32" fill="white" transform="translate(8 8)" />
        </clipPath>
    </defs>
</svg>