<svg width="1em" height="1em" viewBox="0 0 48 48" fill="none" xmlns="http://www.w3.org/2000/svg">
    <g clip-path="url(#clip0_310_2957)">
        <path
            d="M31.029 22.9309C31.029 22.9309 29.7103 23.312 27.1595 24.8795C24.8727 26.2872 23.9759 27.2329 23.9759 27.2329L16.9209 22.3572C16.9209 22.3572 19.889 20.1746 22.3689 21.8463L25.6957 24.1283L26.1015 23.8614L16.9223 17.4306C16.9223 17.4306 18.2415 17.049 20.7909 15.4825C23.0792 14.0743 23.9759 13.1281 23.9759 13.1281L31.0305 18.0038C31.0305 18.0038 28.0629 20.1865 25.5824 18.5148L22.2557 16.2322L21.8499 16.4986L31.029 22.9309Z"
            fill="#E20A17" />
        <path
            d="M25.5644 29.5821H20.1949V30.7762H22.7885L20.1035 33.2828V34.2832H25.5544V33.0844H22.8423L25.5644 30.584V29.5821Z"
            fill="#003399" />
        <path
            d="M17.0333 34.4033C19.1808 34.4033 19.7307 33.8548 19.7307 32.6455V29.5818H18.0295V32.4624C18.0295 32.9462 17.6156 33.2345 17.0333 33.2345C16.4277 33.2345 16.0381 32.9447 16.0381 32.4547V29.5818H14.3369V32.6455C14.3369 33.8548 14.8869 34.4033 17.0333 34.4033Z"
            fill="#003399" />
        <path
            d="M28.6817 34.4033C30.8292 34.4033 31.3791 33.8548 31.3791 32.6455V29.5818H29.6774V32.4624C29.6774 32.9462 29.2631 33.2345 28.6817 33.2345C28.0761 33.2345 27.6851 32.9447 27.6851 32.4547V29.5818H25.9844V32.6455C25.9844 33.8548 26.5343 34.4033 28.6817 34.4033Z"
            fill="#003399" />
        <path d="M39.8716 29.582H38.0977V34.2832H39.8716V29.582V29.582Z" fill="#003399" />
        <path
            d="M37.8281 29.5821H35.4941L33.6055 31.2043V29.5821H31.8311V34.2832H33.6055V32.6158L35.3595 34.2832H37.7429L35.1488 31.8713L37.8281 29.5821Z"
            fill="#003399" />
        <path
            d="M10.1441 30.8812C10.1441 30.5178 10.6826 30.5059 10.8643 30.5059C11.0465 30.5059 11.4571 30.5787 11.7363 31.0368H13.7424C13.7424 30.151 12.9028 29.4464 10.8705 29.4464C8.61317 29.4464 8.22878 30.4369 8.22878 31.0059C8.22878 32.0548 9.04132 32.3622 10.8082 32.5506C10.9595 32.5663 11.8786 32.523 11.8786 32.9649C11.8786 33.2922 11.3619 33.3141 11.1716 33.3141C10.9828 33.3141 10.6293 33.2832 10.3372 32.7632H8.12793C8.12793 33.7955 8.82392 34.3921 11.1683 34.3921C13.3276 34.3921 13.9009 33.5106 13.9009 32.8403C13.9009 32.1895 13.4542 31.5273 11.6131 31.2918C10.8453 31.1924 10.1441 31.1505 10.1441 30.8812Z"
            fill="#003399" />
    </g>
    <defs>
        <clipPath id="clip0_310_2957">
            <rect width="32" height="21.5315" fill="white" transform="translate(8 13)" />
        </clipPath>
    </defs>
</svg>