<svg width="1em" height="1em" viewBox="0 0 48 48" fill="none" xmlns="http://www.w3.org/2000/svg">
    <g clip-path="url(#clip0_310_2973)">
        <path fill-rule="evenodd" clip-rule="evenodd"
            d="M23.9999 39.0944C32.31 39.0944 39.0939 32.3123 39.0939 24.0048C39.0939 15.6879 32.31 8.90576 23.9999 8.90576C15.6805 8.90576 8.90527 15.6879 8.90527 24.0048C8.90527 32.3123 15.6805 39.0944 23.9999 39.0944Z"
            fill="#972930" />
        <path fill-rule="evenodd" clip-rule="evenodd"
            d="M23.9734 37.8685C31.6132 37.8685 37.8596 31.6245 37.8596 23.9873C37.8596 16.3319 31.6132 10.0879 23.9734 10.0879C16.3162 10.0879 10.0703 16.3319 10.0703 23.9873C10.0703 31.6245 16.3162 37.8685 23.9734 37.8685Z"
            fill="white" />
        <path fill-rule="evenodd" clip-rule="evenodd"
            d="M23.9997 36.9073C31.1363 36.9073 36.9675 31.0774 36.9675 23.9339C36.9675 16.7903 31.1363 10.9517 23.9997 10.9517C16.8536 10.9517 11.0225 16.7903 11.0225 23.9339C11.0225 31.0774 16.8536 36.9073 23.9997 36.9073Z"
            fill="#972930" />
        <path fill-rule="evenodd" clip-rule="evenodd"
            d="M24.5357 12.3828L24.708 35.5776C25.0256 35.5689 25.3232 35.5194 25.6321 35.4837L25.5381 24.7868H26.5561C26.7328 24.8219 26.7735 24.8983 26.791 25.0217L26.8537 35.2331C27.1888 35.1623 27.4626 35.0746 27.762 34.9512L27.6524 24.8181C27.5822 24.6152 27.4482 24.5105 27.2452 24.4579C27.4212 24.4047 27.6549 24.275 27.6994 24.0194V13.4165C27.6111 13.0901 27.4388 12.9335 26.9006 12.7744C26.0981 12.5895 25.6202 12.4799 24.5357 12.3828ZM24.0189 12.3985C22.7484 12.3985 21.9378 12.5739 21.0119 12.7587V13.714C21.4172 13.5819 21.6534 13.543 22.0769 13.4635C22.1295 20.8188 22.0957 28.1108 22.1395 35.4837C22.4133 35.5282 22.8925 35.5845 23.1575 35.5933C23.1488 28.1678 23.1575 20.7311 23.1575 13.3225C23.4751 13.3137 23.6744 13.2824 24.0189 13.2912C24.0189 12.9823 24.0189 12.6986 24.0189 12.3985ZM20.2445 12.9936C19.6794 13.179 19.3092 13.3613 18.8506 13.5731L17.9892 33.9958L18.8506 34.45L18.9915 29.9708L20.2758 30.4563C20.3372 31.9993 20.3929 33.5398 20.4637 35.0921C20.7719 35.1892 21.0407 35.265 21.3408 35.3271C20.9787 27.9448 20.6059 20.3759 20.2445 12.9936ZM25.5537 13.4008L26.5874 13.5888C26.6851 13.6063 26.7403 13.6483 26.7754 13.7454L26.838 23.6748C26.8117 23.7895 26.7891 23.8408 26.6657 23.8941H25.5851L25.5537 13.4008ZM29.2969 13.6671L28.78 34.544C29.0977 34.403 29.3865 34.2414 29.7041 34.0741L29.7511 29.9708L30.8474 29.454L31.1293 33.1188C31.4024 32.8719 31.6705 32.6364 31.9437 32.3983L30.7221 14.5754C30.246 14.214 29.7818 13.9408 29.2969 13.6671ZM17.9579 14.1056C16.7757 14.9081 16.0797 15.3403 15.0918 16.5488V18.0053L15.9219 16.956L16.0315 32.5393C16.2965 32.8131 16.5515 33.0229 16.9399 33.3224C16.8866 27.6604 16.8434 21.7497 16.7989 16.079C17.3107 15.6291 17.5256 15.4174 17.9579 15.1706V14.1056ZM19.5867 17.3006L20.2288 29.4696L19.0229 28.9371L19.5867 17.3006ZM30.0016 18.8041L30.7377 28.4829L29.7197 28.9998L30.0016 18.8041Z"
            fill="white" />
    </g>
    <defs>
        <clipPath id="clip0_310_2973">
            <rect width="32" height="32" fill="white" transform="translate(8 8)" />
        </clipPath>
    </defs>
</svg>