<svg width="1em" height="1em" viewBox="0 0 48 48" fill="none" xmlns="http://www.w3.org/2000/svg">
    <path
        d="M24.2581 35.4172L27.4077 17.7037C30.4098 17.7037 31.3568 18.0329 31.4935 19.3766C31.4935 19.3766 33.5074 18.6257 34.5231 17.1006C30.5594 15.2639 26.5768 15.1811 26.5768 15.1811L24.2529 18.0116L24.2581 18.0113L21.9342 15.1807C21.9342 15.1807 17.9515 15.2636 13.9883 17.1003C15.0031 18.6254 17.0178 19.3763 17.0178 19.3763C17.1554 18.0325 18.1011 17.7033 21.0831 17.7012L24.2581 35.4172Z"
        fill="#E82127" />
    <path
        d="M24.2567 14.3637C27.4608 14.3392 31.1283 14.8593 34.8826 16.4957C35.3844 15.5925 35.5134 15.1933 35.5134 15.1933C31.4093 13.5696 27.5659 13.0139 24.2563 13C20.9468 13.0139 17.1035 13.5697 13 15.1933C13 15.1933 13.1831 15.685 13.6303 16.4957C17.384 14.8593 21.0521 14.3392 24.2563 14.3637H24.2567"
        fill="#E82127" />
</svg>