<svg width="1em" height="1em" viewBox="0 0 48 48" fill="none" xmlns="http://www.w3.org/2000/svg">
    <g clip-path="url(#clip0_310_2997)">
        <path
            d="M23.9995 14.1436C15.2454 14.1436 8.14746 18.7352 8.14746 24.3977C8.14746 30.0623 15.2454 34.6561 23.9995 34.6561C32.7537 34.6561 39.8516 30.0644 39.8516 24.3977C39.8516 18.7311 32.7537 14.1436 23.9995 14.1436ZM23.9995 30.254C22.6975 30.254 21.635 27.6894 21.5683 24.4623C22.3516 24.5311 23.1662 24.5686 23.9995 24.5686C24.8329 24.5686 25.6475 24.5311 26.4308 24.4623C26.3641 27.6873 25.3016 30.254 23.9995 30.254ZM21.7287 21.8998C22.0829 19.6186 22.9662 17.9998 23.9995 17.9998C25.0329 17.9998 25.9162 19.6186 26.2704 21.8998C25.5433 21.9644 24.785 21.9998 23.9995 21.9998C23.2141 21.9998 22.4558 21.9644 21.7287 21.8998ZM23.9995 15.6269C22.2995 15.6269 20.8495 18.1727 20.3141 21.7269C17.0912 21.2248 14.8412 20.079 14.8412 18.7477C14.8412 16.9519 18.9412 15.4956 23.9995 15.4956C29.0579 15.4956 33.1579 16.9519 33.1579 18.7477C33.1579 20.079 30.9079 21.2248 27.685 21.7269C27.1495 18.1727 25.6995 15.6269 23.9995 15.6269ZM10.4204 24.0144C10.4204 22.2769 11.0891 20.6456 12.2537 19.2456C12.2412 19.3436 12.2329 19.4436 12.2329 19.5436C12.2329 21.7331 15.5162 23.5998 20.0975 24.2873C20.0933 24.4456 20.0933 24.6061 20.0933 24.7665C20.0933 28.8477 21.237 32.304 22.8183 33.4769C15.8704 33.0581 10.4204 28.9811 10.4204 24.0144ZM25.1808 33.4769C26.762 32.304 27.9058 28.8477 27.9058 24.7665C27.9058 24.604 27.9037 24.4456 27.9016 24.2873C32.4808 23.5998 35.7662 21.7352 35.7662 19.5436C35.7662 19.4436 35.7579 19.3436 35.7454 19.2456C36.91 20.6498 37.5787 22.2769 37.5787 24.0144C37.5787 28.9811 32.1287 33.0581 25.1808 33.4769Z"
            fill="#282830" />
    </g>
    <defs>
        <clipPath id="clip0_310_2997">
            <rect width="32" height="20.8" fill="white" transform="translate(8 14)" />
        </clipPath>
    </defs>
</svg>