<svg width="1em" height="1em" viewBox="0 0 48 48" fill="none" xmlns="http://www.w3.org/2000/svg">
    <g clip-path="url(#clip0_310_3005)">
        <path fill-rule="evenodd" clip-rule="evenodd"
            d="M42.1252 23.9761C42.1252 27.9826 34.0065 31.2302 23.9918 31.2302C13.9771 31.2302 5.8584 27.9824 5.8584 23.9761C5.8584 19.9698 13.9771 16.7222 23.9918 16.7222C34.0065 16.7222 42.1252 19.9698 42.1252 23.9761Z"
            fill="#A22125" />
        <path fill-rule="evenodd" clip-rule="evenodd"
            d="M42.2354 23.9999C42.2354 28.0486 34.0713 31.3305 23.9999 31.3305C13.929 31.3305 5.76465 28.0486 5.76465 23.9999C5.76465 19.9515 13.929 16.6694 23.9999 16.6694C34.0713 16.6694 42.2354 19.9515 42.2354 23.9999ZM23.2236 30.9744C21.5037 29.214 20.025 27.1793 18.4931 24.8055C16.9415 22.4017 16.0301 20.0644 15.199 17.8276L15.4237 17.8313C9.98304 19.0333 6.53619 21.3466 6.53619 24.0031C6.53619 27.8707 13.5542 30.9318 23.2236 30.9744V30.9744ZM24.8615 30.9735C34.4668 30.9017 41.4097 27.8521 41.4097 24.0031C41.4097 21.3661 37.9382 19.0673 32.5639 17.8583L32.8793 17.8564C32.0505 20.0806 31.1435 22.4031 29.6016 24.7914C28.0704 27.1644 26.5808 29.2136 24.8615 30.9735V30.9735Z"
            fill="#BBBCBF" />
        <path fill-rule="evenodd" clip-rule="evenodd"
            d="M15.8408 17.7959C18.2908 17.3109 21.0833 17.0361 24.0473 17.0361C27.0191 17.0361 29.8185 17.3121 32.2726 17.7996V17.8033C31.4961 20.0345 30.3535 22.3602 28.8712 24.7663C27.4906 27.0063 25.8755 29.0928 24.0531 30.9908C22.2362 29.0964 20.6256 27.0144 19.2482 24.78C17.7624 22.3676 16.6178 20.0358 15.8408 17.7996V17.7959Z"
            fill="#2F5B90" />
        <path fill-rule="evenodd" clip-rule="evenodd"
            d="M23.7311 26.2936C23.7694 26.5283 23.8518 26.6453 23.9458 26.9028C23.8848 26.8956 23.8166 26.9066 23.7267 26.9531C23.7267 26.9531 23.68 26.9603 23.5887 27.2048C23.6175 27.0954 23.7624 27.0002 23.7624 27.0002C23.8769 26.9655 23.9359 26.9551 23.9788 27.0045C24.0567 27.094 24.1251 27.1986 24.2011 27.3801C24.1666 27.2475 24.1239 27.0749 24.0508 26.9695C24.1399 26.9317 24.1801 26.879 24.2878 26.9232C24.465 26.9966 24.326 27.1158 24.326 27.1158C24.326 27.1158 24.5178 27.0772 24.403 26.9232C24.2878 26.7698 23.9813 26.885 23.9813 26.885C23.9813 26.885 23.8701 26.6982 23.8369 26.2158C24.0741 26.0375 24.0801 26.0089 24.3015 26.0991C24.3339 26.3845 24.424 26.498 24.5269 26.7802C24.4657 26.7732 24.4013 26.8147 24.3113 26.8616C24.4256 26.8269 24.5175 26.8325 24.5605 26.8819C24.6383 26.9713 24.7064 27.0759 24.7825 27.2577C24.7481 27.1249 24.7056 26.9524 24.6321 26.847C24.7213 26.8093 24.7618 26.7568 24.8693 26.801C25.0465 26.8744 24.9079 26.9933 24.9079 26.9933C24.9079 26.9933 25.0996 26.9543 24.9845 26.801C24.8645 26.642 24.563 26.7626 24.563 26.7626C24.563 26.7626 24.4516 26.5978 24.4146 26.1465L24.4669 26.1684C24.6603 26.2494 24.8977 24.7847 24.984 24.5542C25.0704 24.3236 26.2767 24.4967 26.9083 24.1794C26.9083 24.1794 26.535 23.8625 26.8224 23.8625C27.1094 23.8625 27.2821 23.6031 27.2821 23.6031C27.5114 23.5743 28.2873 23.1709 28.5747 23.1418C28.5747 23.1418 27.7417 22.8824 27.5116 22.9113C27.2823 22.9401 28.948 22.4211 29.1207 22.1329C29.1207 22.1329 27.7702 22.4788 27.7131 22.2483C27.6556 22.0175 28.8333 21.9312 29.2929 21.4699C29.2929 21.4699 28.115 21.6525 27.8853 21.5276C27.5728 21.3578 28.8905 21.1625 29.4365 20.634C29.4365 20.634 28.8046 20.5284 28.4597 20.4034C28.2037 20.3107 28.9769 20.1247 29.5517 19.4233C29.5517 19.4233 27.4128 20.1918 26.3343 20.8645C24.5628 21.9696 24.1801 22.6228 24.1801 22.6228C24.5246 22.104 22.5426 21.0951 22.1118 20.922C21.681 20.7492 19.1819 19.9419 18.952 19.7114C18.722 19.4808 19.6127 20.6338 20.3309 20.8645C21.0489 21.0951 19.5838 20.9318 19.0096 20.8934C19.0096 20.8934 19.6127 21.3931 20.3023 21.6716C20.4809 21.7438 19.1244 21.6716 19.1244 21.6716C19.3541 22.027 20.2734 22.3921 20.5895 22.4209C20.9053 22.4498 19.2392 22.3441 19.2392 22.3441C19.2964 22.6133 20.5606 23.0551 20.9914 23.0551C21.4224 23.0551 20.1871 23.0839 19.8713 23.0839C19.5552 23.0839 20.6181 23.5164 20.8478 23.5164C21.0778 23.5164 20.6756 23.6604 20.5606 23.7181C20.4457 23.7758 21.2498 24.0736 21.4511 23.891C21.6046 23.7515 22.3129 24.7845 23.1459 24.4674C23.9788 24.1504 21.1728 25.9012 21.3936 26.1969C21.5945 26.466 22.4565 26.6868 22.7437 26.6003C23.0309 26.514 23.2608 26.1969 23.2895 25.7933C23.3183 25.3896 23.4953 26.4561 23.663 26.3411C23.6875 26.3245 23.7099 26.3087 23.7311 26.2936V26.2936Z"
            fill="#DBDCDD" />
        <path fill-rule="evenodd" clip-rule="evenodd"
            d="M22.1055 27.3736C22.4176 28.03 22.9764 28.9142 23.4464 28.7864C24.3867 28.6585 25.3562 28.0752 26.4141 28.0752C26.5005 27.1433 25.0725 27.0592 25.0925 27.6353C25.3272 26.9953 25.9153 28.1468 26.3853 28.019C26.3658 27.1231 24.461 26.5282 23.4896 27.39L22.1055 27.3736Z"
            fill="#A6A8AA" />
        <path fill-rule="evenodd" clip-rule="evenodd"
            d="M23.8 28.6624C24.6152 28.4789 25.4409 28.027 26.3564 28.027C26.3564 27.3351 25.5523 27.7964 25.0927 27.681C25.3224 27.1046 25.782 27.681 26.2417 27.5657C25.3224 26.9892 24.4033 26.7584 23.5263 27.4598L22.2051 27.4513C22.5647 28.0268 23.0244 28.834 23.484 28.7184C23.5423 28.7112 23.6006 28.702 23.6589 28.6912L23.4552 28.2764L23.8 28.6624Z"
            fill="#DBDCDD" />
        <path fill-rule="evenodd" clip-rule="evenodd"
            d="M23.5272 28.5844C23.106 28.6419 22.7229 28.1229 22.3633 27.5477L23.4546 27.5562C24.4656 26.9508 25.0018 27.0276 25.9402 27.5466C25.6723 27.4121 25.0021 27.0853 24.9064 27.7772C25.366 27.8925 25.8832 27.5655 26.1702 27.8925C25.2312 27.8925 24.5752 28.3595 23.775 28.5394L23.2593 28.0847L23.5272 28.5844Z"
            fill="#A6A8AA" />
        <path fill-rule="evenodd" clip-rule="evenodd"
            d="M23.6961 26.4199C23.5287 26.5353 23.3515 25.4687 23.3228 25.8723C23.2942 26.2757 23.0643 26.593 22.7771 26.6793C22.4899 26.7659 21.6278 26.5451 21.427 26.2759C21.2062 25.9802 24.0122 24.2294 23.1792 24.5463C22.3462 24.8633 21.638 23.8305 21.4844 23.97C21.2831 24.1526 20.479 23.8546 20.594 23.7969C20.7089 23.7394 21.1109 23.5952 20.8812 23.5952C20.6515 23.5952 19.5886 23.1627 19.9044 23.1627C20.2202 23.1627 21.4556 23.1339 21.0246 23.1339C20.5936 23.1339 19.3296 22.6921 19.2723 22.423C19.2723 22.423 20.9385 22.5286 20.6226 22.4997C20.3066 22.4709 19.3873 22.1059 19.1576 21.7502C19.1576 21.7502 20.5139 21.8224 20.3352 21.7502C19.6458 21.4717 19.0426 20.972 19.0426 20.972C19.617 21.0106 21.0821 21.1737 20.3641 20.9432C19.6458 20.7126 18.7554 19.5596 18.9851 19.7902C19.2148 20.0207 21.7139 20.8278 22.145 21.0008C22.5758 21.1737 24.5577 22.1826 24.2133 22.7014C24.2133 22.7014 24.5959 22.0482 26.3675 20.9432C27.446 20.2704 29.5848 19.502 29.5848 19.502C29.01 20.2034 28.2368 20.3891 28.4933 20.4821C28.8378 20.607 29.4697 20.7126 29.4697 20.7126C28.9241 21.2411 27.6062 21.4364 27.9185 21.6064C28.1482 21.7313 29.3261 21.5485 29.3261 21.5485C28.8664 22.0098 27.6885 22.0963 27.7462 22.3269C27.8039 22.5574 29.1538 22.2115 29.1538 22.2115C28.9812 22.4997 27.3154 23.0187 27.5452 22.9897C27.7749 22.9608 28.6078 23.2202 28.6078 23.2202C28.3204 23.2493 27.5452 23.6527 27.3152 23.6815C27.3152 23.6815 27.1426 23.9409 26.8556 23.9409C26.5682 23.9409 26.9415 24.258 26.9415 24.258C26.3096 24.5751 25.1035 24.402 25.0172 24.6328C24.9309 24.8635 24.6933 26.3278 24.5001 26.2471C24.4827 26.2396 24.4653 26.2323 24.4478 26.2251C24.4843 26.6762 24.5961 26.8412 24.5961 26.8412C24.5961 26.8412 24.8972 26.7204 25.0176 26.8796C25.1332 27.0327 24.941 27.0719 24.941 27.0719C24.941 27.0719 25.0797 26.9528 24.9024 26.8796C24.7949 26.8352 24.7545 26.8879 24.6652 26.9256C24.7387 27.0313 24.7812 27.2037 24.8157 27.3363C24.7395 27.1545 24.6715 27.0499 24.5936 26.9605C24.5507 26.9113 24.4588 26.9055 24.3444 26.9402C24.4345 26.8933 24.4988 26.8516 24.56 26.8588C24.4571 26.5764 24.367 26.4631 24.3347 26.1775C24.1132 26.0875 24.1072 26.1161 23.8698 26.2944C23.903 26.7766 24.0143 26.9636 24.0143 26.9636C24.0143 26.9636 24.3208 26.8482 24.4355 27.002C24.5507 27.1558 24.3594 27.1944 24.3594 27.1944C24.3594 27.1944 24.498 27.0753 24.3208 27.002C24.2129 26.9574 24.1728 27.0101 24.084 27.0479C24.157 27.1535 24.1996 27.3259 24.234 27.4585C24.1579 27.2768 24.0896 27.1724 24.0118 27.0829C23.9686 27.0335 23.9097 27.0439 23.7953 27.0786C23.7953 27.0786 23.6503 27.1738 23.6216 27.2834C23.7127 27.0389 23.7594 27.0319 23.7594 27.0319C23.8493 26.9848 23.9174 26.9742 23.9786 26.9813C23.8844 26.7241 23.8022 26.6069 23.7638 26.3722C23.7428 26.3875 23.7202 26.4033 23.6961 26.4199V26.4199ZM25.2091 23.1627L24.9983 22.8168L24.443 23.182L24.6343 22.8552L24.1938 22.7784C22.3747 20.7412 21.1682 21.049 21.1682 21.049C21.4267 21.4619 22.2981 21.7599 22.2981 21.7599L21.2448 21.6832C21.4745 22.3173 22.528 22.1445 22.4131 22.4134L21.4172 22.4327C21.8578 22.961 22.8343 22.817 22.7005 23.0092C22.5664 23.2013 21.7046 23.086 21.7046 23.086C21.8385 23.3742 23.1981 23.5473 23.1217 23.4705L22.164 23.7203C22.3174 23.7971 23.428 23.9702 23.2751 24.0086C23.1217 24.0472 22.5282 24.0852 22.5282 24.0852C22.7007 24.1814 23.6961 24.2582 23.6961 24.2582C23.5814 24.8061 23.3228 25.2095 23.3228 25.2095C24.6443 25.0076 25.6206 23.8835 25.2762 22.817L25.2091 23.1627V23.1627ZM26.1378 22.6437C25.889 22.2453 25.7865 22.5406 25.7356 22.5572C25.5868 22.6054 25.764 23.4219 25.6781 23.5373C25.5918 23.6527 25.3332 24.1426 25.5634 24.1138C25.7553 24.0879 25.9468 24.0591 26.1378 24.0273C25.9944 23.8832 25.764 23.8256 25.9944 23.8256C26.2237 23.8256 26.7697 23.6527 26.7697 23.5373C26.7697 23.5373 26.253 23.6238 26.2237 23.4219L26.5694 23.3354C26.5694 23.3354 27.117 23.2283 27.2293 22.9108L26.5686 22.932C26.8842 22.932 27.2005 22.6247 27.459 22.3267C27.459 22.3267 26.7697 22.4227 26.5974 22.2978C26.5974 22.2978 27.6026 21.6925 27.5167 21.5771C27.5167 21.5771 26.5375 21.9212 26.6263 21.8077C27.1148 21.1832 27.6601 20.7701 27.6601 20.7701C26.9707 20.6068 25.3052 21.9046 25.4484 21.8942C26.2527 21.8367 26.2156 22.7685 26.1378 22.6437V22.6437ZM25.3835 22.1059C25.4409 22.1418 25.5488 22.1706 25.5059 22.0915C25.4625 22.0123 25.405 21.9834 25.405 21.9834C25.405 21.9834 25.326 22.0698 25.3835 22.1059ZM26.1328 22.5695C26.1328 22.5695 26.1183 22.1731 25.9556 22.1924C25.9118 22.1976 25.8815 22.3947 25.9415 22.392C26.0251 22.3885 26.1328 22.5695 26.1328 22.5695V22.5695Z"
            fill="#A6A8AA" />
        <path fill-rule="evenodd" clip-rule="evenodd"
            d="M24.651 19.6953L24.734 19.4976L24.8377 19.5401L24.7539 19.7399L24.7535 19.7397C24.8224 19.774 24.8865 19.8167 24.944 19.8665L24.9456 19.868L25.1077 19.7076L25.1876 19.786L25.0251 19.9466L25.0243 19.946C25.0786 20.0066 25.1247 20.0749 25.1604 20.1485L25.1612 20.151L25.3692 20.0657L25.4121 20.1685L25.2038 20.2538L25.2042 20.255C25.2289 20.3283 25.2438 20.4057 25.2484 20.4858H25.2476H25.4746V20.597H25.2467L25.248 20.5949C25.2425 20.6747 25.2263 20.7535 25.1998 20.829L25.199 20.8292L25.4121 20.9168L25.3692 21.0195L25.1548 20.9317L25.156 20.9315C25.1208 21.0012 25.0766 21.066 25.0247 21.1239H25.0251L25.1828 21.2801L25.1033 21.3588L24.9456 21.2025L24.9452 21.2029C24.8867 21.2539 24.8218 21.2971 24.7522 21.3316V21.3295L24.8402 21.5399L24.7365 21.5825L24.6493 21.375C24.573 21.4015 24.4935 21.4177 24.4129 21.4231V21.6476H24.3007V21.4237C24.2209 21.4195 24.142 21.4047 24.0662 21.3797L24.0676 21.3795L23.9774 21.5949L23.8736 21.5524L23.9632 21.3387L23.9618 21.338C23.8872 21.3026 23.8179 21.2571 23.7557 21.2027V21.2029L23.5978 21.3592L23.5183 21.2805L23.6763 21.1243L23.6754 21.1235C23.6242 21.066 23.5807 21.0022 23.5459 20.9336V20.9338L23.3351 21.0201L23.2919 20.9174L23.5021 20.8313L23.5019 20.8304C23.4753 20.7556 23.459 20.6775 23.4536 20.5982L23.4513 20.5976H23.2266V20.4864H23.4528C23.4573 20.4057 23.4725 20.3276 23.4976 20.254L23.4978 20.2533L23.2921 20.1691L23.3353 20.0664L23.5399 20.1502C23.5758 20.0763 23.6219 20.0081 23.676 19.9473L23.5136 19.7866L23.593 19.7082L23.7555 19.8686C23.8172 19.8149 23.8865 19.7692 23.9614 19.7337L23.9616 19.7335L23.8757 19.5283L23.9796 19.4857L24.066 19.6918L24.0656 19.692C24.1415 19.6669 24.2205 19.652 24.3005 19.6478V19.4243H24.4127V19.6486C24.493 19.6541 24.5722 19.6702 24.6483 19.6966L24.651 19.6953V19.6953Z"
            fill="#DBDCDD" />
        <path fill-rule="evenodd" clip-rule="evenodd"
            d="M24.3664 21.5864H24.3251V21.3756L24.3129 21.3743C24.2351 21.3702 24.1479 21.3436 24.0771 21.3201L24.0659 21.3199L23.98 21.5366L23.9186 21.5086L24.0039 21.3058L23.99 21.293C23.9186 21.2591 23.8277 21.1911 23.769 21.14L23.7692 21.1402L23.6187 21.2882L23.5806 21.2506L23.7308 21.1025L23.7177 21.0894C23.6649 21.0309 23.6194 20.9662 23.582 20.8968V20.8846L23.3811 20.9665L23.3654 20.9186L23.5652 20.8368L23.5523 20.8115C23.5274 20.7418 23.5117 20.6432 23.5063 20.5667L23.5042 20.566H23.29V20.51H23.5054C23.5098 20.4334 23.5368 20.3224 23.5606 20.2525L23.5484 20.2396L23.3527 20.1599L23.3687 20.1118L23.576 20.1915L23.5887 20.1668C23.6271 20.0928 23.6749 20.024 23.7308 19.9622L23.5762 19.8098L23.6144 19.7723L23.769 19.9246L23.7941 19.8999C23.8526 19.8489 23.9311 19.7935 24.0022 19.7596L24.0024 19.7594L23.9207 19.5648L23.9694 19.549L24.0516 19.7443L24.0886 19.732C24.1653 19.7083 24.2447 19.6942 24.3249 19.6901L24.3245 19.6889V19.478H24.3631L24.3664 21.5864V21.5864Z"
            fill="#A6A8AA" />
        <path fill-rule="evenodd" clip-rule="evenodd"
            d="M17.4603 18.2668L17.1029 17.9955L17.0166 17.9717L17.4387 18.2921L17.4603 18.2668Z" fill="#24201F" />
        <path fill-rule="evenodd" clip-rule="evenodd"
            d="M17.1029 17.9955L17.7608 17.8992L17.7832 17.8594L17.0166 17.9716L17.1029 17.9955Z" fill="#373331" />
        <path fill-rule="evenodd" clip-rule="evenodd"
            d="M18.0917 19.1405L17.4601 18.2666L17.4385 18.2919L18.0797 19.1788L18.0917 19.1405V19.1405Z"
            fill="#2F2B2A" />
        <path fill-rule="evenodd" clip-rule="evenodd"
            d="M17.7607 17.8992L18.3381 18.782L18.3298 18.6948L17.7832 17.8594L17.7607 17.8992V17.8992Z"
            fill="#7D7C7C" />
        <path fill-rule="evenodd" clip-rule="evenodd"
            d="M18.6769 19.0544L18.0921 19.1403L18.0801 19.1787L18.7095 19.0862L18.6769 19.0544ZM18.3382 18.7817L18.6379 17.7703L18.6134 17.7373L18.3299 18.6946L18.3382 18.7817V18.7817Z"
            fill="black" />
        <path fill-rule="evenodd" clip-rule="evenodd"
            d="M19.0762 17.7062L18.6768 19.0547L18.7093 19.0864L19.1314 17.6616L19.0762 17.7062V17.7062Z"
            fill="#44403E" />
        <path fill-rule="evenodd" clip-rule="evenodd"
            d="M18.6378 17.7706L19.0763 17.7062L19.1314 17.6616L18.6133 17.7376L18.6378 17.7706Z" fill="#373331" />
        <path fill-rule="evenodd" clip-rule="evenodd"
            d="M17.4609 18.2666L17.1035 17.9953L17.7613 17.899L18.3387 18.7818L18.6383 17.7704L19.0768 17.7061L18.6773 19.0545L18.0925 19.1404L17.4609 18.2666V18.2666Z"
            fill="#A6A8AA" />
        <path fill-rule="evenodd" clip-rule="evenodd"
            d="M19.364 17.6681L19.7736 17.9627L19.7412 17.9825L19.2627 17.6382L19.364 17.6681Z" fill="black" />
        <path fill-rule="evenodd" clip-rule="evenodd"
            d="M19.7736 17.9624L19.8317 18.918L19.8008 18.9562L19.7412 17.9821L19.7736 17.9624Z" fill="black" />
        <path fill-rule="evenodd" clip-rule="evenodd"
            d="M20.1736 18.0981L20.1641 17.939L20.2058 17.9732L20.211 18.0593L20.1736 18.0981V18.0981ZM20.2029 18.576L20.1931 18.4167L20.2348 18.4507L20.24 18.5368L20.2029 18.576Z"
            fill="#433F3D" />
        <path fill-rule="evenodd" clip-rule="evenodd"
            d="M21.3148 17.5493L19.364 17.668L19.2627 17.6382L21.3513 17.5107L21.3148 17.5493Z" fill="#363230" />
        <path fill-rule="evenodd" clip-rule="evenodd"
            d="M19.8317 18.9183L21.3924 18.8232L21.4333 18.8569L19.8008 18.9565L19.8317 18.9183V18.9183Z"
            fill="black" />
        <path fill-rule="evenodd" clip-rule="evenodd"
            d="M21.1496 18.0386L20.1738 18.0982L20.2112 18.0594L21.1859 18L21.1496 18.0386V18.0386Z" fill="#403C3A" />
        <path fill-rule="evenodd" clip-rule="evenodd"
            d="M20.1931 18.4168L21.1686 18.3576L21.2097 18.3917L20.2348 18.4508L20.1931 18.4168V18.4168ZM20.1641 17.9391L21.3347 17.8677L21.3753 17.9023L20.2058 17.9733L20.1641 17.9391V17.9391Z"
            fill="black" />
        <path fill-rule="evenodd" clip-rule="evenodd"
            d="M21.3737 18.5043L20.2031 18.5757L20.2403 18.5365L21.41 18.4653L21.3737 18.5043Z" fill="#4B4746" />
        <path fill-rule="evenodd" clip-rule="evenodd"
            d="M21.1687 18.3576L21.1494 18.0386L21.1857 18L21.2098 18.3916L21.1687 18.3576V18.3576Z" fill="#2F2B2A" />
        <path fill-rule="evenodd" clip-rule="evenodd"
            d="M21.3349 17.8677L21.3154 17.5493L21.352 17.5107L21.3756 17.9023L21.3349 17.8677V17.8677ZM21.393 18.8233L21.3737 18.5047L21.4101 18.4657L21.4339 18.8569L21.393 18.8233V18.8233Z"
            fill="#2C2826" />
        <path fill-rule="evenodd" clip-rule="evenodd"
            d="M19.7739 17.9627L19.832 18.9183L21.3927 18.8233L21.3734 18.5047L20.2028 18.5761L20.1931 18.4167L21.1686 18.3576L21.1493 18.0386L20.1736 18.0982L20.164 17.939L21.3346 17.8676L21.3151 17.5493L19.3643 17.668L19.7739 17.9627V17.9627Z"
            fill="#A6A8AA" />
        <path fill-rule="evenodd" clip-rule="evenodd"
            d="M21.9334 17.8654L21.5335 17.5576L21.4316 17.5244L21.899 17.884L21.9334 17.8654V17.8654Z" fill="black" />
        <path fill-rule="evenodd" clip-rule="evenodd"
            d="M21.5335 17.5577L22.4236 17.5323L22.4412 17.4956L21.4316 17.5245L21.5335 17.5577V17.5577Z"
            fill="#363230" />
        <path fill-rule="evenodd" clip-rule="evenodd"
            d="M21.961 18.8223L21.9339 17.8652L21.8994 17.8839L21.927 18.8592L21.961 18.8223V18.8223Z" fill="#0F0300" />
        <path fill-rule="evenodd" clip-rule="evenodd"
            d="M22.3515 18.811L21.9608 18.8222L21.9268 18.8592L22.3906 18.8461L22.3515 18.811Z" fill="black" />
        <path fill-rule="evenodd" clip-rule="evenodd"
            d="M22.3271 17.9604L22.3514 18.8111L22.3904 18.8461L22.368 18.0623L22.3271 17.9604Z" fill="#191513" />
        <path fill-rule="evenodd" clip-rule="evenodd"
            d="M23.0462 18.7911L22.3271 17.9604L22.368 18.0623L23.0306 18.8281L23.0462 18.7911Z" fill="black" />
        <path fill-rule="evenodd" clip-rule="evenodd"
            d="M22.4238 17.5323L23.1207 18.346L23.0819 18.2433L22.4415 17.4956L22.4238 17.5323V17.5323Z"
            fill="#2A2624" />
        <path fill-rule="evenodd" clip-rule="evenodd"
            d="M23.5233 18.7778L23.0458 18.7913L23.0303 18.8283L23.5615 18.8129L23.5233 18.7778Z" fill="black" />
        <path fill-rule="evenodd" clip-rule="evenodd"
            d="M23.0963 17.513L23.4873 17.5018L23.5234 17.4648L23.0596 17.4777L23.0963 17.513V17.513Z" fill="#363230" />
        <path fill-rule="evenodd" clip-rule="evenodd"
            d="M23.1202 18.3456L23.0963 17.5128L23.0596 17.4775L23.0814 18.2429L23.1202 18.3456Z" fill="#2A2624" />
        <path fill-rule="evenodd" clip-rule="evenodd"
            d="M23.4873 17.5018L23.5234 18.7776L23.5616 18.8127L23.5234 17.4648L23.4873 17.5018V17.5018Z"
            fill="black" />
        <path fill-rule="evenodd" clip-rule="evenodd"
            d="M21.9331 17.8653L21.5332 17.5576L22.4232 17.5322L23.1201 18.3459L23.0962 17.5132L23.4872 17.502L23.5233 18.7778L23.0458 18.7913L22.3267 17.9606L22.351 18.8112L21.9603 18.8224L21.9331 17.8653V17.8653Z"
            fill="#A6A8AA" />
        <path fill-rule="evenodd" clip-rule="evenodd"
            d="M25.6543 17.5265L25.6555 17.8457L25.691 17.8822L25.6896 17.4902L25.6543 17.5265ZM25.6555 17.8457L25.0689 17.8478L25.105 17.8845L25.691 17.8822L25.6555 17.8457V17.8457ZM25.0726 18.8048L24.6815 18.8065L24.6445 18.8426L25.1087 18.841L25.0726 18.8048V18.8048Z"
            fill="black" />
        <path fill-rule="evenodd" clip-rule="evenodd"
            d="M25.0684 17.8481L25.0721 18.8052L25.1082 18.8413L25.1045 17.8849L25.0684 17.8481Z" fill="black" />
        <path fill-rule="evenodd" clip-rule="evenodd"
            d="M23.6994 17.5336L25.654 17.5265L25.6893 17.4902L23.5967 17.4977L23.6994 17.5336Z" fill="#363230" />
        <path fill-rule="evenodd" clip-rule="evenodd"
            d="M24.6811 18.8066L24.678 17.8491L24.6406 17.8863L24.6442 18.8427L24.6811 18.8066V18.8066Z"
            fill="#484442" />
        <path fill-rule="evenodd" clip-rule="evenodd"
            d="M24.0914 17.8517L23.6994 17.5339L23.5967 17.498L24.0783 17.8886L24.0914 17.8517Z" fill="#130D07" />
        <path fill-rule="evenodd" clip-rule="evenodd"
            d="M24.6778 17.8491L24.0912 17.8514L24.0781 17.8883L24.6405 17.8863L24.6778 17.8491V17.8491Z"
            fill="black" />
        <path fill-rule="evenodd" clip-rule="evenodd"
            d="M23.6992 17.5339L25.6538 17.5269L25.6551 17.846L25.0684 17.8481L25.0721 18.8052L24.681 18.8068L24.6779 17.8493L24.0912 17.8516L23.6992 17.5339V17.5339Z"
            fill="#A6A8AA" />
        <path fill-rule="evenodd" clip-rule="evenodd"
            d="M27.8382 17.6624L27.7969 18.459L27.8309 18.4607L27.8739 17.6279L27.8382 17.6624V17.6624Z"
            fill="#35312F" />
        <path fill-rule="evenodd" clip-rule="evenodd"
            d="M27.4475 17.6422L27.8378 17.6623L27.8735 17.6279L27.4102 17.604L27.4475 17.6422Z" fill="#363230" />
        <path fill-rule="evenodd" clip-rule="evenodd"
            d="M27.7964 18.459C27.796 18.4698 27.7952 18.4806 27.7939 18.4914L27.8271 18.4953C27.8287 18.4838 27.8298 18.4722 27.8305 18.4606L27.7964 18.459V18.459Z"
            fill="#383432" />
        <path fill-rule="evenodd" clip-rule="evenodd"
            d="M27.7938 18.4912C27.7926 18.5016 27.7909 18.5122 27.7891 18.5221L27.8223 18.5284C27.8244 18.5174 27.826 18.5063 27.827 18.4952L27.7938 18.4912Z"
            fill="#3B3735" />
        <path fill-rule="evenodd" clip-rule="evenodd"
            d="M27.7896 18.522C27.788 18.5319 27.7855 18.5419 27.7832 18.5514L27.816 18.5597C27.8185 18.5494 27.8208 18.539 27.8228 18.5282L27.7896 18.522Z"
            fill="#3E3A38" />
        <path fill-rule="evenodd" clip-rule="evenodd"
            d="M27.7825 18.5518C27.78 18.5612 27.7773 18.5706 27.7744 18.58L27.8064 18.5904C27.8097 18.5806 27.8124 18.5704 27.8153 18.5601L27.7825 18.5518V18.5518Z"
            fill="#423E3C" />
        <path fill-rule="evenodd" clip-rule="evenodd"
            d="M27.7748 18.5801C27.7715 18.5892 27.7684 18.5981 27.7646 18.6068L27.7954 18.6193C27.7995 18.61 27.803 18.6004 27.8068 18.5905L27.7748 18.5801V18.5801Z"
            fill="#45413F" />
        <path fill-rule="evenodd" clip-rule="evenodd"
            d="M27.7652 18.6064C27.7615 18.6151 27.7574 18.6237 27.7529 18.632L27.7832 18.6461C27.7876 18.6374 27.7922 18.6282 27.7959 18.6189L27.7652 18.6064V18.6064Z"
            fill="#494543" />
        <path fill-rule="evenodd" clip-rule="evenodd"
            d="M27.7525 18.6318C27.7484 18.6401 27.744 18.6482 27.7393 18.6559L27.7685 18.6719C27.7737 18.6634 27.7786 18.6548 27.783 18.6459L27.7525 18.6318Z"
            fill="#4C4847" />
        <path fill-rule="evenodd" clip-rule="evenodd"
            d="M27.739 18.6562C27.7343 18.6641 27.7292 18.6718 27.7236 18.6791L27.7521 18.6967C27.7577 18.6888 27.7631 18.6805 27.7682 18.6722L27.739 18.6562Z"
            fill="#514D4B" />
        <path fill-rule="evenodd" clip-rule="evenodd"
            d="M27.7236 18.6787C27.7184 18.6862 27.7126 18.6932 27.707 18.7003L27.7338 18.7198C27.7402 18.7121 27.746 18.7044 27.7521 18.6963L27.7236 18.6787Z"
            fill="#54504F" />
        <path fill-rule="evenodd" clip-rule="evenodd"
            d="M27.7072 18.7007C27.7013 18.7078 27.6951 18.7146 27.6885 18.721L27.7144 18.742C27.7213 18.7347 27.7277 18.7275 27.7339 18.7202L27.7072 18.7007V18.7007Z"
            fill="#585453" />
        <path fill-rule="evenodd" clip-rule="evenodd"
            d="M27.6885 18.7212C27.6822 18.7278 27.6757 18.7342 27.6689 18.7403L27.6932 18.7627L27.7144 18.7422L27.6885 18.7212V18.7212Z"
            fill="#5A5655" />
        <path fill-rule="evenodd" clip-rule="evenodd"
            d="M27.669 18.7402C27.6622 18.7465 27.6549 18.7525 27.6475 18.7581L27.6701 18.7817C27.6782 18.7755 27.6854 18.7691 27.6931 18.7624L27.669 18.7402Z"
            fill="#5B5756" />
        <path fill-rule="evenodd" clip-rule="evenodd"
            d="M27.6476 18.7578C27.6403 18.7636 27.6327 18.7693 27.625 18.7746L27.6466 18.7997C27.6547 18.7939 27.6628 18.7879 27.6704 18.7817L27.6476 18.7578Z"
            fill="#5B5756" />
        <path fill-rule="evenodd" clip-rule="evenodd"
            d="M27.6244 18.7749C27.6167 18.7803 27.6087 18.7855 27.6006 18.7905L27.6201 18.8168C27.629 18.8114 27.6375 18.8058 27.646 18.8L27.6244 18.7749Z"
            fill="#5A5655" />
        <path fill-rule="evenodd" clip-rule="evenodd"
            d="M27.6007 18.7905C27.5926 18.7955 27.5837 18.8003 27.5752 18.8051L27.5935 18.8324C27.6028 18.8275 27.6117 18.8223 27.6202 18.8169L27.6007 18.7905Z"
            fill="#585453" />
        <path fill-rule="evenodd" clip-rule="evenodd"
            d="M27.5756 18.8047C27.5668 18.8094 27.5579 18.8138 27.5488 18.818L27.5658 18.8464C27.5752 18.8418 27.5849 18.8371 27.5939 18.8321L27.5756 18.8047V18.8047Z"
            fill="#54504F" />
        <path fill-rule="evenodd" clip-rule="evenodd"
            d="M27.5491 18.8179C27.5402 18.8222 27.5308 18.8262 27.5215 18.8301L27.5364 18.8594C27.5466 18.8552 27.5563 18.8509 27.5661 18.8463L27.5491 18.8179V18.8179Z"
            fill="#514D4B" />
        <path fill-rule="evenodd" clip-rule="evenodd"
            d="M27.521 18.8306C27.5117 18.8343 27.5019 18.8382 27.4922 18.8416L27.5055 18.8719C27.5157 18.8681 27.5258 18.864 27.5358 18.8596L27.521 18.8306Z"
            fill="#4B4746" />
        <path fill-rule="evenodd" clip-rule="evenodd"
            d="M27.4922 18.8418C27.4822 18.8454 27.4721 18.8488 27.4619 18.852L27.4737 18.8831C27.4847 18.8796 27.4953 18.876 27.5057 18.8721L27.4922 18.8418V18.8418Z"
            fill="#45413F" />
        <path fill-rule="evenodd" clip-rule="evenodd"
            d="M27.4618 18.8516L27.4307 18.8607L27.4408 18.8927C27.4522 18.8893 27.463 18.8862 27.4736 18.8827L27.4618 18.8516V18.8516Z"
            fill="#3E3A38" />
        <path fill-rule="evenodd" clip-rule="evenodd"
            d="M27.4304 18.8608C27.4198 18.8637 27.4092 18.8662 27.3984 18.8689L27.4069 18.9015C27.4182 18.8989 27.4294 18.8959 27.4406 18.8928L27.4304 18.8608Z"
            fill="#383432" />
        <path fill-rule="evenodd" clip-rule="evenodd"
            d="M27.3984 18.8687L27.3652 18.8759L27.3725 18.9091C27.3839 18.9066 27.3955 18.9041 27.4069 18.9012L27.3984 18.8687Z"
            fill="#312D2B" />
        <path fill-rule="evenodd" clip-rule="evenodd"
            d="M27.3651 18.876C27.3541 18.8781 27.3429 18.8801 27.3311 18.882L27.3367 18.9158C27.3485 18.914 27.3601 18.9115 27.3723 18.9094L27.3651 18.876V18.876Z"
            fill="#2A2624" />
        <path fill-rule="evenodd" clip-rule="evenodd"
            d="M27.3317 18.8818C27.3199 18.8837 27.3087 18.8856 27.2969 18.887L27.301 18.9215L27.3375 18.9157L27.3317 18.8818V18.8818Z"
            fill="#221E1C" />
        <path fill-rule="evenodd" clip-rule="evenodd"
            d="M27.2964 18.8872L27.2607 18.8916L27.2636 18.9262C27.2759 18.925 27.2883 18.9233 27.3006 18.9217L27.2964 18.8872Z"
            fill="#1C1816" />
        <path fill-rule="evenodd" clip-rule="evenodd"
            d="M27.2611 18.8916L27.2246 18.8949L27.2259 18.93C27.2385 18.929 27.2514 18.9277 27.264 18.9263L27.2611 18.8916Z"
            fill="#130D07" />
        <path fill-rule="evenodd" clip-rule="evenodd"
            d="M27.2243 18.8945C27.2117 18.8956 27.1991 18.8964 27.1865 18.897L27.1869 18.9323C27.1998 18.9317 27.2129 18.9306 27.2255 18.9296L27.2243 18.8945Z"
            fill="#090000" />
        <path fill-rule="evenodd" clip-rule="evenodd"
            d="M27.187 18.897L27.1493 18.8986L27.1484 18.9341L27.1875 18.9323L27.187 18.897Z" fill="black" />
        <path fill-rule="evenodd" clip-rule="evenodd"
            d="M27.1487 18.8984L27.1292 18.8989L27.1279 18.9345L27.1479 18.9339L27.1487 18.8984V18.8984Z"
            fill="black" />
        <path fill-rule="evenodd" clip-rule="evenodd"
            d="M27.13 18.8989L27.1104 18.8991L27.1088 18.9348L27.1287 18.9346L27.13 18.8989V18.8989ZM27.1104 18.8991H27.0909L27.0889 18.9348H27.1088L27.1104 18.8991Z"
            fill="black" />
        <path fill-rule="evenodd" clip-rule="evenodd"
            d="M27.0908 18.8991L27.0713 18.8989L27.0684 18.9348H27.0887L27.0908 18.8991V18.8991Z" fill="black" />
        <path fill-rule="evenodd" clip-rule="evenodd"
            d="M27.0709 18.8993C27.0645 18.8993 27.0576 18.8993 27.051 18.8989L27.0481 18.935L27.068 18.9352L27.0709 18.8993V18.8993ZM27.051 18.8989C27.0444 18.8988 27.0377 18.8987 27.0311 18.8984L27.0273 18.9343L27.0481 18.935L27.051 18.8989V18.8989Z"
            fill="black" />
        <path fill-rule="evenodd" clip-rule="evenodd"
            d="M27.0319 18.8983C27.0251 18.8981 27.0183 18.8978 27.0115 18.8975L27.0078 18.9334L27.0281 18.9342L27.0319 18.8983Z"
            fill="black" />
        <path fill-rule="evenodd" clip-rule="evenodd"
            d="M27.0116 18.8973L26.9917 18.8965L26.9873 18.9326L27.0081 18.9334L27.0116 18.8973V18.8973Z"
            fill="black" />
        <path fill-rule="evenodd" clip-rule="evenodd"
            d="M27.4101 18.3681L27.4477 17.6422L27.4103 17.604L27.3711 18.366L27.4101 18.3681Z" fill="#8D8C8D" />
        <path fill-rule="evenodd" clip-rule="evenodd"
            d="M27.4105 18.3678C27.4101 18.3784 27.4089 18.3889 27.4068 18.3993L27.3682 18.3923C27.3698 18.3838 27.3707 18.3751 27.3715 18.3657L27.4105 18.3678Z"
            fill="#8E8E8E" />
        <path fill-rule="evenodd" clip-rule="evenodd"
            d="M27.4065 18.3994C27.4047 18.4091 27.4022 18.4187 27.3992 18.4281C27.3992 18.4281 27.3924 18.4455 27.3882 18.4536L27.3525 18.4382C27.3563 18.4316 27.3619 18.4166 27.3619 18.4166C27.3644 18.4088 27.3664 18.4007 27.3679 18.3926L27.4065 18.3994V18.3994Z"
            fill="#929192" />
        <path fill-rule="evenodd" clip-rule="evenodd"
            d="M27.3885 18.4533C27.3842 18.4613 27.3793 18.469 27.374 18.4764L27.3408 18.4573C27.3453 18.4511 27.3494 18.4447 27.3531 18.438L27.3885 18.4533V18.4533Z"
            fill="#8D8C8D" />
        <path fill-rule="evenodd" clip-rule="evenodd"
            d="M27.3733 18.4766C27.3681 18.4839 27.3623 18.4907 27.3559 18.4969L27.3252 18.4747C27.3307 18.4695 27.3357 18.4637 27.3401 18.4575L27.3733 18.4766Z"
            fill="#7D7C7C" />
        <path fill-rule="evenodd" clip-rule="evenodd"
            d="M27.356 18.497C27.3495 18.5034 27.3425 18.5093 27.3352 18.5147L27.3076 18.4896C27.3138 18.485 27.3196 18.48 27.325 18.4746L27.356 18.497V18.497Z"
            fill="#6E6B6B" />
        <path fill-rule="evenodd" clip-rule="evenodd"
            d="M27.3358 18.5149C27.3285 18.5204 27.3208 18.5256 27.3128 18.5302L27.2881 18.5026C27.2953 18.4987 27.3018 18.4943 27.3084 18.4897L27.3358 18.5149Z"
            fill="#605D5C" />
        <path fill-rule="evenodd" clip-rule="evenodd"
            d="M27.3122 18.5302C27.3037 18.535 27.2951 18.5394 27.2862 18.5433L27.2646 18.5134C27.2727 18.5101 27.28 18.5064 27.2873 18.5024L27.3122 18.5302Z"
            fill="#54504F" />
        <path fill-rule="evenodd" clip-rule="evenodd"
            d="M27.2859 18.5433C27.277 18.5475 27.2673 18.551 27.2575 18.5541L27.2393 18.5226C27.2478 18.52 27.2561 18.5171 27.2644 18.5137L27.2859 18.5433Z"
            fill="#4B4746" />
        <path fill-rule="evenodd" clip-rule="evenodd"
            d="M27.2576 18.5537C27.2479 18.557 27.2377 18.5599 27.2269 18.5624L27.2124 18.5292C27.2217 18.5272 27.2311 18.5249 27.2396 18.522L27.2576 18.5537V18.5537ZM27.2269 18.5626C27.2163 18.5653 27.2053 18.5674 27.1945 18.5695L27.1827 18.5348C27.1929 18.5334 27.203 18.5313 27.2124 18.5292L27.2269 18.5626V18.5626ZM27.1943 18.5695C27.1829 18.5714 27.1717 18.5732 27.1599 18.5743L27.1514 18.5388C27.162 18.5377 27.1725 18.5365 27.1825 18.5348L27.1943 18.5695V18.5695Z"
            fill="#484442" />
        <path fill-rule="evenodd" clip-rule="evenodd"
            d="M27.1603 18.5745C27.1483 18.576 27.1362 18.5771 27.1242 18.5779L27.1182 18.5418C27.1296 18.5411 27.1408 18.5403 27.1518 18.5391L27.1603 18.5745Z"
            fill="#4B4746" />
        <path fill-rule="evenodd" clip-rule="evenodd"
            d="M27.1245 18.5776C27.1119 18.5782 27.0994 18.5789 27.0867 18.5791L27.083 18.5423C27.0953 18.5423 27.1069 18.5419 27.1183 18.5415L27.1245 18.5776Z"
            fill="#4B4746" />
        <path fill-rule="evenodd" clip-rule="evenodd"
            d="M27.0866 18.5794C27.0736 18.5796 27.0606 18.5796 27.0476 18.5794L27.0459 18.5425L27.0828 18.5427L27.0866 18.5794V18.5794Z"
            fill="#4C4847" />
        <path fill-rule="evenodd" clip-rule="evenodd"
            d="M27.0473 18.5794L27.0077 18.578L27.0068 18.541C27.0201 18.5418 27.0332 18.5423 27.0458 18.5425L27.0473 18.5794Z"
            fill="#4B4746" />
        <path fill-rule="evenodd" clip-rule="evenodd"
            d="M27.0076 18.578C27.0009 18.5778 26.9941 18.5774 26.9873 18.577V18.54L27.0068 18.5411L27.0076 18.578Z"
            fill="#484442" />
        <path fill-rule="evenodd" clip-rule="evenodd"
            d="M26.9877 18.577L26.9678 18.5755L26.9686 18.5386L26.9877 18.54V18.577Z" fill="#45413F" />
        <path fill-rule="evenodd" clip-rule="evenodd"
            d="M26.9677 18.5752L26.9482 18.5731L26.9503 18.5366L26.9686 18.5383L26.9677 18.5752V18.5752Z"
            fill="#423E3C" />
        <path fill-rule="evenodd" clip-rule="evenodd"
            d="M26.9488 18.5735L26.9297 18.5715L26.9326 18.5352L26.9509 18.5372L26.9488 18.5735V18.5735Z"
            fill="#3D3937" />
        <path fill-rule="evenodd" clip-rule="evenodd"
            d="M26.929 18.5712C26.9165 18.5696 26.904 18.5678 26.8916 18.5658L26.8964 18.5303C26.9078 18.5321 26.9194 18.5336 26.9317 18.5348L26.929 18.5712V18.5712Z"
            fill="#332F2E" />
        <path fill-rule="evenodd" clip-rule="evenodd"
            d="M26.8921 18.5659C26.8802 18.5639 26.8683 18.5616 26.8564 18.5591L26.8641 18.5244C26.8747 18.5265 26.8857 18.5286 26.8969 18.5302L26.8921 18.5659V18.5659Z"
            fill="#272321" />
        <path fill-rule="evenodd" clip-rule="evenodd"
            d="M26.8563 18.559C26.8449 18.5566 26.8335 18.5537 26.8223 18.5505L26.8333 18.5171C26.843 18.5198 26.8536 18.5223 26.864 18.5244L26.8563 18.559V18.559Z"
            fill="#191513" />
        <path fill-rule="evenodd" clip-rule="evenodd"
            d="M26.8222 18.5506C26.8116 18.5473 26.8006 18.5442 26.7906 18.5405L26.8043 18.5087C26.8132 18.5118 26.823 18.5145 26.8332 18.5172L26.8222 18.5506V18.5506ZM26.7904 18.5405C26.7804 18.5369 26.7705 18.5328 26.7607 18.5284L26.7773 18.4985C26.7859 18.5021 26.7948 18.5054 26.8041 18.5085L26.7904 18.5405V18.5405Z"
            fill="black" />
        <path fill-rule="evenodd" clip-rule="evenodd"
            d="M26.7611 18.5281C26.752 18.524 26.743 18.5195 26.7344 18.5144L26.7539 18.4868C26.7616 18.491 26.7697 18.4949 26.7777 18.4984L26.7611 18.5281V18.5281Z"
            fill="black" />
        <path fill-rule="evenodd" clip-rule="evenodd"
            d="M26.7347 18.5145C26.7261 18.5098 26.7178 18.5046 26.71 18.4987L26.7326 18.4736C26.7394 18.4782 26.7463 18.4826 26.7542 18.4867L26.7347 18.5145V18.5145Z"
            fill="black" />
        <path fill-rule="evenodd" clip-rule="evenodd"
            d="M26.7102 18.4988C26.7026 18.4934 26.6954 18.4875 26.6886 18.4811L26.7141 18.4589C26.7197 18.4641 26.7264 18.4691 26.7328 18.4739L26.7102 18.4988V18.4988ZM26.6886 18.4809C26.6819 18.4747 26.6757 18.4681 26.6699 18.461L26.6984 18.4419C26.7032 18.4478 26.7085 18.4533 26.7141 18.4585L26.6886 18.4809V18.4809Z"
            fill="black" />
        <path fill-rule="evenodd" clip-rule="evenodd"
            d="M26.6698 18.4616C26.664 18.4547 26.6589 18.4474 26.6544 18.4396L26.6847 18.4241C26.6889 18.4305 26.6932 18.4367 26.698 18.4425L26.6698 18.4616ZM26.6544 18.4396C26.6499 18.4318 26.6459 18.4237 26.6426 18.4154L26.6745 18.4033C26.6779 18.4106 26.681 18.4172 26.6847 18.4239L26.6544 18.4396V18.4396Z"
            fill="black" />
        <path fill-rule="evenodd" clip-rule="evenodd"
            d="M26.6423 18.4153C26.6386 18.4067 26.6357 18.3977 26.6338 18.3885L26.6674 18.3809C26.6695 18.3887 26.6716 18.3962 26.6743 18.4033L26.6423 18.4153V18.4153Z"
            fill="black" />
        <path fill-rule="evenodd" clip-rule="evenodd"
            d="M26.6342 18.3881C26.632 18.3786 26.6306 18.3689 26.6299 18.3591L26.6643 18.356C26.6652 18.3645 26.6664 18.3728 26.6681 18.3804L26.6342 18.3881Z"
            fill="#120B04" />
        <path fill-rule="evenodd" clip-rule="evenodd"
            d="M26.6296 18.3594C26.6288 18.3488 26.6287 18.3382 26.6292 18.3276L26.6641 18.3293C26.6632 18.3386 26.6636 18.3474 26.6641 18.3561L26.6296 18.3594V18.3594Z"
            fill="#1A1614" />
        <path fill-rule="evenodd" clip-rule="evenodd"
            d="M26.6667 17.6016L26.6289 18.3275L26.6638 18.3292L26.703 17.5674L26.6667 17.6016Z" fill="#1C1715" />
        <path fill-rule="evenodd" clip-rule="evenodd"
            d="M26.9911 18.8965L26.9708 18.8955L26.9665 18.9314C26.9733 18.9316 26.9802 18.9322 26.9868 18.9326L26.9911 18.8965ZM26.9708 18.8953L26.9505 18.894L26.931 18.8926L26.9258 18.9285L26.9461 18.9299L26.9665 18.9314L26.9708 18.8953Z"
            fill="black" />
        <path fill-rule="evenodd" clip-rule="evenodd"
            d="M26.931 18.8927L26.9111 18.891L26.8916 18.8891L26.8855 18.9248L26.9055 18.9267L26.9258 18.9286L26.931 18.8927V18.8927ZM26.8916 18.8891L26.8721 18.887L26.8526 18.8848L26.8457 18.92C26.859 18.9216 26.8723 18.9231 26.8855 18.9246L26.8916 18.8891Z"
            fill="black" />
        <path fill-rule="evenodd" clip-rule="evenodd"
            d="M26.8535 18.8848L26.8344 18.8823L26.8271 18.9178L26.8467 18.9203L26.8535 18.8848Z" fill="black" />
        <path fill-rule="evenodd" clip-rule="evenodd"
            d="M26.8339 18.8823L26.7962 18.877L26.7881 18.9118C26.8007 18.9139 26.8136 18.916 26.8267 18.9176L26.8339 18.8823V18.8823Z"
            fill="black" />
        <path fill-rule="evenodd" clip-rule="evenodd"
            d="M26.7963 18.8768L26.7593 18.8706L26.75 18.9051L26.7882 18.9117L26.7963 18.8768V18.8768Z" fill="black" />
        <path fill-rule="evenodd" clip-rule="evenodd"
            d="M26.7596 18.8708C26.7477 18.8686 26.7358 18.8663 26.7239 18.8638L26.7129 18.8978C26.7251 18.9003 26.7376 18.903 26.7502 18.9053L26.7596 18.8708V18.8708Z"
            fill="black" />
        <path fill-rule="evenodd" clip-rule="evenodd"
            d="M26.7243 18.8634C26.712 18.8609 26.7008 18.8582 26.689 18.8555L26.6768 18.8889C26.689 18.8918 26.7006 18.8947 26.7133 18.8974L26.7243 18.8634Z"
            fill="black" />
        <path fill-rule="evenodd" clip-rule="evenodd"
            d="M26.6884 18.8559L26.6539 18.8472L26.6406 18.88C26.6525 18.8833 26.6641 18.8864 26.6763 18.8893L26.6884 18.8559V18.8559Z"
            fill="black" />
        <path fill-rule="evenodd" clip-rule="evenodd"
            d="M26.6539 18.8468L26.6207 18.8373L26.6062 18.8694C26.6176 18.8729 26.6288 18.8765 26.6406 18.8796L26.6539 18.8468ZM26.6207 18.8373C26.61 18.834 26.5993 18.8305 26.5887 18.8267C26.5887 18.8267 26.5676 18.8194 26.5576 18.8155L26.5398 18.846L26.5721 18.8582C26.5836 18.8622 26.5943 18.8659 26.6062 18.8694L26.6207 18.8373ZM26.5574 18.8155C26.5473 18.8115 26.5373 18.8075 26.5273 18.8032L26.5078 18.8329C26.5184 18.8375 26.5286 18.8418 26.5394 18.846L26.5574 18.8155V18.8155Z"
            fill="black" />
        <path fill-rule="evenodd" clip-rule="evenodd"
            d="M26.5275 18.8031C26.5179 18.7988 26.5083 18.7945 26.4987 18.79L26.4775 18.8187C26.4873 18.8234 26.4979 18.8282 26.5078 18.8328L26.5275 18.8031Z"
            fill="black" />
        <path fill-rule="evenodd" clip-rule="evenodd"
            d="M26.4985 18.79C26.4887 18.7854 26.4798 18.7807 26.4704 18.7759L26.4482 18.8033C26.4576 18.8085 26.4673 18.8136 26.4775 18.8186L26.4985 18.79Z"
            fill="black" />
        <path fill-rule="evenodd" clip-rule="evenodd"
            d="M26.4711 18.7762C26.4622 18.7714 26.4535 18.7664 26.4448 18.7612L26.4209 18.7876C26.4298 18.7932 26.4392 18.7986 26.4489 18.8038L26.4711 18.7762V18.7762Z"
            fill="black" />
        <path fill-rule="evenodd" clip-rule="evenodd"
            d="M26.4442 18.7611C26.4357 18.7559 26.4273 18.7506 26.4191 18.7451L26.3936 18.7702L26.4203 18.7875L26.4442 18.7611Z"
            fill="black" />
        <path fill-rule="evenodd" clip-rule="evenodd"
            d="M26.4198 18.745C26.4117 18.7396 26.404 18.7338 26.3963 18.728L26.3691 18.7519C26.3772 18.7583 26.3857 18.7643 26.3943 18.7702L26.4198 18.745Z"
            fill="black" />
        <path fill-rule="evenodd" clip-rule="evenodd"
            d="M26.3955 18.7281C26.3879 18.7224 26.3805 18.7164 26.3733 18.7102L26.3449 18.7326C26.3526 18.7393 26.3602 18.7457 26.3683 18.7519L26.3955 18.7281V18.7281ZM26.3731 18.71C26.3658 18.7038 26.359 18.6974 26.3519 18.6909L26.3223 18.7119C26.3295 18.7189 26.3368 18.7258 26.3445 18.7324L26.3731 18.71Z"
            fill="black" />
        <path fill-rule="evenodd" clip-rule="evenodd"
            d="M26.353 18.691C26.3461 18.6846 26.3401 18.678 26.3334 18.6709L26.3027 18.6904C26.3092 18.6979 26.316 18.7049 26.3235 18.712L26.353 18.691Z"
            fill="black" />
        <path fill-rule="evenodd" clip-rule="evenodd"
            d="M26.333 18.6709C26.327 18.664 26.3212 18.657 26.3156 18.6499L26.2832 18.6677C26.2892 18.6756 26.2959 18.6831 26.3023 18.6904L26.333 18.6709V18.6709Z"
            fill="#130D07" />
        <path fill-rule="evenodd" clip-rule="evenodd"
            d="M26.316 18.6501C26.3104 18.6429 26.3046 18.6356 26.2998 18.6279L26.2666 18.6443C26.2718 18.6524 26.278 18.6603 26.2836 18.668L26.316 18.6501Z"
            fill="#211D1C" />
        <path fill-rule="evenodd" clip-rule="evenodd"
            d="M26.2995 18.6277C26.2943 18.6203 26.2894 18.6125 26.285 18.6045L26.251 18.6192C26.2557 18.6277 26.2607 18.636 26.2663 18.6441L26.2995 18.6277V18.6277Z"
            fill="#2C2826" />
        <path fill-rule="evenodd" clip-rule="evenodd"
            d="M26.2852 18.6044C26.2809 18.5964 26.2766 18.5883 26.2726 18.5801L26.2373 18.5927C26.2415 18.6017 26.2458 18.6104 26.251 18.6189L26.2852 18.6044V18.6044Z"
            fill="#35312F" />
        <path fill-rule="evenodd" clip-rule="evenodd"
            d="M26.2727 18.5805C26.2685 18.5722 26.265 18.5637 26.2613 18.5552L26.2256 18.566C26.2289 18.5751 26.2328 18.5844 26.2374 18.5932L26.2727 18.5805Z"
            fill="#403C3A" />
        <path fill-rule="evenodd" clip-rule="evenodd"
            d="M26.2607 18.5549C26.2574 18.5462 26.2547 18.5372 26.2518 18.5283L26.2148 18.5372C26.2177 18.5468 26.2213 18.5563 26.225 18.5657L26.2607 18.5549Z"
            fill="#484442" />
        <path fill-rule="evenodd" clip-rule="evenodd"
            d="M26.2521 18.5281C26.2492 18.519 26.2468 18.5098 26.2448 18.5005L26.207 18.5073C26.2095 18.5173 26.2122 18.5273 26.2151 18.537L26.2521 18.5281Z"
            fill="#524E4D" />
        <path fill-rule="evenodd" clip-rule="evenodd"
            d="M26.2445 18.5005C26.2423 18.491 26.2405 18.4814 26.2389 18.4717L26.2012 18.4765C26.2028 18.487 26.2049 18.4974 26.2068 18.5074L26.2445 18.5005Z"
            fill="#5A5655" />
        <path fill-rule="evenodd" clip-rule="evenodd"
            d="M26.2388 18.4718C26.2374 18.4618 26.2363 18.4519 26.2354 18.4419L26.1973 18.4444C26.1981 18.4554 26.1993 18.466 26.201 18.4765L26.2388 18.4718Z"
            fill="#605D5C" />
        <path fill-rule="evenodd" clip-rule="evenodd"
            d="M26.2361 18.4418C26.2353 18.4316 26.2349 18.421 26.2345 18.4106L26.1963 18.4109C26.1967 18.4223 26.1971 18.4333 26.1979 18.4443L26.2361 18.4418Z"
            fill="#666362" />
        <path fill-rule="evenodd" clip-rule="evenodd"
            d="M26.2345 18.4106C26.2345 18.4 26.2349 18.3891 26.2353 18.3783L26.1971 18.376C26.1967 18.3878 26.1963 18.3994 26.1963 18.4108L26.2345 18.4106Z"
            fill="#6A6767" />
        <path fill-rule="evenodd" clip-rule="evenodd"
            d="M25.8863 17.5612L26.667 17.6015L26.7033 17.5673L25.7842 17.5195L25.8863 17.5612V17.5612Z"
            fill="#363230" />
        <path fill-rule="evenodd" clip-rule="evenodd"
            d="M26.2352 18.378L26.2601 17.8999L26.2211 17.9157L26.1973 18.3757L26.2352 18.378V18.378Z" fill="#6E6B6B" />
        <path fill-rule="evenodd" clip-rule="evenodd"
            d="M26.26 17.8999L25.8863 17.5612L25.7842 17.5195L26.221 17.9157L26.26 17.8999V17.8999Z" fill="#2F2B29" />
        <path fill-rule="evenodd" clip-rule="evenodd"
            d="M26.2595 17.8999L25.8857 17.561L26.6664 17.6013L26.6286 18.3272C26.6197 18.5032 26.7916 18.5665 27.0076 18.5777C27.2228 18.5889 27.4004 18.5436 27.4097 18.3677L27.4475 17.6418L27.8378 17.6619L27.7966 18.4585C27.7783 18.8105 27.4224 18.9184 26.9912 18.896C26.56 18.8738 26.2167 18.7298 26.2348 18.3776L26.2595 17.8999V17.8999Z"
            fill="#A6A8AA" />
        <path fill-rule="evenodd" clip-rule="evenodd"
            d="M29.587 18.2184C29.5887 18.2038 29.588 18.1891 29.585 18.1748L29.5449 18.181C29.547 18.1914 29.5478 18.2026 29.5466 18.2146L29.587 18.2184V18.2184Z"
            fill="#AAADB0" />
        <path fill-rule="evenodd" clip-rule="evenodd"
            d="M29.5844 18.1749C29.5821 18.162 29.5777 18.1496 29.5711 18.1382L29.5342 18.1529C29.5389 18.1618 29.5423 18.1713 29.5443 18.1811L29.5844 18.1749V18.1749Z"
            fill="#929192" />
        <path fill-rule="evenodd" clip-rule="evenodd"
            d="M29.5715 18.1385C29.5659 18.1274 29.5587 18.1172 29.55 18.1084L29.5176 18.13C29.5242 18.137 29.5299 18.1448 29.5346 18.1532L29.5715 18.1385V18.1385Z"
            fill="#5E5A59" />
        <path fill-rule="evenodd" clip-rule="evenodd"
            d="M29.5505 18.1081C29.5421 18.0992 29.5328 18.0911 29.5229 18.084L29.4961 18.111C29.5039 18.1165 29.5112 18.1227 29.5179 18.1294L29.5505 18.1081Z"
            fill="#383432" />
        <path fill-rule="evenodd" clip-rule="evenodd"
            d="M29.5222 18.0845C29.5124 18.0777 29.5021 18.0717 29.4915 18.0664L29.4707 18.0975C29.4788 18.1015 29.4873 18.1062 29.4954 18.1114L29.5222 18.0845V18.0845Z"
            fill="#1F1B19" />
        <path fill-rule="evenodd" clip-rule="evenodd"
            d="M29.4914 18.0663C29.4813 18.0613 29.4709 18.057 29.4603 18.0532L29.4453 18.0873C29.4541 18.09 29.4626 18.0934 29.4708 18.0974L29.4914 18.0663Z"
            fill="#090000" />
        <path fill-rule="evenodd" clip-rule="evenodd"
            d="M29.4599 18.0532C29.4504 18.05 29.4408 18.0472 29.4311 18.0449L29.4209 18.0806C29.4282 18.0823 29.4363 18.0844 29.4448 18.0873L29.4599 18.0532V18.0532Z"
            fill="black" />
        <path fill-rule="evenodd" clip-rule="evenodd"
            d="M29.4315 18.0447C29.4238 18.0429 29.416 18.0415 29.4081 18.0405L29.4004 18.077C29.4075 18.0777 29.4146 18.0788 29.4216 18.0804L29.4315 18.0447V18.0447Z"
            fill="black" />
        <path fill-rule="evenodd" clip-rule="evenodd"
            d="M29.5873 18.2186C29.5866 18.2265 29.5853 18.2343 29.5836 18.242L29.5439 18.2329C29.5452 18.2269 29.5462 18.2209 29.5469 18.2148L29.5873 18.2186V18.2186Z"
            fill="#AEB0B2" />
        <path fill-rule="evenodd" clip-rule="evenodd"
            d="M29.5835 18.2418C29.5815 18.2493 29.5792 18.2562 29.5767 18.2626C29.5767 18.2626 29.5711 18.2752 29.5674 18.2811L29.5312 18.2628C29.5342 18.2584 29.5381 18.2489 29.5381 18.2489C29.5405 18.2438 29.5424 18.2384 29.5437 18.2329L29.5835 18.2418V18.2418Z"
            fill="#B0B2B4" />
        <path fill-rule="evenodd" clip-rule="evenodd"
            d="M29.5675 18.281C29.5641 18.2865 29.5603 18.2918 29.5561 18.2967L29.5225 18.2749C29.5258 18.2712 29.5285 18.2671 29.5314 18.2627L29.5675 18.281V18.281Z"
            fill="#ACAEB0" />
        <path fill-rule="evenodd" clip-rule="evenodd"
            d="M29.5552 18.2969C29.5472 18.3066 29.538 18.3151 29.5276 18.3222L29.5 18.2944C29.5081 18.289 29.5154 18.2825 29.5216 18.2749L29.5552 18.2969V18.2969Z"
            fill="#A8AAAC" />
        <path fill-rule="evenodd" clip-rule="evenodd"
            d="M29.5283 18.3222C29.5182 18.3291 29.5075 18.335 29.4963 18.3399L29.4756 18.3081C29.4844 18.3045 29.4928 18.2999 29.5007 18.2944L29.5283 18.3222V18.3222Z"
            fill="#858384" />
        <path fill-rule="evenodd" clip-rule="evenodd"
            d="M29.496 18.3399C29.485 18.3445 29.4736 18.3483 29.4619 18.3511L29.4482 18.3166C29.4575 18.3145 29.4666 18.3117 29.4754 18.3081L29.496 18.3399V18.3399Z"
            fill="#686464" />
        <path fill-rule="evenodd" clip-rule="evenodd"
            d="M29.4623 18.3513C29.4515 18.3541 29.4406 18.3562 29.4296 18.3576L29.4219 18.3215C29.4304 18.3206 29.4393 18.319 29.4486 18.3169L29.4623 18.3513V18.3513Z"
            fill="#585453" />
        <path fill-rule="evenodd" clip-rule="evenodd"
            d="M29.4291 18.3574C29.4194 18.3586 29.4096 18.3592 29.3998 18.3593L29.3965 18.3225C29.4042 18.3225 29.4123 18.3221 29.4212 18.3213L29.4291 18.3574V18.3574Z"
            fill="#514D4B" />
        <path fill-rule="evenodd" clip-rule="evenodd"
            d="M29.4004 18.3593C29.3915 18.3593 29.3838 18.3591 29.3774 18.3585L29.377 18.3218C29.3837 18.3223 29.3905 18.3226 29.3973 18.3226L29.4004 18.3593Z"
            fill="#484442" />
        <path fill-rule="evenodd" clip-rule="evenodd"
            d="M29.4078 18.041L28.8242 17.9839L28.8535 18.0237L29.4001 18.0775L29.4078 18.041V18.041Z" fill="black" />
        <path fill-rule="evenodd" clip-rule="evenodd"
            d="M28.793 18.3015L29.3765 18.3583L29.3761 18.3218L28.8293 18.2681L28.793 18.3015Z" fill="#403C3A" />
        <path fill-rule="evenodd" clip-rule="evenodd"
            d="M28.8241 17.9839L28.793 18.3016L28.8293 18.2682L28.8534 18.0237L28.8241 17.9839V17.9839Z"
            fill="#4C4847" />
        <path fill-rule="evenodd" clip-rule="evenodd"
            d="M29.9276 18.7554L29.8896 19.1434L29.9181 19.1826L29.9598 18.7583L29.9276 18.7554V18.7554Z"
            fill="#6F6D6C" />
        <path fill-rule="evenodd" clip-rule="evenodd"
            d="M29.8893 19.1434L29.5003 19.1055L29.4561 19.1374L29.9178 19.1827L29.8893 19.1434Z" fill="black" />
        <path fill-rule="evenodd" clip-rule="evenodd"
            d="M29.9827 18.1904C29.9817 18.2013 29.98 18.212 29.9775 18.2226L30.0091 18.2292C30.0116 18.2176 30.0134 18.2058 30.0147 18.1937L29.9827 18.1904V18.1904Z"
            fill="#767474" />
        <path fill-rule="evenodd" clip-rule="evenodd"
            d="M29.9777 18.2227C29.9756 18.2332 29.9726 18.2435 29.9688 18.2536L29.999 18.2633C30.0032 18.2521 30.0063 18.2409 30.0092 18.2291L29.9777 18.2227V18.2227Z"
            fill="#858384" />
        <path fill-rule="evenodd" clip-rule="evenodd"
            d="M29.9687 18.2539C29.9651 18.264 29.9609 18.2738 29.9561 18.2834L29.9849 18.296C29.9905 18.2857 29.9951 18.2747 29.999 18.2637L29.9687 18.2539V18.2539Z"
            fill="#969697" />
        <path fill-rule="evenodd" clip-rule="evenodd"
            d="M29.9562 18.2832C29.9514 18.2927 29.9461 18.302 29.9404 18.311L29.9672 18.3264C29.9737 18.3165 29.9797 18.3062 29.985 18.2957L29.9562 18.2832V18.2832Z"
            fill="#AAACAE" />
        <path fill-rule="evenodd" clip-rule="evenodd"
            d="M29.94 18.311C29.934 18.32 29.9276 18.3287 29.9209 18.3372L29.9456 18.3548C29.9533 18.3459 29.9601 18.3364 29.9668 18.3264L29.94 18.311Z"
            fill="#ADAEB0" />
        <path fill-rule="evenodd" clip-rule="evenodd"
            d="M29.9206 18.3374C29.9138 18.3459 29.9065 18.354 29.8984 18.3617L29.9206 18.3814C29.9292 18.3731 29.9377 18.3642 29.9453 18.355L29.9206 18.3374V18.3374Z"
            fill="#B3B4B5" />
        <path fill-rule="evenodd" clip-rule="evenodd"
            d="M29.8987 18.3618C29.8908 18.3696 29.8826 18.377 29.874 18.384L29.8935 18.4052C29.9033 18.3975 29.9126 18.3898 29.9211 18.3813L29.8987 18.3618V18.3618Z"
            fill="#BCBDBE" />
        <path fill-rule="evenodd" clip-rule="evenodd"
            d="M29.8739 18.3838C29.8651 18.3909 29.856 18.3976 29.8467 18.4039L29.8633 18.4259C29.8739 18.4195 29.884 18.4124 29.8934 18.405L29.8739 18.3838V18.3838Z"
            fill="#C8C8C9" />
        <path fill-rule="evenodd" clip-rule="evenodd"
            d="M29.8465 18.4038C29.8368 18.4102 29.8267 18.4162 29.8164 18.4217L29.8305 18.4439C29.8415 18.4385 29.8523 18.4322 29.8629 18.4258L29.8465 18.4038V18.4038Z"
            fill="#D4D4D5" />
        <path fill-rule="evenodd" clip-rule="evenodd"
            d="M29.8167 18.4219C29.8065 18.4273 29.7959 18.4325 29.7852 18.4372L29.7962 18.4592C29.808 18.4548 29.8196 18.4498 29.831 18.4443L29.8167 18.4219V18.4219Z"
            fill="#DAD9DB" />
        <path fill-rule="evenodd" clip-rule="evenodd"
            d="M29.7856 18.437C29.7745 18.4417 29.7633 18.446 29.752 18.4499L29.76 18.4704C29.7724 18.4672 29.7846 18.4634 29.7966 18.459L29.7856 18.437Z"
            fill="#C1C1C3" />
        <path fill-rule="evenodd" clip-rule="evenodd"
            d="M29.7511 18.4502C29.7395 18.454 29.7277 18.4573 29.7158 18.4602L29.721 18.4786C29.7339 18.4768 29.7465 18.4741 29.7592 18.4707L29.7511 18.4502Z"
            fill="#7D7C7C" />
        <path fill-rule="evenodd" clip-rule="evenodd"
            d="M29.7165 18.46L29.6982 18.4639L29.702 18.4809C29.7086 18.4803 29.7153 18.4795 29.7219 18.4784L29.7165 18.46V18.46Z"
            fill="#383432" />
        <path fill-rule="evenodd" clip-rule="evenodd"
            d="M29.6984 18.4639L29.6797 18.467L29.6822 18.4825C29.6888 18.4822 29.6955 18.4817 29.7021 18.4809L29.6984 18.4639V18.4639Z"
            fill="black" />
        <path fill-rule="evenodd" clip-rule="evenodd"
            d="M29.6788 18.4668C29.6726 18.4678 29.6664 18.4687 29.6602 18.4693L29.661 18.4826C29.6678 18.4828 29.6747 18.4826 29.6813 18.4822L29.6788 18.4668Z"
            fill="#393533" />
        <path fill-rule="evenodd" clip-rule="evenodd"
            d="M29.6611 18.4697L29.6416 18.4716V18.4828C29.6484 18.483 29.6553 18.4834 29.6619 18.4832L29.6611 18.4697Z"
            fill="#ABACAE" />
        <path fill-rule="evenodd" clip-rule="evenodd"
            d="M29.6409 18.4712L29.6214 18.472L29.6201 18.4807C29.627 18.4814 29.6338 18.482 29.6409 18.4822V18.4712V18.4712Z"
            fill="#D4D4D5" />
        <path fill-rule="evenodd" clip-rule="evenodd"
            d="M29.6216 18.4722L29.6021 18.4724L29.5996 18.4784L29.6204 18.4811L29.6216 18.4722Z" fill="#C0C0C2" />
        <path fill-rule="evenodd" clip-rule="evenodd"
            d="M29.6023 18.4725L29.5824 18.4717L29.5791 18.4746L29.5999 18.4785L29.6023 18.4725V18.4725Z"
            fill="#433F3D" />
        <path fill-rule="evenodd" clip-rule="evenodd"
            d="M29.5821 18.4716C29.5757 18.4712 29.5688 18.4708 29.5618 18.4699L29.5576 18.4697C29.5649 18.4716 29.5717 18.4733 29.5788 18.4745L29.5821 18.4716V18.4716Z"
            fill="#2E2A28" />
        <path fill-rule="evenodd" clip-rule="evenodd"
            d="M29.9277 18.7551C29.9286 18.7441 29.929 18.7335 29.9286 18.7231L29.9605 18.7217C29.9611 18.7338 29.9608 18.7459 29.9597 18.758L29.9277 18.7551Z"
            fill="#6E6B6B" />
        <path fill-rule="evenodd" clip-rule="evenodd"
            d="M29.9277 18.7235C29.9274 18.7135 29.9264 18.7035 29.9248 18.6936L29.9563 18.688C29.958 18.699 29.9593 18.7102 29.9597 18.722L29.9277 18.7235V18.7235Z"
            fill="#686464" />
        <path fill-rule="evenodd" clip-rule="evenodd"
            d="M29.9258 18.6938C29.9241 18.6843 29.9218 18.675 29.9189 18.6658L29.9492 18.6562C29.9526 18.6666 29.9553 18.6772 29.9573 18.688L29.9258 18.6938Z"
            fill="#5F5B5A" />
        <path fill-rule="evenodd" clip-rule="evenodd"
            d="M29.9182 18.6658C29.9149 18.6568 29.9118 18.6481 29.9072 18.6398L29.9361 18.627C29.9408 18.6363 29.945 18.646 29.9487 18.6562L29.9182 18.6658V18.6658Z"
            fill="#5A5655" />
        <path fill-rule="evenodd" clip-rule="evenodd"
            d="M29.9077 18.6395C29.9035 18.6311 29.8988 18.6231 29.8936 18.6154L29.9203 18.5996C29.9265 18.6081 29.932 18.6171 29.9365 18.6266L29.9077 18.6395V18.6395Z"
            fill="#585453" />
        <path fill-rule="evenodd" clip-rule="evenodd"
            d="M29.8934 18.6157C29.8881 18.6078 29.8823 18.6004 29.876 18.5935L29.9003 18.5752C29.9075 18.5829 29.9142 18.5912 29.9202 18.5999L29.8934 18.6157Z"
            fill="#5E5A59" />
        <path fill-rule="evenodd" clip-rule="evenodd"
            d="M29.8762 18.5932C29.8697 18.5861 29.8627 18.5793 29.8555 18.5729L29.8773 18.5527C29.8854 18.5598 29.893 18.5671 29.9003 18.5747L29.8762 18.5932V18.5932Z"
            fill="#6B6968" />
        <path fill-rule="evenodd" clip-rule="evenodd"
            d="M29.8555 18.5733C29.8481 18.5667 29.8402 18.5605 29.832 18.5549L29.8511 18.5337C29.8605 18.5399 29.869 18.5463 29.8775 18.5532L29.8555 18.5733V18.5733Z"
            fill="#898889" />
        <path fill-rule="evenodd" clip-rule="evenodd"
            d="M29.832 18.5548C29.8235 18.5488 29.8147 18.5433 29.8057 18.5382L29.8214 18.5166C29.832 18.5218 29.8418 18.5276 29.8511 18.5338L29.832 18.5548Z"
            fill="#ABACAE" />
        <path fill-rule="evenodd" clip-rule="evenodd"
            d="M29.8052 18.5383C29.7958 18.5329 29.7862 18.528 29.7764 18.5235L29.789 18.502C29.8004 18.5063 29.8108 18.5113 29.821 18.5165L29.8052 18.5383V18.5383Z"
            fill="#BEBEC0" />
        <path fill-rule="evenodd" clip-rule="evenodd"
            d="M29.7762 18.5232C29.766 18.5184 29.7556 18.5141 29.7451 18.5101L29.7549 18.4897C29.7667 18.4933 29.7779 18.4974 29.7889 18.5018L29.7762 18.5232V18.5232Z"
            fill="#D5D5D7" />
        <path fill-rule="evenodd" clip-rule="evenodd"
            d="M29.7451 18.5104C29.7342 18.5061 29.7231 18.5023 29.7119 18.4989L29.7183 18.4805C29.731 18.4832 29.743 18.4863 29.7549 18.4898L29.7451 18.5104V18.5104Z"
            fill="#CBCBCD" />
        <path fill-rule="evenodd" clip-rule="evenodd"
            d="M29.7116 18.499C29.7001 18.4954 29.6885 18.4921 29.6768 18.4892L29.6801 18.4736C29.6929 18.4755 29.706 18.4778 29.7183 18.4805L29.7116 18.499Z"
            fill="#72706F" />
        <path fill-rule="evenodd" clip-rule="evenodd"
            d="M29.6776 18.4892C29.6653 18.4863 29.653 18.4836 29.6406 18.4811L29.641 18.4697C29.6543 18.4706 29.6678 18.472 29.6807 18.4737L29.6776 18.4892Z"
            fill="#1D1917" />
        <path fill-rule="evenodd" clip-rule="evenodd"
            d="M29.64 18.4812C29.6337 18.48 29.6273 18.4789 29.6209 18.4779L29.6201 18.4688L29.6405 18.4698L29.64 18.4812Z"
            fill="#9FA0A2" />
        <path fill-rule="evenodd" clip-rule="evenodd"
            d="M29.6212 18.4778L29.6017 18.4747L29.5996 18.4683L29.6204 18.4685L29.6212 18.4778Z" fill="#D4D4D5" />
        <path fill-rule="evenodd" clip-rule="evenodd"
            d="M29.6019 18.4747C29.5954 18.4739 29.5889 18.473 29.5824 18.4722L29.5791 18.4687L29.5999 18.4683L29.6019 18.4747V18.4747Z"
            fill="#BCBDBF" />
        <path fill-rule="evenodd" clip-rule="evenodd"
            d="M29.5821 18.4723L29.5618 18.47L29.5576 18.4698L29.5788 18.4688L29.5821 18.4723V18.4723Z"
            fill="#24201F" />
        <path fill-rule="evenodd" clip-rule="evenodd"
            d="M29.9824 18.1905C29.9837 18.1795 29.9837 18.1687 29.9833 18.1577H30.0152C30.016 18.1698 30.0156 18.1818 30.0144 18.1938L29.9824 18.1905Z"
            fill="#6F6D6C" />
        <path fill-rule="evenodd" clip-rule="evenodd"
            d="M29.9832 18.158C29.9828 18.1472 29.9816 18.1364 29.9795 18.1258L30.0106 18.1221C30.0131 18.1339 30.0148 18.1457 30.015 18.1578L29.9832 18.158Z"
            fill="#6B6968" />
        <path fill-rule="evenodd" clip-rule="evenodd"
            d="M29.9792 18.1257C29.9772 18.115 29.9743 18.1045 29.9707 18.0942L30.0014 18.0869C30.0052 18.0985 30.0083 18.1099 30.0103 18.1218L29.9792 18.1257V18.1257Z"
            fill="#6B6968" />
        <path fill-rule="evenodd" clip-rule="evenodd"
            d="M29.9712 18.0943C29.9679 18.0838 29.9638 18.0736 29.959 18.0638L29.9882 18.0532C29.9934 18.0642 29.9984 18.0756 30.0019 18.0873L29.9712 18.0943V18.0943Z"
            fill="#696665" />
        <path fill-rule="evenodd" clip-rule="evenodd"
            d="M29.959 18.0634C29.9539 18.0533 29.9483 18.0435 29.9424 18.0339L29.97 18.02C29.9764 18.0308 29.9828 18.0416 29.9882 18.053L29.959 18.0634V18.0634Z"
            fill="#656261" />
        <path fill-rule="evenodd" clip-rule="evenodd"
            d="M29.9426 18.0339C29.9362 18.0241 29.9292 18.0147 29.9219 18.0055L29.9474 17.9883C29.9555 17.9987 29.9632 18.0092 29.97 18.0198L29.9426 18.0339Z"
            fill="#5E5A59" />
        <path fill-rule="evenodd" clip-rule="evenodd"
            d="M29.9217 18.0058C29.914 17.9965 29.9059 17.9875 29.8975 17.9788L29.9205 17.9585C29.9298 17.9682 29.9388 17.9782 29.9473 17.9886L29.9217 18.0058Z"
            fill="#514D4B" />
        <path fill-rule="evenodd" clip-rule="evenodd"
            d="M29.8972 17.9785C29.8882 17.9697 29.8788 17.9613 29.8691 17.9532L29.8899 17.9302C29.9009 17.9391 29.9106 17.9486 29.9202 17.9584L29.8972 17.9785V17.9785Z"
            fill="#423E3C" />
        <path fill-rule="evenodd" clip-rule="evenodd"
            d="M29.8694 17.9532C29.8594 17.9447 29.8489 17.9368 29.8379 17.9295L29.8562 17.9038C29.8684 17.9123 29.8796 17.921 29.8902 17.9302L29.8694 17.9532Z"
            fill="#312D2B" />
        <path fill-rule="evenodd" clip-rule="evenodd"
            d="M29.8382 17.9294C29.8271 17.9215 29.8156 17.9142 29.8037 17.9076L29.8191 17.8794C29.8319 17.8871 29.8446 17.8952 29.8564 17.9037L29.8382 17.9294V17.9294Z"
            fill="#1C1816" />
        <path fill-rule="evenodd" clip-rule="evenodd"
            d="M29.8034 17.9078C29.7978 17.9043 29.7912 17.901 29.7852 17.8976L29.7989 17.8682L29.8188 17.8796L29.8034 17.9078V17.9078Z"
            fill="#090000" />
        <path fill-rule="evenodd" clip-rule="evenodd"
            d="M29.7847 17.898C29.7787 17.8946 29.7721 17.8915 29.7656 17.8884L29.7779 17.8579L29.7986 17.8685L29.7847 17.898V17.898Z"
            fill="black" />
        <path fill-rule="evenodd" clip-rule="evenodd"
            d="M29.7663 17.8884C29.7597 17.8852 29.753 17.8822 29.7463 17.8793L29.7573 17.8479L29.7785 17.8579L29.7663 17.8884V17.8884ZM29.7463 17.8793C29.7395 17.8763 29.7326 17.8735 29.7256 17.8708L29.7349 17.8384C29.7426 17.8415 29.7499 17.8444 29.7571 17.8477L29.7463 17.8793Z"
            fill="black" />
        <path fill-rule="evenodd" clip-rule="evenodd"
            d="M29.7257 17.8707C29.7186 17.8679 29.7114 17.8652 29.7041 17.8628L29.7122 17.8296C29.7203 17.8325 29.7276 17.8352 29.7348 17.8383L29.7257 17.8707V17.8707Z"
            fill="black" />
        <path fill-rule="evenodd" clip-rule="evenodd"
            d="M29.7044 17.8629L29.6826 17.8556L29.6895 17.8218C29.6976 17.8243 29.7052 17.827 29.7125 17.8297L29.7044 17.8629Z"
            fill="black" />
        <path fill-rule="evenodd" clip-rule="evenodd"
            d="M29.6824 17.8557C29.675 17.8534 29.6676 17.8512 29.6602 17.8491L29.6653 17.8145L29.6892 17.8217L29.6824 17.8557Z"
            fill="black" />
        <path fill-rule="evenodd" clip-rule="evenodd"
            d="M29.6602 17.8492C29.6524 17.8471 29.6446 17.8452 29.6367 17.8434L29.6411 17.8081L29.6654 17.8145L29.6602 17.8492Z"
            fill="#16110E" />
        <path fill-rule="evenodd" clip-rule="evenodd"
            d="M29.6367 17.8431C29.629 17.8411 29.6212 17.8393 29.6133 17.8377L29.6162 17.8022C29.6247 17.8039 29.6332 17.806 29.6413 17.8078L29.6367 17.8431V17.8431Z"
            fill="#1F1B19" />
        <path fill-rule="evenodd" clip-rule="evenodd"
            d="M29.6131 17.8378C29.6051 17.8362 29.597 17.8347 29.5889 17.8333L29.5905 17.7974L29.6161 17.8023L29.6131 17.8378Z"
            fill="#272321" />
        <path fill-rule="evenodd" clip-rule="evenodd"
            d="M29.5886 17.8333C29.5805 17.8321 29.572 17.8306 29.5635 17.8296L29.5643 17.7935C29.5732 17.7947 29.5817 17.7959 29.5902 17.7976L29.5886 17.8333V17.8333Z"
            fill="#2E2A28" />
        <path fill-rule="evenodd" clip-rule="evenodd"
            d="M29.5636 17.8295L29.5385 17.8264L29.5381 17.79L29.5644 17.7934L29.5636 17.8295V17.8295Z"
            fill="#332E2D" />
        <path fill-rule="evenodd" clip-rule="evenodd"
            d="M29.5003 19.1055L29.531 18.7878L29.4905 18.7837L29.4561 19.1375L29.5003 19.1055Z" fill="#AEB0B2" />
        <path fill-rule="evenodd" clip-rule="evenodd"
            d="M29.5311 18.7877C29.5323 18.777 29.532 18.7661 29.5303 18.7554L29.4902 18.7579C29.4915 18.7662 29.4919 18.7749 29.4906 18.7836L29.5311 18.7877V18.7877Z"
            fill="#AAACAE" />
        <path fill-rule="evenodd" clip-rule="evenodd"
            d="M29.5304 18.755C29.5291 18.7444 29.5264 18.734 29.5224 18.7241L29.4844 18.7335C29.4874 18.7413 29.4895 18.7494 29.4904 18.7577L29.5304 18.755V18.755Z"
            fill="#7D7C7C" />
        <path fill-rule="evenodd" clip-rule="evenodd"
            d="M29.5225 18.7242C29.5183 18.7141 29.5131 18.7044 29.5071 18.6953L29.4727 18.7111C29.4775 18.718 29.4815 18.7254 29.4845 18.7333L29.5225 18.7242V18.7242Z"
            fill="#4E4948" />
        <path fill-rule="evenodd" clip-rule="evenodd"
            d="M29.5063 18.6957C29.5 18.6864 29.4928 18.6777 29.4848 18.6699L29.4551 18.6917C29.4615 18.6975 29.467 18.7042 29.4717 18.7114L29.5063 18.6957V18.6957Z"
            fill="#2C2826" />
        <path fill-rule="evenodd" clip-rule="evenodd"
            d="M29.4856 18.6697C29.4774 18.6615 29.4684 18.6541 29.4588 18.6475L29.4346 18.6746C29.4423 18.6796 29.4495 18.6852 29.4562 18.6915L29.4856 18.6697V18.6697Z"
            fill="#171210" />
        <path fill-rule="evenodd" clip-rule="evenodd"
            d="M29.458 18.6477C29.4481 18.6408 29.4375 18.6348 29.4265 18.6298L29.4078 18.6614C29.4172 18.6653 29.4261 18.6697 29.4338 18.6749L29.458 18.6477ZM29.4263 18.6301C29.4147 18.6248 29.4028 18.6205 29.3906 18.6172L29.3779 18.6518C29.3885 18.6545 29.3987 18.6577 29.4076 18.6616L29.4263 18.6301Z"
            fill="black" />
        <path fill-rule="evenodd" clip-rule="evenodd"
            d="M29.391 18.6169C29.3782 18.6135 29.3652 18.6111 29.352 18.6099L29.3447 18.6458C29.3566 18.6468 29.3673 18.6489 29.3783 18.6514L29.391 18.6169V18.6169Z"
            fill="black" />
        <path fill-rule="evenodd" clip-rule="evenodd"
            d="M29.3523 18.6098L29.1576 18.5909L29.1504 18.6266L29.345 18.6459L29.3523 18.6098ZM29.1576 18.5909L28.7686 18.5527L28.7978 18.5922L29.1504 18.6266L29.1576 18.5909Z"
            fill="black" />
        <path fill-rule="evenodd" clip-rule="evenodd"
            d="M28.7682 18.5527L28.7217 19.029L28.7507 19.0682L28.7974 18.5922L28.7682 18.5527V18.5527Z"
            fill="#4C4847" />
        <path fill-rule="evenodd" clip-rule="evenodd"
            d="M28.0689 17.6782L29.5385 17.8264L29.5377 17.7901L27.9668 17.6313L28.0689 17.6782Z" fill="#35312F" />
        <path fill-rule="evenodd" clip-rule="evenodd"
            d="M28.7225 19.0292L28.3338 18.9912L28.29 19.0234L28.7516 19.0684L28.7225 19.0292Z" fill="black" />
        <path fill-rule="evenodd" clip-rule="evenodd"
            d="M28.3338 18.991L28.4274 18.0337L28.3857 18.0474L28.29 19.0231L28.3338 18.991Z" fill="#A8AAAC" />
        <path fill-rule="evenodd" clip-rule="evenodd"
            d="M28.4273 18.0337L28.0689 17.6782L27.9668 17.6313L28.3856 18.0474L28.4273 18.0337V18.0337Z"
            fill="#484442" />
        <path fill-rule="evenodd" clip-rule="evenodd"
            d="M28.4267 18.0339L28.0684 17.6782L29.538 17.8266C29.8115 17.8548 29.9997 18.0152 29.9823 18.1906C29.9653 18.3659 29.7768 18.4913 29.5621 18.4701C29.7768 18.4913 29.9443 18.5799 29.9273 18.7554L29.8891 19.1435L29.5 19.1055L29.5307 18.788C29.5396 18.7004 29.4593 18.6208 29.3521 18.6102L29.1574 18.5911L28.7683 18.5529L28.7216 19.0292L28.3329 18.991L28.4267 18.0339V18.0339ZM29.3767 18.3585C29.427 18.3634 29.5737 18.351 29.5868 18.2188C29.5994 18.0924 29.4614 18.0461 29.4081 18.041L28.8245 17.9839L28.7934 18.3016L29.3767 18.3585V18.3585Z"
            fill="#A6A8AA" />
        <path fill-rule="evenodd" clip-rule="evenodd"
            d="M30.8477 19.251L31.0135 17.9856L31.0492 17.9536L30.874 19.2911L30.8477 19.251Z" fill="#939394" />
        <path fill-rule="evenodd" clip-rule="evenodd"
            d="M30.4599 19.2002L30.8478 19.2508L30.8741 19.2909L30.4141 19.2307L30.4599 19.2002V19.2002Z"
            fill="black" />
        <path fill-rule="evenodd" clip-rule="evenodd"
            d="M31.0133 17.9853L30.238 17.8838L30.1357 17.834L31.049 17.9533L31.0133 17.9853Z" fill="#34302E" />
        <path fill-rule="evenodd" clip-rule="evenodd"
            d="M30.5842 18.251L30.4599 19.2002L30.4141 19.2307L30.5406 18.263L30.5842 18.251Z" fill="#B5B6B7" />
        <path fill-rule="evenodd" clip-rule="evenodd"
            d="M30.238 17.8838L30.584 18.2509L30.5404 18.2629L30.1357 17.834L30.238 17.8838V17.8838Z" fill="#666362" />
        <path fill-rule="evenodd" clip-rule="evenodd"
            d="M30.2383 17.8838L30.5842 18.2509L30.4599 19.2001L30.8478 19.2507L31.0136 17.9853L30.2383 17.8838Z"
            fill="#A6A8AA" />
    </g>
    <defs>
        <clipPath id="clip0_310_3005">
            <rect width="40" height="40" fill="white" transform="translate(4 4)" />
        </clipPath>
    </defs>
</svg>