<svg width="1em" height="1em" viewBox="0 0 48 48" fill="none" xmlns="http://www.w3.org/2000/svg">
    <path
        d="M24.0005 14.3394C26.6894 14.3394 29.0797 15.4348 30.8228 17.1778C32.6157 18.9207 33.6612 21.3606 33.6612 24.05C33.6612 26.6891 32.6157 29.1291 30.8228 30.8721C29.0798 32.615 26.6894 33.7106 24.0005 33.7106C21.3113 33.7106 18.921 32.6152 17.1284 30.8721C15.3855 29.1291 14.29 26.6892 14.29 24.05C14.29 21.3608 15.3855 18.9208 17.1284 17.1778C18.921 15.4348 21.3113 14.3394 24.0005 14.3394ZM24.0005 14.4885C21.3613 14.4885 18.971 15.584 17.2776 17.2774C15.5347 19.0202 14.4392 21.4106 14.4392 24.0498C14.4392 26.6889 15.5347 29.0793 17.2776 30.7723C18.9709 32.5152 21.3613 33.5611 24.0005 33.5611C26.6396 33.5611 29.0302 32.5154 30.723 30.7723C32.4659 29.0793 33.5118 26.6889 33.5118 24.0498C33.5118 21.4106 32.4659 19.0202 30.723 17.2774C29.0302 15.5842 26.6396 14.4885 24.0005 14.4885Z"
        fill="#C5C5C1" />
    <path
        d="M24.0002 9.20996C27.3864 9.20996 30.5239 10.3551 33.0134 12.2477L34.6565 10.6044L37.545 13.4925L35.9018 15.1857C37.7444 17.6758 38.7898 20.713 38.7898 23.9998C38.7898 32.1666 32.1669 38.8395 24.0001 38.8395C15.8332 38.8395 9.20996 32.1666 9.20996 23.9998C9.21011 15.8332 15.8334 9.20996 24.0002 9.20996ZM24.0002 12.6958C17.7754 12.6958 12.696 17.775 12.696 23.9998C12.696 30.2745 17.7754 35.304 24.0002 35.304C30.225 35.304 35.3041 30.2745 35.3041 23.9998C35.3041 17.775 30.225 12.6958 24.0002 12.6958Z"
        fill="url(#paint0_radial_310_3256)" />
    <path
        d="M24.0004 12.646C27.1378 12.646 29.9762 13.8911 32.0676 15.9825C34.1091 18.0243 35.404 20.8627 35.404 24.0497C35.404 27.1871 34.1092 30.0252 32.0676 32.1169C29.976 34.1584 27.1376 35.4533 24.0004 35.4533C20.863 35.4533 17.975 34.1585 15.9332 32.1169C13.8915 30.025 12.5967 27.1869 12.5967 24.0497C12.5967 20.8627 13.8915 18.0243 15.9332 15.9825C17.975 13.8911 20.863 12.646 24.0004 12.646ZM24.0004 12.7956C20.913 12.7956 18.0745 14.0404 16.0327 16.0822C13.991 18.1236 12.746 20.9125 12.746 24.0499C12.746 27.1373 13.9908 29.9757 16.0327 32.0174C18.0745 34.0092 20.913 35.304 24.0004 35.304C27.0878 35.304 29.9262 34.0092 31.9681 32.0174C34.0094 29.9757 35.2547 27.1373 35.2547 24.0499C35.2547 20.9125 34.0094 18.1236 31.9681 16.0822C29.9262 14.0404 27.0878 12.7956 24.0004 12.7956Z"
        fill="url(#paint1_linear_310_3256)" />
    <path
        d="M24 9.11035C27.3862 9.11035 30.5732 10.2556 33.0633 12.1977L33.0133 12.2477C30.5237 10.3552 27.3862 9.21001 24.0001 9.21001C15.8332 9.21001 9.21001 15.8332 9.21001 23.9998C9.21001 32.1667 15.8332 38.8396 24.0001 38.8396C32.167 38.8396 38.7899 32.1667 38.7899 23.9998C38.7899 20.7132 37.7444 17.6758 35.9018 15.1858L35.9515 15.1358C37.7941 17.6259 38.8896 20.6634 38.8896 23.9998C38.8896 28.133 37.1966 31.8678 34.5074 34.5569C31.8182 37.2461 28.1333 38.8896 24.0001 38.8896C19.9164 38.8896 16.1817 37.2463 13.4928 34.5569C10.8036 31.818 9.11035 28.133 9.11035 23.9998C9.11035 19.9164 10.8036 16.1817 13.4928 13.4925C16.1816 10.8033 19.8666 9.11035 24 9.11035Z"
        fill="url(#paint2_radial_310_3256)" />
    <path
        d="M24.0005 12.7456C30.2253 12.7456 35.3044 17.7752 35.3044 24.05C35.3044 30.2747 30.2253 35.3539 24.0005 35.3539C17.7758 35.3539 12.6963 30.2747 12.6963 24.05C12.6963 17.7751 17.7758 12.7456 24.0005 12.7456ZM24.0005 14.3394C18.6721 14.3394 14.3396 18.6719 14.3396 24.05C14.3396 29.3784 18.6721 33.7105 24.0005 33.7105C29.329 33.7105 33.661 29.3783 33.661 24.05C33.661 18.6717 29.329 14.3394 24.0005 14.3394Z"
        fill="url(#paint3_radial_310_3256)" />
    <path opacity="0.67"
        d="M14.8265 27.064H9.53125C9.66184 27.6861 9.84287 28.2885 10.0492 28.8796H15.6448C15.3132 28.308 15.0366 27.7017 14.8265 27.064Z"
        fill="url(#paint4_linear_310_3256)" />
    <path opacity="0.86"
        d="M33.1806 27.064H38.476C38.3452 27.6861 38.1642 28.2885 37.9579 28.8796H32.3623C32.694 28.308 32.9706 27.7017 33.1806 27.064Z"
        fill="url(#paint5_linear_310_3256)" />
    <path
        d="M38.7401 20.2651C39.0886 21.4604 39.238 22.7052 39.238 24C39.238 25.3448 39.0389 26.6395 38.7401 27.8843H9.30957V27.8344H38.6903C39.0391 26.5896 39.1884 25.2948 39.1884 23.9503C39.1883 22.6555 39.0389 21.4107 38.7401 20.2651Z"
        fill="#1A171B" />
    <path
        d="M9.25985 20.2153H38.7402C39.0391 21.4105 39.1882 22.6553 39.1882 23.95C39.1882 25.2945 39.0391 26.5893 38.6901 27.8341H9.30953C8.96088 26.5893 8.76172 25.2945 8.76172 23.95C8.76172 22.6553 8.96088 21.4105 9.25985 20.2153Z"
        fill="url(#paint6_radial_310_3256)" />
    <path
        d="M35.2543 9.6084L38.541 12.8951L36.1009 15.335L36.2503 15.5342L34.5073 16.9288L33.9594 17.1279L37.545 13.4924L34.6565 10.6044L31.0713 14.1899L31.2208 13.6918L35.2543 9.6084Z"
        fill="url(#paint7_linear_310_3256)" />
    <path d="M31.9678 9.25977C34.8558 10.8035 37.1964 13.1938 38.7899 16.0322V9.25977H31.9678Z"
        fill="url(#paint8_radial_310_3256)" />
    <path d="M31.9678 9.25977C34.8558 10.8035 37.1964 13.1938 38.7899 16.0322" stroke="#B1B0A8" stroke-width="0.3402"
        stroke-linecap="round" />
    <path d="M31.9678 9.25977C34.8062 10.8035 37.1964 13.1938 38.7402 16.0322" stroke="#CBCAC4" stroke-width="0.2361"
        stroke-linecap="round" />
    <path d="M31.918 9.25977C34.8063 10.8035 37.1466 13.1938 38.7404 16.0822" stroke="#E6E6E1" stroke-width="0.1324"
        stroke-linecap="round" />
    <path d="M31.918 9.25977C34.7564 10.8535 37.1466 13.1938 38.6904 16.0822" stroke="white" stroke-width="0.0283"
        stroke-linecap="round" />
    <path
        d="M38.7899 9.11035C38.8399 9.11035 38.8896 9.16003 38.8896 9.25953H31.9678H31.8682C31.8682 9.16003 31.9178 9.11035 31.9678 9.11035H38.7899Z"
        fill="url(#paint9_linear_310_3256)" />
    <path
        d="M38.8894 16.0321C38.8894 16.1318 38.8397 16.1817 38.7898 16.1817L38.7402 16.0821V9.11035C38.7402 9.11035 38.7402 9.11035 38.7898 9.11035C38.8397 9.11035 38.8894 9.16003 38.8894 9.25953V16.0321Z"
        fill="url(#paint10_linear_310_3256)" />
    <path
        d="M9.31356 20.2729C9.01474 21.4682 8.81543 22.713 8.81543 24.0078C8.81543 24.1149 8.85231 24.7494 8.8549 24.8558L8.9413 25.8176C8.93992 25.7399 8.90213 24.1722 8.90213 24.0942C8.90213 22.7994 9.11791 21.5985 9.41672 20.4032L19.849 20.3593L24.3517 20.2729H9.31356V20.2729Z"
        fill="url(#paint11_linear_310_3256)" />
    <path
        d="M34.6573 25.8471C33.3371 25.8471 32.2628 25.0409 32.2628 24.0499C32.2628 23.0587 33.3371 22.2524 34.6573 22.2524C36.0055 22.2524 37.1024 23.0588 37.1024 24.0499C37.1022 25.0409 36.0054 25.8471 34.6573 25.8471ZM34.6573 22.7597C34.1697 22.7597 33.8158 23.3023 33.8158 24.0499C33.8158 24.757 34.1776 25.2902 34.6573 25.2902C35.1138 25.2902 35.4993 24.7222 35.4993 24.0499C35.4993 23.3385 35.1216 22.7597 34.6573 22.7597ZM19.519 25.8471C18.1985 25.8471 17.1242 25.0409 17.1242 24.0499C17.1242 23.1026 18.2209 22.3024 19.519 22.3024C20.867 22.3024 21.9635 23.0864 21.9635 24.0499C21.9635 25.0409 20.867 25.8471 19.519 25.8471ZM19.519 22.8092C19.039 22.8092 18.6769 23.3426 18.6769 24.0499C18.6769 24.757 19.039 25.2902 19.519 25.2902C19.9755 25.2902 20.3611 24.7222 20.3611 24.0499C20.3612 23.3775 19.9755 22.8092 19.519 22.8092ZM28.383 25.7475L26.8354 22.8569L26.0427 22.8594L26.0382 22.4068L29.4291 22.4022L29.4337 22.8548L28.5823 22.8594L29.7815 24.8943L30.8191 22.8528L30.2256 22.8594L30.221 22.4068L32.566 22.4022L32.5706 22.8548L31.7692 22.8594L30.2283 25.7476H28.383V25.7475ZM22.1582 25.7475L22.1537 25.1951L22.9549 25.1905L22.9503 22.8548L22.1582 22.8594L22.1537 22.4068L25.2956 22.4022L25.3002 22.8548L24.4985 22.8594L24.5031 25.1952L25.3451 25.1907C25.6174 25.1907 26.3353 25.0125 26.3863 24.1991L26.8887 24.1948L26.8933 25.7476H22.1582V25.7475ZM13.2444 25.7475L11.6967 22.8569L10.904 22.8594L10.8994 22.4068L14.2902 22.4022L14.2948 22.8548L13.4436 22.8594L14.6427 24.8943L15.7302 22.8527L15.0868 22.8594L15.0823 22.4068L17.4276 22.4022L17.4321 22.8548L16.6306 22.8594L15.0897 25.7476H13.2444V25.7475Z"
        fill="white" />
    <path
        d="M34.657 22.2569C36.0019 22.2569 37.0975 23.0538 37.0975 24.0499C37.0975 25.0457 36.002 25.8425 34.657 25.8425C33.3626 25.8425 32.267 25.0457 32.267 24.0499C32.267 23.0538 33.3625 22.2569 34.657 22.2569ZM34.657 25.2946C35.1051 25.2946 35.5038 24.7468 35.5038 24.0498C35.5038 23.3028 35.1053 22.755 34.657 22.755C34.1593 22.755 33.8108 23.3028 33.8108 24.0498C33.8108 24.7468 34.1593 25.2946 34.657 25.2946ZM19.5187 22.3068C20.8631 22.3068 21.9586 23.1036 21.9586 24.0498C21.9586 25.0456 20.8631 25.8424 19.5187 25.8424C18.2239 25.8424 17.1283 25.0456 17.1283 24.0498C17.1284 23.1035 18.2239 22.3068 19.5187 22.3068ZM19.5187 25.2946C19.9668 25.2946 20.3653 24.7468 20.3653 24.0498C20.3653 23.3528 19.9668 22.8045 19.5187 22.8045C19.0206 22.8045 18.6721 23.3528 18.6721 24.0498C18.6721 24.7468 19.0206 25.2946 19.5187 25.2946ZM32.5655 22.4065V22.8545H31.7687L30.2251 25.7426H28.3825L26.8389 22.8545H26.0423V22.4065H29.4286V22.8545H28.5818L29.7771 24.8962L30.8226 22.8545H30.2251V22.4065H32.5655ZM25.2953 22.4065V22.8545H24.4983V25.1948C24.4983 25.1948 25.0462 25.1948 25.3451 25.1948C25.6439 25.1948 26.3409 24.9959 26.3909 24.1989C26.7891 24.1989 26.8887 24.1989 26.8887 24.1989V25.7426H22.9546H22.1579V25.1948H22.9546V22.8545H22.1579V22.4065H25.2953ZM17.4273 22.4065V22.8545H16.6303L15.0867 25.7426H13.2441L11.7005 22.8545H10.9037V22.4065H14.29V22.8545H13.4434L14.6385 24.8962L15.734 22.8545H15.0865V22.4065H17.4273ZM34.657 22.2476C33.3342 22.2476 32.258 23.0561 32.258 24.0498C32.258 25.0433 33.3343 25.8514 34.657 25.8514C36.0077 25.8514 37.1065 25.0431 37.1065 24.0498C37.1065 23.0561 36.0077 22.2476 34.657 22.2476ZM34.657 25.2856C34.1797 25.2856 33.8199 24.7544 33.8199 24.0499C33.8199 23.3049 34.1721 22.7643 34.657 22.7643C35.1188 22.7643 35.4946 23.341 35.4946 24.0499C35.4946 24.7196 35.1109 25.2856 34.657 25.2856ZM19.5187 22.2977C18.218 22.2977 17.1191 23.1001 17.1191 24.0499C17.1191 25.0434 18.1956 25.8515 19.5187 25.8515C20.8691 25.8515 21.9678 25.0433 21.9678 24.0499C21.9679 23.0837 20.8692 22.2977 19.5187 22.2977ZM19.5187 25.2856C19.0413 25.2856 18.6812 24.7544 18.6812 24.0499C18.6812 23.3452 19.0413 22.8138 19.5187 22.8138C19.9726 22.8138 20.3562 23.3799 20.3562 24.0499C20.3562 24.7196 19.9726 25.2856 19.5187 25.2856ZM32.5747 22.3973H32.5655H30.2253H30.2161V22.4065V22.8545V22.8636H30.2253H30.8078L29.7765 24.8772L28.5978 22.8636H29.4286H29.4378V22.8545V22.4065V22.3973H29.4286H26.0423H26.0331V22.4065V22.8545V22.8636H26.0423H26.8334L28.3745 25.7468L28.377 25.7516H28.3825H30.2251H30.2306L30.2332 25.7468L31.7742 22.8636H32.5654H32.5745V22.8545V22.4065V22.3973H32.5747ZM25.3044 22.3973H25.2953H22.1579H22.1488V22.4065V22.8545V22.8636H22.1579H22.9454V25.1858H22.1579H22.1488V25.1949V25.7427V25.7519H22.1579H22.9546H26.8886H26.8977V25.7427V24.1991V24.19H26.8886H26.3908H26.3821L26.3816 24.1985C26.3307 25.0084 25.6161 25.1858 25.3448 25.1858H24.5072V22.8636H25.2951H25.3043V22.8545V22.4065V22.3973H25.3044ZM17.4364 22.3973H17.4273H15.0865H15.0774V22.4065V22.8545V22.8636H15.0865H15.7186L14.6381 24.8777L13.4593 22.8638H14.29H14.2992V22.8546V22.4066V22.3975H14.29H10.9037H10.8945V22.4066V22.8546V22.8638H10.9037H11.6948L13.236 25.747L13.2386 25.7517H13.2441H15.0867H15.0922L15.0948 25.747L16.6358 22.8636H17.4273H17.4364V22.8545V22.4065V22.3973V22.3973Z"
        fill="#1D2D28" />
    <defs>
        <radialGradient id="paint0_radial_310_3256" cx="0" cy="0" r="1" gradientUnits="userSpaceOnUse"
            gradientTransform="translate(13.4253 21.0826) scale(30.8921)">
            <stop stop-color="white" />
            <stop offset="0.0469" stop-color="#FCFCFB" />
            <stop offset="0.2247" stop-color="#FAFAF9" />
            <stop offset="0.3719" stop-color="#B9B9B8" />
            <stop offset="0.4972" stop-color="#888887" />
            <stop offset="0.5923" stop-color="#6A6A69" />
            <stop offset="0.6461" stop-color="#5F5F5E" />
            <stop offset="0.7275" stop-color="#555554" />
            <stop offset="0.8673" stop-color="#3A3939" />
            <stop offset="1" stop-color="#1B1919" />
        </radialGradient>
        <linearGradient id="paint1_linear_310_3256" x1="18.163" y1="22.0349" x2="29.2388" y2="25.8486"
            gradientUnits="userSpaceOnUse">
            <stop stop-color="#E2E2DC" />
            <stop offset="1" stop-color="white" />
        </linearGradient>
        <radialGradient id="paint2_radial_310_3256" cx="0" cy="0" r="1" gradientUnits="userSpaceOnUse"
            gradientTransform="translate(32.7906 33.5322) scale(33.903 33.9029)">
            <stop stop-color="#C5C6C2" />
            <stop offset="1" stop-color="#868680" />
        </radialGradient>
        <radialGradient id="paint3_radial_310_3256" cx="0" cy="0" r="1" gradientUnits="userSpaceOnUse"
            gradientTransform="translate(29.3335 29.3829) scale(23.8081 23.8081)">
            <stop stop-color="white" />
            <stop offset="0.1986" stop-color="#F2F2F3" />
            <stop offset="0.2978" stop-color="#EAEAEB" />
            <stop offset="0.2992" stop-color="#E9E9EA" />
            <stop offset="0.3715" stop-color="#C3C3C3" />
            <stop offset="0.443" stop-color="#A5A5A5" />
            <stop offset="0.5126" stop-color="#8F8F8F" />
            <stop offset="0.5794" stop-color="#828281" />
            <stop offset="0.6404" stop-color="#7E7E7D" />
            <stop offset="0.7534" stop-color="#545352" />
            <stop offset="0.8551" stop-color="#353333" />
            <stop offset="0.9408" stop-color="#222020" />
            <stop offset="1" stop-color="#1B1919" />
        </radialGradient>
        <linearGradient id="paint4_linear_310_3256" x1="12.588" y1="28.9661" x2="12.588" y2="27.8999"
            gradientUnits="userSpaceOnUse">
            <stop stop-color="white" stop-opacity="0" />
            <stop offset="0.17" stop-color="#FAFAF9" stop-opacity="0" />
            <stop offset="0.427" stop-color="#BBBBB8" stop-opacity="0.1" />
            <stop offset="0.5232" stop-color="#8F8F8C" stop-opacity="0.2" />
            <stop offset="0.6238" stop-color="#686866" stop-opacity="0.3" />
            <stop offset="0.7234" stop-color="#4A4948" stop-opacity="0.6" />
            <stop offset="0.8206" stop-color="#343432" stop-opacity="0.8" />
            <stop offset="0.9141" stop-color="#272625" stop-opacity="0.9" />
            <stop offset="1" stop-color="#232221" />
        </linearGradient>
        <linearGradient id="paint5_linear_310_3256" x1="35.4191" y1="28.9661" x2="35.4191" y2="27.8999"
            gradientUnits="userSpaceOnUse">
            <stop stop-color="white" stop-opacity="0" />
            <stop offset="0.17" stop-color="#FAFAF9" stop-opacity="0" />
            <stop offset="0.427" stop-color="#BBBBB8" stop-opacity="0" />
            <stop offset="0.5232" stop-color="#8F8F8C" stop-opacity="0" />
            <stop offset="0.6238" stop-color="#686866" stop-opacity="0" />
            <stop offset="0.7234" stop-color="#4A4948" stop-opacity="0.25" />
            <stop offset="0.8206" stop-color="#343432" stop-opacity="0.5" />
            <stop offset="0.9141" stop-color="#272625" stop-opacity="0.75" />
            <stop offset="1" stop-color="#232221" />
        </linearGradient>
        <radialGradient id="paint6_radial_310_3256" cx="0" cy="0" r="1" gradientUnits="userSpaceOnUse"
            gradientTransform="translate(10.1409 21.0839) scale(19.2195 19.2195)">
            <stop stop-color="#006AB1" />
            <stop offset="0.0016" stop-color="#006AB1" />
            <stop offset="0.1275" stop-color="#0061A4" />
            <stop offset="0.2416" stop-color="#005E9F" />
            <stop offset="0.5062" stop-color="#00548E" />
            <stop offset="0.8371" stop-color="#004374" />
            <stop offset="0.9588" stop-color="#004173" />
            <stop offset="1" stop-color="#003B6F" />
        </radialGradient>
        <linearGradient id="paint7_linear_310_3256" x1="38.2495" y1="17.0107" x2="30.7593" y2="9.52058"
            gradientUnits="userSpaceOnUse">
            <stop offset="0.0056" stop-color="#212111" />
            <stop offset="0.6461" stop-color="#41403F" />
            <stop offset="0.6508" stop-color="#454443" />
            <stop offset="0.6558" stop-color="#52514F" />
            <stop offset="0.6608" stop-color="#666564" />
            <stop offset="0.6659" stop-color="#838281" />
            <stop offset="0.6711" stop-color="#A9A8A6" />
            <stop offset="0.6762" stop-color="#D6D5D2" />
            <stop offset="0.68" stop-color="#FDFCF9" />
            <stop offset="0.6826" stop-color="#FAF9F6" />
            <stop offset="0.6842" stop-color="#F2F1EE" />
            <stop offset="0.6856" stop-color="#E3E2DF" />
            <stop offset="0.6869" stop-color="#CECECA" />
            <stop offset="0.688" stop-color="#B3B3AF" />
            <stop offset="0.6891" stop-color="#93938E" />
            <stop offset="0.69" stop-color="#70706B" />
            <stop offset="0.6924" stop-color="#6D6D68" />
            <stop offset="0.7145" stop-color="#535250" />
            <stop offset="0.7396" stop-color="#3E3C3D" />
            <stop offset="0.7692" stop-color="#2E2B2D" />
            <stop offset="0.8059" stop-color="#222023" />
            <stop offset="0.8573" stop-color="#1C191D" />
            <stop offset="1" stop-color="#1A171B" />
        </linearGradient>
        <radialGradient id="paint8_radial_310_3256" cx="0" cy="0" r="1" gradientUnits="userSpaceOnUse"
            gradientTransform="translate(37.6334 10.0175) scale(8.03209)">
            <stop stop-color="#555552" />
            <stop offset="1" stop-color="#50504D" />
        </radialGradient>
        <linearGradient id="paint9_linear_310_3256" x1="31.8681" y1="9.185" x2="38.8896" y2="9.185"
            gradientUnits="userSpaceOnUse">
            <stop stop-color="#5D5D5F" />
            <stop offset="0.0852" stop-color="#505051" />
            <stop offset="0.2581" stop-color="#3C3C3C" />
            <stop offset="0.4497" stop-color="#2E2D2D" />
            <stop offset="0.6724" stop-color="#262524" />
            <stop offset="1" stop-color="#232221" />
        </linearGradient>
        <linearGradient id="paint10_linear_310_3256" x1="38.8147" y1="16.1818" x2="38.8147" y2="9.11037"
            gradientUnits="userSpaceOnUse">
            <stop stop-color="#5D5D5F" />
            <stop offset="0.096" stop-color="#555456" />
            <stop offset="0.4584" stop-color="#393939" />
            <stop offset="0.7723" stop-color="#292827" />
            <stop offset="1" stop-color="#232221" />
        </linearGradient>
        <linearGradient id="paint11_linear_310_3256" x1="12.8328" y1="17.8869" x2="17.3288" y2="23.9678"
            gradientUnits="userSpaceOnUse">
            <stop stop-color="white" />
            <stop offset="0.1091" stop-color="#D8E8F3" />
            <stop offset="0.3376" stop-color="#8CBCDC" />
            <stop offset="0.5419" stop-color="#5099C9" />
            <stop offset="0.7143" stop-color="#257FBC" />
            <stop offset="0.8481" stop-color="#0A70B4" />
            <stop offset="0.927" stop-color="#006AB1" />
            <stop offset="0.9288" stop-color="#046BB2" />
            <stop offset="0.9489" stop-color="#2678B8" />
            <stop offset="0.968" stop-color="#3E81BD" />
            <stop offset="0.9856" stop-color="#4D86C0" />
            <stop offset="1" stop-color="#5288C1" />
        </linearGradient>
    </defs>
</svg>